<svg xmlns="http://www.w3.org/2000/svg" viewBox="0 0 100 100" fill="#e33400"><path d="M72.7,73.3C72.7,73.3,72.7,73.3,72.7,73.3c0.1-0.1,0.1-0.1,0.1-0.1l-1.4-2.5l0-8.5c0,0,0,0,0,0l-1-2.6l0.2-3.4l1.8-2.3  c0,0,0,0,0-0.1c0,0,0,0,0-0.1L71,52.8l0.3-1.3c0,0,0,0,0-0.1l-2.1-3.2l-9.8-35.6c0,0,0-0.1-0.1-0.1l-31.9,2.3c0,0-0.1,0-0.1,0.1  c0,0,0,0.1,0,0.1l1.4,1.6l-0.1,69.3c0,0,0,0.1,0.1,0.1l2.1,0.2c0,0,0,0,0.1,0l0.9-0.6c0,0,0,0,0-0.1l1.5-7.6l1.3,7.3l-0.5,1.6  c0,0,0,0,0,0.1l0.4,0.8c0,0,0,0,0.1,0c0,0,0,0,0,0l7.1-2.3c0,0,0.1-0.1,0.1-0.1l-0.5-2.4l0.4-1.9c0,0,0-0.1,0-0.1L38.7,78l0.1-2.1  L72.7,73.3z"/></svg>