<svg xmlns="http://www.w3.org/2000/svg" viewBox="0 0 100 100" fill="#e33400"><path d="M11.744,75.52L60.897,95l27.55-0.433l-2.452-89.43C53.253,5.984,23.737,5.076,23.737,5l-0.471,12.893  c-0.067,0.076-0.109,0.167-0.185,0.236c-0.062,0.056-0.135,0.088-0.192,0.15c-0.105,0.112-0.174,0.253-0.279,0.365  c-0.115,0.123-0.148,0.264-0.198,0.421c-0.05,0.16-0.179,0.291-0.214,0.455c-0.019,0.091-0.006,0.163-0.044,0.249  c-0.022,0.051-0.05,0.098-0.071,0.15c-0.065,0.163-0.115,0.377-0.219,0.518c-0.19,0.258-0.558,0.182-0.845,0.175  c-0.318-0.008-0.59-0.245-0.691-0.529c-0.051-0.142-0.17-0.302-0.33-0.319c-0.049-0.005-0.104,0.02-0.152-0.003  c-0.11-0.053-0.093-0.165-0.094-0.267c-0.001-0.113,0.031-0.267-0.007-0.372c-0.053-0.147-0.186-0.249-0.309-0.327  c-0.073-0.046-0.095-0.06-0.152-0.139c-0.046-0.064-0.083-0.172-0.143-0.217c-0.154-0.117-0.26,0.095-0.418,0.064l0.047,0.047  c-0.141-0.004-0.258,0.049-0.398,0.047c-0.111-0.001-0.221,0-0.332,0c-0.135,0-0.27-0.002-0.405,0  c-0.179,0.002-0.185-0.031-0.315-0.142c-0.194-0.164-0.497-0.206-0.705-0.047c-0.103,0.079-0.184,0.148-0.318,0.179  c-0.069,0.016-0.114,0.021-0.174-0.016c-0.063-0.039-0.084-0.132-0.165-0.138c-0.098,0.138-0.199,0.219-0.35,0.305  c-0.125,0.071-0.286,0.132-0.422,0.181c-0.154,0.055-0.291,0.071-0.447,0.096c-0.155,0.026-0.294,0.167-0.225,0.331  c0.032,0.077,0.077,0.105,0.097,0.194c0.024,0.109,0.036,0.199,0.035,0.31c-0.001,0.161,0.008,0.282-0.058,0.429  c-0.141,0.312-0.254,0.687-0.154,1.031c0.02,0.067,0.049,0.139,0.081,0.201c0.055,0.106,0.091,0.106,0.178,0.172  c0.153,0.116,0.193,0.323,0.28,0.483c0.048,0.087,0.093,0.151,0.16,0.224c0.087,0.095,0.101,0.163,0.152,0.277  c0.038,0.084,0.097,0.118,0.011,0.182c-0.065,0.049-0.202,0.064-0.277,0.1c-0.211,0.101-0.006,0.257-0.04,0.416  c-0.02,0.094-0.094,0.106-0.148,0.183c-0.066,0.094-0.036,0.147-0.008,0.25c0.035,0.128,0.089,0.267,0.107,0.395  c0.021,0.149-0.002,0.32-0.002,0.471c0,0.185-0.005,0.343-0.043,0.521c-0.014,0.065-0.024,0.187-0.007,0.252  c0.025,0.1,0.117,0.154,0.181,0.233c0.175,0.217,0.041,0.366,0.053,0.608c0.012,0.248,0.32,0.333,0.331,0.565l-0.047,0.187  c-0.087,0.099-0.258,0.262-0.255,0.398c0.002,0.06,0.044,0.118,0.057,0.174c0.017,0.079,0.027,0.148,0.047,0.224  c0.023,0.09,0.037,0.277,0.005,0.363c-0.03,0.08-0.116,0.117-0.162,0.186c-0.051,0.076-0.063,0.161-0.068,0.248  c-0.016,0.303,0.178,0.573,0.271,0.854c0.045,0.135,0.08,0.28,0.138,0.409c0.068,0.15,0.174,0.289,0.227,0.446  c0.092,0.277,0.195,0.576,0.246,0.866c0.027,0.154,0.06,0.31,0.057,0.466c-0.003,0.165,0.043,0.309,0.045,0.471  c0.002,0.151,0.062,0.309,0.085,0.459c0.023,0.158-0.01,0.32,0.021,0.477c0.059,0.305,0.036,0.627,0.036,0.939  c-0.003,0.148,0.008,0.335-0.115,0.443c-0.106,0.093-0.293,0.11-0.422,0.142c-0.176,0.043-0.308,0.092-0.345,0.296  c-0.016,0.091-0.012,0.079,0.064,0.125c0.094,0.057,0.163,0.101,0.234,0.191c0.108,0.135,0.122,0.227,0.116,0.399  c-0.003,0.092-0.011,0.099-0.092,0.138c-0.104,0.05-0.158,0.086-0.203,0.197c-0.069,0.17-0.033,0.386-0.033,0.567  c0,0.199,0,0.398,0,0.598c0,0.158,0.019,0.329,0.002,0.485c-0.008,0.075-0.043,0.139-0.051,0.215  c-0.009,0.089,0.002,0.19,0.002,0.279c0,0.148-0.027,0.329-0.002,0.474c0.023,0.135,0.234,0.246,0.33,0.357  c0.106,0.123,0.2,0.258,0.28,0.398c0.102,0.179,0.152,0.354,0.224,0.545c0.12,0.318,0.31,0.567,0.623,0.699  c0.18,0.076,0.367,0.207,0.468,0.375c0.094,0.156,0.105,0.333,0.143,0.504c0.033,0.148,0.082,0.294,0.124,0.442  c0.024,0.083,0.029,0.157,0.069,0.235c0.044,0.086,0.118,0.183,0.13,0.282l0.047,0.047c0.002,0.091,0.075,0.164,0.107,0.246  c0.043,0.107,0.027,0.15-0.014,0.25c-0.034,0.084-0.069,0.15-0.022,0.231c0.04,0.069,0.129,0.131,0.186,0.187  c0.272,0.268,0.205,0.581,0.21,0.935c0.002,0.16,0.07,0.322,0.14,0.466c0.081,0.166,0.199,0.354,0.329,0.488  c0.065,0.066,0.154,0.085,0.224,0.145c0.087,0.075,0.143,0.166,0.234,0.239c0.125,0.1,0.301,0.382,0.479,0.374l0.141,0.094  c0.069,0.075,0.193,0.12,0.28,0.176c0.056,0.036,0.121,0.049,0.168,0.102c0.041,0.046,0.053,0.114,0.09,0.163  c0.06,0.079,0.122,0.177,0.21,0.217c0.104,0.047,0.213,0.056,0.312,0.119c0.203,0.127,0.3,0.381,0.356,0.595  c0.035,0.132,0.086,0.217,0.085,0.362c-0.002,0.125-0.004,0.25-0.001,0.375c0.004,0.181-0.03,0.158-0.19,0.188  c-0.12,0.023-0.164,0.071-0.234,0.189c-0.119,0.199-0.289,0.449-0.463,0.609c-0.162,0.149-0.347,0.286-0.518,0.423  c-0.181,0.145-0.422,0.059-0.621,0.183c-0.106,0.066-0.135,0.15-0.219,0.237c-0.083,0.085-0.179,0.145-0.284,0.2  c-0.101,0.053-0.155,0.075-0.27,0.081c-0.178,0.01-0.193,0.161-0.35,0.227c-0.093,0.039-0.22,0.034-0.318,0.065  c-0.117,0.036-0.19,0.111-0.289,0.176c-0.126,0.083-0.271,0.141-0.277,0.316c-0.005,0.126,0.084,0.303,0.111,0.432  c0.032,0.153,0.125,0.466-0.103,0.472c-0.153,0.004-0.22-0.003-0.298,0.14c-0.073,0.133-0.077,0.254-0.172,0.374  c-0.145,0.183-0.367,0.256-0.529,0.432c-0.087,0.095-0.152,0.167-0.085,0.282c0.079,0.137,0.194,0.197,0.24,0.352  c0.063,0.213,0.149,0.486,0.096,0.713c-0.03,0.131-0.176,0.205-0.274,0.281c-0.135,0.106-0.151,0.146-0.151,0.314  c0.001,0.153,0.017,0.287,0.058,0.435c0.04,0.143,0.091,0.237,0.177,0.362c0.147,0.216,0.093,0.509,0.093,0.763l0.047,0.187  c0,0.133,0.029,0.301-0.033,0.423c-0.078,0.152-0.257,0.11-0.388,0.196c-0.166,0.109-0.199,0.198-0.152,0.376  c0.039,0.147,0.111,0.304,0.106,0.457c-0.005,0.151-0.085,0.282-0.13,0.423c-0.038,0.122-0.119,0.303-0.096,0.421  c0.027,0.141,0.113,0.243,0.086,0.4c-0.014,0.084-0.043,0.128-0.118,0.181c-0.111,0.079-0.154,0.077-0.203,0.218  c-0.06,0.175-0.14,0.254-0.308,0.345c-0.065,0.035-0.172,0.045-0.221,0.1c-0.043,0.048-0.063,0.202-0.078,0.267  c-0.042,0.18-0.114,0.348-0.176,0.523c-0.048,0.138-0.143,0.414-0.302,0.452c-0.153,0.037-0.337-0.026-0.494,0.001  c-0.146,0.025-0.466,0.088-0.488,0.279c-0.015,0.135,0.194,0.261,0.227,0.396c0.042,0.176-0.064,0.346-0.125,0.503  c-0.083,0.211-0.223,0.363-0.343,0.554c-0.04,0.064-0.059,0.115-0.048,0.195c0.019,0.135,0.101,0.159,0.221,0.2  c0.142,0.049,0.395,0.179,0.464,0.326c0.043,0.092-0.079,0.161-0.088,0.261c-0.01,0.108,0.088,0.152,0.063,0.28h0.047  c0,0.374,0.023,0.723-0.092,1.082c-0.054,0.168-0.127,0.419-0.233,0.558c-0.065,0.085-0.132,0.146-0.179,0.247  c-0.029,0.062-0.129,0.192-0.101,0.26c0.156,0.026,0.2,0.081,0.279,0.218c0.066,0.115,0.095,0.25,0.134,0.375  c0.045,0.142,0.055,0.266,0.243,0.202c0.137-0.047,0.186-0.139,0.308-0.016c0.06,0.061,0.104,0.151,0.169,0.206  c0.059,0.05,0.11,0.045,0.178,0.065c0.07,0.021,0.103,0.053,0.186,0.034c0.086-0.02,0.122-0.09,0.198-0.13  c0.181-0.097,0.589-0.106,0.759,0.021c0.127,0.095,0.174,0.29,0.215,0.435c0.021,0.073,0.044,0.153,0.049,0.229  c0.004,0.055-0.017,0.119,0,0.172c0.048,0.148,0.224,0.121,0.328,0.207c0.102,0.084,0.124,0.252,0.084,0.376  c-0.046,0.142-0.12,0.195-0.064,0.353c0.053,0.149,0.117,0.259,0.119,0.423c0.003,0.26,0.059,0.582-0.098,0.803  c-0.115,0.162-0.29,0.164-0.467,0.214c-0.171,0.048-0.294,0.207-0.321,0.385c-0.027,0.18-0.051,0.358-0.051,0.541  c0,0.142,0.052,0.383-0.094,0.469v0.094c-0.159,0.185-0.316,0.187-0.539,0.187c-0.067,0-0.142,0.011-0.208,0.002  c-0.103-0.013-0.183-0.08-0.281-0.098c-0.083-0.015-0.175,0.012-0.259,0.004c-0.095-0.009-0.171-0.047-0.257-0.084  c-0.186-0.078-0.499-0.102-0.699-0.054c-0.024,0.175-0.138,0.3-0.206,0.463c-0.033,0.08-0.03,0.164-0.078,0.237  c-0.056,0.085-0.105,0.176-0.165,0.262c-0.124,0.177-0.246,0.34-0.374,0.509c-0.059,0.078-0.125,0.176-0.223,0.203  c-0.116,0.032-0.182-0.006-0.29,0.076c-0.193,0.147-0.097,0.275,0.009,0.446c0.046,0.075,0.091,0.183,0.033,0.257  c-0.052,0.065-0.159,0.087-0.213,0.165c-0.108,0.159-0.01,0.29,0.045,0.444C11.711,75.325,11.756,75.448,11.744,75.52  c-0.016,0.095-0.128,0.168-0.192,0.233L11.744,75.52z"/></svg>