<svg xmlns="http://www.w3.org/2000/svg" viewBox="0 0 100 100" fill="#e33400"><path d="M87.5,28.2c0,0,0-0.1,0-0.1l-1.1-1.8c0,0,0-0.1-0.1-0.1l-9.6,0.2l4.5-5.3c0,0,0,0,0-0.1l0-1.7c0,0,0,0,0-0.1l-1.6-2.5  c0,0-0.1-0.1-0.1-0.1c0,0,0,0,0,0L67,16.9l-54.2-0.2c0,0,0,0,0,0c0,0-0.1,0-0.1,0c0,0,0,0.1,0,0.1l0.9,54.4c0,0,0,0,0,0.1l1.2,1.6  c0,0,0.1,0.1,0.1,0l3.2-0.5l2.1,0.7L20,83.2c0,0,0,0.1,0,0.1c0,0,0,0,0.1,0l45.6,0c0,0,0.1,0,0.1,0c0,0,0-0.1,0-0.1l-0.2-2l1-1  c0,0,0-0.1,0-0.1l-0.2-1.7c0,0,0-0.1,0-0.1l-1.1-0.8l0.7-3c0,0,0-0.1,0-0.1L64.4,73l1-0.4c0,0,0.1,0,0.1-0.1l0.1-0.8  c0,0,0-0.1,0-0.1l-1.2-1l2.4-2c0,0,0,0,0-0.1l0.6-2.8c0,0,0-0.1,0-0.1l-0.8-0.8l3-1.2c0,0,0.1,0,0.1-0.1l0.1-1c0,0,0-0.1,0-0.1  l-1.2-0.8l1.3-0.9c0,0,0,0,0-0.1l0.5-1.4l0.8,0c0,0,0.1,0,0.1,0c0,0,0-0.1,0-0.1l0-1.7l2.7-1c0,0,0.1-0.1,0.1-0.1l-0.3-3.9l0.5-1.9  l1.4-0.1c0.1,0,0.1-0.1,0.1-0.1l0-1.4l2.9-1.9c0,0,0.1-0.1,0-0.1l-0.6-1.8l1.4-0.6c0,0,0,0,0.1-0.1l0.4-1.3l1.2-0.1c0,0,0.1,0,0.1,0  c0,0,0-0.1,0-0.1l-0.5-4l1.5-3.1l1.3-0.3c0,0,0.1,0,0.1-0.1c0,0,0-0.1,0-0.1L83.3,34l0.8-0.7c0,0,0-0.1,0-0.1l-0.8-1.6l2.9-1.6  c0,0,0,0,0,0l0.4-0.6c0,0,0-0.1,0-0.1L86,28.5L87.5,28.2C87.5,28.2,87.5,28.2,87.5,28.2z"/></svg>