<svg xmlns="http://www.w3.org/2000/svg" viewBox="0 0 100 100" fill="#e33400"><path d="M87.6,24c0-0.2-0.1-0.3-0.3-0.3L51,23.6c-0.1,0-0.2,0.1-0.3,0.2l-1,1.8l-0.9-1.8c0-0.1-0.2-0.2-0.3-0.2l-25.4-0.3  c0,0,0,0,0,0c-0.2,0-0.3,0.1-0.3,0.3l-3.4,37.6c0,0.1,0,0.1,0,0.2l2.4,4.6l-9.1,5.4c-0.1,0.1-0.2,0.3-0.1,0.4l2.8,5  c0.1,0.1,0.2,0.2,0.3,0.2c0,0,0.1,0,0.1,0l24.4-7.6c0.1,0,0.1-0.1,0.2-0.1l3.1-4.5l5.1-2.3l9.7,2c0,0,0.1,0,0.1,0l27.2-3.2  c0.1,0,0.3-0.1,0.3-0.3l0.3-3.9l1.3-0.7c0.1-0.1,0.2-0.2,0.2-0.3L87.6,24z"/></svg>