<svg xmlns="http://www.w3.org/2000/svg" viewBox="0 0 100 100" fill="#e33400"><path d="M82.1,60l-3.3-1.5l0-3.1c0,0,0,0,0,0l-1.6-3.2c0,0,0,0,0,0l-2.2-1.3l0-2.1c0,0,0,0,0,0l-1.5-3.3l0.1-0.9c0,0,0-0.1,0-0.1  l-3.6-2.2l-0.1-0.8c0,0,0-0.1,0-0.1l-1-0.6l0-0.9c0,0,0-0.1,0-0.1L67.4,39l0.1-1.7c0,0,0-0.1,0-0.1l-3.7-3c0,0,0,0,0,0L62.3,32  c0,0,0,0,0,0l-3.5-2.3l-0.4-1c0,0,0,0,0,0c0,0,0-0.1,0-0.1l-1.9-2.4l-1.2-3c0,0,0,0,0,0l-0.8-1.8c0,0,0-0.1-0.1-0.1l-1.9-0.1  L48,17.5l1.5-2.6l1.4-0.9c0,0,0,0,0-0.1l0.4-1.5c0,0,0-0.1,0-0.1c0,0,0,0-0.1,0L18,12.5c0,0-0.1,0-0.1,0c0,0,0,0,0,0.1l6.6,38.4  c0,0,0,0,0,0l1.9,3.6L26,56c0,0,0,0.1,0,0.1l1.3,1l-2.1,2.2c0,0,0,0,0,0.1l-0.6,3.6c0,0,0,0,0,0l0.8,2.8l-0.9,8.9c0,0,0,0,0,0l2,5.6  l1.2,1.8c0,0,0,0,0.1,0l36.6,2l0.4,2.3c0,0,0,0,0,0l0.6,0.9c0,0,0,0,0.1,0c0,0,0,0,0,0l1.7-0.2c0,0,0.1,0,0.1-0.1l0.4-3.1  c0,0,0,0,0,0l-0.5-2.7l1-1.3l6.3,1.4c0,0,0.1,0,0.1,0c0,0,0,0,0-0.1l0-4l7-17.2l0.7-0.2C82.2,60.2,82.2,60.2,82.1,60  C82.2,60.1,82.2,60,82.1,60z"/></svg>