<svg xmlns="http://www.w3.org/2000/svg" viewBox="0 0 100 100" fill="#e33400"><path d="M73.2,60.1C73.2,60.1,73.2,60.1,73.2,60.1l-1.2-1l-0.8-1.5c0,0,0,0,0,0l-0.5-0.3c0,0,0,0-0.1,0l-0.8,0.5c0,0,0,0,0,0.1  l0.1,0.4L69.5,59c0,0,0,0,0,0.1l0.3,0.5l-1.4-0.2c0,0,0,0,0,0c-0.5,0.2-0.7,0.2-1,0.2c-0.1,0-0.2,0-0.4,0c-0.1,0-0.4,0-0.7,0.1  c-0.4,0.1-0.9,0.1-1,0.1c-0.1,0-0.2-0.1-0.3-0.1c-0.3-0.1-0.7-0.3-0.9-0.2c-0.3,0.1-1,1-1.1,1.2c-0.4-0.1-2.2-0.5-2.2-0.5  c0,0,0,0,0,0L60,60.5c0,0,0,0,0,0l-0.5,0.6c0,0,0,0,0,0.1l0.2,0.5l-0.1,0.1l-1.2-0.9l0-0.8c0,0,0,0,0,0l-0.6-0.7l0.2-0.5  c0,0,0,0,0-0.1l-0.8-1.3c0,0,0,0,0,0l-0.8-0.4c0,0,0,0-0.1,0l-0.6,0.3c-0.2-0.2-0.8-0.7-0.8-0.7c-0.1-0.1-0.2-0.3-0.3-0.5  c0-0.1,0-0.1-0.1-0.2c0.1-0.2,0.3-1,0.3-1c0-0.3-0.2-0.6-0.3-0.8c-0.1-0.1-0.1-0.2-0.2-0.3c0,0,0,0-0.1,0l-0.4,0  c-0.1-0.2-0.3-0.8-0.3-0.9c-0.1-0.2-0.2-0.3-0.4-0.5c-0.1-0.1-0.3-0.2-0.3-0.4c-0.3-0.6-0.3-1.1-0.4-1.7c0-0.4-0.1-0.8-0.2-1.2  c-0.2-0.6-0.8-0.9-1.3-1.3c-0.1-0.1-0.3-0.2-0.4-0.3c0,0,0,0-0.1,0c0,0,0,0,0,0.1l-0.1,0.5L49.6,49l-0.8,0.3c0,0,0,0,0,0L48.1,50  l-1-0.8c0,0,0,0,0,0l-0.7-0.1l0.4-1.5c0,0,0,0,0-0.1l-0.5-0.7l1.2-1.2c0,0,0-0.1,0-0.1l-0.2-0.4l0.1-0.6c0,0,0-0.1,0-0.1l-0.5-0.1  l0.2-1.1c0,0,0,0,0,0l-0.4-0.5l0.5-0.3c0,0,0,0,0-0.1L47,41.6l0.6-2c0,0,0,0,0,0l-0.2-0.5l0.4-0.3c0,0,0,0,0,0l0.1-1.4c0,0,0,0,0,0  c0,0,0,0-0.1,0l-1.8,0.3l-0.4-0.3c0-0.2,0.1-0.5,0-0.6c-0.1-0.1-0.2-0.2-0.3-0.2c-0.2-0.1-0.4,0.1-0.6,0.2c0,0-0.1,0-0.1,0.1l0-0.5  c0,0,0,0,0-0.1l-1-0.7l-0.1-0.9c0,0,0,0,0,0l-1-0.7l-2-2.9c0,0,0,0,0,0l-1.3-0.5l-0.6-0.9c0,0,0,0,0,0l-1-0.5l0.6-0.4c0,0,0,0,0,0  c0,0,0,0,0,0l-0.7-0.7l0.4-0.5c0,0,0,0,0-0.1l-0.3-1.1c0,0,0,0,0,0l-2.3-3.1l0.1-10.4c0,0,0-0.1-0.1-0.1l-6.9-0.1c0,0,0,0,0,0  c0,0-0.1,0-0.1,0.1l-0.9,27.8c0,0,0,0,0,0l0.9,2.1l-0.4,0.8c0,0,0,0,0,0.1l1.5,2.9c0,0,0,0,0,0l1.6,0.7l0.6,1.6l-1.5,2.6  c0,0,0,0,0,0l-0.5,2l-1,1.5c0,0,0,0,0,0l0,1l-0.5,1l-1,0.9c0,0,0,0,0,0l-1.5,2.8c0,0,0,0,0,0l0.1,2.1c0,0,0,0.1,0.1,0.1l1.5,0.3  l0.6,1c-0.2,0.2-0.6,1.4-0.6,1.4c0,0.2-0.1,0.4-0.1,0.6c-0.1,0.6-0.1,1.1-0.4,1.8c0,0,0,0,0,0l-0.5,19.7c0,0,0,0,0,0c0,0,0,0,0,0  c1.5,0,3.2,0.1,5.1,0.1c4.6,0.1,9.2,0.1,13.7,0.1c1.6,0,3.3,0,4.9,0c0,0,0,0,0,0c0,0,0.6,0,23.8-0.5c0,0,0,0,0,0c0,0,0,0,0,0  L73.2,60.1z"/></svg>