<svg xmlns="http://www.w3.org/2000/svg" viewBox="0 0 100 100" fill="#e33400"><path d="M70.9,63.1l-0.5-1.7l0.2-1.1c0,0,0,0,0-0.1l-1.4-2.1l0.8-1.3c0,0,0,0,0-0.1l-0.4-1.3l1-0.9c0,0,0,0,0-0.1L70,22.7  c0,0,0,0,0,0l-3-7.5l0-2.6c0,0,0-0.1-0.1-0.1l-28.2,0c0,0-0.1,0-0.1,0.1c0,0,0,0.1,0,0.1l2,1.6l0.3,1.4c0,0,0,0,0,0l2.3,1.8l0.3,1.7  L43,21.4l-1.1,1c0,0,0,0,0,0l-0.5,2.2l-3.2,1.7l-3.6,0.6c0,0-0.1,0-0.1,0.1l-0.7,2.3c0,0,0,0.1,0,0.1l1.4,1.7l0.1,1.8l-1.4,1.8  c0,0,0,0,0,0l-0.6,2.2l-2.7,1.3c0,0,0,0,0,0.1l0.3,2.2L29.8,41c0,0,0,0,0,0.1l-0.6,3.4c0,0,0,0,0,0l1.3,5.4c0,0,0,0,0,0l2.8,2.7  l0.6,1.2c0,0,0,0,0,0l2.6,2l0.9,4.4c0,0,0,0,0,0l0.7,1.2c0,0,0,0,0.1,0l0.7,0.1c0,0,0,0,0.1,0l1.2-1.1l1.7,0.6l1.5,1.1l-0.1,0.4  l-0.7,1.2c0,0,0,0,0,0l0.1,1.2l-2,3.8c0,0,0,0,0,0l0.1,1.8c0,0,0,0,0,0l3.4,3.4c0,0,0,0,0,0l1.2,0.3l4.2,3.7l0,1.6c0,0,0,0,0,0  l0.9,2l-0.8,1.9c0,0,0,0.1,0,0.1l0.6,0.3l0.8,2.6c0,0,0,0,0,0l1.2,0.7c0,0,0.1,0,0.1,0c0,0,0-0.1,0-0.1l-0.3-1l0.3-0.1l0.8,1.4  c0,0,0,0,0,0l0.8,0.2c0,0,0,0,0,0c0,0,0,0,0.1,0c0,0,0-0.1,0-0.1l-0.6-1.4l1.9-2l4.9,2.1c0,0,0.1,0,0.1,0l1.1-1.2c0,0,0-0.1,0-0.1  l-1-1.8l0.3-1.4l4.2-1.3c0,0,0,0,0,0c0,0,0,0,0-0.1L64.4,78l1.1-2c0,0,0-0.1,0-0.1c0,0-0.1,0-0.1,0v0l-0.2-0.1l0.4-0.2  c0,0,0,0,0-0.1c0,0,0-0.1,0-0.1L64.9,75l0.6-0.1c0,0,0.1,0,0.1-0.1l-0.1-1.9l0.8-0.5c0,0,0,0,0-0.1c0,0,0-0.1-0.1-0.1l-0.5-0.2  l0.8-0.6c0,0,0-0.1,0-0.1L66,70.2l0.5-0.8l0.9,0.1c0,0,0.1,0,0.1,0l1-2.3l1.1-0.5c0,0,0.1-0.1,0-0.1l-0.2-0.8L70.9,63.1  C70.9,63.2,70.9,63.1,70.9,63.1z"/></svg>