<svg xmlns="http://www.w3.org/2000/svg" viewBox="0 0 100 100" fill="#e33400"><path d="M87.6,49.3l-0.4-2c0,0,0,0,0-0.1l-2.8-1.9l-0.4-1.6c0,0,0,0,0,0l-2.4-1.7l0.1-1.2c0,0,0,0,0,0l-0.7-1.5c0,0,0,0-0.1,0  l-4.1-1.3l-2.2-11.9c0,0,0-0.1-0.1-0.1l-55.7-0.1l-5.3-0.2c0,0-0.1,0-0.1,0c0,0,0,0,0,0.1l0,1c0,0,0,0,0,0l0.7,1l-0.1,1.1L13.5,29  c0,0-0.1,0-0.1,0.1c0,0,0,0.1,0,0.1l0.3,0.5l-0.2,0.3c0,0,0,0.1,0,0.1c0,0,0,0,0.1,0.1l1,0.2l0.3,1.4l-0.7,1.9c0,0,0,0.1,0,0.1  c0,0,0,0,0,0l-1.7,3.9c0,0,0,0.1,0,0.1l1.3,1.4l-0.3,0.3c0,0,0,0.1,0,0.1l0.7,1l-0.1,0.7c0,0,0,0.1,0.1,0.1l0.9,0.2l-0.2,2  c0,0,0,0,0,0.1l0.9,1.3l-0.2,1.6c0,0,0,0,0,0.1l0.9,1.1l0,1c0,0,0,0.1,0,0.1l1.2,1L17.7,51c0,0,0,0,0,0.1l1,1.6l-0.5,1.7  c0,0,0,0,0,0l0.2,2.3c0,0,0,0,0,0.1s0,0,0.1,0l0.8-0.1l0.1,1c0,0,0,0.1,0.1,0.1l0.8,0.3l-0.4,1.9c0,0,0,0.1,0,0.1l0.9,0.4L20,61.9  c0,0,0,0.1,0,0.1l0.8,0.4l-0.2,2c0,0,0,0,0,0l0.5,2.6l-0.7,2.4c0,0,0,0.1,0,0.1l1.1,1.1l0.1,0.9c0,0,0,0.1,0.1,0.1l47.5,0.2l3.3,3.6  c0,0,0,0,0.1,0c0,0,0,0,0,0l1.1-0.6c0,0,0.1-0.1,0-0.1l-0.5-2.6l3-1.6c0,0,0,0,0-0.1l0.5-2.6l1.6-2.1c0,0,0,0,0-0.1l-0.2-2.1  c0,0,0,0,0-0.1l-1.7-1.9l0.7-2.6l4.1-0.9c0,0,0,0,0,0l3.7-2.2c0,0,0,0,0-0.1l0.5-2.5l1.3-1.2c0,0,0,0,0-0.1L87.6,49.3  C87.6,49.3,87.6,49.3,87.6,49.3z"/></svg>