<svg xmlns="http://www.w3.org/2000/svg" viewBox="0 0 100 100" fill="#e33400"><path d="M44.8,35.2l1.3-0.6c0,0,0,0,0,0l1.1-0.9l-0.1,3c0,0,0,0,0,0.1c0,0,0,0,0.1,0l0.9-0.1c0,0,0,0,0,0l2.9-3.1l4.9-1.1  c0,0,0,0,0,0l1.1-1.4l1.9-0.4l4.2,1.6l0.7,0.9c0,0,0,0,0.1,0l1.3,0c0,0,0.1,0,0.1-0.1l0.1-1.2l0.3-0.6l0.8,0.4l0.7,0.9  c0,0,0,0,0.1,0l4.1-0.9c0,0,0,0,0,0l0.1-0.1c0,0,0,0,0-0.1L71.5,31c0,0,0,0,0,0l-0.8-0.5L70,29.6c0,0,0,0,0,0L69,29l-0.2-1.8  c0,0,0,0,0,0l-0.4-0.8l-0.1-0.8c0,0,0,0,0,0L67.9,25c0,0,0,0-0.1,0l-0.3,0l-3.4,0.4l-2.7-1l0-1.7c0,0,0,0,0,0L61,21.7c0,0,0,0-0.1,0  l-1.4,0h0c0,0,0,0,0,0l-1.5,0.9l-6.5,0.3c0,0,0,0,0,0l-3.1,1.5c0,0,0,0,0,0l-1.1,1.3l-0.9,0.3l-3.9-0.8c0,0,0,0,0,0L41,25.4L38.1,22  c0,0,0,0,0,0l-3-1.7c0,0,0,0-0.1,0l-2.6,0.5l-0.8-0.3c0,0-0.1,0-0.1,0l-1.2,1.1l0.1-2.4l0.8-1.1l1.1-0.5c0,0,0,0,0,0l4.2-4.2  c0,0,0,0,0,0l0.1-0.8c0,0,0,0,0-0.1c0,0,0,0-0.1,0l-2.2,0h0c0,0,0,0,0,0l-11.8,7.6l-4.5,1.1c0,0,0,0,0,0L15,23.3l-2.1,0.1  c0,0,0,0-0.1,0c0,0,0,0,0,0.1l0.1,0.5c0,0,0,0.1,0.1,0.1l0.5-0.1l0.9,0.7l0.8,2.2c0,0,0,0,0,0l13.4,4.7c0,0,0,0,0,0l1.1-0.3l3.6,1.2  l0.3,0.6l-0.3,0.9c0,0,0,0,0,0.1c0,0,0,0,0,0l1.9,0.6l0.9,0.9L36.1,36c0,0,0,0,0,0.1l0.3,0.7l-0.3,0.3c0,0,0,0,0,0.1l0.2,0.9  l-0.6,0.7c0,0,0,0,0,0l-0.1,1c0,0,0,0,0,0.1c0,0,0,0,0.1,0l1.8-0.2l0.2,0.4l-0.8,2.1c0,0,0,0.1,0,0.1l1.2,1c0,0,0,0,0,0.1  c0,0,0,0,0.1,0l0.6,0c0,0,0,0,0,0c0,0,0,0,0.1,0l5.4-8.3L44.8,35.2C44.7,35.2,44.8,35.2,44.8,35.2z M87.2,68.6l-0.9-1.8l-0.9-5.6  c0,0,0,0,0,0l-3-5.2c0,0-0.1,0-0.1,0L78,57.4c0,0,0,0,0,0l-0.3,0.3c0,0,0,0,0,0l-1,2.8l-2.2,1.3l-1.1-0.4l-0.4-0.7l1.2-3.2l2.3-2  c0,0,0,0,0,0l0.7-1.7l1-1.2c0,0,0,0,0,0l0.4-1c0,0,0,0,0,0l-0.9-5.3c0,0,0,0,0,0l-0.6-1.1l-0.1-1.3l0.4-0.7l0.3-0.1c0,0,0,0,0,0  c0,0,0,0,0-0.1l-1.2-2.2c0,0,0,0,0,0l-1.2-1c0,0,0,0,0,0l-2.6-0.9l-1-0.8c0,0,0,0,0,0l-0.8-0.3l-2.2-1.7c0,0,0,0,0,0l-0.9-0.3  c0,0,0,0,0,0L66.5,36l-0.3-0.3c0,0,0,0,0,0l-1.9-0.5c0,0,0,0,0,0l-1.9,0.2c0,0,0,0-0.1,0l-0.9,1.1c0,0,0,0,0,0.1l0.2,1.8  c0,0,0,0,0,0l0.8,1.1l-0.3,0.4l-3.7,1.3c0,0,0,0-0.1,0.1l-0.3,4.1l-0.8,0.3c0,0,0,0,0,0l-0.5,0.9l-0.2-0.4L56.3,44c0,0,0,0,0,0  l-0.4-0.9c0,0,0,0,0,0c0,0,0,0-0.1,0L55,43.6c0,0,0,0,0,0l-0.9,1l-2.2,1.4c0,0,0,0,0,0l-0.3,1.5l-0.9,1.2c0,0,0,0,0,0l-0.5,5  c0,0,0,0,0,0l0.2,0.6l-0.9,0.7c0,0,0,0,0,0l-1.3,7c0,0,0,0,0,0l2.9,7.3l-0.2,6l-3.9,9.8l-2.3,1.5c0,0,0,0.1,0,0.1c0,0,0,0.1,0.1,0.1  L65,86.9l0,0.6c0,0,0,0,0,0.1c0,0,0,0,0.1,0h0l13.4-0.4c0,0,0,0,0.1,0l3-3.8l0,0l0,0c0,0,0,0,0-0.1l0-2l0.8-2l0.9-1c0,0,0,0,0-0.1  l0-1.2l0.3-0.9l1-1.1l2.1-0.1c0,0,0.1,0,0.1-0.1L87.2,68.6C87.2,68.6,87.2,68.6,87.2,68.6z"/></svg>