<svg xmlns="http://www.w3.org/2000/svg" viewBox="0 0 100 100" fill="#e33400"><path d="M82.9,29.8C82.9,29.8,82.9,29.8,82.9,29.8l-0.8,0l-2.3-0.9c0,0,0,0,0,0c0,0,0,0,0,0l-4,0L73.1,28c0,0,0,0,0,0l-1.5,0.1  c0,0,0,0,0,0l-1.9,1.1l-1,0.1c0,0,0,0,0,0l-1.9-0.9l-1.3-1.4c0,0,0,0,0,0l-1.9-0.5l-1.2-0.9c0,0,0,0,0,0l-2.2-0.8l-0.8-1  c0,0,0,0,0,0l-3-1.4c0,0,0,0,0,0l-4-0.3c0,0,0,0,0,0l-1.3,0.8L49.2,23c0,0,0,0,0,0h0l0,0l-1.1-0.3l0-0.1c0,0,0,0,0-0.1l-0.4-0.4  c0,0,0,0,0,0l-2.8-1c0,0,0,0,0,0l-2.2,0.2c0,0,0,0,0,0l-0.2-0.2c0,0,0,0-0.1,0l-1.2,0.1L39.9,18c0,0,0,0,0,0l-0.2-0.2l-1.8-4.9  c0,0,0,0-0.1,0l-1.7-0.3c0,0,0,0-0.1,0c0,0,0,0,0,0.1l-0.1,5.4l-17.8-0.4c0,0,0,0-0.1,0c0,0,0,0,0,0.1l1.1,3.9l-0.6,1.4c0,0,0,0,0,0  l0,4.9c0,0,0,0,0,0l2.2,7.2l0.2,8.5c0,0,0,0.1,0,0.1l0.3,0.1l-0.5,3.4c0,0,0,0,0,0l0.7,2.7c0,0,0,0,0,0l1,1.5l0,6.1l-0.7,1.2  l-1.6,1.1c0,0,0,0,0,0L20,60.7c0,0,0,0,0,0.1l1.4,2.3c0,0,0,0,0,0l1.4,0.5l0.7,1L23,87.5c0,0,0,0,0,0.1c0,0,0,0,0.1,0l48.5-0.2  c0,0,0,0,0.1,0c0,0,0,0,0-0.1l-0.5-3.6c0,0,0,0,0,0L70.3,82c0,0,0,0,0,0L66,79.1l-0.7-1.6c0,0,0,0,0,0l-1.9-2c0,0,0,0,0,0L62,74.7  c0,0,0,0,0,0l-1.5,0.1l-1-1.3c0,0,0,0,0,0l-2-0.7l-0.8-1.1l0.5-2.2c0,0,0,0,0,0l-0.4-1.7l0.5-0.5c0,0,0,0,0-0.1l-0.1-2.2l0.9-1.7  c0,0,0,0,0-0.1L57,61.4c0,0,0,0,0,0L55.8,61l0.1-1.5l0.8-0.8c0,0,0,0,0,0l0.8-1.8l3-1.5c0,0,0,0,0,0l0.6-0.7c0,0,0,0,0,0l-0.1-7.3  l0.6,0c0,0,0.1,0,0.1,0l0.4-1l0.8,0.6c0,0,0.1,0,0.1,0l13.5-12.4l3-1.2c0,0,0,0,0,0l3.5-3.3C82.9,29.9,82.9,29.9,82.9,29.8  C82.9,29.8,82.9,29.8,82.9,29.8z"/></svg>