<svg xmlns="http://www.w3.org/2000/svg" viewBox="0 0 100 100" fill="#e33400"><path d="M87.6,68.4C87.6,68.4,87.5,68.4,87.6,68.4l-0.9-0.3l-0.9-1.4c0,0-0.1-0.1-0.1,0L85.2,67c0,0-0.1,0.1,0,0.1l0.3,0.9l-1-0.6  l-1-2.7c0,0,0,0,0,0l-0.6-0.3l0.8-2c0,0,0,0,0-0.1l-1.1-2.1l0-1.7c0,0,0,0,0-0.1l-4.7-3.7c0,0,0,0,0,0l-1.3-0.2l-3.7-3.4l-0.2-1.8  l1.9-4.1c0,0,0,0,0,0l-0.2-1.3l0.7-1.3c0,0,0,0,0,0l0.1-0.5c0,0,0-0.1,0-0.1l-1.7-1.2c0,0,0,0,0,0l-1.9-0.5c0,0-0.1,0-0.1,0L70,41.4  l-0.7-0.1l-0.8-1.2l-1.2-4.6c0,0,0,0,0,0l-2.9-2l-0.7-1.2c0,0,0,0,0,0l-3.1-2.7L59,23.9l0.4-3.6c0,0,0,0,0-0.1l-3.1-3.4  c0,0,0,0-0.1,0L49.6,17l-37,0c0,0,0,0-0.1,0s0,0,0,0.1l0,0.9c0,0,0,0.1,0.1,0.1l0.7,0.3l0.4,2.9c0,0,0,0.1,0,0.1l1.9,1.1l-0.1,0.6  c0,0,0,0,0,0.1l0.8,1.2l-0.1,1.1c0,0,0,0.1,0,0.1l3.4,2.5c0,0,0,0,0.1,0l1.6-0.4l0.8,2l-0.9,0.1c0,0-0.1,0-0.1,0l-1.6,2.7  c0,0,0,0.1,0,0.1l2.3,2.4l0.7,2.4c0,0,0,0,0.1,0.1l2.4,0.8l-0.2,38.2c0,0,0,0,0,0.1c0,0,0,0,0.1,0l50.9-0.9l1.2,1.8l0,1.3L73.5,83  c0,0,0,0.1,0,0.1c0,0,0,0,0.1,0h0l7.5-0.3c0,0,0.1,0,0.1,0l1.3-2c0,0,0-0.1,0-0.1l-1-1.4l1.3-0.2c0,0,0.1,0,0.1-0.1c0,0,0-0.1,0-0.1  l-0.7-0.9l1.1-0.7c0,0,0-0.1,0-0.1l-0.6-2.4l0.6-0.1l0.3,1.5c0,0,0,0.1,0.1,0.1c0,0,0.1,0,0.1-0.1l1-2.5l1.5,0.7c0,0,0,0,0.1,0  c0,0,0,0,0,0l1.2-3c0,0,0,0,0,0L87.6,68.4z"/></svg>