<svg xmlns="http://www.w3.org/2000/svg" viewBox="0 0 100 100" fill="#e33400"><path d="M72,14.1l-1.4-1.6c0,0,0,0-0.1,0l-26.8,1.2c0,0-0.1,0-0.1,0c0,0,0,0.1,0,0.1l0.5,1.5l-2.4,1.6c0,0,0,0,0,0.1l0,1.2l-1.1,0.1  c0,0-0.1,0-0.1,0.1L40.2,20c0,0,0,0,0,0l0.3,3.1L38.2,24c0,0-0.1,0-0.1,0.1l0,1.3l-0.6,0c0,0-0.1,0-0.1,0.1L37,26.7l-1.2,0.9  c0,0,0,0,0,0.1c0,0,0,0.1,0,0.1l1.1,0.7L36.8,29l-2.6,1c0,0,0,0-0.1,0.1c0,0,0,0.1,0,0.1l0.8,0.7l-0.4,2.3l-2,1.7c0,0,0,0,0,0.1  c0,0,0,0.1,0,0.1l1,0.8l-0.1,0.6l-0.9,0.4c0,0,0,0-0.1,0.1c0,0,0,0.1,0,0.1l1.3,1.2l-0.6,2.5c0,0,0,0.1,0,0.1l0.9,0.7l0.2,1.3  l-0.8,0.8c0,0,0,0,0,0.1l0.2,1.7L33.7,46c0,0,0,0.1,0,0.1l1.1,0.7l-1,2.5c0,0,0,0.1,0,0.1l1,0.9L33.8,51c0,0-0.1,0.1,0,0.1l0.9,1.4  l0,1.4c0,0,0,0.1,0,0.1l2.6,2l-1.5,2.8l-0.9,0c0,0,0,0-0.1,0c0,0,0,0,0,0.1l0.3,1.9l-3.5,3c0,0,0,0,0,0.1l-0.8,3.8l-1.3,1.1  c0,0,0,0.1,0,0.1l0.5,1.6l-0.4,1.6L28,72.6c0,0,0,0-0.1,0c0,0,0,0,0,0.1l1.1,2.9l-1,1c0,0,0,0,0,0L28,76.9c0,0,0,0.1,0,0.1  c0,0,0.1,0,0.1,0l0.1-0.1l25.4-0.8l-1.2,5c0,0,0,0,0,0.1l0.7,1.6c0,0,0,0,0,0l1.7,1.5l1.2,3.2c0,0,0,0,0.1,0.1c0,0,0,0,0,0  c0,0,0,0,0,0l2.9-1.6l2,0.5c0,0,0,0,0.1,0l2.7-1.8l8.1,0.1h0c0,0,0,0,0.1,0c0,0,0,0,0-0.1L72,14.1C72,14.2,72,14.1,72,14.1z"/></svg>