<svg xmlns="http://www.w3.org/2000/svg" viewBox="0 0 100 100" fill="#e33400"><path d="M87.6,66.7l-0.7-0.9l0.1-0.5c0,0,0-0.1,0-0.1l-1.6-0.8l-0.4-2.3c0,0,0,0,0-0.1l-0.6-0.2l-0.1-1.4c0,0,0,0,0,0l-0.8-0.8  l0.4-1.7c0,0,0,0,0,0L83.2,56l0.1-1.5c0,0,0-0.1,0-0.1l-0.6-0.3l0.4-1.1c0,0,0-0.1,0-0.1l-0.7-0.3l0.2-1.4c0,0,0-0.1,0-0.1L81.9,51  l-0.1-0.8c0,0,0,0,0,0c0,0,0,0-0.1,0l-0.6,0.1L81,48.7l0.3-1.3c0,0,0,0,0-0.1l-0.8-1.1l0.1-0.9c0,0,0,0,0-0.1l-0.9-0.7l-0.1-0.7  c0,0,0,0,0,0L78.8,43l0.1-1.1c0,0,0,0,0,0l-0.7-1l0-1.5c0,0,0-0.1-0.1-0.1L76.3,39l-0.7-1.6c0,0,0,0,0,0l-3.6-1.2l-1-1c0,0,0,0,0,0  l-5,0.1c0,0,0,0-0.1,0l-0.6,0.9l-0.6,0.1l-3.1-1.5l-1-1c0,0,0,0-0.1,0c0,0,0,0,0,0l-3.1-0.1l-43.3-1.2h0c0,0-0.1,0-0.1,0.1  l-1.3,23.2c0,0,0,0,0,0c0,0,0,0,0,0l17.3,0.8l-0.4,11.1c0,0,0,0,0,0c0,0,0,0,0,0l57.9,0c0,0,0.1,0,0.1-0.1L87.6,66.7  C87.6,66.7,87.6,66.7,87.6,66.7z"/></svg>