<svg xmlns="http://www.w3.org/2000/svg" viewBox="0 0 100 100" fill="#e33400"><path d="M80.3,12.9C80.3,12.8,80.2,12.8,80.3,12.9l-44.2-0.2l-7.8-0.2h0c0,0-0.1,0-0.1,0.1l-0.3,10.7L27,25l-0.5,0.4l-0.8-0.2  l-1-1.4c0,0,0,0-0.1,0l-1,0.2l-1-0.5c0,0-0.1,0-0.1,0l-1.4,1.5c0,0,0,0,0,0l-0.5,1.1c0,0,0,0.1,0,0.1l0.6,1l-0.4,1.9c0,0,0,0,0,0  l0.9,7.6L21.1,37c0,0,0,0,0,0.1l0,3.3c0,0,0,0,0,0l2.5,4.7c0,0,0,0,0,0l1.5,1l1.1,2.4l-3,2.1c0,0,0,0,0,0l-0.4,1.1l-1,0.8  c0,0,0,0,0,0.1l0.3,3.1l-0.4,0.5c0,0,0,0,0,0l-0.1,1.6l-1.2,1.8l-0.9,0.2c0,0-0.1,0-0.1,0.1l-0.1,1.3c0,0,0,0,0,0l0.6,1.1l-0.4,1.7  c0,0,0,0.1,0,0.1l2.4,1.6l0,1.3L21,68.6l-1.6-0.2c0,0-0.1,0-0.1,0l-1,1.2c0,0,0,0,0,0.1l0.2,1.2c0,0,0,0,0,0.1l41.9,16.7  c0,0,0,0,0,0h0l21.3-0.2c0,0,0,0,0.1,0s0,0,0-0.1L80.3,12.9z"/></svg>