<svg xmlns="http://www.w3.org/2000/svg" viewBox="0 0 100 100" fill="#e33400"><path class="st0" d="M68.2,44.2l-1-2l0,0l-2.8-2.5c0,0,0,0-0.1,0l-3.3-1L60.4,38l-0.2-2l3.5-14.9c0-0.1,0-0.2-0.1-0.2l-20.9-8.6  c-0.1,0-0.2,0-0.2,0.1L34.7,26c0,0.1,0,0.1,0,0.2l2.3,3.1l-0.7,2.9l-1.5,1.2l-0.1,0.1l0.2,2.1h-0.1c-0.1,0-0.1,0.1-0.1,0.2l1,3.7  c0,0.1,0.1,0.1,0.1,0.1l2.5,0.1l1.3,3.7c0,0.1,0.1,0.1,0.1,0.1l2,0.4l6.7,6.4l-8,8.2c0,0-0.1,0.1,0,0.2l0.6,1.2l-0.5,0.8l-4.7,2.2  c0,0-0.1,0-0.1,0.1l-4,7.4c0,0.1,0,0.1,0,0.2l1.5,1.8l0,0l6.9,6h0.1l3.7,0.5l3.1,2.2h0.1l4.3-0.5l0.9,5.7c0,0,0,0,0,0.1l0.8,1.3  l0.1,0.1l0,0c0.1,0,0.1,0,0.1-0.1l9.6-19.2v-0.1l-0.4-1.7l2-1.4c0,0,0,0,0.1-0.1l0.6-1.3c0,0,0,0,0-0.1V55l0.5-1.1l0.9,0.2h0.1  l0.8-0.5l0.1-0.1L68.2,44.2L68.2,44.2z"/></svg>