<svg xmlns="http://www.w3.org/2000/svg" viewBox="0 0 100 100" fill="#e33400"><path d="M70.1,74.4C70.1,74.4,70.1,74.4,70.1,74.4l1-1.8c0,0,0-0.1,0-0.1l-0.7-1.1l2.1-1.5c0,0,0-0.1,0-0.1l-0.7-1.1l0.1-9.3  c0,0,0,0,0-0.1c0,0,0,0-0.1,0l-0.2,0l1.8-9c0,0,0,0,0,0l-0.4-1.1l-0.2-9.2c0,0,0,0,0,0l-0.7-1c0,0,0,0-0.1,0c0,0,0,0-0.1,0L71,39.7  L70.9,39l0.4-1.3c0,0,0,0,0,0l-0.9-3.9l0.4-1.9l0.5-0.7c0,0,0,0,0-0.1l-0.2-1.4l0.3-1.1c0,0,0,0,0-0.1l-0.9-2l0.2-2.1c0,0,0,0,0,0  l-0.4-0.8l0.3-0.7c0,0,0,0,0,0l-0.2-1c0,0,0-0.1-0.1-0.1l-14.7,0.9c0,0,0,0,0,0l-5.6,4.5c0,0,0,0,0,0l-1.6,3.8l-3.3,2.4c0,0,0,0,0,0  l-0.6,0.7c0,0,0,0,0,0.1l0.2,0.9c0,0,0,0.1,0.1,0.1h0l1.2,0l0.5,0.5l0,0.7l-0.5,0.4l-0.6-0.1c0,0-0.1,0-0.1,0l-0.2,0.4c0,0,0,0,0,0  l0.1,0.5c0,0,0,0,0,0l0.8,1l0.4,1.6l-0.3,1.1l-2.8,0.6c0,0,0,0,0,0l-2.7,2.2L39,44.8L35.6,45L35,44.9c0,0,0,0,0,0l-1.8,0.6l-1.4-1.1  c0,0,0,0,0,0L28.8,44c0,0,0,0,0,0l-9.3,2.1c0,0,0,0,0,0c0,0,0,0,0,0.1l1.7,5l-2.1,2c0,0,0,0,0,0l-0.6,1l-0.6,0.4l-0.6,0.1  c0,0,0,0,0,0l-4.6,3.7c0,0,0,0,0,0.1l0,3.4c0,0,0,0,0,0.1c0,0,0,0,0.1,0l41.1-1l1.1,0.5l0.2,1c0,0,0,0,0.1,0.1l1.6,0.5l-0.2,0.4  c0,0,0,0,0,0.1c0,0,0,0,0,0l0.4,0.1l0,2.1c0,0,0,0,0,0l0.9,1.6c0,0,0,0,0,0l2.3,0.6l0.4,0.7c0,0,0,0,0,0l7.9,4.4l-1,3.6  c0,0,0,0.1,0,0.1c0,0,0,0,0,0c0,0,0.1,0,0.1,0l1.4-2.3L70.1,74.4z M87.6,70.9l-2-0.1c0,0,0,0,0,0l-1.4,0.8c0,0,0,0,0,0l-0.8,0.8  l-1,0.2l0.1-0.4l2-2.1c0,0,0,0,0,0l0.4-0.8c0,0,0-0.1,0-0.1c0,0-0.1,0-0.1,0l-3.3,2.8l-8.4,1.7c0,0,0,0,0,0l-2.9,1.5c0,0,0,0,0,0  l-0.5,0.9l-0.8,0.4c0,0,0,0,0,0.1l-0.1,1.3c0,0,0,0,0,0l0.1,0.2c0,0,0,0,0.1,0c0,0,0.1,0,0.1-0.1l0.1-0.5l0.6-0.2l0.1,0.6  c0,0,0,0.1,0.1,0.1l0.7,0.2c0,0,0,0,0,0c0,0,0,0,0,0l16.9-7C87.6,71.1,87.6,71,87.6,70.9C87.6,71,87.6,70.9,87.6,70.9z"/></svg>