<svg xmlns="http://www.w3.org/2000/svg" viewBox="0 0 100 100" fill="#e33400"><path d="M69.7,77l-1.8-2.2l0.1-2.6c0,0,0-0.1,0-0.1l-3.5-4.4L63.6,40l-1.7-27.4c0-0.1,0-0.1-0.1-0.1c0,0-0.1,0-0.2,0l-1.2,0.6  L56,13.5c0,0-0.1,0-0.1,0.1l-1.5,1.5c0,0,0,0,0,0.1l-2.3,6c0,0,0,0.1,0,0.1l0.6,2.2L50,27.8c0,0,0,0.1,0,0.2l1.9,4.6l-0.8,2.1  l-5.4,5l-3.8,1.2c-0.1,0-0.1,0.1-0.1,0.1l-1.5,10l-6.4,12.5c0,0,0,0,0,0.1l-1.6,15.8l-2,4.2c0,0,0,0.1,0,0.2l2,3.9  c0,0.1,0.1,0.1,0.2,0.1l25.3,0c0,0,0.1,0,0.1,0L66,83l2.1,0.3c0.1,0,0.2,0,0.2-0.1l1.5-6C69.8,77.1,69.7,77,69.7,77z"/></svg>