<svg xmlns="http://www.w3.org/2000/svg" viewBox="0 0 100 100" fill="#e33400"><path d="M86.9,43.4C86.9,43.4,86.9,43.4,86.9,43.4l-0.7-1c0,0,0,0-0.1,0c0,0,0,0-0.1,0L84.7,45l0,0l-0.6-2.6c0,0,0-0.1-0.1,0  l-3.8,0.9l-0.9-0.1l-0.4-3.5l0.2-0.3l0.6,2c0,0,0,0,0,0l0.6,0.4c0,0,0,0,0,0l0.8,0c0,0,0,0,0,0l2.2-1.5l0.6,0c0,0,0,0,0,0  c0,0,0,0,0,0l0-0.5l1.8,0.3l0.6,1.1c0,0,0,0,0.1,0c0,0,0,0,0.1-0.1l0-0.1c0,0,0,0,0,0l-1.6-3.8l0.4-2.6c0,0,0,0,0-0.1s0,0,0,0  l-6.7,0.4l-42.6,1c0,0,0,0-0.1,0l-0.5,1.5c0,0,0,0,0,0l0.2,0.4l-0.5,0.9c0,0,0,0,0,0.1l0.2,0.5l-0.7-0.1c0,0,0,0,0,0l-0.8,0.6  c0,0,0,0,0,0l-1.4,2.1l-1.1-0.6c0,0,0,0,0,0l-0.8,0.2c0,0,0,0,0,0l-2.2,1.8l-0.6-1c0,0-0.1,0-0.1,0l-1.2,0.6c0,0,0,0,0,0l-0.3,0.7  l-0.8-0.2c0,0,0,0-0.1,0c0,0,0,0,0,0l0,0.7l-0.7,1l-1.4,0.2c0,0,0,0,0,0l-2.9,2l-2.1,0c0,0,0,0,0,0l-2.4,1.4c0,0,0,0,0,0l-0.6,1.6  l-1.3-0.1c0,0,0,0,0,0l-0.5,0.4c0,0,0,0,0,0l-0.3,2.3c0,0,0,0,0,0.1c0,0,0,0,0,0L26,52.8l0.2,0.2c0,0,0,0,0,0c0,0,0,0,0,0l0.7-0.6  l2.1-0.4c0,0,0,0,0,0l0.4-0.5l11.5,0.8l0.2,1c0,0,0,0,0,0c0,0,0,0,0.1,0l0.8-0.6l1.3,1.7l0,1.5c0,0,0,0,0,0c0,0,0,0,0,0h0l9.7-0.1  l10,10c0,0,0,0,0,0c0,0,0,0,0,0l6.6-2.3c0,0,0,0,0,0l0.2-0.9l2-2.8l4.1-2.5l3.3-0.3c0,0,0,0,0,0l2.3-1.6c0,0,0,0,0,0l0.3-1  c0,0,0,0,0,0l-0.1-1.1c0,0,0-0.1-0.1-0.1l-1.4-0.2c0,0,0,0,0,0L79.6,53c0,0,0,0,0,0l0,0l0-0.9l0.7-0.7c0,0,0,0,0,0l0.2-0.7l0.7-0.7  c0,0,0-0.1,0-0.1l-0.6-0.6c0,0,0,0,0,0l-2.2-0.9l1.7-0.1c0,0,0,0,0,0l0.9-0.9l0.4,0.9c0,0,0,0,0.1,0l0.6,0l0.5,0.7c0,0,0,0,0,0h0  l1.6-0.1c0,0,0,0,0,0l3.1-3.2c0,0,0,0,0-0.1L86.9,43.4z"/></svg>