<svg xmlns="http://www.w3.org/2000/svg" viewBox="0 0 100 100" fill="#e33400"><path d="M84.3,31.9C84.3,31.9,84.3,31.9,84.3,31.9l-71.4,0c0,0-0.1,0-0.1,0.1l-0.2,5.5c0,0,0,0,0,0c0,0,0,0,0,0l4.7,0.2c0,0,0,0,0,0  l20.9,0.5L38,59.1c0,0,0,0.1,0.1,0.1l1.1,0l2.1,1.9c0,0,0,0,0.1,0l0.8-0.3l1.2,0.4c0,0,0.1,0,0.1,0l0.4-0.8l1.3,1.3l0.3,1.3  c0,0,0,0.1,0.1,0.1l1.7-0.1l2,0.8c0,0,0,0,0,0l1.3-0.2l1.2,1c0,0,0.1,0,0.1,0l0.9-0.8l2.2-0.1l0.2,1.3c0,0,0,0,0,0.1l1.1,0.3l-0.1,1  c0,0,0,0.1,0,0.1l0.8,0.3c0,0,0,0,0.1,0l2-1.4l0.4,0.2l0.1,0.7c0,0,0,0.1,0.1,0.1l0.9,0l0.4,0.8c0,0,0.1,0,0.1,0l1.9-0.8l0,1  c0,0,0,0,0,0l0.6,0.7c0,0,0,0,0.1,0c0,0,0,0,0,0l0.7-1c0,0,0,0,0-0.1L64,66.7l2.5-0.8l0.9,0.8c0,0,0,0,0,0l2.4,0.6l0.8,0.9  c0,0,0,0,0.1,0c0,0,0,0,0,0l0.2-0.6l0.8,0c0,0,0,0,0,0c0,0,0,0,0.1,0l0.5-0.7L74,66l1.4,0.4c0,0,0,0,0.1,0c0,0,0,0,0,0l0-0.4  l1.5-0.6l0.5,0.7c0,0,0,0,0,0l1.8,0.1c0,0,0,0,0,0l0.9-1.1l2.2,1l0.9,1.1c0,0,0,0,0,0l3.7,1.1c0,0,0,0,0,0c0,0,0,0,0,0  c0,0,0,0,0-0.1L84.3,31.9z"/></svg>