<svg xmlns="http://www.w3.org/2000/svg" viewBox="0 0 100 100" fill="#e33400"><path class="st0" d="M87.6,44.1L69.4,26.7c0,0,0,0-0.1,0l-17.2,0.5v-2.5v-0.1l-2.4-3c0,0-0.1-0.1-0.2,0l-1.4,1.1L48,21  c0-0.1-0.1-0.1-0.1-0.1l-20.5-1h-0.1l-0.6,0.9L23,21.7c0,0,0,0-0.1,0l-1.1,1.1l-0.3-0.3h-0.1l-5,1.4c-0.1,0-0.1,0.1-0.1,0.1  s0,0.1,0.1,0.1L16,25.6l-1.6,1l0,0l-1.9,3.1v0.1l5.1,4.3c0,0,0,0,0.1,0l2.2,0.1l0.9,2.2c0,0,0,0.1,0.1,0.1l3.5,6.2v0.1l0.6,1.3l0,0  l4,2.8l1.5,2.7l0.1,0.1l4.2,3.5l-0.1,2c0,0,0,0.1,0.1,0.1l1.4,0.9v1.1c0,0,0,0.1,0.1,0.1l1.2,0.7l0.1,0.9c0,0,0,0.1,0.1,0.1l4.2,2.7  l-0.1,1c0,0,0,0,0,0.1l1.7,3.8v2.4c0,0,0,0.1,0.1,0.1l2.6,1.6l1.8,3.7v3.6c0,0,0,0.1,0.1,0.1L52,80l0,0c0,0,0,0,0.1,0v-0.1l-0.3-1.5  l0.3-0.5l2.5-1.5H56c0,0,0.1,0,0.1-0.1L57,75v-0.1l-2.3-4.4l0.2-0.4L65,69.4c0,0,0,0,0.1,0l6.3-5.7H72c0,0,0,0,0.1,0l1.3-1  c0,0,0,0,0-0.1l0.6-1.9l2.6-1l0,0l1.6-1.5l0,0l0.7-1.9v-0.1l-0.7-1.5l5.2-6.9l3.8-2c0,0,0,0,0.1-0.1l0.4-1.3  C87.6,44.2,87.6,44.1,87.6,44.1z"/></svg>