<svg><path d="M87.3,42.4l-0.2-0.4l0.4-1.6c0,0,0,0,0-0.1c0,0,0,0-0.1,0l-17.4,0.8l-24.4,0.4c0,0,0,0,0,0l-0.4,0.4l-10.8-0.1l-0.1-0.3  c0,0,0,0-0.1,0l-1.9-0.2c0,0,0,0-0.1,0c0,0,0,0,0,0.1l0.3,2l-12-0.3h0c0,0,0,0-0.1,0l-0.2,0.4l-0.2-1c0,0,0-0.1-0.1-0.1l-0.6,0.1  c0,0,0,0,0,0c0,0,0,0,0,0l0.3,1.8L19,44.9c0,0,0,0,0,0c0,0,0,0,0,0l0.5,0.7l-1,0.1c0,0,0,0-0.1,0c0,0,0,0,0,0.1l0.7,1.2L18,48.4  c0,0,0,0,0,0.1l0.5,1l-0.9,0.1c0,0,0,0-0.1,0c0,0,0,0,0,0.1l0.4,0.5l-0.2,0.3L16,51.3c0,0,0,0,0,0.1l0.4,1l-0.5,0.4c0,0,0,0,0,0.1  l0.3,0.7l-0.7,0.1c0,0,0,0,0,0l-1,1.8c0,0,0,0,0,0l0.1,2.3l-0.7,0c0,0,0,0-0.1,0l-0.3,0.8l-0.8,0.3c0,0,0,0,0,0.1c0,0,0,0.1,0.1,0.1  l18.6,0.5l22.5,0l11.4-0.2c0,0,0.1,0,0.1-0.1l0.2-2.3l0.5-0.4l1.3,0c0,0,0.1,0,0.1,0l0.5-1.7l1.1-1l1.2-0.5l2.1-0.1c0,0,0,0,0,0  l2.8-2.2l1.5-0.3c0,0,0,0,0,0l0.7-1.1c0,0,0,0,0,0l0-0.6L78,49c0,0,0.1,0,0.1,0l0.3-0.7l1.1-0.7l0.6,1c0,0,0,0,0,0c0,0,0,0,0.1,0  l2.2-2l0.7-0.3l1.1,0.5c0,0,0.1,0,0.1,0l1.3-2.3l0.8-0.6l0.8,0.1c0,0,0,0,0.1,0c0,0,0,0,0-0.1l-0.3-0.6L87.3,42.4  C87.3,42.4,87.3,42.4,87.3,42.4z"/></svg>