<svg xmlns="http://www.w3.org/2000/svg" viewBox="0 0 100 100" fill="#e33400"><path d="M87.7,49.3C87.7,49.3,87.7,49.3,87.7,49.3l-0.3-0.4l0.1-0.6c0,0,0,0,0,0l-0.1,0c0,0,0,0,0,0c0,0,0,0,0,0l-0.2,0l-0.5-0.7  l0.1-0.4c0,0,0,0,0,0l-0.6-0.6l0.1-0.2c0,0,0,0,0,0l-0.6-0.5l0-0.7c0,0,0,0,0,0l-0.2-0.5c0,0,0,0,0,0l-1.3-1.3l-0.9-10.4  c0,0,0,0,0,0l-0.8-0.2c0,0,0,0,0,0l-1.1,0.3l-0.5-0.5c0,0,0,0,0,0l-2.3-0.6l-0.6-0.6c0,0,0,0,0,0l-1.4-0.6c0,0,0,0,0,0l-0.6,0.7  l-1.1,0l-0.3-0.4c0,0,0,0,0,0l-1,0.4c0,0,0,0,0,0l0,0.2l-0.9-0.2c0,0,0,0,0,0l-1.1,0.5c0,0,0,0,0,0L71,32.3l-0.5,0c0,0,0,0,0,0  l-0.1,0.4l-0.5-0.5c0,0,0,0,0,0l-1.5-0.3l-0.6-0.5c0,0,0,0,0,0L66.2,32c0,0,0,0,0,0c0,0,0,0,0,0l0.1,0.2l-0.4,0.6l-0.4-0.4l0-0.7  c0,0,0,0,0,0c0,0,0,0,0,0l-1.2,0.6L64,31.8c0,0,0,0,0,0c0,0,0,0,0,0l-0.6,0l-0.1-0.4c0,0,0,0,0,0L63,31.2c0,0,0,0,0,0l-1.2,0.9  L61.3,32l0-0.6c0,0,0,0,0,0l-0.7-0.2l-0.1-0.8c0,0,0,0,0,0c0,0,0,0,0,0L59,30.4c0,0,0,0,0,0l-0.5,0.5l-0.7-0.6c0,0,0,0,0,0l-0.8,0.2  L55.6,30c0,0,0,0,0,0l-1,0.1l-0.2-0.8c0,0,0,0,0,0l-0.9-0.8c0,0,0,0,0,0c0,0,0,0,0,0L53.1,29l-0.7-0.2c0,0,0,0,0,0L51.9,29l-1.3-1.2  c0,0,0,0,0,0l-0.7,0l-0.3-13c0,0,0,0,0,0h0L33.2,15c0,0,0,0,0,0L33,45.2l-20.4-0.5c0,0,0,0,0,0c0,0,0,0,0,0l0.3,1.1c0,0,0,0,0,0  l1.5,0.9l0.7,1.4c0,0,0,0,0,0l1.3,0.6l0.9,1.3c0,0,0,0,0,0l5,4.1l1.4,5.3c0,0,0,0,0,0l1.5,2c0,0,0,0,0,0l4.5,3.5c0,0,0,0,0,0  l2.4,0.5c0,0,0,0,0,0l2.9-5.3l1.2-0.4l1.2,0.3c0,0,0,0,0,0l4.7-0.2l4.5,4.5l2.2,4.9c0,0,0,0,0,0l1.8,1.8l1,2c0,0,0,0,0,0l1.9,1.2  l1.8,5.1c0,0,0,0,0,0l2,2.7c0,0,0,0,0,0l1.9,1.1c0,0,0,0,0,0l1.6,0.1l1.7,0.8c0,0,0,0,0,0l3,0.1l2.1,0.9c0,0,0,0,0,0l1.9,0.1h0  c0,0,0,0,0,0l0.1-0.2c0,0,0,0,0,0L69,84.6l-0.8-1.9c0,0,0,0,0,0l-0.2-0.2l-1-3.8l0.5-0.3c0,0,0,0,0,0L67.5,77c0,0,0,0,0,0l-0.1-0.2  c0,0,0,0,0,0l-0.7-0.1l-0.3-0.2l0.1-0.4l0.8-0.1l0.3,0.3c0,0,0,0,0,0l0.5-0.4c0,0,0,0,0,0l0.1-2.2c0,0,0,0,0,0l-0.6-1l1.5-0.4  c0,0,0,0,0,0l0.5-1.1c0,0,0,0,0,0L69.4,71c0,0,0,0,0,0l-0.6,0.2l0-0.4l1-0.7l0.4,0c0,0,0,0,0,0l0.6-0.8c0,0,0,0,0,0l0.1-0.4l0.2-0.3  l1-0.1c0,0,0,0,0,0l0.4-0.3c0,0,0,0,0,0l0-0.5c0,0,0,0,0,0l-0.6-0.5l0-0.5l0.1-0.3l0.5,0.2l0.4,0.3c0,0,0,0,0,0l0.1-0.1c0,0,0,0,0,0  l0-0.5l0.1-0.2l0.2,0.1l0.3,0.5c0,0,0,0,0,0l0.2,0c0,0,0,0,0,0l0.3-0.2c0,0,0,0,0,0l0.1-0.5l0.1-0.1l0.3,0.9c0,0,0,0,0,0  c0,0,0,0,0,0l1.7-0.7l0.2,0l-0.1,0.1l-2.3,1.2c0,0,0,0,0,0L74,67.9c0,0,0,0,0,0s0,0,0,0l0.2,0.1c0,0,0,0,0,0l5.3-3.5c0,0,0,0,0,0  l0.7-2.2c0,0,0,0,0,0l-0.1-3.4l0.3-0.3l0.3-0.2l0.2,0l0.2,1.2c0,0,0,0,0,0h0l0.7,0l-0.1,0.4l-0.6,0.3c0,0,0,0,0,0c0,0,0,0,0,0  l0.2,0.1c0,0,0,0,0,0l3.2-1.8l1.8-0.2c0,0,0,0,0,0c0,0,0,0,0,0L86,57.7l0.5-0.6c0,0,0,0,0,0l0.2-0.7l0.4-0.5c0,0,0,0,0,0l0.1-0.5  c0,0,0,0,0,0L87,54.4c0,0,0,0,0,0L86.7,54l0.3-0.7c0,0,0,0,0,0l-0.3-0.6l0.8-1.9c0,0,0,0,0,0l-0.1-0.5l0.2-0.3c0,0,0,0,0,0l-0.3-0.4  L87.7,49.3C87.7,49.3,87.7,49.3,87.7,49.3z"/></svg>