<svg xmlns="http://www.w3.org/2000/svg" viewBox="0 0 100 100" fill="#e33400"><path d="M87.3,67.7l-0.8-1.2l0.5-1c0,0,0-0.1,0-0.1l-1.4-2.8l-0.8-36.5c0,0,0-0.1-0.1-0.1l-42.9,0.1L31,25.9c0,0-0.1,0-0.1,0  c0,0,0,0.1,0,0.1l1.5,2.6c0,0,0,0,0.1,0l1.2,0l1.4,0.5l0.5,0.6L35.5,30l-0.6-0.4c0,0-0.1,0-0.1,0l-0.5,0.2c0,0-0.1,0-0.1,0.1  l-0.1,1.6l-0.8,1l-0.7,0.3c0,0-0.1,0-0.1,0.1l0,0.2c0,0,0,0,0,0.1l1.8,1.4l1,3.3l-0.4,4.9l0,0l-0.6-1.2c0,0,0,0,0,0L34,41.3  c0,0,0,0-0.1,0l-1,0.3c0,0,0,0,0,0l-1.5,2.5l-1.6,1.3c0,0,0,0,0,0l-0.5,0.8c0,0,0,0,0,0.1c0,0,0,0,0,0.1l0.4,0.2l-0.2,1l-1.2,0  l0-1.9l2.2-4l0.9-0.4c0,0,0,0,0,0l0.3-0.5c0,0,0,0,0,0l0.3-1.5c0,0,0,0,0,0l-0.5-1.4c0,0,0-0.1-0.1-0.1l-2,0.2l-2.3-1.1c0,0,0,0,0,0  l-2.4,0.1L14.2,33c0,0-0.1,0-0.1,0l-0.7,0.8c0,0,0,0,0,0l-0.6,1.5c0,0,0,0,0,0l-0.1,1.7c0,0,0,0,0,0l0.2,1.3c0,0,0,0,0,0l2,3.2  l2.5,10.9c0,0,0,0,0,0l0.2,0.2c0,0,0,0,0.1,0c0,0,0,0,0.1,0l0.8-1l0.5,0.7l-0.3,1L18,54.5c0,0,0,0,0,0l0,1.3c0,0,0,0,0,0l0.3,0.5  c0,0,0,0,0,0l0.6,0.2c0,0,0,0,0.1,0l0.6-0.1l0.1,0.3l-0.1,3.3l-0.2,0.5L19,60.6l0-1.9c0,0,0,0,0-0.1L18.3,58c0,0-0.1,0-0.1,0  s-0.1,0-0.1,0.1l0,3.9c0,0,0,0,0,0.1l1.2,1c0,0,0,0,0.1,0l3.8,0l5,3.7l0.6,1.4l0.5,4.4c0,0,0,0.1,0.1,0.1L34,74c0,0,0,0,0,0  c0,0,0,0,0,0l2.9-0.8c0,0,0,0,0,0l1.8-1.2l4.8,0.1l1.5,1.4c0,0,0.1,0,0.1,0l5.3-1.8l1.4,0.7c0,0,0,0,0,0l2.5-0.4c0,0,0,0,0,0  l2.7-1.3l2.8-0.4c0,0,0,0,0,0l0.9-0.9l4.8-0.3c0,0,0,0,0,0l0.9-0.7l20.7-0.4C87.3,67.9,87.3,67.8,87.3,67.7  C87.3,67.8,87.3,67.7,87.3,67.7z"/></svg>