<svg xmlns="http://www.w3.org/2000/svg" viewBox="0 0 225 225"><title>cobra-25</title><g id="Layer_2" data-name="Layer 2"><g id="Layer_1-2" data-name="Layer 1"><path d="M185.47,167.54l26.45-15.27a6.15,6.15,0,0,0,.31-10.47l-84.6-55.86a6.15,6.15,0,0,0-9.54,5.51l6.07,101.19a6.16,6.16,0,0,0,9.23,5l29.19-16.85,13.56,28.79a9.51,9.51,0,0,0,13.35,4.18l11.07-6.4a9.5,9.5,0,0,0,3.06-13.64Zm14.73,32.55a4.45,4.45,0,0,1-2.14,2.91L187,209.4a4.49,4.49,0,0,1-3.6.39,4.44,4.44,0,0,1-2.72-2.37l-15.89-33.7-33.89,19.56a1.16,1.16,0,0,1-1.74-.93l-6.07-101.2a1.13,1.13,0,0,1,.58-1.08,1.16,1.16,0,0,1,1.22,0L209.48,146a1.16,1.16,0,0,1-.06,2l-31.16,18,21.25,30.61A4.47,4.47,0,0,1,200.2,200.09Z"/><path d="M209.05,159.7c-.88,1.8-1.8,3.56-2.77,5.3h-6.4l-7.2,4.16.58.84h10q-2.35,3.72-5,7.22l3,4.31a112.58,112.58,0,0,0,15.45-26.68,11.35,11.35,0,0,1-2.3,1.75Z"/><path d="M112.5,0a112.5,112.5,0,1,0,57.84,209l-2.15-4.57A107.06,107.06,0,0,1,150.7,213,87.59,87.59,0,0,0,166,199.82L163.75,195a76.86,76.86,0,0,1-27.5,20.19c6.34-5.56,12.14-13.42,17.15-23.33L145,196.69c-6.25,10.16-13.43,17.2-21.07,20.72a60.24,60.24,0,0,0,6.76-14l-.37,0a11.18,11.18,0,0,1-4.61-1c-3.31,9.17-7,15.06-10.7,16.93V170h2.79l-.3-5H115V123.46l-1.9-31.71a11.08,11.08,0,0,1,1.9-6.91V60h19.15c1.1,8,2,16.65,2.54,25.93l5.17,3.41c-.55-10.09-1.44-20-2.69-29.34h19.08a194,194,0,0,1,6.59,44.51l5.09,3.36A202.87,202.87,0,0,0,163.45,60h18.84a136.43,136.43,0,0,1,10.21,52.5q0,5.09-.35,10l4.76,3.15q.59-6.5.59-13.19A141.53,141.53,0,0,0,187.66,60h18.62a107.4,107.4,0,0,1,10.4,79,11,11,0,0,1,3.27,6.85A112.54,112.54,0,0,0,112.5,0ZM101.08,7.59C94.54,17,89.65,34.33,86.54,55H68.22a128.57,128.57,0,0,1,7.63-19.16C83,21.59,91.68,11.92,101.08,7.59ZM85.83,165H66.75A198.4,198.4,0,0,1,60,112.5,198.4,198.4,0,0,1,66.75,60H85.83a403.91,403.91,0,0,0-3.33,52.5A403.91,403.91,0,0,0,85.83,165Zm-24.28,0H42.71A136.4,136.4,0,0,1,32.5,112.5,136.43,136.43,0,0,1,42.71,60H61.55A204.79,204.79,0,0,0,55,112.5,204.79,204.79,0,0,0,61.55,165ZM71.37,33.6A136.38,136.38,0,0,0,63,55h-18C55,33.72,70.48,17.48,88.75,9.84,82.32,15.49,76.43,23.48,71.37,33.6ZM74.3,12C59.84,21.69,47.74,36.66,39.47,55H21.71A108.12,108.12,0,0,1,74.3,12ZM5,112.5A106.88,106.88,0,0,1,18.72,60H37.34a141.53,141.53,0,0,0-9.84,52.5A141.53,141.53,0,0,0,37.34,165H18.72A106.85,106.85,0,0,1,5,112.5ZM21.71,170H39.47c8.27,18.34,20.37,33.31,34.83,43A108.12,108.12,0,0,1,21.71,170Zm23.22,0H63a136.38,136.38,0,0,0,8.39,21.4c5.06,10.12,10.95,18.11,17.38,23.76C70.48,207.52,55,191.28,44.93,170Zm30.92,19.16A128.57,128.57,0,0,1,68.22,170H86.54c3.11,20.67,8,38,14.54,47.41C91.68,213.08,83,203.42,75.85,189.16ZM110,219.35c-7-3.55-14.12-21.67-18.42-49.35H110ZM110,165H90.85a388.91,388.91,0,0,1-3.35-52.5A388.91,388.91,0,0,1,90.85,60H110Zm0-110H91.58C95.88,27.32,103,9.2,110,5.65Zm5,0V5.65C122,9.2,129.12,27.32,133.42,55Zm23.46,0c-3.11-20.67-8-38-14.54-47.41,9.4,4.33,18.11,14,25.23,28.25A128.57,128.57,0,0,1,156.78,55ZM162,55a136.38,136.38,0,0,0-8.39-21.4c-5.06-10.12-10.95-18.11-17.38-23.76C154.52,17.48,170,33.72,180.07,55Zm23.51,0c-8.27-18.34-20.37-33.31-34.83-43a108.12,108.12,0,0,1,52.59,43Z"/></g></g></svg>