<svg xmlns="http://www.w3.org/2000/svg" viewBox="0 0 180 240"><title>cobra-4</title><g id="Layer_2" data-name="Layer 2"><g id="Layer_1-2" data-name="Layer 1"><path d="M177.07,47.07,132.93,2.93A10,10,0,0,0,125.86,0H10A10,10,0,0,0,0,10V230a10,10,0,0,0,10,10H170a10,10,0,0,0,10-10V54.14A10,10,0,0,0,177.07,47.07ZM172.93,50H136.5a7.5,7.5,0,0,1-7.5-7.5V6.14c.13.11.27.2.39.32ZM170,235H10a5,5,0,0,1-5-5V10a5,5,0,0,1,5-5H124V42.5A12.52,12.52,0,0,0,136.5,55H175V230A5,5,0,0,1,170,235Z"/><path d="M155.5,73H25.5a2.5,2.5,0,0,0,0,5h130a2.5,2.5,0,0,0,0-5Z"/><path d="M25.5,58h80a2.5,2.5,0,0,0,0-5h-80a2.5,2.5,0,0,0,0,5Z"/><path d="M25.5,38h80a2.5,2.5,0,0,0,0-5h-80a2.5,2.5,0,0,0,0,5Z"/><path d="M155.5,143H25.5a2.5,2.5,0,0,0,0,5h130a2.5,2.5,0,0,0,0-5Z"/><path d="M155.5,163H25.5a2.5,2.5,0,0,0,0,5h130a2.5,2.5,0,0,0,0-5Z"/><path d="M155.5,183H25.5a2.5,2.5,0,0,0,0,5h130a2.5,2.5,0,0,0,0-5Z"/><path d="M155.5,203H25.5a2.5,2.5,0,0,0,0,5h130a2.5,2.5,0,0,0,0-5Z"/><path d="M70,101.08a11.63,11.63,0,0,1,7.44,2.72L80,99.08a15.5,15.5,0,0,0-10-3.52c-9.48,0-15.36,6.64-15.36,14.44s5.88,14.44,15.36,14.44a15.5,15.5,0,0,0,10-3.52L77.4,116.2A11.63,11.63,0,0,1,70,118.92c-5.68,0-9.12-3.92-9.12-8.92S64.28,101.08,70,101.08Z"/><path d="M92.48,119a4.93,4.93,0,0,1-5.08-3.84l-5.52,1.08c.56,5.2,5.44,8.24,10.8,8.24,4.92,0,10-2.6,10-8.48,0-2.56-1.16-6.32-7.44-8.28l-3-1c-2.8-1-3-2.28-3-3,0-1.84,1.48-2.6,3.4-2.6,1.16,0,3.12.32,4.32,3.16l5-2.52a9.54,9.54,0,0,0-9.36-6.12c-5.48,0-9.44,3.12-9.44,8.16,0,2.32.92,6.2,7.12,8.32l3,1c2.64.92,3.24,1.92,3.24,3C96.68,118.16,94.68,119,92.48,119Z"/><path d="M116,119a4.93,4.93,0,0,1-5.08-3.84l-5.52,1.08c.56,5.2,5.44,8.24,10.8,8.24,4.92,0,10-2.6,10-8.48,0-2.56-1.16-6.32-7.44-8.28l-3-1c-2.8-1-3-2.28-3-3,0-1.84,1.48-2.6,3.4-2.6,1.16,0,3.12.32,4.32,3.16l5-2.52a9.54,9.54,0,0,0-9.36-6.12c-5.48,0-9.44,3.12-9.44,8.16,0,2.32.92,6.2,7.12,8.32l3,1c2.64.92,3.24,1.92,3.24,3C120.24,118.16,118.24,119,116,119Z"/></g></g></svg>