<svg xmlns="http://www.w3.org/2000/svg" viewBox="0 0 185 193.28"><title>cobra-5</title><g id="Layer_2" data-name="Layer 2"><g id="Layer_1-2" data-name="Layer 1"><path d="M182.5,174.14H93.68L80.27,160.73a2.5,2.5,0,0,0-3.54,3.54l9.88,9.87H14.28L183.52,98.93a2.5,2.5,0,0,0-1-4.79H93.68L80.27,80.73a2.5,2.5,0,0,0-3.54,3.54l9.88,9.87H14.28L183.52,18.93a2.5,2.5,0,0,0-1-4.79H93.68L80.27.73a2.5,2.5,0,0,0-3.54,3.54l9.88,9.87H2.5a2.5,2.5,0,0,0,0,5H86.61L76.73,29a2.5,2.5,0,0,0,3.54,3.53L93.68,19.14h77L1.48,94.36a2.5,2.5,0,0,0,1,4.78H86.61L76.73,109a2.5,2.5,0,0,0,3.54,3.53L93.68,99.14h77L1.48,174.36a2.5,2.5,0,0,0,1,4.78H86.61L76.73,189a2.5,2.5,0,0,0,3.54,3.53l13.41-13.41H182.5a2.5,2.5,0,0,0,0-5Z"/><path d="M126.62,141.23a11.63,11.63,0,0,1,7.44,2.72l2.56-4.72a15.5,15.5,0,0,0-10-3.52c-9.47,0-15.35,6.64-15.35,14.43s5.88,14.44,15.35,14.44a15.5,15.5,0,0,0,10-3.52l-2.56-4.72a11.63,11.63,0,0,1-7.44,2.72c-5.68,0-9.11-3.92-9.11-8.92S120.94,141.23,126.62,141.23Z"/><path d="M149.14,159.1a4.93,4.93,0,0,1-5.08-3.84l-5.51,1.08c.56,5.2,5.43,8.24,10.79,8.24,4.92,0,10-2.6,10-8.48,0-2.56-1.16-6.32-7.44-8.28l-3-1c-2.8-1-3-2.28-3-3,0-1.84,1.48-2.6,3.4-2.6,1.16,0,3.12.32,4.32,3.16l5-2.52a9.54,9.54,0,0,0-9.36-6.12c-5.48,0-9.43,3.12-9.43,8.16,0,2.32.92,6.19,7.11,8.31l3,1c2.64.92,3.24,1.92,3.24,3C153.34,158.3,151.34,159.1,149.14,159.1Z"/><path d="M172.7,159.1a4.93,4.93,0,0,1-5.08-3.84l-5.52,1.08c.56,5.2,5.44,8.24,10.8,8.24,4.92,0,10-2.6,10-8.48,0-2.56-1.16-6.32-7.44-8.28l-3-1c-2.8-1-3-2.28-3-3,0-1.84,1.48-2.6,3.4-2.6,1.16,0,3.12.32,4.32,3.16l5-2.52a9.54,9.54,0,0,0-9.36-6.12c-5.48,0-9.44,3.12-9.44,8.16,0,2.32.92,6.19,7.12,8.31l3,1c2.64.92,3.24,1.92,3.24,3C176.9,158.3,174.9,159.1,172.7,159.1Z"/></g></g></svg>