<svg xmlns="http://www.w3.org/2000/svg" viewBox="0 0 240 170"><title>cobra-16</title><g id="Layer_2" data-name="Layer 2"><g id="Layer_1-2" data-name="Layer 1"><circle cx="15" cy="15" r="5"/><circle cx="30" cy="15" r="5"/><circle cx="45" cy="15" r="5"/><path d="M144.67,79.73,100.94,58.07a5.47,5.47,0,0,0-5.33.26,5.86,5.86,0,0,0-2.74,5v43.3a5.86,5.86,0,0,0,2.74,5,5.5,5.5,0,0,0,2.89.83,5.43,5.43,0,0,0,2.44-.58l43.73-21.65a5.94,5.94,0,0,0,0-10.54Zm-2.22,6.06L98.72,107.44a.42.42,0,0,1-.47,0,.87.87,0,0,1-.38-.77V63.35a.87.87,0,0,1,.38-.77.48.48,0,0,1,.26-.08.65.65,0,0,1,.21,0l43.73,21.66a1,1,0,0,1,0,1.58Z"/><path d="M116.37,32.5A52.5,52.5,0,1,0,168.87,85,52.56,52.56,0,0,0,116.37,32.5Zm0,100A47.5,47.5,0,1,1,163.87,85,47.56,47.56,0,0,1,116.37,132.5Z"/><path d="M225.52,0h-211A14.5,14.5,0,0,0,0,14.48v141A14.5,14.5,0,0,0,14.48,170h211A14.5,14.5,0,0,0,240,155.52v-141A14.5,14.5,0,0,0,225.52,0ZM235,155.52a9.49,9.49,0,0,1-9.48,9.48h-211A9.49,9.49,0,0,1,5,155.52v-141A9.49,9.49,0,0,1,14.48,5h211A9.49,9.49,0,0,1,235,14.48Z"/></g></g></svg>