<svg xmlns="http://www.w3.org/2000/svg" viewBox="0 0 198.39 199.59"><title>cobra-11</title><g id="Layer_2" data-name="Layer 2"><g id="Layer_1-2" data-name="Layer 1"><path d="M6.54,30h6V14.16h4.6V9.64H12.5V7.32c0-.88.36-1.92,1.52-1.92s1.56.84,1.56,1.8a1.31,1.31,0,0,1-.16.68H20a3.9,3.9,0,0,0,.2-1.12c0-3-1.72-6.12-6.56-6.12-3.6,0-7.12,1.68-7.12,7.64V9.64H3.66v4.52H6.54Z"/><path d="M28.18,30.43a7.31,7.31,0,0,0,6.36-3.23V30h6V9.48h-6v11c0,2.84-1.16,5-3.92,5s-3.8-2.16-3.8-5v-11h-6V20.64C20.86,25.84,22.42,30.43,28.18,30.43Z"/><path d="M51.62,19c0-2.84,1.16-5,3.92-5s3.8,2.16,3.8,5V30h6V18.84C65.3,13.64,63.74,9,58,9a7.29,7.29,0,0,0-6.36,3.24V9.48h-6V30h6Z"/><path d="M80.38,30.39a13.42,13.42,0,0,0,8.4-3L86.06,23a8.2,8.2,0,0,1-5.4,2c-3.48,0-5.8-2.2-5.8-5.32s2.32-5.32,5.8-5.32a8.2,8.2,0,0,1,5.4,2l2.72-4.36a13.45,13.45,0,0,0-8.4-3c-7,0-11.48,4.6-11.48,10.68S73.34,30.39,80.38,30.39Z"/><path d="M93.66,23.2c0,6,3.52,7.23,7.12,7.23,4.84,0,6.84-3.07,6.84-6.11a6,6,0,0,0-.48-2.44h-4.72a6.47,6.47,0,0,1,.28,1.76c0,1-.4,1.92-1.56,1.92s-1.52-.92-1.52-1.8v-9.6h5.68V9.48H99.62v-5H95l-.92,5H90.58v4.68h3.08Z"/><path d="M113.7,7.36c2.12,0,3.8-1.36,3.8-3.32a3.53,3.53,0,0,0-3.8-3.4A3.47,3.47,0,0,0,109.94,4C109.94,6,111.54,7.36,113.7,7.36Z"/><rect x="110.66" y="9.48" width="5.96" height="20.52"/><path d="M131.82,30.43c6,0,11.27-4.31,11.27-10.71S137.82,9,131.82,9s-11.28,4.28-11.28,10.68S125.86,30.43,131.82,30.43Zm0-16.27a5.58,5.58,0,1,1-5.48,5.56A5.51,5.51,0,0,1,131.82,14.16Z"/><path d="M152.9,19c0-2.84,1.16-5,3.92-5s3.8,2.16,3.8,5V30h5.95V18.84c0-5.2-1.55-9.8-7.31-9.8a7.29,7.29,0,0,0-6.36,3.24V9.48h-6V30h6Z"/><path d="M183.94,22.64a18.25,18.25,0,0,1-1.2,4,25,25,0,0,0-1.52,6.79c0,4.32,3.52,6.12,7.28,6.12,1.12,0,2.84-.16,4.32-.32v-3.8a26.34,26.34,0,0,1-3.48.32c-2.12,0-2.64-1.32-2.64-2.8,0-3.07,2.4-6.59,2.4-9.43a3.49,3.49,0,0,0-2.88-3.44v-.64A3.49,3.49,0,0,0,189.1,16c0-2.84-2.4-6.36-2.4-9.44,0-1.48.52-2.8,2.64-2.8a26.34,26.34,0,0,1,3.48.32V.32C191.34.16,189.62,0,188.5,0c-3.76,0-7.28,1.8-7.28,6.12a25.15,25.15,0,0,0,1.52,6.8,18.91,18.91,0,0,1,1.2,4c0,.16-.08.32-.56.44l-3.32.76v3.28l3.32.76C183.86,22.32,183.94,22.48,183.94,22.64Z"/><path d="M193.26,177a18.91,18.91,0,0,1,1.2-4,25.15,25.15,0,0,0,1.52-6.8c0-4.32-3.52-6.12-7.28-6.12-1.12,0-2.84.16-4.32.32v3.8a26.34,26.34,0,0,1,3.48-.32c2.12,0,2.64,1.32,2.64,2.8,0,3.08-2.4,6.6-2.4,9.44a3.49,3.49,0,0,0,2.88,3.44v.64a3.49,3.49,0,0,0-2.88,3.44c0,2.84,2.4,6.36,2.4,9.43,0,1.48-.52,2.8-2.64,2.8a26.34,26.34,0,0,1-3.48-.32v3.8c1.48.16,3.2.32,4.32.32,3.76,0,7.28-1.8,7.28-6.12a25,25,0,0,0-1.52-6.79,18.25,18.25,0,0,1-1.2-4c0-.16.08-.32.56-.44l3.32-.76v-3.28l-3.32-.76C193.34,177.28,193.26,177.12,193.26,177Z"/><path d="M2.5,70.5H195.89a2.5,2.5,0,0,0,0-5H2.5a2.5,2.5,0,0,0,0,5Z"/><path d="M195.89,105.5H2.5a2.5,2.5,0,0,0,0,5H195.89a2.5,2.5,0,0,0,0-5Z"/><path d="M195.89,145.5H2.5a2.5,2.5,0,0,0,0,5H195.89a2.5,2.5,0,0,0,0-5Z"/><path d="M169.23,185.5H2.5a2.5,2.5,0,0,0,0,5H169.23a2.5,2.5,0,1,0,0-5Z"/></g></g></svg>