<svg xmlns="http://www.w3.org/2000/svg" viewBox="0 0 185 155"><title>cobra-33</title><g id="Layer_2" data-name="Layer 2"><g id="Layer_1-2" data-name="Layer 1"><path d="M172.5,0H12.5A12.52,12.52,0,0,0,0,12.5v130A12.52,12.52,0,0,0,12.5,155h160A12.52,12.52,0,0,0,185,142.5V12.5A12.52,12.52,0,0,0,172.5,0ZM12.5,5h160a7.5,7.5,0,0,1,7.5,7.5V63.32L144.46,27.78a8.92,8.92,0,0,0-12.63,0l-56,56L49.68,57.63a8.93,8.93,0,0,0-12.63,0L5,89.68V12.5A7.5,7.5,0,0,1,12.5,5ZM5,142.5V96.75L40.59,61.16a3.94,3.94,0,0,1,5.56,0L73.68,88.69a2.36,2.36,0,0,0,.34.44,2.79,2.79,0,0,0,.43.34L135,150H12.5A7.5,7.5,0,0,1,5,142.5ZM172.5,150H142.05L79.37,87.31l56-56a4,4,0,0,1,5.55,0L180,70.39V142.5A7.5,7.5,0,0,1,172.5,150Z"/><path d="M73.21,57.51A21.79,21.79,0,1,0,51.43,35.73,21.81,21.81,0,0,0,73.21,57.51Zm0-38.57A16.79,16.79,0,1,1,56.43,35.73,16.81,16.81,0,0,1,73.21,18.94Z"/></g></g></svg>