<svg xmlns="http://www.w3.org/2000/svg" viewBox="0 0 185 249"><title>cobra-3</title><g id="Layer_2" data-name="Layer 2"><g id="Layer_1-2" data-name="Layer 1"><path d="M182.5,49a2.5,2.5,0,0,0,0-5H2.5a2.5,2.5,0,0,0,0,5H90V246.5a2.5,2.5,0,0,0,5,0V49Z"/><polygon points="44 17 55 17 55 28 61 28 61 0 55 0 55 12 44 12 44 0 38 0 38 28 44 28 44 17"/><polygon points="74 28 80 28 80 5 88 5 88 0 66 0 66 5 74 5 74 28"/><polygon points="97.88 10.96 104.88 28 108.88 28 115.88 10.96 117.35 27 122.96 27 120.45 0 114.44 0 106.88 18.17 99.32 0 93.3 0 90.79 27 96.4 27 97.88 10.96"/><polygon points="148 23 135 23 135 0 129 0 129 28 148 28 148 23"/><path d="M72.5,84H2.5a2.5,2.5,0,0,0,0,5h70a2.5,2.5,0,0,0,0-5Z"/><path d="M182.5,84h-70a2.5,2.5,0,0,0,0,5h70a2.5,2.5,0,0,0,0-5Z"/><path d="M72.5,124H2.5a2.5,2.5,0,0,0,0,5h70a2.5,2.5,0,0,0,0-5Z"/><path d="M182.5,124h-70a2.5,2.5,0,0,0,0,5h70a2.5,2.5,0,0,0,0-5Z"/><path d="M72.5,164H2.5a2.5,2.5,0,0,0,0,5h70a2.5,2.5,0,0,0,0-5Z"/><path d="M182.5,164h-70a2.5,2.5,0,0,0,0,5h70a2.5,2.5,0,0,0,0-5Z"/><path d="M72.5,204H2.5a2.5,2.5,0,0,0,0,5h70a2.5,2.5,0,0,0,0-5Z"/><path d="M182.5,204h-70a2.5,2.5,0,0,0,0,5h70a2.5,2.5,0,0,0,0-5Z"/></g></g></svg>