<svg xmlns="http://www.w3.org/2000/svg" viewBox="0 0 241.09 241.82"><title>cobra-19</title><g id="Layer_2" data-name="Layer 2"><g id="Layer_1-2" data-name="Layer 1"><path d="M193.81,163.41a2.5,2.5,0,0,0-2.5,2.5l-2.5,30a5,5,0,1,0,10,0l-2.5-30A2.5,2.5,0,0,0,193.81,163.41Z"/><path d="M210.88,154.28l1.8-6.73A5,5,0,1,0,203,145l-1.76,6.58a45,45,0,1,0,9.62,2.74Zm-17.07,76.63a35,35,0,1,1,35-35A35,35,0,0,1,193.81,230.91Z"/><path d="M74.07,50.61A5,5,0,0,0,67,43.54L7.31,103.23a25,25,0,0,0,0,35.36L67,198.28a5,5,0,0,0,7.07-7.07L14.38,131.52a15,15,0,0,1,0-21.21Z"/><path d="M152.89.17a5,5,0,0,0-6.12,3.54L84.65,235.53a5,5,0,0,0,3.54,6.12,4.77,4.77,0,0,0,1.29.17,5,5,0,0,0,4.83-3.7L156.43,6.29A5,5,0,0,0,152.89.17Z"/><path d="M226.69,110.31a15,15,0,0,1,0,21.21l-6.39,6.4a15,15,0,0,1,2.29,11.13l.44.28,10.73-10.74a25,25,0,0,0,0-35.36L174.07,43.54A5,5,0,0,0,167,50.61Z"/></g></g></svg>