<svg xmlns="http://www.w3.org/2000/svg" viewBox="0 0 200.08 140"><title>cobra-8</title><g id="Layer_2" data-name="Layer 2"><g id="Layer_1-2" data-name="Layer 1"><path d="M190.08,40h-25a10,10,0,0,0-10,10v60a10,10,0,0,0,10,10h25a10,10,0,0,0,10-10V50A10,10,0,0,0,190.08,40Zm5,70a5,5,0,0,1-5,5h-25a5,5,0,0,1-5-5V50a5,5,0,0,1,5-5h25a5,5,0,0,1,5,5Z"/><circle cx="177.58" cy="105" r="5"/><circle cx="90" cy="105" r="5"/><path d="M151,115H10.45A5.46,5.46,0,0,1,5,109.55V10.45A5.46,5.46,0,0,1,10.45,5h159.1A5.46,5.46,0,0,1,175,10.45V35h5V10.45A10.45,10.45,0,0,0,169.55,0H10.45A10.45,10.45,0,0,0,0,10.45v99.1A10.45,10.45,0,0,0,10.45,120H60c0,8.27-9,15-20,15H32.53a2.5,2.5,0,0,0,0,5H40c13.79,0,25-9,25-20h50c0,11,11.18,20,25,20h7.5a2.5,2.5,0,1,0,0-5H140c-11,0-20-6.73-20-15h33.93A14.79,14.79,0,0,1,151,115Z"/></g></g></svg>