<svg xmlns="http://www.w3.org/2000/svg" viewBox="0 0 228.13 178.87"><title>cobra-26</title><g id="Layer_2" data-name="Layer 2"><g id="Layer_1-2" data-name="Layer 1"><path d="M70.83,20.49A2.5,2.5,0,0,0,67.3,17L3.66,80.6a12.49,12.49,0,0,0,0,17.67L67.3,161.91a2.45,2.45,0,0,0,1.76.73,2.5,2.5,0,0,0,1.77-4.26L7.19,94.74a7.52,7.52,0,0,1,0-10.61Z"/><path d="M224.47,80.6,160.83,17a2.5,2.5,0,1,0-3.53,3.53l63.63,63.64a7.5,7.5,0,0,1,0,10.61L157.3,158.38a2.49,2.49,0,0,0,0,3.53,2.45,2.45,0,0,0,1.76.73,2.49,2.49,0,0,0,1.77-.73l63.64-63.64A12.51,12.51,0,0,0,224.47,80.6Z"/><path d="M138,.09a2.5,2.5,0,0,0-3.06,1.76L88.35,175.72a2.51,2.51,0,0,0,1.77,3.06A2.48,2.48,0,0,0,93.18,177L139.77,3.15A2.49,2.49,0,0,0,138,.09Z"/></g></g></svg>