<svg xmlns="http://www.w3.org/2000/svg" viewBox="0 0 240 180"><title>cobra-7</title><g id="Layer_2" data-name="Layer 2"><g id="Layer_1-2" data-name="Layer 1"><path d="M85,140h70a10,10,0,0,0,10-10V10a10,10,0,0,0-4.9-8.59l-.07,0a9.74,9.74,0,0,0-2.27-1l-.27-.06a9,9,0,0,0-.93-.2l-.33,0A9.9,9.9,0,0,0,155,0H85a9.9,9.9,0,0,0-1.23.08l-.33.05a9,9,0,0,0-.93.2l-.27.06a9.74,9.74,0,0,0-2.27,1l-.07,0A10,10,0,0,0,75,10V130A10,10,0,0,0,85,140Zm75-10a5,5,0,0,1-5,5H85a5,5,0,0,1-5-5V10a5,5,0,0,1,5-5h70a5,5,0,0,1,5,5Z"/><path d="M227.46,0h-61.3a15.05,15.05,0,0,1,3,5h58.33A7.55,7.55,0,0,1,235,12.54V167.46a7.55,7.55,0,0,1-7.54,7.54H12.54A7.55,7.55,0,0,1,5,167.46V12.54A7.55,7.55,0,0,1,12.54,5H70.87a15.05,15.05,0,0,1,3-5H12.54A12.53,12.53,0,0,0,0,12.54V167.46A12.53,12.53,0,0,0,12.54,180H227.46A12.53,12.53,0,0,0,240,167.46V12.54A12.53,12.53,0,0,0,227.46,0Z"/><path d="M166.53,143.44l60.19,27.34a2.5,2.5,0,0,0,2.06-4.56L168.6,138.89a2.5,2.5,0,0,0-2.07,4.55Z"/><path d="M71.5,138.89,11.31,166.22a2.5,2.5,0,0,0,2.07,4.56l60.19-27.34a2.5,2.5,0,1,0-2.07-4.55Z"/><path d="M150,10H90a2.5,2.5,0,0,0,0,5h60a2.5,2.5,0,0,0,0-5Z"/><path d="M150,70H90a2.5,2.5,0,0,0,0,5h60a2.5,2.5,0,0,0,0-5Z"/><path d="M145,20H95a7.5,7.5,0,0,0-7.5,7.5v30A7.5,7.5,0,0,0,95,65h50a7.5,7.5,0,0,0,7.5-7.5v-30A7.5,7.5,0,0,0,145,20Zm2.5,37.5A2.5,2.5,0,0,1,145,60H95a2.5,2.5,0,0,1-2.5-2.5v-30A2.5,2.5,0,0,1,95,25h50a2.5,2.5,0,0,1,2.5,2.5Z"/><path d="M150,80H90a2.5,2.5,0,0,0,0,5h60a2.5,2.5,0,0,0,0-5Z"/><path d="M150,90H90a2.5,2.5,0,0,0,0,5h60a2.5,2.5,0,0,0,0-5Z"/><path d="M145,110H95a7.5,7.5,0,0,0-7.5,7.5v12.44h5V117.5A2.5,2.5,0,0,1,95,115h50a2.5,2.5,0,0,1,2.5,2.5v12.44h5V117.5A7.5,7.5,0,0,0,145,110Z"/></g></g></svg>