<svg xmlns="http://www.w3.org/2000/svg" viewBox="0 0 205 214.33"><title>cobra-14</title><g id="Layer_2" data-name="Layer 2"><g id="Layer_1-2" data-name="Layer 1"><path d="M202.5,10H105V2.5a2.5,2.5,0,0,0-5,0V10H2.5a2.5,2.5,0,0,0,0,5H10V152.5A12.52,12.52,0,0,0,22.5,165H78.93L63.28,208a2.51,2.51,0,0,0,1.49,3.21,2.55,2.55,0,0,0,.86.15A2.5,2.5,0,0,0,68,209.71L84.25,165H100v46.83a2.5,2.5,0,1,0,5,0V165h15.75L137,209.71a2.5,2.5,0,0,0,2.35,1.65,2.55,2.55,0,0,0,.86-.15,2.51,2.51,0,0,0,1.49-3.21l-15.65-43H182.5A12.52,12.52,0,0,0,195,152.5V15h7.5a2.5,2.5,0,0,0,0-5ZM190,152.5a7.5,7.5,0,0,1-7.5,7.5H22.5a7.5,7.5,0,0,1-7.5-7.5V15H190Z"/><polygon points="64.58 85.66 53.94 85.66 53.94 73.5 47.74 73.5 47.74 101.5 53.94 101.5 53.94 90.58 64.58 90.58 64.58 101.5 70.78 101.5 70.78 73.5 64.58 73.5 64.58 85.66"/><polygon points="75.06 78.7 82.94 78.7 82.94 101.5 89.06 101.5 89.06 78.7 97.02 78.7 97.02 73.5 75.06 73.5 75.06 78.7"/><polygon points="99.62 101.5 105.82 101.5 107.3 84.46 114.3 101.18 118.3 101.18 125.3 84.46 126.78 101.5 132.98 101.5 130.38 73.5 124.14 73.5 116.3 92.34 108.46 73.5 102.22 73.5 99.62 101.5"/><polygon points="157.26 96.58 144.58 96.58 144.58 73.5 138.38 73.5 138.38 101.5 157.26 101.5 157.26 96.58"/></g></g></svg>