<svg xmlns="http://www.w3.org/2000/svg" viewBox="0 0 260 200"><title>cobra-9</title><g id="Layer_2" data-name="Layer 2"><g id="Layer_1-2" data-name="Layer 1"><path d="M205,102.5H115a7.5,7.5,0,0,0-7.5,7.5v40a7.5,7.5,0,0,0,7.5,7.5h90a7.5,7.5,0,0,0,7.5-7.5V110A7.5,7.5,0,0,0,205,102.5Zm2.5,47.5a2.5,2.5,0,0,1-2.5,2.5H115a2.5,2.5,0,0,1-2.5-2.5V110a2.5,2.5,0,0,1,2.5-2.5h90a2.5,2.5,0,0,1,2.5,2.5Z"/><circle cx="15" cy="15" r="5"/><circle cx="30" cy="15" r="5"/><circle cx="45" cy="15" r="5"/><path d="M250,60H70A10,10,0,0,0,60,70V190a10,10,0,0,0,10,10H250a10,10,0,0,0,10-10V70A10,10,0,0,0,250,60Zm5,130a5,5,0,0,1-5,5H70a5,5,0,0,1-5-5V70a5,5,0,0,1,5-5H250a5,5,0,0,1,5,5Z"/><circle cx="45" cy="45" r="5"/><circle cx="60" cy="45" r="5"/><circle cx="75" cy="45" r="5"/><circle cx="75" cy="75" r="5"/><circle cx="90" cy="75" r="5"/><circle cx="105" cy="75" r="5"/><path d="M5,130V10a5,5,0,0,1,5-5H190a5,5,0,0,1,5,5V25h5V10A10,10,0,0,0,190,0H10A10,10,0,0,0,0,10V130a10,10,0,0,0,10,10H25v-5H10A5,5,0,0,1,5,130Z"/><path d="M35,160V40a5,5,0,0,1,5-5H220a5,5,0,0,1,5,5V55h5V40a10,10,0,0,0-10-10H40A10,10,0,0,0,30,40V160a10,10,0,0,0,10,10H55v-5H40A5,5,0,0,1,35,160Z"/><path d="M210,92.5H110a2.5,2.5,0,0,0,0,5H210a2.5,2.5,0,0,0,0-5Z"/><path d="M210,162.5H110a2.5,2.5,0,0,0,0,5H210a2.5,2.5,0,0,0,0-5Z"/><path d="M210,172.5H110a2.5,2.5,0,0,0,0,5H210a2.5,2.5,0,0,0,0-5Z"/><path d="M210,182.5H110a2.5,2.5,0,0,0,0,5H210a2.5,2.5,0,0,0,0-5Z"/></g></g></svg>