<svg xmlns="http://www.w3.org/2000/svg" viewBox="0 0 180 240"><title>cobra-31</title><g id="Layer_2" data-name="Layer 2"><g id="Layer_1-2" data-name="Layer 1"><path d="M177.07,47.07,132.93,2.93A10,10,0,0,0,125.86,0H10A10,10,0,0,0,0,10V230a10,10,0,0,0,10,10H170a10,10,0,0,0,10-10V54.14A10,10,0,0,0,177.07,47.07ZM129,6.14c.13.11.27.2.39.32L172.93,50H136.5a7.5,7.5,0,0,1-7.5-7.5ZM175,230a5,5,0,0,1-5,5H10a5,5,0,0,1-5-5V10a5,5,0,0,1,5-5H124V42.5A12.52,12.52,0,0,0,136.5,55H175Z"/><path d="M120,82.5H60A2.5,2.5,0,0,0,57.5,85V95a2.5,2.5,0,0,0,5,0V87.5h25v65H80a2.5,2.5,0,0,0,0,5h20a2.5,2.5,0,0,0,0-5H92.5v-65h25V95a2.5,2.5,0,0,0,5,0V85A2.5,2.5,0,0,0,120,82.5Z"/></g></g></svg>