<svg xmlns="http://www.w3.org/2000/svg" viewBox="0 0 180 207.5"><title>cobra-12</title><g id="Layer_2" data-name="Layer 2"><g id="Layer_1-2" data-name="Layer 1"><path d="M113.76,49.14V33.46h-6.2V49.14c0,5-1.44,7.6-5.52,7.6-3.52,0-4.84-2.68-4.84-5.08a8.4,8.4,0,0,1,1.24-4.24H92.72a8.58,8.58,0,0,0-1.4,4.68c0,4.44,2.8,9.84,10.8,9.84C109.56,61.94,113.76,57.7,113.76,49.14Z"/><path d="M128.44,56.46a4.93,4.93,0,0,1-5.08-3.84l-5.52,1.08c.56,5.2,5.44,8.24,10.8,8.24,4.92,0,10-2.6,10-8.48,0-2.56-1.16-6.32-7.44-8.28l-3-1c-2.8-1-3-2.28-3-3,0-1.84,1.48-2.6,3.4-2.6,1.16,0,3.12.32,4.32,3.16l5-2.52a9.54,9.54,0,0,0-9.36-6.12c-5.48,0-9.44,3.12-9.44,8.16,0,2.32.92,6.2,7.12,8.32l3,1c2.64.92,3.24,1.92,3.24,3C132.64,55.66,130.64,56.46,128.44,56.46Z"/><path d="M80,52.5h.06A50,50,0,0,0,130,100h20V77.5h27.5a2.5,2.5,0,0,0,0-5H150v-45h27.5a2.5,2.5,0,0,0,0-5H150V0H130A50,50,0,0,0,80.06,47.5H80a80,80,0,0,0,0,160h97.5a2.5,2.5,0,0,0,0-5H80a75,75,0,0,1,0-150ZM130,5h15V95H130a45,45,0,0,1,0-90Z"/></g></g></svg>