<svg xmlns="http://www.w3.org/2000/svg" viewBox="0 0 214.98 208.5"><title>cobra-21</title><g id="Layer_2" data-name="Layer 2"><g id="Layer_1-2" data-name="Layer 1"><path d="M170,131a2.5,2.5,0,0,0-2.5,2.5l-2.5,30a5,5,0,0,0,10,0l-2.5-30A2.5,2.5,0,0,0,170,131Z"/><path d="M187.05,121.87l1.8-6.73a5,5,0,1,0-9.66-2.59l-1.76,6.58a45,45,0,1,0,9.62,2.74ZM170,198.5a35,35,0,1,1,35-35A35,35,0,0,1,170,198.5Z"/><path d="M47,10A5,5,0,0,0,47,0,19.13,19.13,0,0,0,33,5.82C21,17.87,21.12,46.41,21.22,63.45c0,1.36,0,2.63,0,3.8,0,14-16.14,16.2-16.85,16.29-.14,0-.26.06-.39.08s-.33.06-.48.11a4.71,4.71,0,0,0-.52.21,3.92,3.92,0,0,0-.36.16,4.65,4.65,0,0,0-.52.34l-.27.18a5.1,5.1,0,0,0-.47.46c-.07.07-.14.13-.21.21s-.27.37-.4.57-.09.14-.14.21a6.36,6.36,0,0,0-.31.71c0,.06,0,.11-.07.17a5.08,5.08,0,0,0-.19.86.29.29,0,0,0,0,.09v0a3.92,3.92,0,0,0,0,.84v.18s0,.1,0,.14a4.44,4.44,0,0,0,.16.76v0a5,5,0,0,0,2.3,2.94l.13.06a4.58,4.58,0,0,0,.71.33l.28.08a4.56,4.56,0,0,0,.64.14.7.7,0,0,0,.14,0c.69.09,16.85,2.28,16.85,16.29,0,1.17,0,2.45,0,3.8-.1,17-.25,45.58,11.74,57.63A19.13,19.13,0,0,0,47,177a5,5,0,0,0,0-10,9.21,9.21,0,0,1-6.93-2.87c-9.06-9.11-8.91-36-8.83-50.53,0-1.37,0-2.66,0-3.85,0-10.5-5.5-17.22-11.87-21.25,6.37-4,11.87-10.75,11.87-21.25,0-1.19,0-2.48,0-3.85C31.14,48.92,31,22,40.05,12.87A9.21,9.21,0,0,1,47,10Z"/><circle cx="96.98" cy="73.5" r="5"/><path d="M98.27,98.67A5,5,0,0,0,92,103.34l-2.6,18.83a2.5,2.5,0,0,0,4.83,1.3l7.16-17.61a4.71,4.71,0,0,0,.43-1.06A5,5,0,0,0,98.27,98.67Z"/><path d="M147,10a9.2,9.2,0,0,1,6.93,2.87C163,22,162.82,48.92,162.75,63.4c0,1.37,0,2.66,0,3.85,0,10.5,5.5,17.22,11.87,21.25C168.39,92.43,163,98.93,162.76,109a55.41,55.41,0,0,1,7.22-.49h0a15.07,15.07,0,0,1,4.81-6.48c4.38-7.14,14.22-8.49,14.77-8.56l.15,0a5.59,5.59,0,0,0,.56-.12l.38-.11c.16-.06.31-.14.46-.21a3,3,0,0,0,.4-.2c.11-.06.21-.15.32-.22a5,5,0,0,0,1.53-1.71h0a5.25,5.25,0,0,0,.33-.77s0,0,0-.08a5.42,5.42,0,0,0,.17-.8.43.43,0,0,0,0-.11s0,0,0,0a3.92,3.92,0,0,0,0-.84v-.18a.66.66,0,0,1,0-.14,6,6,0,0,0-.14-.61c0-.08,0-.15-.05-.22a4.25,4.25,0,0,0-.28-.73s0-.11-.08-.16a4.1,4.1,0,0,0-.42-.66l-.1-.15a6.38,6.38,0,0,0-.51-.53c-.06-.06-.11-.12-.17-.17s-.36-.27-.54-.39l-.27-.16a5.69,5.69,0,0,0-.56-.26l-.34-.14-.57-.13a3.4,3.4,0,0,0-.34-.07c-.68-.09-16.85-2.28-16.85-16.29,0-1.17,0-2.44,0-3.8.09-17,.24-45.58-11.75-57.63A19.12,19.12,0,0,0,147,0a5,5,0,0,0,0,10Z"/></g></g></svg>