<svg xmlns="http://www.w3.org/2000/svg" viewBox="0 0 178.54 205"><title>cobra-32</title><g id="Layer_2" data-name="Layer 2"><g id="Layer_1-2" data-name="Layer 1"><path d="M24.27,30h20a2.5,2.5,0,1,0,0-5h-20a2.5,2.5,0,1,0,0,5Z"/><circle cx="44.27" cy="57.5" r="5"/><path d="M16,.73a2.5,2.5,0,0,0-3.53,0L1.25,12a4.27,4.27,0,0,0,0,6L12.5,29.27A2.5,2.5,0,0,0,16,25.73L5.3,15,16,4.27A2.5,2.5,0,0,0,16,.73Z"/><path d="M52.5,29.27a2.5,2.5,0,0,0,3.53,0L67.28,18a4.27,4.27,0,0,0,0-6L56,.73A2.5,2.5,0,0,0,52.5,4.27L63.23,15,52.5,25.73A2.5,2.5,0,0,0,52.5,29.27Z"/><circle cx="44.27" cy="87.5" r="5"/><circle cx="44.27" cy="117.5" r="5"/><circle cx="44.27" cy="147.5" r="5"/><path d="M74.13,175.73a2.5,2.5,0,0,0-3.54,3.54L81.32,190,70.59,200.73a2.5,2.5,0,0,0,3.54,3.54L85.38,193a4.29,4.29,0,0,0,0-6Z"/><path d="M62.68,171.11a2.5,2.5,0,0,0-3.06,1.77l-7.77,29a2.51,2.51,0,0,0,1.77,3.07,2.82,2.82,0,0,0,.65.08,2.51,2.51,0,0,0,2.41-1.85l7.77-29A2.51,2.51,0,0,0,62.68,171.11Z"/><path d="M44.27,200h-20a2.5,2.5,0,0,0,0,5h20a2.5,2.5,0,1,0,0-5Z"/><path d="M16,175.73a2.5,2.5,0,0,0-3.53,0L1.25,187a4.27,4.27,0,0,0,0,6L12.5,204.27A2.5,2.5,0,1,0,16,200.73L5.3,190,16,179.27A2.5,2.5,0,0,0,16,175.73Z"/><path d="M121.79,145H64.27a2.5,2.5,0,1,0,0,5h57.52a2.5,2.5,0,1,0,0-5Z"/><path d="M176,115H64.27a2.5,2.5,0,1,0,0,5H176a2.5,2.5,0,0,0,0-5Z"/><path d="M64.27,85a2.5,2.5,0,1,0,0,5H140a2.5,2.5,0,0,0,0-5Z"/><path d="M61.77,57.5a2.49,2.49,0,0,0,2.5,2.5h100a2.5,2.5,0,0,0,0-5h-100A2.49,2.49,0,0,0,61.77,57.5Z"/></g></g></svg>