<svg xmlns="http://www.w3.org/2000/svg" viewBox="0 0 199.14 165"><title>cobra-13</title><g id="Layer_2" data-name="Layer 2"><g id="Layer_1-2" data-name="Layer 1"><path d="M198.41,137.42a2.5,2.5,0,0,0-3.54,0L185,147.29V2.5a2.5,2.5,0,0,0-5,0V147.29l-9.87-9.87a2.5,2.5,0,0,0-3.54,3.53l14.14,14.14a3.79,3.79,0,0,0,.38.32l.19.1.24.13.25.07.22.07a2.43,2.43,0,0,0,1,0l.22-.07.25-.07.24-.13.19-.1a3.79,3.79,0,0,0,.38-.32L198.41,141A2.49,2.49,0,0,0,198.41,137.42Z"/><path d="M152.5,0H12.5A12.52,12.52,0,0,0,0,12.5v20A12.52,12.52,0,0,0,12.5,45h140A12.52,12.52,0,0,0,165,32.5v-20A12.52,12.52,0,0,0,152.5,0ZM160,32.5a7.5,7.5,0,0,1-7.5,7.5H12.5A7.5,7.5,0,0,1,5,32.5v-20A7.5,7.5,0,0,1,12.5,5h140a7.5,7.5,0,0,1,7.5,7.5Z"/><path d="M162.5,80H2.5a2.5,2.5,0,0,0,0,5h160a2.5,2.5,0,0,0,0-5Z"/><path d="M162.5,120H2.5a2.5,2.5,0,0,0,0,5h160a2.5,2.5,0,0,0,0-5Z"/><path d="M162.5,160H2.5a2.5,2.5,0,0,0,0,5h160a2.5,2.5,0,0,0,0-5Z"/></g></g></svg>