<svg xmlns="http://www.w3.org/2000/svg" viewBox="0 0 186 190"><title>cobra-28</title><g id="Layer_2" data-name="Layer 2"><g id="Layer_1-2" data-name="Layer 1"><path d="M182.5,65H2.5a2.5,2.5,0,0,0,0,5h180a2.5,2.5,0,0,0,0-5Z"/><path d="M183.5,25H26a2.5,2.5,0,0,0,0,5H183.5a2.5,2.5,0,0,0,0-5Z"/><path d="M182.5,105H2.5a2.5,2.5,0,0,0,0,5h180a2.5,2.5,0,0,0,0-5Z"/><path d="M182.5,145H2.5a2.5,2.5,0,0,0,0,5h180a2.5,2.5,0,0,0,0-5Z"/><path d="M134.79,185H2.5a2.5,2.5,0,0,0,0,5H134.79a2.5,2.5,0,0,0,0-5Z"/><path d="M172.5,160.73a2.5,2.5,0,0,0-3.54,3.54L179.7,175,169,185.73a2.52,2.52,0,0,0,0,3.54,2.51,2.51,0,0,0,3.54,0L183.75,178a4.29,4.29,0,0,0,0-6Z"/><path d="M161.05,156.11a2.5,2.5,0,0,0-3.06,1.77l-7.76,29a2.5,2.5,0,0,0,1.76,3.07,3,3,0,0,0,.65.08,2.51,2.51,0,0,0,2.42-1.85l7.76-29A2.49,2.49,0,0,0,161.05,156.11Z"/><path d="M12.5,29.27a2.51,2.51,0,0,0,3.54,0,2.52,2.52,0,0,0,0-3.54L5.3,15,16,4.27A2.5,2.5,0,0,0,12.5.73L1.25,12a4.29,4.29,0,0,0,0,6Z"/></g></g></svg>