<svg xmlns="http://www.w3.org/2000/svg" viewBox="0 0 165 208.27"><title>cobra-15</title><g id="Layer_2" data-name="Layer 2"><g id="Layer_1-2" data-name="Layer 1"><path d="M165,42.26V12.5A12.49,12.49,0,0,0,150.57.15L10.57,22A12.43,12.43,0,0,0,0,34.37V64.13A12.5,12.5,0,0,0,14.43,76.48L20,75.61v57.05l-5.57-.87A12.49,12.49,0,0,0,0,144.14v29.75a12.44,12.44,0,0,0,10.57,12.35l140,21.88A12.49,12.49,0,0,0,165,195.77V166a12.44,12.44,0,0,0-10.57-12.35L25,133.44V74.83L154.43,54.61A12.44,12.44,0,0,0,165,42.26ZM160,166v29.76a7.49,7.49,0,0,1-8.66,7.41l-140-21.88A7.46,7.46,0,0,1,5,173.89V144.14a7.49,7.49,0,0,1,8.66-7.41l140,21.87A7.47,7.47,0,0,1,160,166Zm0-123.75a7.47,7.47,0,0,1-6.34,7.41l-140,21.87A7.49,7.49,0,0,1,5,64.13V34.37A7.48,7.48,0,0,1,11.34,27l140-21.87A7.65,7.65,0,0,1,152.5,5a7.49,7.49,0,0,1,7.5,7.5Z"/><path d="M154.87,84.79a2.5,2.5,0,0,0,3.54-3.53L144.27,67.12a3.79,3.79,0,0,0-.38-.32l-.18-.09a1.49,1.49,0,0,0-.25-.13,1.21,1.21,0,0,0-.25-.08l-.22-.07a2.69,2.69,0,0,0-1,0l-.22.07a1.21,1.21,0,0,0-.25.08,2,2,0,0,0-.25.13l-.18.09a3.79,3.79,0,0,0-.38.32L126.59,81.26a2.5,2.5,0,1,0,3.54,3.53L140,74.92v57.93L130.13,123a2.5,2.5,0,0,0-3.54,3.54l14.14,14.14a2.72,2.72,0,0,0,.38.31l.18.1a2,2,0,0,0,.25.13,1.21,1.21,0,0,0,.25.08l.22.07a3,3,0,0,0,1,0l.22-.07a1.21,1.21,0,0,0,.25-.08,2,2,0,0,0,.25-.13l.18-.1a2.72,2.72,0,0,0,.38-.31l14.14-14.14a2.5,2.5,0,0,0-3.54-3.54L145,132.85V74.92Z"/></g></g></svg>