<svg xmlns="http://www.w3.org/2000/svg" viewBox="0 0 180 240"><title>cobra-27</title><g id="Layer_2" data-name="Layer 2"><g id="Layer_1-2" data-name="Layer 1"><path d="M177.07,47.07,132.93,2.93A10,10,0,0,0,125.86,0H10A10,10,0,0,0,0,10V230a10,10,0,0,0,10,10H170a10,10,0,0,0,10-10V54.14A10,10,0,0,0,177.07,47.07ZM172.93,50H136.5a7.5,7.5,0,0,1-7.5-7.5V6.14c.13.11.27.2.39.32ZM170,235H10a5,5,0,0,1-5-5V10a5,5,0,0,1,5-5H124V42.5A12.52,12.52,0,0,0,136.5,55H175V230A5,5,0,0,1,170,235Z"/><path d="M25.5,72.5H52.81a2.5,2.5,0,0,0,0-5H25.5a2.5,2.5,0,0,0,0,5Z"/><path d="M25.5,52.5H52.81a2.5,2.5,0,0,0,0-5H25.5a2.5,2.5,0,0,0,0,5Z"/><path d="M25.5,32.5H80.12a2.5,2.5,0,0,0,0-5H25.5a2.5,2.5,0,0,0,0,5Z"/><path d="M25.5,92.5H80.12a2.5,2.5,0,0,0,0-5H25.5a2.5,2.5,0,0,0,0,5Z"/><path d="M25.5,112.5H52.81a2.5,2.5,0,0,0,0-5H25.5a2.5,2.5,0,0,0,0,5Z"/><path d="M25.5,132.5h88a2.5,2.5,0,0,0,0-5H25.5a2.5,2.5,0,0,0,0,5Z"/><path d="M128.78,147.5H25.5a2.5,2.5,0,0,0,0,5H128.78a2.5,2.5,0,0,0,0-5Z"/><path d="M25.5,172.5H99.78a2.5,2.5,0,0,0,0-5H25.5a2.5,2.5,0,0,0,0,5Z"/><path d="M108.45,187.5H25.5a2.5,2.5,0,0,0,0,5h83a2.5,2.5,0,0,0,0-5Z"/><path d="M80.12,207.5H25.5a2.5,2.5,0,0,0,0,5H80.12a2.5,2.5,0,0,0,0-5Z"/></g></g></svg>