<svg xmlns="http://www.w3.org/2000/svg" viewBox="0 0 225 245"><title>cobra-30</title><g id="Layer_2" data-name="Layer 2"><g id="Layer_1-2" data-name="Layer 1"><path d="M212.5,0H12.5A12.52,12.52,0,0,0,0,12.5v220A12.52,12.52,0,0,0,12.5,245h200A12.52,12.52,0,0,0,225,232.5V12.5A12.52,12.52,0,0,0,212.5,0ZM220,232.5a7.5,7.5,0,0,1-7.5,7.5H12.5A7.5,7.5,0,0,1,5,232.5V12.5A7.5,7.5,0,0,1,12.5,5h200a7.5,7.5,0,0,1,7.5,7.5Z"/><path d="M202.5,15H22.5A7.5,7.5,0,0,0,15,22.5v30A7.5,7.5,0,0,0,22.5,60h180a7.5,7.5,0,0,0,7.5-7.5v-30A7.5,7.5,0,0,0,202.5,15ZM205,52.5a2.5,2.5,0,0,1-2.5,2.5H22.5A2.5,2.5,0,0,1,20,52.5v-30A2.5,2.5,0,0,1,22.5,20h180a2.5,2.5,0,0,1,2.5,2.5Z"/><path d="M142.5,65H22.5A7.5,7.5,0,0,0,15,72.5v100a7.5,7.5,0,0,0,7.5,7.5h120a7.5,7.5,0,0,0,7.5-7.5V72.5A7.5,7.5,0,0,0,142.5,65ZM145,172.5a2.5,2.5,0,0,1-2.5,2.5H22.5a2.5,2.5,0,0,1-2.5-2.5V72.5A2.5,2.5,0,0,1,22.5,70h120a2.5,2.5,0,0,1,2.5,2.5Z"/><path d="M202.36,65h-40a7.5,7.5,0,0,0-7.5,7.5v150a7.5,7.5,0,0,0,7.5,7.5h40a7.51,7.51,0,0,0,7.5-7.5V72.5A7.51,7.51,0,0,0,202.36,65Zm2.5,157.5a2.51,2.51,0,0,1-2.5,2.5h-40a2.5,2.5,0,0,1-2.5-2.5V72.5a2.5,2.5,0,0,1,2.5-2.5h40a2.51,2.51,0,0,1,2.5,2.5Z"/><path d="M142.5,185H22.5a7.5,7.5,0,0,0-7.5,7.5v30a7.5,7.5,0,0,0,7.5,7.5h120a7.5,7.5,0,0,0,7.5-7.5v-30A7.5,7.5,0,0,0,142.5,185Zm2.5,37.5a2.5,2.5,0,0,1-2.5,2.5H22.5a2.5,2.5,0,0,1-2.5-2.5v-30a2.5,2.5,0,0,1,2.5-2.5h120a2.5,2.5,0,0,1,2.5,2.5Z"/><path d="M98.65,75H32.5A7.5,7.5,0,0,0,25,82.5v80a7.5,7.5,0,0,0,7.5,7.5H98.65a7.5,7.5,0,0,0,7.5-7.5v-80A7.5,7.5,0,0,0,98.65,75Zm2.5,87.5a2.5,2.5,0,0,1-2.5,2.5H32.5a2.5,2.5,0,0,1-2.5-2.5v-80A2.5,2.5,0,0,1,32.5,80H98.65a2.5,2.5,0,0,1,2.5,2.5Z"/></g></g></svg>