<svg xmlns="http://www.w3.org/2000/svg" viewBox="0 0 185.21 185.83"><title>cobra-6</title><g id="Layer_2" data-name="Layer 2"><g id="Layer_1-2" data-name="Layer 1"><path d="M1.54,118.45a2.51,2.51,0,0,0,3.27-1.35l8.3-20h73.3L94.8,117.3a2.5,2.5,0,0,0,2.31,1.55,2.5,2.5,0,0,0,2.31-3.46L52.35,1.75A2.45,2.45,0,0,0,50.79.34a2.2,2.2,0,0,0-.26-.15,2.51,2.51,0,0,0-3.27,1.35L.19,115.18A2.51,2.51,0,0,0,1.54,118.45ZM49.76,8.57,84.34,92.06H15.18Z"/><path d="M182.71,45.06a2.49,2.49,0,0,0-2.5,2.5V60.72a40,40,0,1,0,0,38.68v18.16a2.5,2.5,0,0,0,5,0v-70A2.5,2.5,0,0,0,182.71,45.06Zm-37.5,70a35,35,0,1,1,35-35A35,35,0,0,1,145.21,115.06Z"/><path d="M182.71,134.06H2.71a2.5,2.5,0,0,0,0,5h180a2.5,2.5,0,0,0,0-5Z"/><path d="M126.5,162.48a11.62,11.62,0,0,1,7.43,2.72l2.56-4.72a15.5,15.5,0,0,0-10-3.52c-9.48,0-15.36,6.64-15.36,14.43s5.88,14.44,15.36,14.44a15.5,15.5,0,0,0,10-3.52l-2.56-4.72a11.62,11.62,0,0,1-7.43,2.72c-5.68,0-9.12-3.92-9.12-8.92S120.82,162.48,126.5,162.48Z"/><path d="M151.82,169.08l-3-1c-2.8-1-3-2.28-3-3,0-1.84,1.48-2.6,3.4-2.6,1.16,0,3.12.32,4.32,3.16l5-2.52a9.53,9.53,0,0,0-9.35-6.12c-5.48,0-9.44,3.12-9.44,8.16,0,2.32.92,6.2,7.12,8.31l3,1c2.64.92,3.24,1.92,3.24,3,0,2.08-2,2.88-4.2,2.88a4.93,4.93,0,0,1-5.08-3.84l-5.52,1.08c.56,5.2,5.44,8.24,10.8,8.24,4.92,0,10-2.6,10-8.48C159.21,174.79,158.1,171,151.82,169.08Z"/><path d="M175.38,169.08l-3-1c-2.8-1-3-2.28-3-3,0-1.84,1.48-2.6,3.4-2.6,1.16,0,3.11.32,4.32,3.16l5-2.52a9.53,9.53,0,0,0-9.35-6.12c-5.48,0-9.44,3.12-9.44,8.16,0,2.32.92,6.2,7.12,8.31l3,1c2.64.92,3.23,1.92,3.23,3,0,2.08-2,2.88-4.19,2.88a4.93,4.93,0,0,1-5.08-3.84L162,177.59c.56,5.2,5.44,8.24,10.8,8.24,4.91,0,10-2.6,10-8.48C182.77,174.79,181.65,171,175.38,169.08Z"/></g></g></svg>