<svg xmlns="http://www.w3.org/2000/svg" viewBox="0 0 214.98 208.5"><title>cobra-23</title><g id="Layer_2" data-name="Layer 2"><g id="Layer_1-2" data-name="Layer 1"><path d="M170,131a2.5,2.5,0,0,0-2.5,2.5l-2.5,30a5,5,0,0,0,10,0l-2.5-30A2.5,2.5,0,0,0,170,131Z"/><path d="M187.05,121.87l1.8-6.73a5,5,0,1,0-9.66-2.59l-1.76,6.58a45,45,0,1,0,9.62,2.74ZM170,198.5a35,35,0,1,1,35-35A35,35,0,0,1,170,198.5Z"/><path d="M47,10A5,5,0,0,0,47,0,19.13,19.13,0,0,0,33,5.82C21,17.87,21.12,46.41,21.22,63.45c0,1.36,0,2.63,0,3.8,0,14-16.14,16.2-16.85,16.29a2.21,2.21,0,0,0-.37.08,4.64,4.64,0,0,0-.51.11l-.5.2-.37.17a4.45,4.45,0,0,0-.51.33,1.79,1.79,0,0,0-.28.2,3.89,3.89,0,0,0-.47.44l-.21.22c-.14.18-.27.37-.39.56l-.15.22a5.64,5.64,0,0,0-.31.71s0,.11-.07.17a5.08,5.08,0,0,0-.19.86.29.29,0,0,0,0,.09v0a3.92,3.92,0,0,0,0,.84v.18s0,.1,0,.14a4.78,4.78,0,0,0,.16.77v0a5,5,0,0,0,2.3,2.94l.13.07a6.43,6.43,0,0,0,.71.32l.29.08a4.42,4.42,0,0,0,.63.14.58.58,0,0,0,.14,0c.69.09,16.85,2.28,16.85,16.29,0,1.17,0,2.44,0,3.8-.1,17-.25,45.58,11.74,57.63A19.13,19.13,0,0,0,47,177a5,5,0,0,0,0-10,9.21,9.21,0,0,1-6.93-2.87c-9.06-9.11-8.91-36-8.83-50.53,0-1.37,0-2.66,0-3.85,0-10.5-5.5-17.22-11.87-21.25,6.37-4,11.87-10.75,11.87-21.25,0-1.19,0-2.48,0-3.85C31.14,48.92,31,22,40.05,12.87A9.21,9.21,0,0,1,47,10Z"/><path d="M148,88.5a9.92,9.92,0,0,0-5.53-8.94L68.74,42.71a10,10,0,0,0-14.47,8.95v73.68a10,10,0,0,0,14.47,8.95l73.7-36.85A9.92,9.92,0,0,0,148,88.5Zm-83.7,36.84V51.66L138,88.5Z"/><path d="M147,10a9.2,9.2,0,0,1,6.93,2.87C163,22,162.82,48.92,162.75,63.4c0,1.37,0,2.66,0,3.85,0,10.5,5.5,17.22,11.87,21.25C168.39,92.43,163,98.93,162.76,109a55.41,55.41,0,0,1,7.22-.49h0a15.07,15.07,0,0,1,4.81-6.48c4.38-7.14,14.22-8.49,14.77-8.56a2.21,2.21,0,0,0,.37-.08,4.19,4.19,0,0,0,.51-.11l.5-.2.38-.17a5.54,5.54,0,0,0,.51-.33,1.71,1.71,0,0,0,.27-.2,3.89,3.89,0,0,0,.47-.44l.21-.22a5.12,5.12,0,0,0,.39-.56l.15-.22a5.64,5.64,0,0,0,.31-.71s0-.11.07-.17a5.08,5.08,0,0,0,.19-.86.29.29,0,0,0,0-.09s0,0,0,0a4.7,4.7,0,0,0,0-.84v-.18a.65.65,0,0,1,0-.14,4.79,4.79,0,0,0-.17-.77v0a5,5,0,0,0-2.3-2.94l-.13-.07a5.69,5.69,0,0,0-.71-.32l-.29-.08a4.29,4.29,0,0,0-.62-.14l-.15,0c-.68-.09-16.85-2.28-16.85-16.29,0-1.17,0-2.44,0-3.8.09-17,.24-45.58-11.75-57.63A19.12,19.12,0,0,0,147,0a5,5,0,0,0,0,10Z"/></g></g></svg>