<svg xmlns="http://www.w3.org/2000/svg" viewBox="0 0 273.29 175"><title>cobra-17</title><g id="Layer_2" data-name="Layer 2"><g id="Layer_1-2" data-name="Layer 1"><path d="M216.64,10h-160a12.52,12.52,0,0,0-12.5,12.5v130A12.52,12.52,0,0,0,56.64,165h160a12.51,12.51,0,0,0,12.5-12.5V22.5A12.51,12.51,0,0,0,216.64,10Zm-160,5h160a7.5,7.5,0,0,1,7.5,7.5V73.32L188.6,37.78a8.94,8.94,0,0,0-12.63,0l-56,56L93.82,67.63a8.91,8.91,0,0,0-12.62,0L49.14,99.68V22.5A7.51,7.51,0,0,1,56.64,15Zm-7.5,137.5V106.75L84.73,71.16a3.94,3.94,0,0,1,5.56,0l27.53,27.53a2.79,2.79,0,0,0,.34.43,2.36,2.36,0,0,0,.43.35L179.13,160H56.64A7.51,7.51,0,0,1,49.14,152.5Zm167.5,7.5H186.2L123.51,97.31l56-56a3.93,3.93,0,0,1,5.55,0l39.08,39.08V152.5A7.5,7.5,0,0,1,216.64,160Z"/><path d="M36.64,0a2.5,2.5,0,0,0-2.5,2.5v170a2.5,2.5,0,0,0,5,0V2.5A2.5,2.5,0,0,0,36.64,0Z"/><path d="M236.64,0a2.5,2.5,0,0,0-2.5,2.5v170a2.5,2.5,0,0,0,5,0V2.5A2.5,2.5,0,0,0,236.64,0Z"/><path d="M272.55,85.73,258.41,71.59a2.5,2.5,0,1,0-3.53,3.54L267.25,87.5,254.88,99.87a2.5,2.5,0,0,0,0,3.54,2.45,2.45,0,0,0,1.76.73,2.49,2.49,0,0,0,1.77-.73l14.14-14.14a2.49,2.49,0,0,0,0-3.54Z"/><path d="M18.41,71.59a2.49,2.49,0,0,0-3.53,0L.73,85.73a2.51,2.51,0,0,0,0,3.54l14.15,14.14a2.45,2.45,0,0,0,1.76.73,2.5,2.5,0,0,0,1.77-4.27L6,87.5,18.41,75.13A2.5,2.5,0,0,0,18.41,71.59Z"/><path d="M117.36,67.51A21.79,21.79,0,1,0,95.57,45.73,21.8,21.8,0,0,0,117.36,67.51Zm0-38.57a16.79,16.79,0,1,1-16.79,16.79A16.8,16.8,0,0,1,117.36,28.94Z"/></g></g></svg>