<svg xmlns="http://www.w3.org/2000/svg" viewBox="0 0 220.28 225.01"><title>cobra-24</title><g id="Layer_2" data-name="Layer 2"><g id="Layer_1-2" data-name="Layer 1"><path d="M175.29,147.51a2.49,2.49,0,0,0-2.5,2.5l-2.5,30a5,5,0,0,0,10,0l-2.5-30A2.5,2.5,0,0,0,175.29,147.51Z"/><path d="M192.35,138.38l1.8-6.73a5,5,0,1,0-9.66-2.59l-1.76,6.58a44.58,44.58,0,0,0-7.45-.63,45,45,0,1,0,17.07,3.37ZM175.28,215a35,35,0,1,1,35-35A35,35,0,0,1,175.28,215Z"/><path d="M79.78,66a45,45,0,1,0,61.48,16.47A45.06,45.06,0,0,0,79.78,66Zm40,69.28A35,35,0,1,1,132.6,87.51,35,35,0,0,1,119.78,135.32Z"/><path d="M122.28,200h-40V172.1a69.81,69.81,0,0,1-28.09-16.23l-9,5.19h0L30,169.83,10,135.19l15.23-8.79h0l9-5.19a70,70,0,0,1,0-32.42L28.8,85.68h0L10,74.83,30,40.19,45.19,49h0l9,5.2A70,70,0,0,1,82.28,38V10h40V38a70,70,0,0,1,28.1,16.2l9-5.18h0l15.2-8.78,20,34.64-15.24,8.8h0l-9,5.19a70,70,0,0,1,0,32.41l5.25,3a15,15,0,0,1,7.17-7.41l-1.31-.75a79.84,79.84,0,0,0,0-22.16l18.1-10.45a10,10,0,0,0,3.66-13.66l-20-34.64a10,10,0,0,0-13.66-3.66L151.5,42a79.82,79.82,0,0,0-19.22-11.1V10a10,10,0,0,0-10-10h-40a10,10,0,0,0-10,10V30.9A80.5,80.5,0,0,0,53.06,42L35,31.53a10,10,0,0,0-13.66,3.66l-20,34.64A10,10,0,0,0,5,83.49L23.06,93.92a80.3,80.3,0,0,0,0,22.17L5,126.53a10,10,0,0,0-3.66,13.66l20,34.64A10,10,0,0,0,35,178.49l18.05-10.41a79.82,79.82,0,0,0,19.22,11.1V200a10,10,0,0,0,10,10h40a10,10,0,0,0,5.78-1.84,54.88,54.88,0,0,1-5.78-13.5Z"/></g></g></svg>