<svg xmlns="http://www.w3.org/2000/svg" viewBox="0 0 122.76 195.7"><title>cobra-34</title><g id="Layer_2" data-name="Layer 2"><g id="Layer_1-2" data-name="Layer 1"><path d="M105.36,136.26,37.73,91.61a5.43,5.43,0,0,0-8.41,4.85l4.85,80.9a5.43,5.43,0,0,0,8.13,4.37l22.86-13.19,10.62,22.52a8.1,8.1,0,0,0,4.9,4.27,8,8,0,0,0,2.42.37,8.16,8.16,0,0,0,4.05-1.08L96,189.5a8.09,8.09,0,0,0,2.6-11.62L84.41,157.42l20.67-11.93a5.43,5.43,0,0,0,.28-9.23Zm-2.78,4.9L77.2,155.81l17.3,24.92a3.1,3.1,0,0,1-1,4.44l-8.85,5.12a3.1,3.1,0,0,1-2.47.27,3,3,0,0,1-1.88-1.64L67.37,161.49,39.8,177.4a.38.38,0,0,1-.41,0,.4.4,0,0,1-.23-.35l-4.85-80.9a.42.42,0,0,1,.66-.38l67.63,44.65h0a.38.38,0,0,1,.19.37A.39.39,0,0,1,102.58,141.16Z"/><path d="M84.36,38.4a2.49,2.49,0,0,0-3.53,0L38.4,80.83a2.5,2.5,0,0,0,3.53,3.53L84.36,41.93A2.49,2.49,0,0,0,84.36,38.4Z"/><path d="M116.18,6.58a22.53,22.53,0,0,0-31.81,0h0L70.22,20.72h0a22.54,22.54,0,0,0-4.38,25.6l3.83-3.84a17.51,17.51,0,0,1,4.09-18.23h0L87.9,10.11h0a17.5,17.5,0,1,1,24.74,24.75L98.5,49A17.51,17.51,0,0,1,80.27,53.1l-3.84,3.83A22.54,22.54,0,0,0,102,52.54L116.18,38.4A22.53,22.53,0,0,0,116.18,6.58Z"/><path d="M10.11,112.65a17.53,17.53,0,0,1,0-24.75h0L24.26,73.75h0a17.51,17.51,0,0,1,18.23-4.09l3.84-3.83a22.54,22.54,0,0,0-25.6,4.38h0L6.58,84.36h0a22.47,22.47,0,0,0,19.3,38.11l-.3-5A17.5,17.5,0,0,1,10.11,112.65Z"/><path d="M56,97.65a22.59,22.59,0,0,0,1-21.22L53.1,80.27a17.58,17.58,0,0,1-1.33,14.62Z"/></g></g></svg>