<svg xmlns="http://www.w3.org/2000/svg" viewBox="0 0 225 245"><title>cobra-35</title><g id="Layer_2" data-name="Layer 2"><g id="Layer_1-2" data-name="Layer 1"><path d="M212.5,0H12.5A12.52,12.52,0,0,0,0,12.5v220A12.52,12.52,0,0,0,12.5,245h200A12.52,12.52,0,0,0,225,232.5V12.5A12.52,12.52,0,0,0,212.5,0ZM220,232.5a7.5,7.5,0,0,1-7.5,7.5H12.5A7.5,7.5,0,0,1,5,232.5V12.5A7.5,7.5,0,0,1,12.5,5h200a7.5,7.5,0,0,1,7.5,7.5Z"/><path d="M62.36,195H162.5a7.5,7.5,0,0,0,7.5-7.5V67.5a7.5,7.5,0,0,0-7.5-7.5H62.36a7.5,7.5,0,0,0-7.5,7.5v120A7.5,7.5,0,0,0,62.36,195ZM59.86,67.5a2.5,2.5,0,0,1,2.5-2.5H162.5a2.5,2.5,0,0,1,2.5,2.5v120a2.5,2.5,0,0,1-2.5,2.5H62.36a2.5,2.5,0,0,1-2.5-2.5Z"/><path d="M202.5,60h-20a7.5,7.5,0,0,0-7.5,7.5v120a7.5,7.5,0,0,0,7.5,7.5h20a7.5,7.5,0,0,0,7.5-7.5V67.5A7.5,7.5,0,0,0,202.5,60ZM205,187.5a2.5,2.5,0,0,1-2.5,2.5h-20a2.5,2.5,0,0,1-2.5-2.5V67.5a2.5,2.5,0,0,1,2.5-2.5h20a2.5,2.5,0,0,1,2.5,2.5Z"/><path d="M202.36,200H22.5a7.5,7.5,0,0,0-7.5,7.5v20a7.5,7.5,0,0,0,7.5,7.5H202.36a7.51,7.51,0,0,0,7.5-7.5v-20A7.51,7.51,0,0,0,202.36,200Zm2.5,27.5a2.51,2.51,0,0,1-2.5,2.5H22.5a2.5,2.5,0,0,1-2.5-2.5v-20a2.5,2.5,0,0,1,2.5-2.5H202.36a2.51,2.51,0,0,1,2.5,2.5Z"/><path d="M22.5,195h20a7.5,7.5,0,0,0,7.5-7.5V17.5A7.5,7.5,0,0,0,42.5,10h-20A7.5,7.5,0,0,0,15,17.5v170A7.5,7.5,0,0,0,22.5,195ZM20,67.83a2.19,2.19,0,0,0,.55-.41L45,43V56a2.18,2.18,0,0,0-.42.33L20,80.9Zm0,20a2.19,2.19,0,0,0,.55-.41L45,63V76a2.18,2.18,0,0,0-.42.33L20,100.9Zm0,20a2.19,2.19,0,0,0,.55-.41L45,83V96a2.18,2.18,0,0,0-.42.33L20,120.9Zm0,20a2.19,2.19,0,0,0,.55-.41L45,103v13a2.18,2.18,0,0,0-.42.33L20,140.9Zm0,20a2.19,2.19,0,0,0,.55-.41L45,123v13a2.18,2.18,0,0,0-.42.33L20,160.9Zm0,20a2.19,2.19,0,0,0,.55-.41L45,143v13a2.18,2.18,0,0,0-.42.33L20,180.9ZM45,36a2.18,2.18,0,0,0-.42.33L20,60.9V47.83a2.19,2.19,0,0,0,.55-.41L45,23ZM20,187.81a2.21,2.21,0,0,0,.52-.39L45,163v13a2.18,2.18,0,0,0-.42.33L30.9,190H22.5A2.5,2.5,0,0,1,20,187.81ZM42.5,190H38l7-7v4.53A2.5,2.5,0,0,1,42.5,190ZM44.66,16.26l-.08.06L20,40.9V27.83a2.19,2.19,0,0,0,.55-.41L33,15H42.5A2.48,2.48,0,0,1,44.66,16.26ZM22.5,15h3.4L20,20.9V17.5A2.5,2.5,0,0,1,22.5,15Z"/><path d="M55.31,50a7.49,7.49,0,0,0,7,5h140a7.51,7.51,0,0,0,7.5-7.5v-30a7.51,7.51,0,0,0-7.5-7.5h-140a7.5,7.5,0,0,0-7.5,7.5v30A7.36,7.36,0,0,0,55.29,50ZM88.17,15,59.86,43.31V30.38L75.24,15ZM60.8,49.44,95.24,15h12.93l-35,35H62.36A2.5,2.5,0,0,1,60.8,49.44ZM128.17,15l-35,35H80.24l35-35Zm20,0-35,35H100.24l35-35Zm20,0-35,35H120.24l35-35Zm20,0-35,35H140.24l35-35Zm16.69,23.31L193.17,50H180.24l24.62-24.62ZM202.36,50h-2.12l4.62-4.62V47.5A2.51,2.51,0,0,1,202.36,50Zm2.5-32.5v.83l-.1.08L173.17,50H160.24l35-35h7.12A2.51,2.51,0,0,1,204.86,17.5ZM62.36,15h5.81l-8.31,8.31V17.5A2.5,2.5,0,0,1,62.36,15Z"/></g></g></svg>