<svg xmlns="http://www.w3.org/2000/svg" viewBox="0 0 180 240"><title>cobra-1</title><g id="Layer_2" data-name="Layer 2"><g id="Layer_1-2" data-name="Layer 1"><path d="M177.07,47.07,132.93,2.93A10,10,0,0,0,125.86,0H10A10,10,0,0,0,0,10V230a10,10,0,0,0,10,10H170a10,10,0,0,0,10-10V54.14A10,10,0,0,0,177.07,47.07ZM172.93,50H136.5a7.5,7.5,0,0,1-7.5-7.5V6.14c.13.11.27.2.39.32ZM170,235H10a5,5,0,0,1-5-5V10a5,5,0,0,1,5-5H124V42.5A12.52,12.52,0,0,0,136.5,55H175V230A5,5,0,0,1,170,235Z"/><path d="M155.5,73H25.5a2.5,2.5,0,0,0,0,5h130a2.5,2.5,0,0,0,0-5Z"/><path d="M25.5,58h80a2.5,2.5,0,0,0,0-5h-80a2.5,2.5,0,0,0,0,5Z"/><path d="M25.5,38h80a2.5,2.5,0,0,0,0-5h-80a2.5,2.5,0,0,0,0,5Z"/><polygon points="35 96 35 124 41 124 41 113 52 113 52 124 58 124 58 96 52 96 52 108 41 108 41 96 35 96"/><polygon points="76 124 76 101 84 101 84 96 62 96 62 101 70 101 70 124 76 124"/><polygon points="101.54 124 105.54 124 112.54 106.96 114.02 123 119.63 123 117.12 96 111.1 96 103.54 114.17 95.98 96 89.97 96 87.46 123 93.06 123 94.54 106.96 101.54 124"/><polygon points="126 96 126 124 145 124 145 119 132 119 132 96 126 96"/><path d="M155.5,143H25.5a2.5,2.5,0,0,0,0,5h130a2.5,2.5,0,0,0,0-5Z"/><path d="M155.5,163H25.5a2.5,2.5,0,0,0,0,5h130a2.5,2.5,0,0,0,0-5Z"/><path d="M155.5,183H25.5a2.5,2.5,0,0,0,0,5h130a2.5,2.5,0,0,0,0-5Z"/><path d="M155.5,203H25.5a2.5,2.5,0,0,0,0,5h130a2.5,2.5,0,0,0,0-5Z"/></g></g></svg>