<svg xmlns="http://www.w3.org/2000/svg" viewBox="0 0 186 189.43"><title>cobra-2</title><g id="Layer_2" data-name="Layer 2"><g id="Layer_1-2" data-name="Layer 1"><polygon points="23.94 27.36 23.94 22 10.66 16.84 23.94 11.68 23.94 6.32 23.14 6.32 3.78 14.64 3.78 19.04 23.14 27.36 23.94 27.36"/><polygon points="35.66 17.08 46.3 17.08 46.3 28 52.49 28 52.49 0 46.3 0 46.3 12.16 35.66 12.16 35.66 0 29.46 0 29.46 28 35.66 28 35.66 17.08"/><polygon points="64.66 28 70.78 28 70.78 5.2 78.73 5.2 78.73 0 56.78 0 56.78 5.2 64.66 5.2 64.66 28"/><polygon points="89.02 10.96 96.02 27.68 100.02 27.68 107.02 10.96 108.49 28 114.69 28 112.09 0 105.86 0 98.02 18.84 90.18 0 83.94 0 81.34 28 87.54 28 89.02 10.96"/><polygon points="138.98 23.08 126.3 23.08 126.3 0 120.1 0 120.1 28 138.98 28 138.98 23.08"/><polygon points="139.46 189.44 144.3 189.44 159.7 158.44 154.82 158.44 139.46 189.44"/><polygon points="162.86 166.32 162.86 171.68 176.14 176.84 162.86 182 162.86 187.35 163.66 187.35 183.02 179.04 183.02 174.64 163.66 166.32 162.86 166.32"/><path d="M182.5,63.5H2.5a2.5,2.5,0,0,0,0,5h180a2.5,2.5,0,0,0,0-5Z"/><path d="M183.5,23.5h-30a2.5,2.5,0,0,0,0,5h30a2.5,2.5,0,0,0,0-5Z"/><path d="M182.5,103.5H2.5a2.5,2.5,0,0,0,0,5h180a2.5,2.5,0,0,0,0-5Z"/><path d="M182.5,143.5H2.5a2.5,2.5,0,0,0,0,5h180a2.5,2.5,0,0,0,0-5Z"/><path d="M128.5,183.5H2.5a2.5,2.5,0,0,0,0,5h126a2.5,2.5,0,0,0,0-5Z"/></g></g></svg>