<svg xmlns="http://www.w3.org/2000/svg" viewBox="0 0 209 240"><title>cobra-29</title><g id="Layer_2" data-name="Layer 2"><g id="Layer_1-2" data-name="Layer 1"><path d="M209,135V70H180V54.14a10,10,0,0,0-2.93-7.07L132.93,2.93A10,10,0,0,0,125.86,0H10A10,10,0,0,0,0,10V230a10,10,0,0,0,10,10H170a10,10,0,0,0,10-10V215h29V150H180V135Zm-5-5H29V75H204ZM172.93,50H136.5a7.5,7.5,0,0,1-7.5-7.5V6.14c.13.11.27.2.39.32ZM204,210H29V155H204Zm-29-60H24v65H175v15a5,5,0,0,1-5,5H10a5,5,0,0,1-5-5V10a5,5,0,0,1,5-5H124V42.5A12.52,12.52,0,0,0,136.5,55H175V70H24v65H175Z"/><path d="M80.2,117.14a13.45,13.45,0,0,0,8.4-3l-2.72-4.36a8.2,8.2,0,0,1-5.4,2c-3.48,0-5.8-2.2-5.8-5.32s2.32-5.32,5.8-5.32a8.2,8.2,0,0,1,5.4,2l2.72-4.36a13.45,13.45,0,0,0-8.4-3c-7,0-11.48,4.6-11.48,10.68S73.16,117.14,80.2,117.14Z"/><rect x="92.16" y="87.82" width="5.96" height="28.92"/><path d="M112.12,117.18a7.35,7.35,0,0,0,6.44-3.44v3h6V96.22h-6V99A8.22,8.22,0,0,0,112,95.78c-6.4,0-9.88,4.84-9.88,10.6C102.12,112.38,105.88,117.18,112.12,117.18Zm1.08-16.56c3.24,0,5.52,2.32,5.52,6.12s-2.44,5.6-5.36,5.6c-3.28,0-5.28-2.64-5.28-5.92S109.92,100.62,113.2,100.62Z"/><path d="M136.68,112.58a4.17,4.17,0,0,1-4.32-3.08L128,111.94c1.4,4.28,5.56,5.24,8.6,5.24,4.52,0,8.4-2.16,8.4-6.36,0-1.36-.44-4.52-5.28-5.92l-3.08-1.2c-1-.4-1.92-.88-1.92-1.76,0-1,1.16-1.68,2.28-1.68a2.87,2.87,0,0,1,2.92,2l4.6-2.12a7.74,7.74,0,0,0-7.4-4.32c-4.4,0-8,2.16-8,6.28,0,.92.24,4.16,5.12,5.88l3.6,1.52c1.12.4,1.52.88,1.52,1.56C139.36,112.06,138,112.58,136.68,112.58Z"/><path d="M155.92,112.58a4.17,4.17,0,0,1-4.32-3.08l-4.32,2.44c1.4,4.28,5.56,5.24,8.6,5.24,4.52,0,8.4-2.16,8.4-6.36,0-1.36-.44-4.52-5.28-5.92l-3.08-1.2c-1-.4-1.92-.88-1.92-1.76,0-1,1.16-1.68,2.28-1.68a2.87,2.87,0,0,1,2.92,2l4.6-2.12a7.74,7.74,0,0,0-7.4-4.32c-4.4,0-8,2.16-8,6.28,0,.92.24,4.16,5.12,5.88l3.6,1.52c1.12.4,1.52.88,1.52,1.56C158.6,112.06,157.24,112.58,155.92,112.58Z"/><path d="M103.72,175.78c2.12,0,3.8-1.36,3.8-3.32a3.53,3.53,0,0,0-3.8-3.4,3.47,3.47,0,0,0-3.76,3.4C100,174.42,101.56,175.78,103.72,175.78Z"/><rect x="100.68" y="177.9" width="5.96" height="20.52"/><path d="M120.64,198.86a7.35,7.35,0,0,0,6.44-3.44v3h6V169.5h-6v11.2a8.22,8.22,0,0,0-6.56-3.24c-6.4,0-9.88,4.84-9.88,10.6C110.64,194.06,114.4,198.86,120.64,198.86Zm1.08-16.56c3.24,0,5.52,2.32,5.52,6.12s-2.44,5.6-5.36,5.6c-3.28,0-5.28-2.64-5.28-5.92S118.44,182.3,121.72,182.3Z"/></g></g></svg>