<svg xmlns="http://www.w3.org/2000/svg" viewBox="0 0 205 125"><title>cobra-18</title><g id="Layer_2" data-name="Layer 2"><g id="Layer_1-2" data-name="Layer 1"><path d="M97.76,65.79,63.94,48.88a7.5,7.5,0,0,0-10.85,6.71V89.41a7.48,7.48,0,0,0,10.85,6.71L97.76,79.21a7.5,7.5,0,0,0,0-13.42Zm-2.23,8.95L61.71,91.65a2.5,2.5,0,0,1-3.62-2.24V55.59a2.46,2.46,0,0,1,1.19-2.13,2.56,2.56,0,0,1,1.32-.38,2.47,2.47,0,0,1,1.11.27L95.53,70.26a2.51,2.51,0,0,1,0,4.48Z"/><path d="M201.89,33.35a7.42,7.42,0,0,0-6.76-1l-16.58,5.53A12.47,12.47,0,0,0,170,49.71V55H155V32.5A12.52,12.52,0,0,0,142.5,20H130V12.5A12.52,12.52,0,0,0,117.5,0h-80A12.52,12.52,0,0,0,25,12.5V20H12.5A12.52,12.52,0,0,0,0,32.5v80A12.52,12.52,0,0,0,12.5,125h130A12.52,12.52,0,0,0,155,112.5V90h15v5.29a12.47,12.47,0,0,0,8.55,11.86l16.58,5.53a7.62,7.62,0,0,0,2.39.39,7.5,7.5,0,0,0,7.48-7.51V39.44A7.43,7.43,0,0,0,201.89,33.35ZM30,12.5A7.5,7.5,0,0,1,37.5,5h80a7.5,7.5,0,0,1,7.5,7.5V20H30Zm120,100a7.5,7.5,0,0,1-7.5,7.5H12.5A7.5,7.5,0,0,1,5,112.5v-80A7.5,7.5,0,0,1,12.5,25h130a7.5,7.5,0,0,1,7.5,7.5ZM155,85V60h15V85Zm45,20.56a2.48,2.48,0,0,1-1,2,2.45,2.45,0,0,1-2.25.34l-16.58-5.52A7.5,7.5,0,0,1,175,95.29V49.71a7.5,7.5,0,0,1,5.13-7.12l16.58-5.52A2.5,2.5,0,0,1,200,39.44Z"/></g></g></svg>