<svg xmlns="http://www.w3.org/2000/svg" viewBox="0 0 609.63 411.21"><defs><style>.cls-1,.cls-2{fill:#fff;}.cls-1{stroke:#fff;stroke-miterlimit:10;stroke-width:28.35px;}</style></defs><title>jupiter</title><g id="Layer_2" data-name="Layer 2"><g id="Design"><circle class="cls-1" cx="205.6" cy="205.6" r="191.43"/><path class="cls-2" d="M524.59,290.64A28.35,28.35,0,1,0,496.25,319,28.34,28.34,0,0,0,524.59,290.64Zm-32.59,0a4.25,4.25,0,1,1,4.25,4.26A4.25,4.25,0,0,1,492,290.64Z"/><path class="cls-2" d="M524.59,375.68A28.35,28.35,0,1,0,496.25,404,28.34,28.34,0,0,0,524.59,375.68Zm-38.26,0a4.25,4.25,0,1,1,4.25,4.25A4.25,4.25,0,0,1,486.33,375.68Zm11.33,0a4.26,4.26,0,1,1,4.26,4.25A4.25,4.25,0,0,1,497.66,375.68Z"/><path class="cls-2" d="M609.63,290.64A28.35,28.35,0,1,0,581.29,319,28.34,28.34,0,0,0,609.63,290.64Zm-32.6,0a4.26,4.26,0,1,1,4.26,4.26A4.26,4.26,0,0,1,577,290.64Z"/><path class="cls-2" d="M609.63,375.68A28.35,28.35,0,1,0,581.29,404,28.34,28.34,0,0,0,609.63,375.68Zm-32.6,0a4.26,4.26,0,1,1,4.26,4.25A4.25,4.25,0,0,1,577,375.68Z"/><path class="cls-2" d="M524.59,205.6A28.35,28.35,0,1,0,496.25,234,28.34,28.34,0,0,0,524.59,205.6Zm-32.59,0a4.25,4.25,0,1,1,4.25,4.26A4.25,4.25,0,0,1,492,205.6Z"/><path class="cls-2" d="M609.63,205.6A28.35,28.35,0,1,0,581.29,234,28.34,28.34,0,0,0,609.63,205.6Zm-32.6,0a4.26,4.26,0,1,1,4.26,4.26A4.26,4.26,0,0,1,577,205.6Z"/><path class="cls-2" d="M524.59,120.56a28.35,28.35,0,1,0-28.34,28.35A28.34,28.34,0,0,0,524.59,120.56Zm-32.59,0a4.25,4.25,0,1,1,4.25,4.26A4.25,4.25,0,0,1,492,120.56Z"/><path class="cls-2" d="M609.63,120.56a28.35,28.35,0,1,0-28.34,28.35A28.34,28.34,0,0,0,609.63,120.56Zm-32.6,0a4.26,4.26,0,1,1,4.26,4.26A4.26,4.26,0,0,1,577,120.56Z"/><path class="cls-2" d="M524.59,35.53a28.35,28.35,0,1,0-28.34,28.34A28.34,28.34,0,0,0,524.59,35.53Zm-32.59,0a4.25,4.25,0,1,1,4.25,4.25A4.25,4.25,0,0,1,492,35.53Z"/><path class="cls-2" d="M609.63,35.53a28.35,28.35,0,1,0-28.34,28.34A28.34,28.34,0,0,0,609.63,35.53Zm-32.6,0a4.26,4.26,0,1,1,4.26,4.25A4.26,4.26,0,0,1,577,35.53Z"/></g></g></svg>