<svg xmlns="http://www.w3.org/2000/svg" viewBox="0 0 2177.43 2177.43"><defs><style>.cls-1{fill:none;stroke:#fff;stroke-miterlimit:10;stroke-width:28.35px;}.cls-2{fill:#fff;}</style></defs><title>sun</title><g id="Layer_2" data-name="Layer 2"><g id="Design"><circle class="cls-1" cx="1088.72" cy="1088.72" r="1074.54"/><path class="cls-2" d="M960.44,1017.85a28.35,28.35,0,1,0,28.35,28.35A28.34,28.34,0,0,0,960.44,1017.85Zm0,32.6a4.26,4.26,0,1,1,4.26-4.25A4.26,4.26,0,0,1,960.44,1050.45Z"/><path class="cls-2" d="M1215.56,1017.85a28.35,28.35,0,1,0,28.35,28.35A28.34,28.34,0,0,0,1215.56,1017.85Zm0,38.27a4.26,4.26,0,1,1,4.25-4.26A4.25,4.25,0,0,1,1215.56,1056.12Zm0-11.34a4.26,4.26,0,1,1,4.25-4.25A4.25,4.25,0,0,1,1215.56,1044.78Z"/><path class="cls-2" d="M1045.48,1017.85a28.35,28.35,0,1,0,28.35,28.35A28.34,28.34,0,0,0,1045.48,1017.85Zm0,32.6a4.26,4.26,0,1,1,4.26-4.25A4.25,4.25,0,0,1,1045.48,1050.45Z"/><path class="cls-2" d="M1130.52,1017.85a28.35,28.35,0,1,0,28.35,28.35A28.34,28.34,0,0,0,1130.52,1017.85Zm0,32.6a4.26,4.26,0,1,1,4.25-4.25A4.25,4.25,0,0,1,1130.52,1050.45Z"/><path class="cls-2" d="M960.44,1102.89a28.35,28.35,0,1,0,28.35,28.34A28.34,28.34,0,0,0,960.44,1102.89Zm0,32.6a4.26,4.26,0,1,1,4.26-4.26A4.26,4.26,0,0,1,960.44,1135.49Z"/><path class="cls-2" d="M1215.56,1102.89a28.35,28.35,0,1,0,28.35,28.34A28.34,28.34,0,0,0,1215.56,1102.89Zm0,38.27a4.26,4.26,0,1,1,4.25-4.26A4.25,4.25,0,0,1,1215.56,1141.16Zm0-11.34a4.26,4.26,0,1,1,4.25-4.25A4.25,4.25,0,0,1,1215.56,1129.82Z"/><path class="cls-2" d="M1045.48,1102.89a28.35,28.35,0,1,0,28.35,28.34A28.34,28.34,0,0,0,1045.48,1102.89Zm0,32.6a4.26,4.26,0,1,1,4.26-4.26A4.25,4.25,0,0,1,1045.48,1135.49Z"/><path class="cls-2" d="M1130.52,1102.89a28.35,28.35,0,1,0,28.35,28.34A28.34,28.34,0,0,0,1130.52,1102.89Zm0,32.6a4.26,4.26,0,1,1,4.25-4.26A4.25,4.25,0,0,1,1130.52,1135.49Z"/></g></g></svg>