<svg xmlns="http://www.w3.org/2000/svg" viewBox="0 0 1820.13 2011.81"><defs><style>.cls-1,.cls-3{fill:#fff;}.cls-1,.cls-2{stroke:#fff;stroke-miterlimit:10;}.cls-1{stroke-width:28.35px;}.cls-2{fill:none;stroke-width:14.17px;}</style></defs><title>earth</title><g id="Layer_2" data-name="Layer 2"><g id="Design"><circle class="cls-1" cx="910.06" cy="1115.57" r="90.3"/><path class="cls-2" d="M753.22,2004.83C323.45,1929,7.09,1552,7.09,1115.57c0-495.35,407.61-903,903-903s903,407.62,903,903c0,436.42-316.38,813.48-746.17,889.26"/><path class="cls-3" d="M995.1,85a28.35,28.35,0,1,0,28.35,28.35A28.34,28.34,0,0,0,995.1,85Zm-7.69,37.7a4.25,4.25,0,1,1,1.56-5.81A4.26,4.26,0,0,1,987.41,122.74Zm1.56-12.9a4.25,4.25,0,1,1-1.56-5.81A4.26,4.26,0,0,1,989,109.84ZM995.1,129a4.26,4.26,0,1,1,4.25-4.26A4.25,4.25,0,0,1,995.1,129Zm0-11.34a4.26,4.26,0,1,1,4.25-4.25A4.25,4.25,0,0,1,995.1,117.64Zm0-11.34a4.25,4.25,0,1,1,4.25-4.25A4.25,4.25,0,0,1,995.1,106.3Zm13.5,14.88a4.25,4.25,0,1,1-1.55-5.81A4.25,4.25,0,0,1,1008.6,121.18Zm-1.55-9.78a4.25,4.25,0,1,1,1.55-5.81A4.25,4.25,0,0,1,1007.05,111.4Z"/><path class="cls-3" d="M1080.14,85a28.35,28.35,0,1,0,28.35,28.35A28.34,28.34,0,0,0,1080.14,85Zm7,15.32a4.25,4.25,0,1,1,0,6A4.25,4.25,0,0,1,1087.16,100.36Zm-25.44,13a4.25,4.25,0,1,1,4.25,4.25A4.25,4.25,0,0,1,1061.72,113.39Zm11.41,13a4.25,4.25,0,1,1,0-6A4.26,4.26,0,0,1,1073.13,126.41Zm0-20a4.25,4.25,0,1,1,0-6A4.26,4.26,0,0,1,1073.13,106.37Zm7,25.44a4.25,4.25,0,1,1,4.25-4.25A4.25,4.25,0,0,1,1080.14,131.81Zm0-28.35a4.25,4.25,0,1,1,4.25-4.25A4.25,4.25,0,0,1,1080.14,103.46Zm13,23a4.25,4.25,0,1,1,0-6A4.25,4.25,0,0,1,1093.17,126.41Zm1.14-8.77a4.26,4.26,0,1,1,4.26-4.25A4.26,4.26,0,0,1,1094.31,117.64Z"/><path class="cls-3" d="M910.06,85a28.35,28.35,0,1,0,28.35,28.35A28.34,28.34,0,0,0,910.06,85Zm-7.69,37.7a4.25,4.25,0,1,1,1.56-5.81A4.26,4.26,0,0,1,902.37,122.74Zm1.56-12.9a4.25,4.25,0,1,1-1.56-5.81A4.26,4.26,0,0,1,903.93,109.84ZM910.06,129a4.26,4.26,0,1,1,4.25-4.26A4.25,4.25,0,0,1,910.06,129Zm0-11.34a4.26,4.26,0,1,1,4.25-4.25A4.25,4.25,0,0,1,910.06,117.64Zm0-11.34a4.25,4.25,0,1,1,4.25-4.25A4.25,4.25,0,0,1,910.06,106.3Zm13.5,14.88a4.25,4.25,0,1,1-1.55-5.81A4.25,4.25,0,0,1,923.56,121.18ZM922,111.4a4.25,4.25,0,1,1,1.55-5.81A4.25,4.25,0,0,1,922,111.4Z"/><path class="cls-3" d="M825,85a28.35,28.35,0,1,0,28.35,28.35A28.34,28.34,0,0,0,825,85Zm-7.69,37.7a4.25,4.25,0,1,1,1.56-5.81A4.26,4.26,0,0,1,817.33,122.74Zm1.56-12.9a4.25,4.25,0,1,1-1.56-5.81A4.26,4.26,0,0,1,818.89,109.84ZM825,129a4.26,4.26,0,1,1,4.26-4.26A4.26,4.26,0,0,1,825,129Zm0-11.34a4.26,4.26,0,1,1,4.26-4.25A4.26,4.26,0,0,1,825,117.64Zm0-11.34a4.25,4.25,0,1,1,4.26-4.25A4.25,4.25,0,0,1,825,106.3Zm13.51,14.88a4.25,4.25,0,1,1-1.56-5.81A4.26,4.26,0,0,1,838.53,121.18ZM837,111.4a4.25,4.25,0,1,1,1.56-5.81A4.25,4.25,0,0,1,837,111.4Z"/><path class="cls-3" d="M740,85a28.35,28.35,0,1,0,28.35,28.35A28.34,28.34,0,0,0,740,85Zm-7.69,37.7a4.25,4.25,0,1,1,1.56-5.81A4.26,4.26,0,0,1,732.29,122.74Zm1.56-12.9a4.25,4.25,0,1,1-1.56-5.81A4.26,4.26,0,0,1,733.85,109.84ZM740,129a4.26,4.26,0,1,1,4.26-4.26A4.26,4.26,0,0,1,740,129Zm0-11.34a4.26,4.26,0,1,1,4.26-4.25A4.26,4.26,0,0,1,740,117.64Zm0-11.34a4.25,4.25,0,1,1,4.26-4.25A4.25,4.25,0,0,1,740,106.3Zm13.51,14.88a4.25,4.25,0,1,1-1.56-5.81A4.26,4.26,0,0,1,753.49,121.18Zm-1.56-9.78a4.25,4.25,0,1,1,1.56-5.81A4.26,4.26,0,0,1,751.93,111.4Z"/><path class="cls-3" d="M995.1,0a28.35,28.35,0,1,0,28.35,28.35A28.34,28.34,0,0,0,995.1,0Zm-7.69,37.7A4.25,4.25,0,1,1,989,31.89,4.25,4.25,0,0,1,987.41,37.7ZM989,24.8A4.25,4.25,0,1,1,987.41,19,4.26,4.26,0,0,1,989,24.8Zm6.13,19.14a4.26,4.26,0,1,1,4.25-4.25A4.25,4.25,0,0,1,995.1,43.94Zm0-11.34a4.26,4.26,0,1,1,4.25-4.25A4.25,4.25,0,0,1,995.1,32.6Zm0-11.34A4.25,4.25,0,1,1,999.35,17,4.25,4.25,0,0,1,995.1,21.26Zm13.5,14.88a4.25,4.25,0,1,1-1.55-5.81A4.24,4.24,0,0,1,1008.6,36.14Zm-1.55-9.78a4.25,4.25,0,1,1,1.55-5.81A4.25,4.25,0,0,1,1007.05,26.36Z"/><path class="cls-3" d="M910.06,0a28.35,28.35,0,1,0,28.35,28.35A28.34,28.34,0,0,0,910.06,0Zm-7.69,37.7a4.25,4.25,0,1,1,1.56-5.81A4.26,4.26,0,0,1,902.37,37.7Zm1.56-12.9A4.25,4.25,0,1,1,902.37,19,4.26,4.26,0,0,1,903.93,24.8Zm6.13,19.14a4.26,4.26,0,1,1,4.25-4.25A4.25,4.25,0,0,1,910.06,43.94Zm0-11.34a4.26,4.26,0,1,1,4.25-4.25A4.25,4.25,0,0,1,910.06,32.6Zm0-11.34A4.25,4.25,0,1,1,914.31,17,4.25,4.25,0,0,1,910.06,21.26Zm13.5,14.88A4.25,4.25,0,1,1,922,30.33,4.24,4.24,0,0,1,923.56,36.14ZM922,26.36a4.25,4.25,0,1,1,1.55-5.81A4.25,4.25,0,0,1,922,26.36Z"/><path class="cls-3" d="M825,0a28.35,28.35,0,1,0,28.35,28.35A28.34,28.34,0,0,0,825,0Zm-7.69,37.7a4.25,4.25,0,1,1,1.56-5.81A4.26,4.26,0,0,1,817.33,37.7Zm1.56-12.9A4.25,4.25,0,1,1,817.33,19,4.26,4.26,0,0,1,818.89,24.8ZM825,43.94a4.26,4.26,0,1,1,4.26-4.25A4.26,4.26,0,0,1,825,43.94Zm0-11.34a4.26,4.26,0,1,1,4.26-4.25A4.26,4.26,0,0,1,825,32.6Zm0-11.34A4.25,4.25,0,1,1,829.28,17,4.25,4.25,0,0,1,825,21.26Zm13.51,14.88A4.25,4.25,0,1,1,837,30.33,4.26,4.26,0,0,1,838.53,36.14ZM837,26.36a4.25,4.25,0,1,1,1.56-5.81A4.25,4.25,0,0,1,837,26.36Z"/><path class="cls-3" d="M740,0a28.35,28.35,0,1,0,28.35,28.35A28.34,28.34,0,0,0,740,0Zm-7.69,37.7a4.25,4.25,0,1,1,1.56-5.81A4.26,4.26,0,0,1,732.29,37.7Zm1.56-12.9A4.25,4.25,0,1,1,732.29,19,4.26,4.26,0,0,1,733.85,24.8ZM740,43.94a4.26,4.26,0,1,1,4.26-4.25A4.26,4.26,0,0,1,740,43.94Zm0-11.34a4.26,4.26,0,1,1,4.26-4.25A4.26,4.26,0,0,1,740,32.6Zm0-11.34A4.25,4.25,0,1,1,744.24,17,4.25,4.25,0,0,1,740,21.26Zm13.51,14.88a4.25,4.25,0,1,1-1.56-5.81A4.26,4.26,0,0,1,753.49,36.14Zm-1.56-9.78a4.25,4.25,0,1,1,1.56-5.81A4.26,4.26,0,0,1,751.93,26.36Z"/><path class="cls-3" d="M1080.14,0a28.35,28.35,0,1,0,28.35,28.35A28.34,28.34,0,0,0,1080.14,0Zm7,15.32a4.25,4.25,0,1,1,0,6A4.25,4.25,0,0,1,1087.16,15.32Zm-25.44,13A4.25,4.25,0,1,1,1066,32.6,4.25,4.25,0,0,1,1061.72,28.35Zm11.41,13a4.26,4.26,0,1,1,0-6A4.26,4.26,0,0,1,1073.13,41.38Zm0-20.05a4.25,4.25,0,1,1,0-6A4.26,4.26,0,0,1,1073.13,21.33Zm7,25.44a4.25,4.25,0,1,1,4.25-4.25A4.25,4.25,0,0,1,1080.14,46.77Zm0-28.34a4.26,4.26,0,1,1,4.25-4.26A4.25,4.25,0,0,1,1080.14,18.43Zm13,23a4.25,4.25,0,1,1,0-6A4.25,4.25,0,0,1,1093.17,41.38Zm1.14-8.78a4.26,4.26,0,1,1,4.26-4.25A4.26,4.26,0,0,1,1094.31,32.6Z"/><path class="cls-3" d="M1713.83,1087.23a28.35,28.35,0,1,0,28.34,28.34A28.34,28.34,0,0,0,1713.83,1087.23Zm7,15.32a4.25,4.25,0,1,1,0,6A4.26,4.26,0,0,1,1720.84,1102.55Zm-25.44,13a4.26,4.26,0,1,1,4.25,4.26A4.26,4.26,0,0,1,1695.4,1115.57Zm11.41,13a4.25,4.25,0,1,1,0-6A4.25,4.25,0,0,1,1706.81,1128.6Zm0-20a4.25,4.25,0,1,1,0-6A4.25,4.25,0,0,1,1706.81,1108.56Zm7,25.44a4.25,4.25,0,1,1,4.25-4.25A4.25,4.25,0,0,1,1713.83,1134Zm0-28.35a4.25,4.25,0,1,1,4.25-4.25A4.25,4.25,0,0,1,1713.83,1105.65Zm13,22.95a4.25,4.25,0,1,1,0-6A4.26,4.26,0,0,1,1726.86,1128.6Zm1.14-8.77a4.26,4.26,0,1,1,4.25-4.26A4.25,4.25,0,0,1,1728,1119.83Z"/><path class="cls-3" d="M1628.79,1087.23a28.35,28.35,0,1,0,28.34,28.34A28.34,28.34,0,0,0,1628.79,1087.23Zm7,15.32a4.25,4.25,0,1,1,0,6A4.26,4.26,0,0,1,1635.8,1102.55Zm-25.44,13a4.26,4.26,0,1,1,4.25,4.26A4.26,4.26,0,0,1,1610.36,1115.57Zm11.41,13a4.25,4.25,0,1,1,0-6A4.25,4.25,0,0,1,1621.77,1128.6Zm0-20a4.25,4.25,0,1,1,0-6A4.25,4.25,0,0,1,1621.77,1108.56Zm7,25.44a4.25,4.25,0,1,1,4.25-4.25A4.25,4.25,0,0,1,1628.79,1134Zm0-28.35a4.25,4.25,0,1,1,4.25-4.25A4.25,4.25,0,0,1,1628.79,1105.65Zm13,22.95a4.25,4.25,0,1,1,0-6A4.26,4.26,0,0,1,1641.82,1128.6Zm1.14-8.77a4.26,4.26,0,1,1,4.25-4.26A4.25,4.25,0,0,1,1643,1119.83Z"/><path class="cls-3" d="M78,1073.06a28.35,28.35,0,1,0,28.35-28.35A28.34,28.34,0,0,0,78,1073.06Zm32.6,0a4.25,4.25,0,1,1-4.25-4.26A4.25,4.25,0,0,1,110.55,1073.06Z"/><path class="cls-3" d="M163,1158.09a28.35,28.35,0,1,0,28.35-28.34A28.35,28.35,0,0,0,163,1158.09Zm15.32-7a4.25,4.25,0,1,1,6,0A4.25,4.25,0,0,1,178.31,1151.08Zm13,25.44a4.25,4.25,0,1,1,4.25-4.25A4.25,4.25,0,0,1,191.34,1176.52Zm13-11.41a4.25,4.25,0,1,1-6,0A4.25,4.25,0,0,1,204.37,1165.11Zm-20.05,0a4.25,4.25,0,1,1-6,0A4.25,4.25,0,0,1,184.32,1165.11Zm25.44-7a4.25,4.25,0,1,1-4.25-4.25A4.25,4.25,0,0,1,209.76,1158.09Zm-28.34,0a4.26,4.26,0,1,1-4.25-4.25A4.26,4.26,0,0,1,181.42,1158.09Zm23-13a4.25,4.25,0,1,1-6,0A4.25,4.25,0,0,1,204.37,1145.07Zm-8.78-1.15a4.25,4.25,0,1,1-4.25-4.25A4.25,4.25,0,0,1,195.59,1143.92Z"/><path class="cls-3" d="M78,1158.09a28.35,28.35,0,1,0,28.35-28.34A28.35,28.35,0,0,0,78,1158.09Zm32.6,0a4.25,4.25,0,1,1-4.25-4.25A4.25,4.25,0,0,1,110.55,1158.09Z"/><path class="cls-3" d="M867.21,1463.36A28.35,28.35,0,1,0,838.86,1435,28.35,28.35,0,0,0,867.21,1463.36Zm-7-15.32a4.25,4.25,0,1,1,0-6A4.26,4.26,0,0,1,860.2,1448Zm25.44-13a4.26,4.26,0,1,1-4.26-4.25A4.26,4.26,0,0,1,885.64,1435Zm-11.41-13a4.25,4.25,0,1,1,0,6A4.25,4.25,0,0,1,874.23,1422Zm0,20a4.25,4.25,0,1,1,0,6A4.25,4.25,0,0,1,874.23,1442Zm-7-25.44a4.25,4.25,0,1,1-4.25,4.25A4.25,4.25,0,0,1,867.21,1416.59Zm0,28.34a4.26,4.26,0,1,1-4.25,4.26A4.25,4.25,0,0,1,867.21,1444.93Zm-13-23a4.26,4.26,0,1,1,0,6A4.26,4.26,0,0,1,854.18,1422Zm-1.14,8.78a4.26,4.26,0,1,1-4.25,4.25A4.25,4.25,0,0,1,853,1430.76Z"/><path class="cls-3" d="M952.25,1463.36A28.35,28.35,0,1,0,923.9,1435,28.35,28.35,0,0,0,952.25,1463.36Zm-19-19a4.25,4.25,0,1,1,1.55-5.81A4.26,4.26,0,0,1,933.22,1444.37Zm12.92,9.66a4.25,4.25,0,1,1-1.56-5.81A4.26,4.26,0,0,1,946.14,1454Zm25.14-28.37a4.25,4.25,0,1,1-1.55,5.81A4.25,4.25,0,0,1,971.28,1425.66Zm-1.55,12.9a4.25,4.25,0,1,1,1.55,5.81A4.24,4.24,0,0,1,969.73,1438.56ZM964.2,1433a4.26,4.26,0,1,1,1.55-5.81A4.26,4.26,0,0,1,964.2,1433Zm1.55,9.78a4.25,4.25,0,1,1-1.55-5.81A4.26,4.26,0,0,1,965.75,1442.81ZM958.27,1416a4.25,4.25,0,1,1,1.56,5.81A4.26,4.26,0,0,1,958.27,1416Zm1.56,32.22a4.25,4.25,0,1,1-1.56,5.81A4.26,4.26,0,0,1,959.83,1448.22Zm-7.58-28.8a4.26,4.26,0,1,1-4.25,4.25A4.25,4.25,0,0,1,952.25,1419.42Zm0,11.34A4.26,4.26,0,1,1,948,1435,4.25,4.25,0,0,1,952.25,1430.76Zm0,11.34a4.25,4.25,0,1,1-4.25,4.25A4.25,4.25,0,0,1,952.25,1442.1Zm-11.92-27.66a4.25,4.25,0,1,1-1.56,5.81A4.26,4.26,0,0,1,940.33,1414.44Zm-1.58,12.78a4.25,4.25,0,1,1,1.55,5.81A4.25,4.25,0,0,1,938.75,1427.22Zm1.55,9.78a4.26,4.26,0,1,1-1.55,5.81A4.25,4.25,0,0,1,940.3,1437Zm-12.89-9.78A4.25,4.25,0,1,1,929,1433,4.25,4.25,0,0,1,927.41,1427.22Z"/><path class="cls-3" d="M867.21,1548.4a28.35,28.35,0,1,0-28.35-28.35A28.35,28.35,0,0,0,867.21,1548.4Zm-7-15.32a4.25,4.25,0,1,1,0-6A4.26,4.26,0,0,1,860.2,1533.08Zm25.44-13a4.26,4.26,0,1,1-4.26-4.25A4.25,4.25,0,0,1,885.64,1520.05Zm-11.41-13a4.25,4.25,0,1,1,0,6A4.25,4.25,0,0,1,874.23,1507Zm0,20a4.25,4.25,0,1,1,0,6A4.25,4.25,0,0,1,874.23,1527.07Zm-7-25.44a4.25,4.25,0,1,1-4.25,4.25A4.25,4.25,0,0,1,867.21,1501.63Zm0,28.34a4.26,4.26,0,1,1-4.25,4.26A4.25,4.25,0,0,1,867.21,1530Zm-13-23a4.26,4.26,0,1,1,0,6A4.26,4.26,0,0,1,854.18,1507ZM853,1515.8a4.25,4.25,0,1,1-4.25,4.25A4.25,4.25,0,0,1,853,1515.8Z"/><path class="cls-3" d="M867.21,1633.44a28.35,28.35,0,1,0-28.35-28.35A28.35,28.35,0,0,0,867.21,1633.44Zm-7-15.32a4.25,4.25,0,1,1,0-6A4.26,4.26,0,0,1,860.2,1618.12Zm25.44-13a4.26,4.26,0,1,1-4.26-4.25A4.25,4.25,0,0,1,885.64,1605.09Zm-11.41-13a4.25,4.25,0,1,1,0,6A4.25,4.25,0,0,1,874.23,1592.06Zm0,20a4.25,4.25,0,1,1,0,6A4.25,4.25,0,0,1,874.23,1612.11Zm-7-25.44a4.25,4.25,0,1,1-4.25,4.25A4.25,4.25,0,0,1,867.21,1586.67Zm0,28.34a4.26,4.26,0,1,1-4.25,4.26A4.25,4.25,0,0,1,867.21,1615Zm-13-23a4.26,4.26,0,1,1,0,6A4.26,4.26,0,0,1,854.18,1592.06Zm-1.14,8.78a4.25,4.25,0,1,1-4.25,4.25A4.25,4.25,0,0,1,853,1600.84Z"/><path class="cls-3" d="M867.21,1718.48a28.35,28.35,0,1,0-28.35-28.35A28.35,28.35,0,0,0,867.21,1718.48Zm-7-15.32a4.25,4.25,0,1,1,0-6A4.26,4.26,0,0,1,860.2,1703.16Zm25.44-13a4.26,4.26,0,1,1-4.26-4.25A4.25,4.25,0,0,1,885.64,1690.13Zm-11.41-13a4.25,4.25,0,1,1,0,6A4.25,4.25,0,0,1,874.23,1677.1Zm0,20.05a4.25,4.25,0,1,1,0,6A4.25,4.25,0,0,1,874.23,1697.15Zm-7-25.44A4.25,4.25,0,1,1,863,1676,4.25,4.25,0,0,1,867.21,1671.71Zm0,28.34a4.26,4.26,0,1,1-4.25,4.25A4.25,4.25,0,0,1,867.21,1700.05Zm-13-23a4.26,4.26,0,1,1,0,6A4.26,4.26,0,0,1,854.18,1677.1Zm-1.14,8.78a4.25,4.25,0,1,1-4.25,4.25A4.25,4.25,0,0,1,853,1685.88Z"/><path class="cls-3" d="M629.86,1326.32a28.34,28.34,0,1,0,10.37-38.72A28.34,28.34,0,0,0,629.86,1326.32Zm28.23-16.3a4.26,4.26,0,1,1-5.81-1.55A4.25,4.25,0,0,1,658.09,1310Z"/><path class="cls-3" d="M672.38,1400a28.34,28.34,0,1,0,10.37-38.72A28.35,28.35,0,0,0,672.38,1400Zm36.49-12.19a4.25,4.25,0,1,1-5.81,1.56A4.26,4.26,0,0,1,708.87,1387.78Zm-11.94,5.1a4.26,4.26,0,1,1-4.26,4.26A4.26,4.26,0,0,1,696.93,1392.88Zm13.5-14.88a4.25,4.25,0,1,1-5.81-1.55A4.26,4.26,0,0,1,710.43,1378Zm-19.64,11.34a4.25,4.25,0,1,1-5.81-1.56A4.26,4.26,0,0,1,690.79,1389.34Zm6.14-19.13a4.25,4.25,0,1,1-4.26,4.25A4.25,4.25,0,0,1,696.93,1370.21Zm-7.7,6.24a4.25,4.25,0,1,1-5.81,1.55A4.24,4.24,0,0,1,689.23,1376.45Z"/><path class="cls-3" d="M587.34,1252.68A28.34,28.34,0,1,0,597.71,1214,28.34,28.34,0,0,0,587.34,1252.68Zm36.49-12.19a4.25,4.25,0,1,1-5.81,1.56A4.26,4.26,0,0,1,623.83,1240.49Zm-11.94,5.1a4.25,4.25,0,1,1-4.26,4.25A4.25,4.25,0,0,1,611.89,1245.59Zm13.5-14.88a4.25,4.25,0,1,1-5.81-1.56A4.26,4.26,0,0,1,625.39,1230.71Zm-9.82,5.67a4.25,4.25,0,1,1-5.81-1.56A4.26,4.26,0,0,1,615.57,1236.38Zm-9.82,5.67a4.25,4.25,0,1,1-5.81-1.56A4.26,4.26,0,0,1,605.75,1242.05Zm6.14-19.14a4.26,4.26,0,1,1-4.26,4.26A4.26,4.26,0,0,1,611.89,1222.91Zm-7.7,6.24a4.25,4.25,0,1,1-5.81,1.56A4.26,4.26,0,0,1,604.19,1229.15Z"/><path class="cls-3" d="M544.82,1179a28.35,28.35,0,1,0,10.37-38.72A28.35,28.35,0,0,0,544.82,1179Zm9.76-13.73a4.25,4.25,0,1,1,5.2-3A4.25,4.25,0,0,1,554.58,1165.3Zm24,15.51a4.25,4.25,0,1,1,1.56-5.8A4.25,4.25,0,0,1,578.58,1180.81Zm5.58-16.39a4.25,4.25,0,1,1-5.21,3A4.25,4.25,0,0,1,584.16,1164.42Zm-17.36,10a4.25,4.25,0,1,1-5.21,3A4.26,4.26,0,0,1,566.8,1174.44Zm18.52-18.79a4.25,4.25,0,1,1-5.81-1.56A4.24,4.24,0,0,1,585.32,1155.65Zm-24.55,14.17a4.25,4.25,0,1,1-5.8-1.56A4.25,4.25,0,0,1,560.77,1169.82Zm13.37-22.76a4.25,4.25,0,1,1-5.21,3A4.26,4.26,0,0,1,574.14,1147.06Zm-8.18,3.4a4.25,4.25,0,1,1-5.81-1.56A4.25,4.25,0,0,1,566,1150.46Z"/><path class="cls-3" d="M556.21,1368.84a28.35,28.35,0,1,0,10.38-38.72A28.34,28.34,0,0,0,556.21,1368.84Zm28.23-16.3a4.25,4.25,0,1,1-5.81-1.55A4.25,4.25,0,0,1,584.44,1352.54Z"/><path class="cls-3" d="M598.73,1442.49a28.35,28.35,0,1,0,10.38-38.72A28.35,28.35,0,0,0,598.73,1442.49Zm36.49-12.19a4.25,4.25,0,1,1-5.8,1.56A4.25,4.25,0,0,1,635.22,1430.3Zm-11.94,5.1a4.26,4.26,0,1,1-4.25,4.25A4.25,4.25,0,0,1,623.28,1435.4Zm13.5-14.88A4.25,4.25,0,1,1,631,1419,4.24,4.24,0,0,1,636.78,1420.52Zm-19.64,11.34a4.25,4.25,0,1,1-5.81-1.56A4.25,4.25,0,0,1,617.14,1431.86Zm6.14-19.13A4.25,4.25,0,1,1,619,1417,4.25,4.25,0,0,1,623.28,1412.73Zm-7.69,6.23a4.26,4.26,0,1,1-5.81,1.56A4.25,4.25,0,0,1,615.59,1419Z"/><path class="cls-3" d="M513.69,1295.2a28.35,28.35,0,1,0,10.38-38.72A28.35,28.35,0,0,0,513.69,1295.2Zm36.5-12.19a4.26,4.26,0,1,1-5.81,1.56A4.25,4.25,0,0,1,550.19,1283Zm-12,5.1a4.25,4.25,0,1,1-4.25,4.25A4.25,4.25,0,0,1,538.24,1288.11Zm13.5-14.88a4.25,4.25,0,1,1-5.81-1.56A4.25,4.25,0,0,1,551.74,1273.23Zm-9.82,5.67a4.25,4.25,0,1,1-5.81-1.56A4.25,4.25,0,0,1,541.92,1278.9Zm-9.82,5.67a4.25,4.25,0,1,1-5.81-1.56A4.25,4.25,0,0,1,532.1,1284.57Zm6.14-19.14a4.26,4.26,0,1,1-4.25,4.26A4.25,4.25,0,0,1,538.24,1265.43Zm-7.69,6.24a4.26,4.26,0,1,1-5.81,1.56A4.25,4.25,0,0,1,530.55,1271.67Z"/><path class="cls-3" d="M482.56,1411.36a28.35,28.35,0,1,0,10.38-38.72A28.35,28.35,0,0,0,482.56,1411.36Zm28.24-16.3a4.26,4.26,0,1,1-5.81-1.55A4.26,4.26,0,0,1,510.8,1395.06Z"/><path class="cls-3" d="M525.08,1485a28.35,28.35,0,1,0,10.38-38.72A28.35,28.35,0,0,0,525.08,1485Zm36.5-12.19a4.25,4.25,0,1,1-5.81,1.56A4.25,4.25,0,0,1,561.58,1472.82Zm-12,5.1a4.26,4.26,0,1,1-4.25,4.25A4.25,4.25,0,0,1,549.63,1477.92Zm13.5-14.88a4.25,4.25,0,1,1-5.8-1.56A4.25,4.25,0,0,1,563.13,1463Zm-19.63,11.34a4.25,4.25,0,1,1-5.81-1.56A4.26,4.26,0,0,1,543.5,1474.38Zm6.13-19.13a4.25,4.25,0,1,1-4.25,4.25A4.25,4.25,0,0,1,549.63,1455.25Zm-7.69,6.23a4.25,4.25,0,1,1-5.81,1.56A4.26,4.26,0,0,1,541.94,1461.48Z"/><path class="cls-3" d="M440,1337.72A28.35,28.35,0,1,0,450.42,1299,28.36,28.36,0,0,0,440,1337.72Zm36.5-12.19a4.25,4.25,0,1,1-5.81,1.56A4.26,4.26,0,0,1,476.54,1325.53Zm-12,5.1a4.25,4.25,0,1,1-4.25,4.25A4.25,4.25,0,0,1,464.59,1330.63Zm13.51-14.88a4.25,4.25,0,1,1-5.81-1.56A4.26,4.26,0,0,1,478.1,1315.75Zm-9.82,5.67a4.25,4.25,0,1,1-5.81-1.56A4.26,4.26,0,0,1,468.28,1321.42Zm-9.82,5.67a4.25,4.25,0,1,1-5.81-1.56A4.26,4.26,0,0,1,458.46,1327.09Zm6.13-19.14a4.26,4.26,0,1,1-4.25,4.25A4.26,4.26,0,0,1,464.59,1308Zm-7.69,6.24a4.25,4.25,0,1,1-5.81,1.56A4.26,4.26,0,0,1,456.9,1314.19Z"/><path class="cls-3" d="M408.92,1453.88a28.35,28.35,0,1,0,10.37-38.72A28.34,28.34,0,0,0,408.92,1453.88Zm28.23-16.3a4.26,4.26,0,1,1-5.81-1.55A4.25,4.25,0,0,1,437.15,1437.58Z"/><path class="cls-3" d="M451.44,1527.53a28.35,28.35,0,1,0,10.37-38.72A28.34,28.34,0,0,0,451.44,1527.53Zm36.49-12.19a4.25,4.25,0,1,1-5.81,1.56A4.26,4.26,0,0,1,487.93,1515.34Zm-11.94,5.1a4.26,4.26,0,1,1-4.26,4.25A4.25,4.25,0,0,1,476,1520.44Zm13.5-14.88a4.25,4.25,0,1,1-5.81-1.56A4.26,4.26,0,0,1,489.49,1505.56Zm-19.64,11.34a4.25,4.25,0,1,1-5.81-1.56A4.26,4.26,0,0,1,469.85,1516.9Zm6.14-19.13a4.25,4.25,0,1,1-4.26,4.25A4.25,4.25,0,0,1,476,1497.77Zm-7.7,6.23a4.25,4.25,0,1,1-5.81,1.56A4.26,4.26,0,0,1,468.29,1504Z"/><path class="cls-3" d="M366.4,1380.24a28.35,28.35,0,1,0,10.37-38.73A28.35,28.35,0,0,0,366.4,1380.24Zm36.49-12.19a4.25,4.25,0,1,1-5.81,1.56A4.25,4.25,0,0,1,402.89,1368.05Zm-11.94,5.1a4.25,4.25,0,1,1-4.25,4.25A4.25,4.25,0,0,1,391,1373.15Zm13.5-14.88a4.25,4.25,0,1,1-5.81-1.56A4.26,4.26,0,0,1,404.45,1358.27Zm-9.82,5.67a4.25,4.25,0,1,1-5.81-1.56A4.26,4.26,0,0,1,394.63,1363.94Zm-9.82,5.67a4.25,4.25,0,1,1-5.81-1.56A4.24,4.24,0,0,1,384.81,1369.61Zm6.14-19.14a4.26,4.26,0,1,1-4.25,4.25A4.25,4.25,0,0,1,391,1350.47Zm-7.7,6.24a4.25,4.25,0,1,1-5.8,1.56A4.26,4.26,0,0,1,383.25,1356.71Z"/><path class="cls-3" d="M335.27,1496.4a28.35,28.35,0,1,0,10.38-38.72A28.34,28.34,0,0,0,335.27,1496.4Zm28.23-16.3a4.25,4.25,0,1,1-5.81-1.55A4.25,4.25,0,0,1,363.5,1480.1Z"/><path class="cls-3" d="M377.79,1570.05a28.35,28.35,0,1,0,10.38-38.72A28.34,28.34,0,0,0,377.79,1570.05Zm36.5-12.19a4.26,4.26,0,1,1-5.81,1.56A4.25,4.25,0,0,1,414.29,1557.86Zm-12,5.1a4.26,4.26,0,1,1-4.25,4.25A4.25,4.25,0,0,1,402.34,1563Zm13.5-14.88a4.25,4.25,0,1,1-5.81-1.56A4.25,4.25,0,0,1,415.84,1548.08Zm-19.64,11.34a4.25,4.25,0,1,1-5.81-1.56A4.25,4.25,0,0,1,396.2,1559.42Zm6.14-19.14a4.26,4.26,0,1,1-4.25,4.26A4.25,4.25,0,0,1,402.34,1540.28Zm-7.69,6.24a4.26,4.26,0,1,1-5.81,1.56A4.25,4.25,0,0,1,394.65,1546.52Z"/><path class="cls-3" d="M292.75,1422.76A28.35,28.35,0,1,0,303.13,1384,28.35,28.35,0,0,0,292.75,1422.76Zm36.5-12.19a4.25,4.25,0,1,1-5.81,1.56A4.25,4.25,0,0,1,329.25,1410.57Zm-11.95,5.1a4.25,4.25,0,1,1-4.25,4.25A4.25,4.25,0,0,1,317.3,1415.67Zm13.5-14.88a4.25,4.25,0,1,1-5.81-1.56A4.25,4.25,0,0,1,330.8,1400.79Zm-9.82,5.67a4.25,4.25,0,1,1-5.8-1.56A4.25,4.25,0,0,1,321,1406.46Zm-9.82,5.67a4.25,4.25,0,1,1-5.8-1.56A4.24,4.24,0,0,1,311.16,1412.13ZM317.3,1393a4.26,4.26,0,1,1-4.25,4.25A4.25,4.25,0,0,1,317.3,1393Zm-7.69,6.24a4.25,4.25,0,1,1-5.81,1.56A4.25,4.25,0,0,1,309.61,1399.23Z"/><path class="cls-3" d="M1210.86,941.78a28.34,28.34,0,1,0-10.37,38.72A28.34,28.34,0,0,0,1210.86,941.78Zm-28.23,16.3a4.25,4.25,0,1,1,5.81,1.56A4.26,4.26,0,0,1,1182.63,958.08Z"/><path class="cls-3" d="M1168.34,868.14A28.34,28.34,0,1,0,1158,906.86,28.34,28.34,0,0,0,1168.34,868.14Zm-36.49,12.18a4.25,4.25,0,1,1,5.81-1.55A4.26,4.26,0,0,1,1131.85,880.32Zm12-5.1a4.25,4.25,0,1,1,4.25-4.25A4.25,4.25,0,0,1,1143.8,875.22Zm-13.51,14.88a4.25,4.25,0,1,1,5.81,1.56A4.25,4.25,0,0,1,1130.29,890.1Zm19.64-11.33a4.26,4.26,0,1,1,5.81,1.55A4.26,4.26,0,0,1,1149.93,878.77Zm-6.13,19.13a4.25,4.25,0,1,1,4.25-4.25A4.25,4.25,0,0,1,1143.8,897.9Zm7.69-6.24a4.25,4.25,0,1,1,5.81-1.56A4.26,4.26,0,0,1,1151.49,891.66Z"/><path class="cls-3" d="M1253.38,1015.43a28.34,28.34,0,1,0-10.37,38.72A28.34,28.34,0,0,0,1253.38,1015.43Zm-36.49,12.18a4.25,4.25,0,1,1,5.81-1.55A4.25,4.25,0,0,1,1216.89,1027.61Zm11.94-5.1a4.25,4.25,0,1,1,4.26-4.25A4.25,4.25,0,0,1,1228.83,1022.51Zm-13.5,14.89a4.26,4.26,0,1,1,5.81,1.55A4.26,4.26,0,0,1,1215.33,1037.4Zm9.82-5.67a4.25,4.25,0,1,1,5.81,1.55A4.26,4.26,0,0,1,1225.15,1031.73Zm9.82-5.67a4.25,4.25,0,1,1,5.81,1.55A4.25,4.25,0,0,1,1235,1026.06Zm-6.14,19.13a4.25,4.25,0,1,1,4.26-4.25A4.25,4.25,0,0,1,1228.83,1045.19Zm7.7-6.24a4.25,4.25,0,1,1,5.81-1.55A4.25,4.25,0,0,1,1236.53,1039Z"/><path class="cls-3" d="M1284.51,899.26A28.35,28.35,0,1,0,1274.13,938,28.34,28.34,0,0,0,1284.51,899.26Zm-28.23,16.3a4.25,4.25,0,1,1,5.81,1.56A4.25,4.25,0,0,1,1256.28,915.56Z"/><path class="cls-3" d="M1242,825.62a28.35,28.35,0,1,0-10.38,38.72A28.34,28.34,0,0,0,1242,825.62ZM1205.5,837.8a4.25,4.25,0,1,1,5.8-1.55A4.25,4.25,0,0,1,1205.5,837.8Zm11.94-5.1a4.25,4.25,0,1,1,4.25-4.25A4.25,4.25,0,0,1,1217.44,832.7Zm-13.5,14.88a4.25,4.25,0,1,1,5.81,1.56A4.24,4.24,0,0,1,1203.94,847.58Zm19.64-11.33a4.25,4.25,0,1,1,5.81,1.55A4.24,4.24,0,0,1,1223.58,836.25Zm-6.14,19.13a4.25,4.25,0,1,1,4.25-4.25A4.25,4.25,0,0,1,1217.44,855.38Zm7.7-6.24a4.25,4.25,0,1,1,5.8-1.56A4.24,4.24,0,0,1,1225.14,849.14Z"/><path class="cls-3" d="M1327,972.91a28.35,28.35,0,1,0-10.38,38.72A28.35,28.35,0,0,0,1327,972.91Zm-36.49,12.18a4.25,4.25,0,1,1,5.8-1.55A4.23,4.23,0,0,1,1290.54,985.09Zm11.94-5.1a4.25,4.25,0,1,1,4.25-4.25A4.25,4.25,0,0,1,1302.48,980ZM1289,994.88a4.25,4.25,0,1,1,5.81,1.55A4.25,4.25,0,0,1,1289,994.88Zm9.82-5.67a4.25,4.25,0,1,1,5.81,1.55A4.25,4.25,0,0,1,1298.8,989.21Zm9.82-5.67a4.25,4.25,0,1,1,5.81,1.55A4.25,4.25,0,0,1,1308.62,983.54Zm-6.14,19.13a4.25,4.25,0,1,1,4.25-4.25A4.25,4.25,0,0,1,1302.48,1002.67Zm7.69-6.24a4.25,4.25,0,1,1,5.81-1.55A4.25,4.25,0,0,1,1310.17,996.43Z"/><path class="cls-3" d="M1358.16,856.74a28.35,28.35,0,1,0-10.38,38.72A28.35,28.35,0,0,0,1358.16,856.74ZM1329.93,873a4.25,4.25,0,1,1,5.8,1.56A4.25,4.25,0,0,1,1329.93,873Z"/><path class="cls-3" d="M1315.64,783.1a28.35,28.35,0,1,0-10.38,38.72A28.35,28.35,0,0,0,1315.64,783.1Zm-36.5,12.18a4.25,4.25,0,1,1,5.81-1.55A4.25,4.25,0,0,1,1279.14,795.28Zm11.95-5.1a4.25,4.25,0,1,1,4.25-4.25A4.25,4.25,0,0,1,1291.09,790.18Zm-13.5,14.88a4.25,4.25,0,1,1,5.8,1.56A4.24,4.24,0,0,1,1277.59,805.06Zm19.63-11.33a4.26,4.26,0,1,1,5.81,1.55A4.26,4.26,0,0,1,1297.22,793.73Zm-6.13,19.13a4.25,4.25,0,1,1,4.25-4.25A4.25,4.25,0,0,1,1291.09,812.86Zm7.69-6.24a4.25,4.25,0,1,1,5.81-1.56A4.26,4.26,0,0,1,1298.78,806.62Z"/><path class="cls-3" d="M1400.68,930.39a28.35,28.35,0,1,0-10.38,38.72A28.36,28.36,0,0,0,1400.68,930.39Zm-36.5,12.18A4.25,4.25,0,1,1,1370,941,4.24,4.24,0,0,1,1364.18,942.57Zm12-5.09a4.26,4.26,0,1,1,4.25-4.26A4.25,4.25,0,0,1,1376.13,937.48Zm-13.5,14.88a4.25,4.25,0,1,1,5.8,1.55A4.25,4.25,0,0,1,1362.63,952.36Zm9.81-5.67a4.25,4.25,0,1,1,5.81,1.55A4.26,4.26,0,0,1,1372.44,946.69Zm9.82-5.67a4.25,4.25,0,1,1,5.81,1.55A4.26,4.26,0,0,1,1382.26,941Zm-6.13,19.13a4.25,4.25,0,1,1,4.25-4.25A4.25,4.25,0,0,1,1376.13,960.15Zm7.69-6.24a4.25,4.25,0,1,1,5.81-1.55A4.25,4.25,0,0,1,1383.82,953.91Z"/><path class="cls-3" d="M1431.8,814.22a28.34,28.34,0,1,0-10.37,38.72A28.34,28.34,0,0,0,1431.8,814.22Zm-28.23,16.3a4.25,4.25,0,1,1,5.81,1.56A4.26,4.26,0,0,1,1403.57,830.52Z"/><path class="cls-3" d="M1389.28,740.58a28.34,28.34,0,1,0-10.37,38.72A28.34,28.34,0,0,0,1389.28,740.58Zm-36.49,12.18a4.25,4.25,0,1,1,5.81-1.55A4.25,4.25,0,0,1,1352.79,752.76Zm11.94-5.1a4.25,4.25,0,1,1,4.26-4.25A4.25,4.25,0,0,1,1364.73,747.66Zm-13.5,14.88a4.25,4.25,0,1,1,5.81,1.56A4.24,4.24,0,0,1,1351.23,762.54Zm19.64-11.33a4.26,4.26,0,1,1,5.81,1.55A4.25,4.25,0,0,1,1370.87,751.21Zm-6.14,19.13a4.25,4.25,0,1,1,4.26-4.25A4.25,4.25,0,0,1,1364.73,770.34Zm7.7-6.24a4.25,4.25,0,1,1,5.81-1.56A4.25,4.25,0,0,1,1372.43,764.1Z"/><path class="cls-3" d="M1474.32,887.87A28.35,28.35,0,1,0,1464,926.59,28.35,28.35,0,0,0,1474.32,887.87Zm-36.49,12.19a4.25,4.25,0,1,1,5.81-1.56A4.26,4.26,0,0,1,1437.83,900.06Zm11.94-5.1a4.26,4.26,0,1,1,4.26-4.26A4.26,4.26,0,0,1,1449.77,895Zm-13.5,14.88a4.25,4.25,0,1,1,5.81,1.55A4.25,4.25,0,0,1,1436.27,909.84Zm9.82-5.67a4.25,4.25,0,1,1,5.81,1.55A4.25,4.25,0,0,1,1446.09,904.17Zm9.82-5.67a4.25,4.25,0,1,1,5.81,1.56A4.25,4.25,0,0,1,1455.91,898.5Zm-6.14,19.13a4.25,4.25,0,1,1,4.26-4.25A4.25,4.25,0,0,1,1449.77,917.63Zm7.7-6.24a4.25,4.25,0,1,1,5.81-1.55A4.24,4.24,0,0,1,1457.47,911.39Z"/><path class="cls-3" d="M1505.45,771.7a28.35,28.35,0,1,0-10.38,38.72A28.35,28.35,0,0,0,1505.45,771.7ZM1477.22,788a4.25,4.25,0,1,1,5.81,1.56A4.25,4.25,0,0,1,1477.22,788Z"/><path class="cls-3" d="M1462.93,698.06a28.35,28.35,0,1,0-10.38,38.72A28.34,28.34,0,0,0,1462.93,698.06Zm-36.5,12.18a4.25,4.25,0,1,1,5.81-1.55A4.25,4.25,0,0,1,1426.43,710.24Zm12-5.1a4.25,4.25,0,1,1,4.25-4.25A4.25,4.25,0,0,1,1438.38,705.14ZM1424.88,720a4.25,4.25,0,1,1,5.81,1.55A4.25,4.25,0,0,1,1424.88,720Zm19.64-11.34a4.25,4.25,0,1,1,5.81,1.55A4.25,4.25,0,0,1,1444.52,708.69Zm-6.14,19.13a4.25,4.25,0,1,1,4.25-4.25A4.25,4.25,0,0,1,1438.38,727.82Zm7.69-6.24a4.25,4.25,0,1,1,5.81-1.55A4.25,4.25,0,0,1,1446.07,721.58Z"/><path class="cls-3" d="M1548,845.35a28.35,28.35,0,1,0-10.38,38.72A28.35,28.35,0,0,0,1548,845.35Zm-36.5,12.19a4.26,4.26,0,1,1,5.81-1.56A4.25,4.25,0,0,1,1511.47,857.54Zm12-5.1a4.26,4.26,0,1,1,4.25-4.26A4.25,4.25,0,0,1,1523.42,852.44Zm-13.5,14.88a4.25,4.25,0,1,1,5.81,1.55A4.25,4.25,0,0,1,1509.92,867.32Zm9.82-5.67a4.25,4.25,0,1,1,5.81,1.55A4.25,4.25,0,0,1,1519.74,861.65Zm9.82-5.67a4.25,4.25,0,1,1,5.81,1.56A4.25,4.25,0,0,1,1529.56,856Zm-6.14,19.13a4.25,4.25,0,1,1,4.25-4.25A4.25,4.25,0,0,1,1523.42,875.11Zm7.69-6.24a4.25,4.25,0,1,1,5.81-1.55A4.24,4.24,0,0,1,1531.11,868.87Z"/><path class="cls-3" d="M1232.12,1252.68a28.34,28.34,0,1,0-38.72,10.37A28.34,28.34,0,0,0,1232.12,1252.68Zm-28.23-16.3a4.25,4.25,0,1,1,1.56,5.81A4.26,4.26,0,0,1,1203.89,1236.38Z"/><path class="cls-3" d="M1274.64,1179a28.34,28.34,0,1,0-38.72,10.38A28.34,28.34,0,0,0,1274.64,1179Zm-28.8-25.51a4.26,4.26,0,1,1,4.25,4.25A4.25,4.25,0,0,1,1245.84,1153.52Zm10.39,7.79a4.25,4.25,0,1,1,5.81,1.56A4.24,4.24,0,0,1,1256.23,1161.31Zm-19.64-4.25a4.25,4.25,0,1,1,1.56,5.81A4.25,4.25,0,0,1,1236.59,1157.06Zm19.64,11.34a4.25,4.25,0,1,1,1.56,5.81A4.26,4.26,0,0,1,1256.23,1168.4Zm-19.64,4.25a4.25,4.25,0,1,1,5.81,1.56A4.26,4.26,0,0,1,1236.59,1172.65Zm9.25,3.55a4.26,4.26,0,1,1,4.25,4.25A4.26,4.26,0,0,1,1245.84,1176.2Z"/><path class="cls-3" d="M1189.6,1326.32a28.34,28.34,0,1,0-38.72,10.38A28.34,28.34,0,0,0,1189.6,1326.32Zm-28.8-25.51a4.26,4.26,0,1,1,4.26,4.25A4.25,4.25,0,0,1,1160.8,1300.81Zm10.39,7.8a4.25,4.25,0,1,1,5.81,1.55A4.25,4.25,0,0,1,1171.19,1308.61Zm-19.64-4.25a4.25,4.25,0,1,1,1.56,5.8A4.25,4.25,0,0,1,1151.55,1304.36Zm9.82,5.66a4.26,4.26,0,1,1,1.56,5.81A4.25,4.25,0,0,1,1161.37,1310Zm9.82,5.67a4.26,4.26,0,1,1,1.56,5.81A4.25,4.25,0,0,1,1171.19,1315.69Zm-19.64,4.26a4.26,4.26,0,1,1,5.81,1.55A4.26,4.26,0,0,1,1151.55,1320Zm9.25,3.54a4.26,4.26,0,1,1,4.26,4.25A4.25,4.25,0,0,1,1160.8,1323.49Z"/><path class="cls-3" d="M1147.08,1400a28.34,28.34,0,1,0-38.72,10.38A28.34,28.34,0,0,0,1147.08,1400Zm-16.77-1.58a4.25,4.25,0,1,1-5.21-3A4.24,4.24,0,0,1,1130.31,1398.39Zm1.44-28.55a4.25,4.25,0,1,1-5.81,1.56A4.25,4.25,0,0,1,1131.75,1369.84Zm-17,3.37a4.25,4.25,0,1,1,5.21,3A4.25,4.25,0,0,1,1114.76,1373.21Zm17.36,10a4.25,4.25,0,1,1,5.21,3A4.25,4.25,0,0,1,1132.12,1383.23Zm-25.54-6.65a4.25,4.25,0,1,1,1.56,5.81A4.25,4.25,0,0,1,1106.58,1376.58Zm24.55,14.18a4.25,4.25,0,1,1,1.55,5.81A4.25,4.25,0,0,1,1131.13,1390.76Zm-26.39-.19a4.25,4.25,0,1,1,5.21,3A4.26,4.26,0,0,1,1104.74,1390.57Zm7,5.38a4.25,4.25,0,1,1,1.55,5.8A4.23,4.23,0,0,1,1111.77,1396Z"/><path class="cls-3" d="M1305.77,1295.2a28.35,28.35,0,1,0-38.72,10.37A28.34,28.34,0,0,0,1305.77,1295.2Zm-28.23-16.3a4.25,4.25,0,1,1,1.56,5.81A4.25,4.25,0,0,1,1277.54,1278.9Z"/><path class="cls-3" d="M1348.29,1221.55a28.35,28.35,0,1,0-38.72,10.38A28.34,28.34,0,0,0,1348.29,1221.55Zm-28.8-25.51a4.25,4.25,0,1,1,4.25,4.25A4.25,4.25,0,0,1,1319.49,1196Zm10.39,7.79a4.25,4.25,0,1,1,5.81,1.56A4.24,4.24,0,0,1,1329.88,1203.83Zm-19.64-4.25a4.25,4.25,0,1,1,1.56,5.81A4.25,4.25,0,0,1,1310.24,1199.58Zm19.64,11.34a4.25,4.25,0,1,1,1.55,5.81A4.26,4.26,0,0,1,1329.88,1210.92Zm-19.64,4.25a4.25,4.25,0,1,1,5.81,1.56A4.25,4.25,0,0,1,1310.24,1215.17Zm9.25,3.55a4.25,4.25,0,1,1,4.25,4.25A4.25,4.25,0,0,1,1319.49,1218.72Z"/><path class="cls-3" d="M1263.25,1368.84a28.35,28.35,0,1,0-38.72,10.38A28.34,28.34,0,0,0,1263.25,1368.84Zm-28.8-25.51a4.25,4.25,0,1,1,4.25,4.25A4.25,4.25,0,0,1,1234.45,1343.33Zm10.39,7.8a4.25,4.25,0,1,1,5.81,1.55A4.25,4.25,0,0,1,1244.84,1351.13Zm-19.64-4.26a4.25,4.25,0,1,1,1.56,5.81A4.25,4.25,0,0,1,1225.2,1346.87Zm9.82,5.67a4.25,4.25,0,1,1,1.56,5.81A4.25,4.25,0,0,1,1235,1352.54Zm9.82,5.67a4.25,4.25,0,1,1,1.55,5.81A4.25,4.25,0,0,1,1244.84,1358.21Zm-19.64,4.26A4.25,4.25,0,1,1,1231,1364,4.25,4.25,0,0,1,1225.2,1362.47Zm9.25,3.54a4.25,4.25,0,1,1,4.25,4.25A4.25,4.25,0,0,1,1234.45,1366Z"/><path class="cls-3" d="M1379.42,1337.72a28.35,28.35,0,1,0-38.73,10.37A28.36,28.36,0,0,0,1379.42,1337.72Zm-28.23-16.3a4.25,4.25,0,1,1,1.55,5.81A4.24,4.24,0,0,1,1351.19,1321.42Z"/><path class="cls-3" d="M1421.94,1264.07a28.35,28.35,0,1,0-38.73,10.38A28.35,28.35,0,0,0,1421.94,1264.07Zm-28.8-25.51a4.25,4.25,0,1,1,4.25,4.25A4.25,4.25,0,0,1,1393.14,1238.56Zm10.38,7.79a4.25,4.25,0,1,1,5.81,1.56A4.25,4.25,0,0,1,1403.52,1246.35Zm-19.63-4.25a4.25,4.25,0,1,1,1.55,5.81A4.24,4.24,0,0,1,1383.89,1242.1Zm19.63,11.34a4.25,4.25,0,1,1,1.56,5.81A4.26,4.26,0,0,1,1403.52,1253.44Zm-19.63,4.25a4.25,4.25,0,1,1,5.8,1.56A4.25,4.25,0,0,1,1383.89,1257.69Zm9.25,3.55a4.25,4.25,0,1,1,4.25,4.25A4.25,4.25,0,0,1,1393.14,1261.24Z"/><path class="cls-3" d="M1453.06,1380.24a28.35,28.35,0,1,0-38.72,10.37A28.36,28.36,0,0,0,1453.06,1380.24Zm-28.23-16.3a4.25,4.25,0,1,1,1.56,5.81A4.26,4.26,0,0,1,1424.83,1363.94Z"/><path class="cls-3" d="M1495.58,1306.59a28.35,28.35,0,1,0-38.72,10.38A28.35,28.35,0,0,0,1495.58,1306.59Zm-28.8-25.51a4.26,4.26,0,1,1,4.25,4.25A4.25,4.25,0,0,1,1466.78,1281.08Zm10.39,7.79a4.25,4.25,0,1,1,5.81,1.56A4.24,4.24,0,0,1,1477.17,1288.87Zm-19.64-4.25a4.25,4.25,0,1,1,1.56,5.81A4.25,4.25,0,0,1,1457.53,1284.62Zm19.64,11.34a4.25,4.25,0,1,1,1.56,5.81A4.26,4.26,0,0,1,1477.17,1296Zm-19.64,4.25a4.25,4.25,0,1,1,5.81,1.56A4.26,4.26,0,0,1,1457.53,1300.21Zm9.25,3.55A4.26,4.26,0,1,1,1471,1308,4.26,4.26,0,0,1,1466.78,1303.76Z"/><path class="cls-3" d="M1526.71,1422.76a28.35,28.35,0,1,0-38.72,10.37A28.35,28.35,0,0,0,1526.71,1422.76Zm-28.23-16.3a4.25,4.25,0,1,1,1.55,5.81A4.25,4.25,0,0,1,1498.48,1406.46Z"/><path class="cls-3" d="M1569.23,1349.11a28.35,28.35,0,1,0-38.72,10.38A28.34,28.34,0,0,0,1569.23,1349.11Zm-28.8-25.51a4.25,4.25,0,1,1,4.25,4.25A4.25,4.25,0,0,1,1540.43,1323.6Zm10.39,7.79a4.25,4.25,0,1,1,5.81,1.56A4.24,4.24,0,0,1,1550.82,1331.39Zm-19.64-4.25a4.25,4.25,0,1,1,1.55,5.81A4.25,4.25,0,0,1,1531.18,1327.14Zm19.64,11.34a4.25,4.25,0,1,1,1.55,5.81A4.26,4.26,0,0,1,1550.82,1338.48Zm-19.64,4.25a4.25,4.25,0,1,1,5.81,1.56A4.25,4.25,0,0,1,1531.18,1342.73Zm9.25,3.55a4.25,4.25,0,1,1,4.25,4.25A4.25,4.25,0,0,1,1540.43,1346.28Z"/><path class="cls-3" d="M1600.35,1465.28a28.34,28.34,0,1,0-38.72,10.37A28.35,28.35,0,0,0,1600.35,1465.28Zm-28.23-16.3a4.25,4.25,0,1,1,1.56,5.8A4.26,4.26,0,0,1,1572.12,1449Z"/><path class="cls-3" d="M1220.73,1442.49a28.35,28.35,0,1,0-38.72,10.38A28.34,28.34,0,0,0,1220.73,1442.49Zm-16.77-1.58a4.25,4.25,0,1,1-5.21-3A4.25,4.25,0,0,1,1204,1440.91Zm1.43-28.55a4.25,4.25,0,1,1-5.8,1.56A4.25,4.25,0,0,1,1205.39,1412.36Zm-17,3.37a4.25,4.25,0,1,1,5.2,3A4.25,4.25,0,0,1,1188.41,1415.73Zm17.35,10a4.25,4.25,0,1,1,5.21,3A4.26,4.26,0,0,1,1205.76,1425.75Zm-25.53-6.65a4.25,4.25,0,1,1,1.55,5.81A4.24,4.24,0,0,1,1180.23,1419.1Zm24.54,14.18a4.25,4.25,0,1,1,1.56,5.81A4.26,4.26,0,0,1,1204.77,1433.28Zm-26.39-.19a4.26,4.26,0,1,1,5.21,3A4.26,4.26,0,0,1,1178.38,1433.09Zm7,5.37a4.26,4.26,0,1,1,1.56,5.81A4.25,4.25,0,0,1,1185.41,1438.46Z"/><path class="cls-3" d="M587.34,978.6a28.34,28.34,0,1,0,38.72-10.37A28.35,28.35,0,0,0,587.34,978.6Zm28.23,16.3a4.25,4.25,0,1,1-1.56-5.8A4.26,4.26,0,0,1,615.57,994.9Z"/><path class="cls-3" d="M544.82,1052.25a28.35,28.35,0,1,0,38.72-10.37A28.34,28.34,0,0,0,544.82,1052.25Zm28.8,25.51a4.26,4.26,0,1,1-4.25-4.25A4.25,4.25,0,0,1,573.62,1077.76ZM563.23,1070a4.25,4.25,0,1,1-5.81-1.56A4.26,4.26,0,0,1,563.23,1070Zm19.64,4.25a4.25,4.25,0,1,1-1.56-5.81A4.26,4.26,0,0,1,582.87,1074.22Zm-19.64-11.34a4.25,4.25,0,1,1-1.56-5.81A4.26,4.26,0,0,1,563.23,1062.88Zm19.64-4.25a4.25,4.25,0,1,1-5.81-1.56A4.26,4.26,0,0,1,582.87,1058.63Zm-9.25-3.54a4.26,4.26,0,1,1-4.25-4.26A4.26,4.26,0,0,1,573.62,1055.09Z"/><path class="cls-3" d="M629.86,905a28.34,28.34,0,1,0,38.72-10.38A28.34,28.34,0,0,0,629.86,905Zm28.8,25.51a4.26,4.26,0,1,1-4.25-4.25A4.25,4.25,0,0,1,658.66,930.47Zm-10.39-7.79a4.25,4.25,0,1,1-5.81-1.56A4.24,4.24,0,0,1,648.27,922.68Zm19.64,4.25a4.25,4.25,0,1,1-1.56-5.81A4.25,4.25,0,0,1,667.91,926.93Zm-9.82-5.67a4.25,4.25,0,1,1-1.56-5.81A4.25,4.25,0,0,1,658.09,921.26Zm-9.82-5.67a4.25,4.25,0,1,1-1.56-5.81A4.25,4.25,0,0,1,648.27,915.59Zm19.64-4.25a4.25,4.25,0,1,1-5.81-1.56A4.25,4.25,0,0,1,667.91,911.34Zm-9.25-3.55a4.26,4.26,0,1,1-4.25-4.25A4.26,4.26,0,0,1,658.66,907.79Z"/><path class="cls-3" d="M672.38,831.31a28.34,28.34,0,1,0,38.72-10.37A28.34,28.34,0,0,0,672.38,831.31Zm16.77,1.59a4.25,4.25,0,1,1,5.21,3A4.25,4.25,0,0,1,689.15,832.9Zm-1.44,28.54a4.25,4.25,0,1,1,5.81-1.55A4.25,4.25,0,0,1,687.71,861.44Zm17-3.36a4.25,4.25,0,1,1-5.21-3A4.24,4.24,0,0,1,704.7,858.08Zm-17.36-10a4.25,4.25,0,1,1-5.21-3A4.26,4.26,0,0,1,687.34,848.05Zm25.54,6.65a4.25,4.25,0,1,1-1.55-5.81A4.25,4.25,0,0,1,712.88,854.7Zm-24.55-14.18a4.25,4.25,0,1,1-1.55-5.8A4.23,4.23,0,0,1,688.33,840.52Zm26.39.2a4.25,4.25,0,1,1-5.2-3A4.24,4.24,0,0,1,714.72,840.72Zm-7-5.38a4.25,4.25,0,1,1-1.55-5.81A4.24,4.24,0,0,1,707.69,835.34Z"/><path class="cls-3" d="M513.69,936.09a28.35,28.35,0,1,0,38.72-10.38A28.34,28.34,0,0,0,513.69,936.09Zm28.23,16.29a4.25,4.25,0,1,1-1.55-5.8A4.25,4.25,0,0,1,541.92,952.38Z"/><path class="cls-3" d="M471.17,1009.73a28.35,28.35,0,1,0,38.72-10.37A28.34,28.34,0,0,0,471.17,1009.73Zm28.8,25.51a4.25,4.25,0,1,1-4.25-4.25A4.25,4.25,0,0,1,500,1035.24Zm-10.39-7.79a4.25,4.25,0,1,1-5.81-1.56A4.25,4.25,0,0,1,489.58,1027.45Zm19.64,4.25a4.25,4.25,0,1,1-1.55-5.81A4.26,4.26,0,0,1,509.22,1031.7Zm-19.64-11.34a4.25,4.25,0,1,1-1.55-5.81A4.25,4.25,0,0,1,489.58,1020.36Zm19.64-4.25a4.25,4.25,0,1,1-5.81-1.56A4.25,4.25,0,0,1,509.22,1016.11Zm-9.25-3.54a4.25,4.25,0,1,1-4.25-4.26A4.25,4.25,0,0,1,500,1012.57Z"/><path class="cls-3" d="M556.21,862.44a28.35,28.35,0,1,0,38.72-10.38A28.34,28.34,0,0,0,556.21,862.44ZM585,888a4.25,4.25,0,1,1-4.25-4.25A4.25,4.25,0,0,1,585,888Zm-10.39-7.79a4.25,4.25,0,1,1-5.81-1.56A4.24,4.24,0,0,1,574.62,880.16Zm19.64,4.25a4.25,4.25,0,1,1-1.55-5.81A4.25,4.25,0,0,1,594.26,884.41Zm-9.82-5.67a4.25,4.25,0,1,1-1.55-5.81A4.25,4.25,0,0,1,584.44,878.74Zm-9.82-5.67a4.25,4.25,0,1,1-1.55-5.81A4.26,4.26,0,0,1,574.62,873.07Zm19.64-4.25a4.25,4.25,0,1,1-5.81-1.56A4.25,4.25,0,0,1,594.26,868.82ZM585,865.27a4.25,4.25,0,1,1-4.25-4.25A4.25,4.25,0,0,1,585,865.27Z"/><path class="cls-3" d="M440,893.57a28.35,28.35,0,1,0,38.73-10.38A28.35,28.35,0,0,0,440,893.57Zm28.24,16.29a4.25,4.25,0,1,1-1.56-5.8A4.25,4.25,0,0,1,468.28,909.86Z"/><path class="cls-3" d="M397.53,967.21a28.34,28.34,0,1,0,38.72-10.37A28.34,28.34,0,0,0,397.53,967.21Zm28.8,25.51a4.26,4.26,0,1,1-4.26-4.25A4.26,4.26,0,0,1,426.33,992.72Zm-10.39-7.79a4.25,4.25,0,1,1-5.81-1.56A4.26,4.26,0,0,1,415.94,984.93Zm19.64,4.25a4.25,4.25,0,1,1-1.56-5.81A4.26,4.26,0,0,1,435.58,989.18Zm-19.64-11.34a4.25,4.25,0,1,1-1.56-5.81A4.26,4.26,0,0,1,415.94,977.84Zm19.64-4.25a4.25,4.25,0,1,1-5.81-1.56A4.26,4.26,0,0,1,435.58,973.59Zm-9.25-3.54a4.26,4.26,0,1,1-4.26-4.26A4.26,4.26,0,0,1,426.33,970.05Z"/><path class="cls-3" d="M366.4,851.05a28.35,28.35,0,1,0,38.72-10.38A28.35,28.35,0,0,0,366.4,851.05Zm28.23,16.3a4.25,4.25,0,1,1-1.56-5.81A4.25,4.25,0,0,1,394.63,867.35Z"/><path class="cls-3" d="M323.88,924.69a28.35,28.35,0,1,0,38.72-10.37A28.34,28.34,0,0,0,323.88,924.69Zm28.8,25.51a4.25,4.25,0,1,1-4.25-4.25A4.25,4.25,0,0,1,352.68,950.2Zm-10.39-7.79a4.25,4.25,0,1,1-5.81-1.56A4.26,4.26,0,0,1,342.29,942.41Zm19.64,4.25a4.25,4.25,0,1,1-1.56-5.81A4.26,4.26,0,0,1,361.93,946.66Zm-19.64-11.34a4.25,4.25,0,1,1-1.56-5.81A4.25,4.25,0,0,1,342.29,935.32Zm19.64-4.25a4.25,4.25,0,1,1-5.81-1.56A4.26,4.26,0,0,1,361.93,931.07Zm-9.25-3.54a4.25,4.25,0,1,1-4.25-4.26A4.25,4.25,0,0,1,352.68,927.53Z"/><path class="cls-3" d="M292.75,808.53a28.35,28.35,0,1,0,38.72-10.38A28.34,28.34,0,0,0,292.75,808.53ZM321,824.83a4.25,4.25,0,1,1-1.55-5.81A4.24,4.24,0,0,1,321,824.83Z"/><path class="cls-3" d="M482.56,819.92a28.35,28.35,0,1,0,38.73-10.38A28.35,28.35,0,0,0,482.56,819.92Zm28.81,25.51a4.26,4.26,0,1,1-4.26-4.25A4.25,4.25,0,0,1,511.37,845.43ZM501,837.64a4.25,4.25,0,1,1-5.81-1.56A4.25,4.25,0,0,1,501,837.64Zm19.64,4.25a4.25,4.25,0,1,1-1.56-5.81A4.25,4.25,0,0,1,520.62,841.89Zm-9.82-5.67a4.25,4.25,0,1,1-1.56-5.81A4.25,4.25,0,0,1,510.8,836.22ZM501,830.55a4.25,4.25,0,1,1-1.56-5.81A4.26,4.26,0,0,1,501,830.55Zm19.64-4.25a4.25,4.25,0,1,1-5.81-1.56A4.26,4.26,0,0,1,520.62,826.3Zm-9.25-3.55a4.26,4.26,0,1,1-4.26-4.25A4.26,4.26,0,0,1,511.37,822.75Z"/><path class="cls-3" d="M867.21,767.92a28.35,28.35,0,1,0,28.35,28.35A28.35,28.35,0,0,0,867.21,767.92Zm0,32.6a4.25,4.25,0,1,1,4.25-4.25A4.25,4.25,0,0,1,867.21,800.52Z"/><path class="cls-3" d="M782.17,767.92a28.35,28.35,0,1,0,28.35,28.35A28.35,28.35,0,0,0,782.17,767.92Zm-7.69,37.7a4.25,4.25,0,1,1,1.55-5.81A4.25,4.25,0,0,1,774.48,805.62ZM776,792.73a4.25,4.25,0,1,1-1.55-5.81A4.24,4.24,0,0,1,776,792.73Zm6.14,19.13a4.25,4.25,0,1,1,4.25-4.25A4.25,4.25,0,0,1,782.17,811.86Zm0-22.68a4.25,4.25,0,1,1,4.25-4.25A4.25,4.25,0,0,1,782.17,789.18Zm13.5,14.88a4.25,4.25,0,1,1-1.55-5.8A4.25,4.25,0,0,1,795.67,804.06Zm-1.55-9.78a4.25,4.25,0,1,1,1.55-5.81A4.25,4.25,0,0,1,794.12,794.28Z"/><path class="cls-3" d="M1037.29,767.92a28.35,28.35,0,1,0,28.35,28.35A28.35,28.35,0,0,0,1037.29,767.92Zm7,15.32a4.25,4.25,0,1,1,0,6A4.26,4.26,0,0,1,1044.3,783.24Zm-25.44,13a4.26,4.26,0,1,1,4.26,4.25A4.25,4.25,0,0,1,1018.86,796.27Zm11.41,13a4.25,4.25,0,1,1,0-6A4.25,4.25,0,0,1,1030.27,809.3Zm0-20a4.25,4.25,0,1,1,0-6A4.25,4.25,0,0,1,1030.27,789.25Zm7,25.44a4.25,4.25,0,1,1,4.25-4.25A4.25,4.25,0,0,1,1037.29,814.69Zm0-28.34a4.26,4.26,0,1,1,4.25-4.25A4.25,4.25,0,0,1,1037.29,786.35Zm13,22.95a4.26,4.26,0,1,1,0-6A4.26,4.26,0,0,1,1050.32,809.3Zm1.14-8.78a4.25,4.25,0,1,1,4.25-4.25A4.25,4.25,0,0,1,1051.46,800.52Z"/><path class="cls-3" d="M867.21,682.88a28.35,28.35,0,1,0,28.35,28.35A28.35,28.35,0,0,0,867.21,682.88Zm0,32.6a4.25,4.25,0,1,1,4.25-4.25A4.25,4.25,0,0,1,867.21,715.48Z"/><path class="cls-3" d="M782.17,682.88a28.35,28.35,0,1,0,28.35,28.35A28.35,28.35,0,0,0,782.17,682.88Zm-7.69,37.7a4.25,4.25,0,1,1,1.55-5.81A4.24,4.24,0,0,1,774.48,720.58ZM776,707.69a4.25,4.25,0,1,1-1.55-5.81A4.24,4.24,0,0,1,776,707.69Zm6.14,19.13a4.25,4.25,0,1,1,4.25-4.25A4.25,4.25,0,0,1,782.17,726.82Zm0-22.68a4.25,4.25,0,1,1,4.25-4.25A4.25,4.25,0,0,1,782.17,704.14ZM795.67,719a4.25,4.25,0,1,1-1.55-5.8A4.24,4.24,0,0,1,795.67,719Zm-1.55-9.78a4.25,4.25,0,1,1,1.55-5.81A4.25,4.25,0,0,1,794.12,709.24Z"/><path class="cls-3" d="M867.21,597.84a28.35,28.35,0,1,0,28.35,28.35A28.35,28.35,0,0,0,867.21,597.84Zm0,32.6a4.25,4.25,0,1,1,4.25-4.25A4.25,4.25,0,0,1,867.21,630.44Z"/><path class="cls-3" d="M782.17,597.84a28.35,28.35,0,1,0,28.35,28.35A28.35,28.35,0,0,0,782.17,597.84Zm-7.69,37.7a4.25,4.25,0,1,1,1.55-5.81A4.25,4.25,0,0,1,774.48,635.54ZM776,622.65a4.25,4.25,0,1,1-1.55-5.81A4.24,4.24,0,0,1,776,622.65Zm6.14,19.13a4.25,4.25,0,1,1,4.25-4.25A4.25,4.25,0,0,1,782.17,641.78Zm0-22.68a4.25,4.25,0,1,1,4.25-4.25A4.25,4.25,0,0,1,782.17,619.1ZM795.67,634a4.25,4.25,0,1,1-1.55-5.81A4.25,4.25,0,0,1,795.67,634Zm-1.55-9.79a4.25,4.25,0,1,1,1.55-5.81A4.25,4.25,0,0,1,794.12,624.2Z"/><path class="cls-3" d="M867.21,512.8a28.35,28.35,0,1,0,28.35,28.35A28.36,28.36,0,0,0,867.21,512.8Zm0,32.6a4.25,4.25,0,1,1,4.25-4.25A4.25,4.25,0,0,1,867.21,545.4Z"/><path class="cls-3" d="M782.17,512.8a28.35,28.35,0,1,0,28.35,28.35A28.36,28.36,0,0,0,782.17,512.8Zm-7.69,37.7a4.25,4.25,0,1,1,1.55-5.81A4.25,4.25,0,0,1,774.48,550.5ZM776,537.61a4.25,4.25,0,1,1-1.55-5.81A4.24,4.24,0,0,1,776,537.61Zm6.14,19.13a4.25,4.25,0,1,1,4.25-4.25A4.25,4.25,0,0,1,782.17,556.74Zm0-22.68a4.25,4.25,0,1,1,4.25-4.25A4.25,4.25,0,0,1,782.17,534.06ZM795.67,549a4.25,4.25,0,1,1-1.55-5.81A4.25,4.25,0,0,1,795.67,549Zm-1.55-9.79a4.25,4.25,0,1,1,1.55-5.8A4.25,4.25,0,0,1,794.12,539.16Z"/><path class="cls-3" d="M867.21,427.76a28.35,28.35,0,1,0,28.35,28.35A28.36,28.36,0,0,0,867.21,427.76Zm0,32.6a4.25,4.25,0,1,1,4.25-4.25A4.25,4.25,0,0,1,867.21,460.36Z"/><path class="cls-3" d="M782.17,427.76a28.35,28.35,0,1,0,28.35,28.35A28.36,28.36,0,0,0,782.17,427.76Zm-7.69,37.7a4.25,4.25,0,1,1,1.55-5.81A4.25,4.25,0,0,1,774.48,465.46ZM776,452.57a4.25,4.25,0,1,1-1.55-5.81A4.24,4.24,0,0,1,776,452.57Zm6.14,19.13a4.25,4.25,0,1,1,4.25-4.25A4.25,4.25,0,0,1,782.17,471.7Zm0-22.68a4.25,4.25,0,1,1,4.25-4.25A4.25,4.25,0,0,1,782.17,449Zm13.5,14.89a4.25,4.25,0,1,1-1.55-5.81A4.25,4.25,0,0,1,795.67,463.91Zm-1.55-9.79a4.25,4.25,0,1,1,1.55-5.8A4.25,4.25,0,0,1,794.12,454.12Z"/><path class="cls-3" d="M867.21,342.73a28.35,28.35,0,1,0,28.35,28.34A28.35,28.35,0,0,0,867.21,342.73Zm0,32.59a4.25,4.25,0,1,1,4.25-4.25A4.25,4.25,0,0,1,867.21,375.32Z"/><path class="cls-3" d="M1037.29,682.88a28.35,28.35,0,1,0,28.35,28.35A28.35,28.35,0,0,0,1037.29,682.88Zm7,15.32a4.25,4.25,0,1,1,0,6A4.26,4.26,0,0,1,1044.3,698.2Zm-25.44,13a4.26,4.26,0,1,1,4.26,4.25A4.25,4.25,0,0,1,1018.86,711.23Zm11.41,13a4.25,4.25,0,1,1,0-6A4.25,4.25,0,0,1,1030.27,724.26Zm0-20a4.25,4.25,0,1,1,0-6A4.25,4.25,0,0,1,1030.27,704.21Zm7,25.44a4.25,4.25,0,1,1,4.25-4.25A4.25,4.25,0,0,1,1037.29,729.65Zm0-28.34a4.26,4.26,0,1,1,4.25-4.25A4.25,4.25,0,0,1,1037.29,701.31Zm13,23a4.26,4.26,0,1,1,0-6A4.26,4.26,0,0,1,1050.32,724.26Zm1.14-8.78a4.25,4.25,0,1,1,4.25-4.25A4.25,4.25,0,0,1,1051.46,715.48Z"/><path class="cls-3" d="M952.25,767.92a28.35,28.35,0,1,0,28.35,28.35A28.35,28.35,0,0,0,952.25,767.92Zm0,32.6a4.25,4.25,0,1,1,4.25-4.25A4.25,4.25,0,0,1,952.25,800.52Z"/><path class="cls-3" d="M952.25,682.88a28.35,28.35,0,1,0,28.35,28.35A28.35,28.35,0,0,0,952.25,682.88Zm0,32.6a4.25,4.25,0,1,1,4.25-4.25A4.25,4.25,0,0,1,952.25,715.48Z"/><path class="cls-3" d="M952.25,597.84a28.35,28.35,0,1,0,28.35,28.35A28.35,28.35,0,0,0,952.25,597.84Zm0,32.6a4.25,4.25,0,1,1,4.25-4.25A4.25,4.25,0,0,1,952.25,630.44Z"/><path class="cls-3" d="M952.25,512.8a28.35,28.35,0,1,0,28.35,28.35A28.35,28.35,0,0,0,952.25,512.8Zm0,32.6a4.25,4.25,0,1,1,4.25-4.25A4.25,4.25,0,0,1,952.25,545.4Z"/><path class="cls-3" d="M1037.29,597.84a28.35,28.35,0,1,0,28.35,28.35A28.35,28.35,0,0,0,1037.29,597.84Zm7,15.32a4.25,4.25,0,1,1,0,6A4.26,4.26,0,0,1,1044.3,613.16Zm-25.44,13a4.26,4.26,0,1,1,4.26,4.25A4.25,4.25,0,0,1,1018.86,626.19Zm11.41,13a4.25,4.25,0,1,1,0-6A4.25,4.25,0,0,1,1030.27,639.22Zm0-20.05a4.25,4.25,0,1,1,0-6A4.23,4.23,0,0,1,1030.27,619.17Zm7,25.45a4.26,4.26,0,1,1,4.25-4.26A4.25,4.25,0,0,1,1037.29,644.62Zm0-28.35a4.26,4.26,0,1,1,4.25-4.25A4.25,4.25,0,0,1,1037.29,616.27Zm13,23a4.25,4.25,0,1,1,0-6A4.26,4.26,0,0,1,1050.32,639.22Zm1.14-8.78a4.25,4.25,0,1,1,4.25-4.25A4.25,4.25,0,0,1,1051.46,630.44Z"/><path class="cls-3" d="M1037.29,512.8a28.35,28.35,0,1,0,28.35,28.35A28.35,28.35,0,0,0,1037.29,512.8Zm7,15.32a4.26,4.26,0,1,1,0,6A4.26,4.26,0,0,1,1044.3,528.12Zm-25.44,13a4.26,4.26,0,1,1,4.26,4.25A4.25,4.25,0,0,1,1018.86,541.15Zm11.41,13a4.25,4.25,0,1,1,0-6A4.25,4.25,0,0,1,1030.27,554.18Zm0-20a4.25,4.25,0,1,1,0-6A4.25,4.25,0,0,1,1030.27,534.14Zm7,25.44a4.26,4.26,0,1,1,4.25-4.26A4.25,4.25,0,0,1,1037.29,559.58Zm0-28.35a4.25,4.25,0,1,1,4.25-4.25A4.25,4.25,0,0,1,1037.29,531.23Zm13,22.95a4.25,4.25,0,1,1,0-6A4.26,4.26,0,0,1,1050.32,554.18Zm1.14-8.78a4.25,4.25,0,1,1,4.25-4.25A4.25,4.25,0,0,1,1051.46,545.4Z"/></g></g></svg>