<svg xmlns="http://www.w3.org/2000/svg" viewBox="0 0 4978.13 6582.84"><defs><style>.cls-1,.cls-3{fill:#fff;}.cls-1,.cls-2,.cls-4{stroke:#fff;stroke-miterlimit:10;}.cls-1,.cls-2{stroke-width:28.35px;}.cls-2,.cls-4{fill:none;}.cls-4{stroke-width:14.17px;}</style></defs><title>Asset 1</title><g id="Layer_2" data-name="Layer 2"><g id="Design"><circle class="cls-1" cx="2519.97" cy="1115.57" r="90.3"/><circle class="cls-2" cx="2519.97" cy="3660.02" r="1074.54"/><circle class="cls-1" cx="984.68" cy="3660.02" r="55.74"/><circle class="cls-1" cx="1363.69" cy="2503.73" r="86"/><circle class="cls-1" cx="3769.92" cy="2410.07" r="61.43"/><circle class="cls-1" cx="4574.1" cy="3660.02" r="191.43"/><circle class="cls-1" cx="4091.28" cy="5231.33" r="175.18"/><circle class="cls-1" cx="2519.97" cy="6243.82" r="126.42"/><circle class="cls-1" cx="366.57" cy="5813.42" r="125.33"/><path class="cls-3" d="M801.38,3489.94a28.35,28.35,0,1,0,28.35-28.34A28.35,28.35,0,0,0,801.38,3489.94Zm32.6,0a4.25,4.25,0,1,1-4.25-4.25A4.25,4.25,0,0,1,834,3489.94Z"/><path class="cls-3" d="M801.38,3575a28.35,28.35,0,1,0,28.35-28.34A28.35,28.35,0,0,0,801.38,3575Zm38.27,0a4.26,4.26,0,1,1-4.25-4.25A4.25,4.25,0,0,1,839.65,3575Zm-11.34,0a4.25,4.25,0,1,1-4.25-4.25A4.25,4.25,0,0,1,828.31,3575Z"/><path class="cls-3" d="M716.34,3575a28.35,28.35,0,1,0,28.35-28.34A28.35,28.35,0,0,0,716.34,3575Zm9.33-6.11a4.25,4.25,0,1,1,5.81-1.56A4.25,4.25,0,0,1,725.67,3568.87Zm21,18.06a4.25,4.25,0,1,1,5.81,1.55A4.26,4.26,0,0,1,746.67,3586.93Zm-9.78,1.55a4.25,4.25,0,1,1,5.81-1.55A4.24,4.24,0,0,1,736.89,3588.48ZM763.7,3581a4.25,4.25,0,1,1-5.8,1.55A4.24,4.24,0,0,1,763.7,3581Zm-32.22,1.55a4.25,4.25,0,1,1-5.81-1.55A4.25,4.25,0,0,1,731.48,3582.56Zm28.8-7.58a4.26,4.26,0,1,1-4.25-4.25A4.25,4.25,0,0,1,760.28,3575Zm-11.34,0a4.25,4.25,0,1,1-4.25-4.25A4.25,4.25,0,0,1,748.94,3575Zm-11.34,0a4.25,4.25,0,1,1-4.25-4.25A4.25,4.25,0,0,1,737.6,3575Zm27.66-11.92a4.25,4.25,0,1,1-5.81-1.56A4.26,4.26,0,0,1,765.26,3563.06Zm-12.78-1.58a4.25,4.25,0,1,1-5.81,1.56A4.26,4.26,0,0,1,752.48,3561.48ZM742.7,3563a4.25,4.25,0,1,1-5.81-1.56A4.25,4.25,0,0,1,742.7,3563Z"/><path class="cls-3" d="M716.34,3745.06a28.35,28.35,0,1,0,28.35-28.34A28.35,28.35,0,0,0,716.34,3745.06Zm15.32-7a4.25,4.25,0,1,1,6,0A4.26,4.26,0,0,1,731.66,3738.05Zm13,25.44a4.26,4.26,0,1,1,4.25-4.26A4.25,4.25,0,0,1,744.69,3763.49Zm13-11.41a4.25,4.25,0,1,1-6,0A4.25,4.25,0,0,1,757.72,3752.08Zm-20.05,0a4.25,4.25,0,1,1-6,0A4.25,4.25,0,0,1,737.67,3752.08Zm25.44-7a4.25,4.25,0,1,1-4.25-4.25A4.25,4.25,0,0,1,763.11,3745.06Zm-28.34,0a4.26,4.26,0,1,1-4.26-4.25A4.25,4.25,0,0,1,734.77,3745.06Zm23-13a4.26,4.26,0,1,1-6,0A4.26,4.26,0,0,1,757.72,3732Zm-8.78-1.14a4.25,4.25,0,1,1-4.25-4.25A4.25,4.25,0,0,1,748.94,3730.89Z"/><path class="cls-3" d="M801.38,3745.06a28.35,28.35,0,1,0,28.35-28.34A28.35,28.35,0,0,0,801.38,3745.06Zm15.32-7a4.25,4.25,0,1,1,6,0A4.26,4.26,0,0,1,816.7,3738.05Zm13,25.44a4.26,4.26,0,1,1,4.25-4.26A4.25,4.25,0,0,1,829.73,3763.49Zm13-11.41a4.25,4.25,0,1,1-6,0A4.25,4.25,0,0,1,842.76,3752.08Zm-20,0a4.25,4.25,0,1,1-6,0A4.25,4.25,0,0,1,822.71,3752.08Zm25.44-7a4.25,4.25,0,1,1-4.25-4.25A4.25,4.25,0,0,1,848.15,3745.06Zm-28.34,0a4.26,4.26,0,1,1-4.26-4.25A4.25,4.25,0,0,1,819.81,3745.06Zm23-13a4.26,4.26,0,1,1-6,0A4.26,4.26,0,0,1,842.76,3732Zm-8.78-1.14a4.25,4.25,0,1,1-4.25-4.25A4.25,4.25,0,0,1,834,3730.89Z"/><path class="cls-3" d="M716.34,3830.1a28.35,28.35,0,1,0,28.35-28.35A28.35,28.35,0,0,0,716.34,3830.1Zm15.32-7a4.25,4.25,0,1,1,6,0A4.26,4.26,0,0,1,731.66,3823.09Zm13,25.44a4.26,4.26,0,1,1,4.25-4.26A4.25,4.25,0,0,1,744.69,3848.53Zm13-11.41a4.25,4.25,0,1,1-6,0A4.25,4.25,0,0,1,757.72,3837.12Zm-20.05,0a4.25,4.25,0,1,1-6,0A4.25,4.25,0,0,1,737.67,3837.12Zm25.44-7a4.25,4.25,0,1,1-4.25-4.25A4.25,4.25,0,0,1,763.11,3830.1Zm-28.34,0a4.26,4.26,0,1,1-4.26-4.25A4.25,4.25,0,0,1,734.77,3830.1Zm23-13a4.26,4.26,0,1,1-6,0A4.26,4.26,0,0,1,757.72,3817.07Zm-8.78-1.14a4.25,4.25,0,1,1-4.25-4.25A4.25,4.25,0,0,1,748.94,3815.93Z"/><path class="cls-3" d="M801.38,3830.1a28.35,28.35,0,1,0,28.35-28.35A28.35,28.35,0,0,0,801.38,3830.1Zm15.32-7a4.25,4.25,0,1,1,6,0A4.26,4.26,0,0,1,816.7,3823.09Zm13,25.44a4.26,4.26,0,1,1,4.25-4.26A4.25,4.25,0,0,1,829.73,3848.53Zm13-11.41a4.25,4.25,0,1,1-6,0A4.25,4.25,0,0,1,842.76,3837.12Zm-20,0a4.25,4.25,0,1,1-6,0A4.25,4.25,0,0,1,822.71,3837.12Zm25.44-7a4.25,4.25,0,1,1-4.25-4.25A4.25,4.25,0,0,1,848.15,3830.1Zm-28.34,0a4.26,4.26,0,1,1-4.26-4.25A4.25,4.25,0,0,1,819.81,3830.1Zm23-13a4.26,4.26,0,1,1-6,0A4.26,4.26,0,0,1,842.76,3817.07Zm-8.78-1.14a4.25,4.25,0,1,1-4.25-4.25A4.25,4.25,0,0,1,834,3815.93Z"/><path class="cls-3" d="M801.38,3660a28.35,28.35,0,1,0,28.35-28.34A28.35,28.35,0,0,0,801.38,3660Zm9.33-6.11a4.25,4.25,0,1,1,5.81-1.56A4.25,4.25,0,0,1,810.71,3653.91Zm21,18.06a4.25,4.25,0,1,1,5.81,1.55A4.26,4.26,0,0,1,831.71,3672Zm-9.78,1.55a4.25,4.25,0,1,1,5.81-1.55A4.24,4.24,0,0,1,821.93,3673.52Zm26.81-7.47a4.25,4.25,0,1,1-5.81,1.55A4.24,4.24,0,0,1,848.74,3666.05Zm-32.22,1.55a4.25,4.25,0,1,1-5.81-1.55A4.25,4.25,0,0,1,816.52,3667.6Zm28.8-7.58a4.26,4.26,0,1,1-4.25-4.25A4.25,4.25,0,0,1,845.32,3660ZM834,3660a4.25,4.25,0,1,1-4.25-4.25A4.25,4.25,0,0,1,834,3660Zm-11.34,0a4.25,4.25,0,1,1-4.25-4.25A4.25,4.25,0,0,1,822.64,3660Zm27.66-11.92a4.25,4.25,0,1,1-5.81-1.56A4.26,4.26,0,0,1,850.3,3648.1Zm-12.78-1.58a4.25,4.25,0,1,1-5.81,1.56A4.25,4.25,0,0,1,837.52,3646.52Zm-9.78,1.56a4.25,4.25,0,1,1-5.81-1.56A4.26,4.26,0,0,1,827.74,3648.08Z"/><path class="cls-3" d="M716.34,3489.94a28.35,28.35,0,1,0,28.35-28.34A28.35,28.35,0,0,0,716.34,3489.94Zm32.6,0a4.25,4.25,0,1,1-4.25-4.25A4.25,4.25,0,0,1,748.94,3489.94Z"/><path class="cls-3" d="M716.34,3660a28.35,28.35,0,1,0,28.35-28.34A28.35,28.35,0,0,0,716.34,3660Zm9.33-6.11a4.25,4.25,0,1,1,5.81-1.56A4.25,4.25,0,0,1,725.67,3653.91Zm21,18.06a4.25,4.25,0,1,1,5.81,1.55A4.26,4.26,0,0,1,746.67,3672Zm-9.78,1.55a4.25,4.25,0,1,1,5.81-1.55A4.24,4.24,0,0,1,736.89,3673.52Zm26.81-7.47a4.25,4.25,0,1,1-5.8,1.55A4.24,4.24,0,0,1,763.7,3666.05Zm-32.22,1.55a4.25,4.25,0,1,1-5.81-1.55A4.25,4.25,0,0,1,731.48,3667.6Zm28.8-7.58a4.26,4.26,0,1,1-4.25-4.25A4.25,4.25,0,0,1,760.28,3660Zm-11.34,0a4.25,4.25,0,1,1-4.25-4.25A4.25,4.25,0,0,1,748.94,3660Zm-11.34,0a4.25,4.25,0,1,1-4.25-4.25A4.25,4.25,0,0,1,737.6,3660Zm27.66-11.92a4.25,4.25,0,1,1-5.81-1.56A4.26,4.26,0,0,1,765.26,3648.1Zm-12.78-1.58a4.25,4.25,0,1,1-5.81,1.56A4.25,4.25,0,0,1,752.48,3646.52Zm-9.78,1.56a4.25,4.25,0,1,1-5.81-1.56A4.25,4.25,0,0,1,742.7,3648.08Z"/><path class="cls-4" d="M2363.14,2004.83C1933.36,1929,1617,1552,1617,1115.57c0-495.35,407.62-903,903-903s903,407.62,903,903c0,436.42-316.38,813.48-746.17,889.26"/><path class="cls-3" d="M2605,85a28.35,28.35,0,1,0,28.35,28.35A28.34,28.34,0,0,0,2605,85Zm-7.69,37.7a4.25,4.25,0,1,1,1.56-5.81A4.26,4.26,0,0,1,2597.32,122.74Zm1.56-12.9a4.25,4.25,0,1,1-1.56-5.81A4.26,4.26,0,0,1,2598.88,109.84ZM2605,129a4.26,4.26,0,1,1,4.25-4.26A4.25,4.25,0,0,1,2605,129Zm0-11.34a4.26,4.26,0,1,1,4.25-4.25A4.25,4.25,0,0,1,2605,117.64Zm0-11.34a4.25,4.25,0,1,1,4.25-4.25A4.25,4.25,0,0,1,2605,106.3Zm13.5,14.88a4.25,4.25,0,1,1-1.55-5.81A4.25,4.25,0,0,1,2618.51,121.18ZM2617,111.4a4.25,4.25,0,1,1,1.55-5.81A4.25,4.25,0,0,1,2617,111.4Z"/><path class="cls-3" d="M2690.05,85a28.35,28.35,0,1,0,28.35,28.35A28.34,28.34,0,0,0,2690.05,85Zm7,15.32a4.25,4.25,0,1,1,0,6A4.25,4.25,0,0,1,2697.07,100.36Zm-25.44,13a4.25,4.25,0,1,1,4.25,4.25A4.25,4.25,0,0,1,2671.63,113.39Zm11.41,13a4.25,4.25,0,1,1,0-6A4.26,4.26,0,0,1,2683,126.41Zm0-20a4.25,4.25,0,1,1,0-6A4.26,4.26,0,0,1,2683,106.37Zm7,25.44a4.25,4.25,0,1,1,4.25-4.25A4.25,4.25,0,0,1,2690.05,131.81Zm0-28.35a4.25,4.25,0,1,1,4.25-4.25A4.25,4.25,0,0,1,2690.05,103.46Zm13,23a4.25,4.25,0,1,1,0-6A4.25,4.25,0,0,1,2703.08,126.41Zm1.15-8.77a4.26,4.26,0,1,1,4.25-4.25A4.26,4.26,0,0,1,2704.23,117.64Z"/><path class="cls-3" d="M2520,85a28.35,28.35,0,1,0,28.35,28.35A28.34,28.34,0,0,0,2520,85Zm-7.69,37.7a4.25,4.25,0,1,1,1.56-5.81A4.26,4.26,0,0,1,2512.28,122.74Zm1.56-12.9a4.25,4.25,0,1,1-1.56-5.81A4.26,4.26,0,0,1,2513.84,109.84ZM2520,129a4.26,4.26,0,1,1,4.26-4.26A4.25,4.25,0,0,1,2520,129Zm0-11.34a4.26,4.26,0,1,1,4.26-4.25A4.25,4.25,0,0,1,2520,117.64Zm0-11.34a4.25,4.25,0,1,1,4.26-4.25A4.25,4.25,0,0,1,2520,106.3Zm13.51,14.88a4.25,4.25,0,1,1-1.56-5.81A4.26,4.26,0,0,1,2533.48,121.18Zm-1.56-9.78a4.25,4.25,0,1,1,1.56-5.81A4.25,4.25,0,0,1,2531.92,111.4Z"/><path class="cls-3" d="M2434.93,85a28.35,28.35,0,1,0,28.35,28.35A28.34,28.34,0,0,0,2434.93,85Zm-7.69,37.7a4.25,4.25,0,1,1,1.56-5.81A4.26,4.26,0,0,1,2427.24,122.74Zm1.56-12.9a4.25,4.25,0,1,1-1.56-5.81A4.26,4.26,0,0,1,2428.8,109.84Zm6.13,19.14a4.26,4.26,0,1,1,4.26-4.26A4.26,4.26,0,0,1,2434.93,129Zm0-11.34a4.26,4.26,0,1,1,4.26-4.25A4.26,4.26,0,0,1,2434.93,117.64Zm0-11.34a4.25,4.25,0,1,1,4.26-4.25A4.25,4.25,0,0,1,2434.93,106.3Zm13.51,14.88a4.25,4.25,0,1,1-1.56-5.81A4.26,4.26,0,0,1,2448.44,121.18Zm-1.56-9.78a4.25,4.25,0,1,1,1.56-5.81A4.26,4.26,0,0,1,2446.88,111.4Z"/><path class="cls-3" d="M2349.89,85a28.35,28.35,0,1,0,28.35,28.35A28.34,28.34,0,0,0,2349.89,85Zm-7.69,37.7a4.25,4.25,0,1,1,1.56-5.81A4.26,4.26,0,0,1,2342.2,122.74Zm1.56-12.9a4.25,4.25,0,1,1-1.56-5.81A4.26,4.26,0,0,1,2343.76,109.84Zm6.13,19.14a4.26,4.26,0,1,1,4.26-4.26A4.26,4.26,0,0,1,2349.89,129Zm0-11.34a4.26,4.26,0,1,1,4.26-4.25A4.26,4.26,0,0,1,2349.89,117.64Zm0-11.34a4.25,4.25,0,1,1,4.26-4.25A4.25,4.25,0,0,1,2349.89,106.3Zm13.51,14.88a4.25,4.25,0,1,1-1.56-5.81A4.26,4.26,0,0,1,2363.4,121.18Zm-1.56-9.78a4.25,4.25,0,1,1,1.56-5.81A4.26,4.26,0,0,1,2361.84,111.4Z"/><path class="cls-3" d="M2605,0a28.35,28.35,0,1,0,28.35,28.35A28.34,28.34,0,0,0,2605,0Zm-7.69,37.7a4.25,4.25,0,1,1,1.56-5.81A4.25,4.25,0,0,1,2597.32,37.7Zm1.56-12.9a4.25,4.25,0,1,1-1.56-5.81A4.26,4.26,0,0,1,2598.88,24.8ZM2605,43.94a4.26,4.26,0,1,1,4.25-4.25A4.25,4.25,0,0,1,2605,43.94Zm0-11.34a4.26,4.26,0,1,1,4.25-4.25A4.25,4.25,0,0,1,2605,32.6Zm0-11.34a4.25,4.25,0,1,1,4.25-4.25A4.25,4.25,0,0,1,2605,21.26Zm13.5,14.88a4.25,4.25,0,1,1-1.55-5.81A4.24,4.24,0,0,1,2618.51,36.14ZM2617,26.36a4.25,4.25,0,1,1,1.55-5.81A4.25,4.25,0,0,1,2617,26.36Z"/><path class="cls-3" d="M2520,0a28.35,28.35,0,1,0,28.35,28.35A28.34,28.34,0,0,0,2520,0Zm-7.69,37.7a4.25,4.25,0,1,1,1.56-5.81A4.26,4.26,0,0,1,2512.28,37.7Zm1.56-12.9a4.25,4.25,0,1,1-1.56-5.81A4.26,4.26,0,0,1,2513.84,24.8ZM2520,43.94a4.26,4.26,0,1,1,4.26-4.25A4.25,4.25,0,0,1,2520,43.94Zm0-11.34a4.26,4.26,0,1,1,4.26-4.25A4.25,4.25,0,0,1,2520,32.6Zm0-11.34a4.25,4.25,0,1,1,4.26-4.25A4.25,4.25,0,0,1,2520,21.26Zm13.51,14.88a4.25,4.25,0,1,1-1.56-5.81A4.26,4.26,0,0,1,2533.48,36.14Zm-1.56-9.78a4.25,4.25,0,1,1,1.56-5.81A4.25,4.25,0,0,1,2531.92,26.36Z"/><path class="cls-3" d="M2434.93,0a28.35,28.35,0,1,0,28.35,28.35A28.34,28.34,0,0,0,2434.93,0Zm-7.69,37.7a4.25,4.25,0,1,1,1.56-5.81A4.26,4.26,0,0,1,2427.24,37.7Zm1.56-12.9a4.25,4.25,0,1,1-1.56-5.81A4.26,4.26,0,0,1,2428.8,24.8Zm6.13,19.14a4.26,4.26,0,1,1,4.26-4.25A4.26,4.26,0,0,1,2434.93,43.94Zm0-11.34a4.26,4.26,0,1,1,4.26-4.25A4.26,4.26,0,0,1,2434.93,32.6Zm0-11.34a4.25,4.25,0,1,1,4.26-4.25A4.25,4.25,0,0,1,2434.93,21.26Zm13.51,14.88a4.25,4.25,0,1,1-1.56-5.81A4.26,4.26,0,0,1,2448.44,36.14Zm-1.56-9.78a4.25,4.25,0,1,1,1.56-5.81A4.26,4.26,0,0,1,2446.88,26.36Z"/><path class="cls-3" d="M2349.89,0a28.35,28.35,0,1,0,28.35,28.35A28.34,28.34,0,0,0,2349.89,0Zm-7.69,37.7a4.25,4.25,0,1,1,1.56-5.81A4.26,4.26,0,0,1,2342.2,37.7Zm1.56-12.9A4.25,4.25,0,1,1,2342.2,19,4.26,4.26,0,0,1,2343.76,24.8Zm6.13,19.14a4.26,4.26,0,1,1,4.26-4.25A4.26,4.26,0,0,1,2349.89,43.94Zm0-11.34a4.26,4.26,0,1,1,4.26-4.25A4.26,4.26,0,0,1,2349.89,32.6Zm0-11.34a4.25,4.25,0,1,1,4.26-4.25A4.25,4.25,0,0,1,2349.89,21.26Zm13.51,14.88a4.25,4.25,0,1,1-1.56-5.81A4.26,4.26,0,0,1,2363.4,36.14Zm-1.56-9.78a4.25,4.25,0,1,1,1.56-5.81A4.26,4.26,0,0,1,2361.84,26.36Z"/><path class="cls-3" d="M2690.05,0a28.35,28.35,0,1,0,28.35,28.35A28.34,28.34,0,0,0,2690.05,0Zm7,15.32a4.25,4.25,0,1,1,0,6A4.25,4.25,0,0,1,2697.07,15.32Zm-25.44,13a4.25,4.25,0,1,1,4.25,4.25A4.25,4.25,0,0,1,2671.63,28.35Zm11.41,13a4.26,4.26,0,1,1,0-6A4.26,4.26,0,0,1,2683,41.38Zm0-20.05a4.25,4.25,0,1,1,0-6A4.26,4.26,0,0,1,2683,21.33Zm7,25.44a4.25,4.25,0,1,1,4.25-4.25A4.25,4.25,0,0,1,2690.05,46.77Zm0-28.34a4.26,4.26,0,1,1,4.25-4.26A4.25,4.25,0,0,1,2690.05,18.43Zm13,23a4.25,4.25,0,1,1,0-6A4.25,4.25,0,0,1,2703.08,41.38Zm1.15-8.78a4.26,4.26,0,1,1,4.25-4.25A4.26,4.26,0,0,1,2704.23,32.6Z"/><path class="cls-3" d="M3323.74,1087.23a28.35,28.35,0,1,0,28.34,28.34A28.34,28.34,0,0,0,3323.74,1087.23Zm7,15.32a4.25,4.25,0,1,1,0,6A4.26,4.26,0,0,1,3330.75,1102.55Zm-25.44,13a4.26,4.26,0,1,1,4.25,4.26A4.26,4.26,0,0,1,3305.31,1115.57Zm11.41,13a4.25,4.25,0,1,1,0-6A4.25,4.25,0,0,1,3316.72,1128.6Zm0-20a4.25,4.25,0,1,1,0-6A4.25,4.25,0,0,1,3316.72,1108.56Zm7,25.44a4.25,4.25,0,1,1,4.25-4.25A4.25,4.25,0,0,1,3323.74,1134Zm0-28.35a4.25,4.25,0,1,1,4.25-4.25A4.25,4.25,0,0,1,3323.74,1105.65Zm13,22.95a4.25,4.25,0,1,1,0-6A4.26,4.26,0,0,1,3336.77,1128.6Zm1.14-8.77a4.26,4.26,0,1,1,4.25-4.26A4.25,4.25,0,0,1,3337.91,1119.83Z"/><path class="cls-3" d="M3238.7,1087.23a28.35,28.35,0,1,0,28.34,28.34A28.34,28.34,0,0,0,3238.7,1087.23Zm7,15.32a4.25,4.25,0,1,1,0,6A4.26,4.26,0,0,1,3245.71,1102.55Zm-25.44,13a4.26,4.26,0,1,1,4.25,4.26A4.26,4.26,0,0,1,3220.27,1115.57Zm11.41,13a4.25,4.25,0,1,1,0-6A4.25,4.25,0,0,1,3231.68,1128.6Zm0-20a4.25,4.25,0,1,1,0-6A4.25,4.25,0,0,1,3231.68,1108.56Zm7,25.44a4.25,4.25,0,1,1,4.25-4.25A4.25,4.25,0,0,1,3238.7,1134Zm0-28.35a4.25,4.25,0,1,1,4.25-4.25A4.25,4.25,0,0,1,3238.7,1105.65Zm13,22.95a4.25,4.25,0,1,1,0-6A4.26,4.26,0,0,1,3251.73,1128.6Zm1.14-8.77a4.26,4.26,0,1,1,4.25-4.26A4.25,4.25,0,0,1,3252.87,1119.83Z"/><path class="cls-3" d="M1687.86,1073.06a28.35,28.35,0,1,0,28.35-28.35A28.34,28.34,0,0,0,1687.86,1073.06Zm32.6,0a4.25,4.25,0,1,1-4.25-4.26A4.25,4.25,0,0,1,1720.46,1073.06Z"/><path class="cls-3" d="M1772.9,1158.09a28.35,28.35,0,1,0,28.35-28.34A28.35,28.35,0,0,0,1772.9,1158.09Zm15.32-7a4.25,4.25,0,1,1,6,0A4.25,4.25,0,0,1,1788.22,1151.08Zm13,25.44a4.25,4.25,0,1,1,4.25-4.25A4.25,4.25,0,0,1,1801.25,1176.52Zm13-11.41a4.25,4.25,0,1,1-6,0A4.25,4.25,0,0,1,1814.28,1165.11Zm-20,0a4.25,4.25,0,1,1-6,0A4.25,4.25,0,0,1,1794.23,1165.11Zm25.44-7a4.25,4.25,0,1,1-4.25-4.25A4.25,4.25,0,0,1,1819.67,1158.09Zm-28.34,0a4.26,4.26,0,1,1-4.25-4.25A4.26,4.26,0,0,1,1791.33,1158.09Zm23-13a4.25,4.25,0,1,1-6,0A4.25,4.25,0,0,1,1814.28,1145.07Zm-8.78-1.15a4.25,4.25,0,1,1-4.25-4.25A4.25,4.25,0,0,1,1805.5,1143.92Z"/><path class="cls-3" d="M1687.86,1158.09a28.35,28.35,0,1,0,28.35-28.34A28.35,28.35,0,0,0,1687.86,1158.09Zm32.6,0a4.25,4.25,0,1,1-4.25-4.25A4.25,4.25,0,0,1,1720.46,1158.09Z"/><path class="cls-3" d="M2477.12,1463.36a28.35,28.35,0,1,0-28.35-28.35A28.35,28.35,0,0,0,2477.12,1463.36Zm-7-15.32a4.25,4.25,0,1,1,0-6A4.26,4.26,0,0,1,2470.11,1448Zm25.44-13a4.26,4.26,0,1,1-4.26-4.25A4.26,4.26,0,0,1,2495.55,1435Zm-11.41-13a4.25,4.25,0,1,1,0,6A4.25,4.25,0,0,1,2484.14,1422Zm0,20a4.25,4.25,0,1,1,0,6A4.25,4.25,0,0,1,2484.14,1442Zm-7-25.44a4.25,4.25,0,1,1-4.25,4.25A4.25,4.25,0,0,1,2477.12,1416.59Zm0,28.34a4.26,4.26,0,1,1-4.25,4.26A4.25,4.25,0,0,1,2477.12,1444.93Zm-13-23a4.26,4.26,0,1,1,0,6A4.26,4.26,0,0,1,2464.09,1422Zm-1.14,8.78a4.26,4.26,0,1,1-4.25,4.25A4.25,4.25,0,0,1,2463,1430.76Z"/><path class="cls-3" d="M2562.16,1463.36a28.35,28.35,0,1,0-28.35-28.35A28.35,28.35,0,0,0,2562.16,1463.36Zm-19-19a4.25,4.25,0,1,1,1.55-5.81A4.26,4.26,0,0,1,2543.13,1444.37Zm12.92,9.66a4.25,4.25,0,1,1-1.56-5.81A4.26,4.26,0,0,1,2556.05,1454Zm25.14-28.37a4.25,4.25,0,1,1-1.55,5.81A4.25,4.25,0,0,1,2581.19,1425.66Zm-1.55,12.9a4.25,4.25,0,1,1,1.55,5.81A4.24,4.24,0,0,1,2579.64,1438.56Zm-5.53-5.53a4.26,4.26,0,1,1,1.55-5.81A4.26,4.26,0,0,1,2574.11,1433Zm1.55,9.78a4.25,4.25,0,1,1-1.55-5.81A4.26,4.26,0,0,1,2575.66,1442.81Zm-7.48-26.81a4.25,4.25,0,1,1,1.56,5.81A4.26,4.26,0,0,1,2568.18,1416Zm1.56,32.22a4.25,4.25,0,1,1-1.56,5.81A4.26,4.26,0,0,1,2569.74,1448.22Zm-7.58-28.8a4.26,4.26,0,1,1-4.25,4.25A4.25,4.25,0,0,1,2562.16,1419.42Zm0,11.34a4.26,4.26,0,1,1-4.25,4.25A4.25,4.25,0,0,1,2562.16,1430.76Zm0,11.34a4.25,4.25,0,1,1-4.25,4.25A4.25,4.25,0,0,1,2562.16,1442.1Zm-11.92-27.66a4.25,4.25,0,1,1-1.56,5.81A4.26,4.26,0,0,1,2550.24,1414.44Zm-1.58,12.78a4.25,4.25,0,1,1,1.55,5.81A4.25,4.25,0,0,1,2548.66,1427.22Zm1.55,9.78a4.26,4.26,0,1,1-1.55,5.81A4.25,4.25,0,0,1,2550.21,1437Zm-12.89-9.78a4.25,4.25,0,1,1,1.56,5.81A4.25,4.25,0,0,1,2537.32,1427.22Z"/><path class="cls-3" d="M2477.12,1548.4a28.35,28.35,0,1,0-28.35-28.35A28.35,28.35,0,0,0,2477.12,1548.4Zm-7-15.32a4.25,4.25,0,1,1,0-6A4.26,4.26,0,0,1,2470.11,1533.08Zm25.44-13a4.26,4.26,0,1,1-4.26-4.25A4.25,4.25,0,0,1,2495.55,1520.05Zm-11.41-13a4.25,4.25,0,1,1,0,6A4.25,4.25,0,0,1,2484.14,1507Zm0,20a4.25,4.25,0,1,1,0,6A4.25,4.25,0,0,1,2484.14,1527.07Zm-7-25.44a4.25,4.25,0,1,1-4.25,4.25A4.25,4.25,0,0,1,2477.12,1501.63Zm0,28.34a4.26,4.26,0,1,1-4.25,4.26A4.25,4.25,0,0,1,2477.12,1530Zm-13-23a4.26,4.26,0,1,1,0,6A4.26,4.26,0,0,1,2464.09,1507Zm-1.14,8.78a4.25,4.25,0,1,1-4.25,4.25A4.25,4.25,0,0,1,2463,1515.8Z"/><path class="cls-3" d="M2477.12,1633.44a28.35,28.35,0,1,0-28.35-28.35A28.35,28.35,0,0,0,2477.12,1633.44Zm-7-15.32a4.25,4.25,0,1,1,0-6A4.26,4.26,0,0,1,2470.11,1618.12Zm25.44-13a4.26,4.26,0,1,1-4.26-4.25A4.25,4.25,0,0,1,2495.55,1605.09Zm-11.41-13a4.25,4.25,0,1,1,0,6A4.25,4.25,0,0,1,2484.14,1592.06Zm0,20a4.25,4.25,0,1,1,0,6A4.25,4.25,0,0,1,2484.14,1612.11Zm-7-25.44a4.25,4.25,0,1,1-4.25,4.25A4.25,4.25,0,0,1,2477.12,1586.67Zm0,28.34a4.26,4.26,0,1,1-4.25,4.26A4.25,4.25,0,0,1,2477.12,1615Zm-13-23a4.26,4.26,0,1,1,0,6A4.26,4.26,0,0,1,2464.09,1592.06Zm-1.14,8.78a4.25,4.25,0,1,1-4.25,4.25A4.25,4.25,0,0,1,2463,1600.84Z"/><path class="cls-3" d="M2477.12,1718.48a28.35,28.35,0,1,0-28.35-28.35A28.35,28.35,0,0,0,2477.12,1718.48Zm-7-15.32a4.25,4.25,0,1,1,0-6A4.26,4.26,0,0,1,2470.11,1703.16Zm25.44-13a4.26,4.26,0,1,1-4.26-4.25A4.25,4.25,0,0,1,2495.55,1690.13Zm-11.41-13a4.25,4.25,0,1,1,0,6A4.25,4.25,0,0,1,2484.14,1677.1Zm0,20.05a4.25,4.25,0,1,1,0,6A4.25,4.25,0,0,1,2484.14,1697.15Zm-7-25.44a4.25,4.25,0,1,1-4.25,4.25A4.25,4.25,0,0,1,2477.12,1671.71Zm0,28.34a4.26,4.26,0,1,1-4.25,4.25A4.25,4.25,0,0,1,2477.12,1700.05Zm-13-23a4.26,4.26,0,1,1,0,6A4.26,4.26,0,0,1,2464.09,1677.1Zm-1.14,8.78a4.25,4.25,0,1,1-4.25,4.25A4.25,4.25,0,0,1,2463,1685.88Z"/><path class="cls-3" d="M2239.77,1326.32a28.34,28.34,0,1,0,10.37-38.72A28.34,28.34,0,0,0,2239.77,1326.32ZM2268,1310a4.26,4.26,0,1,1-5.81-1.55A4.25,4.25,0,0,1,2268,1310Z"/><path class="cls-3" d="M2282.29,1400a28.34,28.34,0,1,0,10.37-38.72A28.35,28.35,0,0,0,2282.29,1400Zm36.49-12.19a4.25,4.25,0,1,1-5.81,1.56A4.26,4.26,0,0,1,2318.78,1387.78Zm-11.94,5.1a4.26,4.26,0,1,1-4.26,4.26A4.26,4.26,0,0,1,2306.84,1392.88Zm13.5-14.88a4.25,4.25,0,1,1-5.81-1.55A4.26,4.26,0,0,1,2320.34,1378Zm-19.64,11.34a4.25,4.25,0,1,1-5.81-1.56A4.26,4.26,0,0,1,2300.7,1389.34Zm6.14-19.13a4.25,4.25,0,1,1-4.26,4.25A4.25,4.25,0,0,1,2306.84,1370.21Zm-7.7,6.24a4.25,4.25,0,1,1-5.81,1.55A4.24,4.24,0,0,1,2299.14,1376.45Z"/><path class="cls-3" d="M2197.25,1252.68a28.35,28.35,0,1,0,10.37-38.72A28.34,28.34,0,0,0,2197.25,1252.68Zm36.49-12.19a4.25,4.25,0,1,1-5.81,1.56A4.26,4.26,0,0,1,2233.74,1240.49Zm-11.94,5.1a4.25,4.25,0,1,1-4.26,4.25A4.25,4.25,0,0,1,2221.8,1245.59Zm13.5-14.88a4.25,4.25,0,1,1-5.81-1.56A4.26,4.26,0,0,1,2235.3,1230.71Zm-9.82,5.67a4.25,4.25,0,1,1-5.81-1.56A4.26,4.26,0,0,1,2225.48,1236.38Zm-9.82,5.67a4.25,4.25,0,1,1-5.81-1.56A4.26,4.26,0,0,1,2215.66,1242.05Zm6.14-19.14a4.26,4.26,0,1,1-4.26,4.26A4.26,4.26,0,0,1,2221.8,1222.91Zm-7.7,6.24a4.25,4.25,0,1,1-5.81,1.56A4.26,4.26,0,0,1,2214.1,1229.15Z"/><path class="cls-3" d="M2154.73,1179a28.35,28.35,0,1,0,10.37-38.72A28.35,28.35,0,0,0,2154.73,1179Zm9.76-13.73a4.25,4.25,0,1,1,5.2-3A4.25,4.25,0,0,1,2164.49,1165.3Zm24,15.51a4.25,4.25,0,1,1,1.56-5.8A4.25,4.25,0,0,1,2188.49,1180.81Zm5.58-16.39a4.25,4.25,0,1,1-5.21,3A4.25,4.25,0,0,1,2194.07,1164.42Zm-17.36,10a4.25,4.25,0,1,1-5.21,3A4.26,4.26,0,0,1,2176.71,1174.44Zm18.52-18.79a4.25,4.25,0,1,1-5.81-1.56A4.24,4.24,0,0,1,2195.23,1155.65Zm-24.55,14.17a4.25,4.25,0,1,1-5.8-1.56A4.25,4.25,0,0,1,2170.68,1169.82Zm13.37-22.76a4.25,4.25,0,1,1-5.21,3A4.26,4.26,0,0,1,2184.05,1147.06Zm-8.18,3.4a4.25,4.25,0,1,1-5.81-1.56A4.25,4.25,0,0,1,2175.87,1150.46Z"/><path class="cls-3" d="M2166.12,1368.84a28.35,28.35,0,1,0,10.38-38.72A28.34,28.34,0,0,0,2166.12,1368.84Zm28.23-16.3a4.25,4.25,0,1,1-5.81-1.55A4.25,4.25,0,0,1,2194.35,1352.54Z"/><path class="cls-3" d="M2208.64,1442.49a28.35,28.35,0,1,0,10.38-38.72A28.35,28.35,0,0,0,2208.64,1442.49Zm36.49-12.19a4.25,4.25,0,1,1-5.8,1.56A4.25,4.25,0,0,1,2245.13,1430.3Zm-11.94,5.1a4.26,4.26,0,1,1-4.25,4.25A4.25,4.25,0,0,1,2233.19,1435.4Zm13.5-14.88a4.25,4.25,0,1,1-5.81-1.56A4.24,4.24,0,0,1,2246.69,1420.52Zm-19.64,11.34a4.25,4.25,0,1,1-5.81-1.56A4.25,4.25,0,0,1,2227.05,1431.86Zm6.14-19.13a4.25,4.25,0,1,1-4.25,4.25A4.25,4.25,0,0,1,2233.19,1412.73Zm-7.69,6.23a4.26,4.26,0,1,1-5.81,1.56A4.25,4.25,0,0,1,2225.5,1419Z"/><path class="cls-3" d="M2123.6,1295.2a28.35,28.35,0,1,0,10.38-38.72A28.35,28.35,0,0,0,2123.6,1295.2Zm36.5-12.19a4.26,4.26,0,1,1-5.81,1.56A4.25,4.25,0,0,1,2160.1,1283Zm-11.95,5.1a4.25,4.25,0,1,1-4.25,4.25A4.25,4.25,0,0,1,2148.15,1288.11Zm13.5-14.88a4.25,4.25,0,1,1-5.81-1.56A4.25,4.25,0,0,1,2161.65,1273.23Zm-9.82,5.67a4.25,4.25,0,1,1-5.81-1.56A4.25,4.25,0,0,1,2151.83,1278.9Zm-9.82,5.67a4.25,4.25,0,1,1-5.81-1.56A4.25,4.25,0,0,1,2142,1284.57Zm6.14-19.14a4.26,4.26,0,1,1-4.25,4.26A4.25,4.25,0,0,1,2148.15,1265.43Zm-7.69,6.24a4.26,4.26,0,1,1-5.81,1.56A4.25,4.25,0,0,1,2140.46,1271.67Z"/><path class="cls-3" d="M2092.47,1411.36a28.35,28.35,0,1,0,10.38-38.72A28.35,28.35,0,0,0,2092.47,1411.36Zm28.24-16.3a4.26,4.26,0,1,1-5.81-1.55A4.26,4.26,0,0,1,2120.71,1395.06Z"/><path class="cls-3" d="M2135,1485a28.35,28.35,0,1,0,10.38-38.72A28.35,28.35,0,0,0,2135,1485Zm36.5-12.19a4.25,4.25,0,1,1-5.81,1.56A4.25,4.25,0,0,1,2171.49,1472.82Zm-11.95,5.1a4.26,4.26,0,1,1-4.25,4.25A4.26,4.26,0,0,1,2159.54,1477.92ZM2173,1463a4.25,4.25,0,1,1-5.8-1.56A4.25,4.25,0,0,1,2173,1463Zm-19.63,11.34a4.25,4.25,0,1,1-5.81-1.56A4.26,4.26,0,0,1,2153.41,1474.38Zm6.13-19.13a4.25,4.25,0,1,1-4.25,4.25A4.25,4.25,0,0,1,2159.54,1455.25Zm-7.69,6.23A4.25,4.25,0,1,1,2146,1463,4.26,4.26,0,0,1,2151.85,1461.48Z"/><path class="cls-3" d="M2050,1337.72a28.34,28.34,0,1,0,10.37-38.73A28.34,28.34,0,0,0,2050,1337.72Zm36.49-12.19a4.25,4.25,0,1,1-5.81,1.56A4.26,4.26,0,0,1,2086.45,1325.53Zm-11.95,5.1a4.25,4.25,0,1,1-4.25,4.25A4.25,4.25,0,0,1,2074.5,1330.63Zm13.51-14.88a4.25,4.25,0,1,1-5.81-1.56A4.26,4.26,0,0,1,2088,1315.75Zm-9.82,5.67a4.25,4.25,0,1,1-5.81-1.56A4.26,4.26,0,0,1,2078.19,1321.42Zm-9.82,5.67a4.25,4.25,0,1,1-5.81-1.56A4.26,4.26,0,0,1,2068.37,1327.09Zm6.13-19.14a4.26,4.26,0,1,1-4.25,4.25A4.26,4.26,0,0,1,2074.5,1308Zm-7.69,6.24a4.25,4.25,0,1,1-5.81,1.56A4.26,4.26,0,0,1,2066.81,1314.19Z"/><path class="cls-3" d="M2018.83,1453.88a28.35,28.35,0,1,0,10.37-38.72A28.34,28.34,0,0,0,2018.83,1453.88Zm28.23-16.3a4.26,4.26,0,1,1-5.81-1.55A4.25,4.25,0,0,1,2047.06,1437.58Z"/><path class="cls-3" d="M2061.35,1527.53a28.35,28.35,0,1,0,10.37-38.72A28.34,28.34,0,0,0,2061.35,1527.53Zm36.49-12.19a4.25,4.25,0,1,1-5.81,1.56A4.26,4.26,0,0,1,2097.84,1515.34Zm-11.94,5.1a4.26,4.26,0,1,1-4.26,4.25A4.25,4.25,0,0,1,2085.9,1520.44Zm13.5-14.88a4.25,4.25,0,1,1-5.81-1.56A4.26,4.26,0,0,1,2099.4,1505.56Zm-19.64,11.34a4.25,4.25,0,1,1-5.81-1.56A4.26,4.26,0,0,1,2079.76,1516.9Zm6.14-19.13a4.25,4.25,0,1,1-4.26,4.25A4.25,4.25,0,0,1,2085.9,1497.77Zm-7.7,6.23a4.25,4.25,0,1,1-5.8,1.56A4.26,4.26,0,0,1,2078.2,1504Z"/><path class="cls-3" d="M1976.31,1380.24a28.35,28.35,0,1,0,10.37-38.73A28.35,28.35,0,0,0,1976.31,1380.24Zm36.49-12.19a4.25,4.25,0,1,1-5.81,1.56A4.25,4.25,0,0,1,2012.8,1368.05Zm-11.94,5.1a4.25,4.25,0,1,1-4.25,4.25A4.25,4.25,0,0,1,2000.86,1373.15Zm13.5-14.88a4.25,4.25,0,1,1-5.81-1.56A4.26,4.26,0,0,1,2014.36,1358.27Zm-9.82,5.67a4.25,4.25,0,1,1-5.81-1.56A4.26,4.26,0,0,1,2004.54,1363.94Zm-9.82,5.67a4.25,4.25,0,1,1-5.81-1.56A4.24,4.24,0,0,1,1994.72,1369.61Zm6.14-19.14a4.26,4.26,0,1,1-4.25,4.25A4.25,4.25,0,0,1,2000.86,1350.47Zm-7.7,6.24a4.25,4.25,0,1,1-5.8,1.56A4.26,4.26,0,0,1,1993.16,1356.71Z"/><path class="cls-3" d="M1945.18,1496.4a28.35,28.35,0,1,0,10.38-38.72A28.34,28.34,0,0,0,1945.18,1496.4Zm28.23-16.3a4.25,4.25,0,1,1-5.81-1.55A4.25,4.25,0,0,1,1973.41,1480.1Z"/><path class="cls-3" d="M1987.7,1570.05a28.35,28.35,0,1,0,10.38-38.72A28.34,28.34,0,0,0,1987.7,1570.05Zm36.5-12.19a4.26,4.26,0,1,1-5.81,1.56A4.25,4.25,0,0,1,2024.2,1557.86Zm-12,5.1a4.26,4.26,0,1,1-4.25,4.25A4.25,4.25,0,0,1,2012.25,1563Zm13.5-14.88a4.25,4.25,0,1,1-5.81-1.56A4.25,4.25,0,0,1,2025.75,1548.08Zm-19.64,11.34a4.25,4.25,0,1,1-5.8-1.56A4.25,4.25,0,0,1,2006.11,1559.42Zm6.14-19.14a4.26,4.26,0,1,1-4.25,4.26A4.25,4.25,0,0,1,2012.25,1540.28Zm-7.69,6.24a4.25,4.25,0,1,1-5.81,1.56A4.25,4.25,0,0,1,2004.56,1546.52Z"/><path class="cls-3" d="M1902.66,1422.76A28.35,28.35,0,1,0,1913,1384,28.35,28.35,0,0,0,1902.66,1422.76Zm36.5-12.19a4.25,4.25,0,1,1-5.81,1.56A4.25,4.25,0,0,1,1939.16,1410.57Zm-12,5.1a4.25,4.25,0,1,1-4.25,4.25A4.25,4.25,0,0,1,1927.21,1415.67Zm13.5-14.88a4.25,4.25,0,1,1-5.81-1.56A4.25,4.25,0,0,1,1940.71,1400.79Zm-9.82,5.67a4.25,4.25,0,1,1-5.8-1.56A4.25,4.25,0,0,1,1930.89,1406.46Zm-9.82,5.67a4.25,4.25,0,1,1-5.8-1.56A4.24,4.24,0,0,1,1921.07,1412.13Zm6.14-19.14a4.26,4.26,0,1,1-4.25,4.25A4.25,4.25,0,0,1,1927.21,1393Zm-7.69,6.24a4.25,4.25,0,1,1-5.81,1.56A4.25,4.25,0,0,1,1919.52,1399.23Z"/><path class="cls-3" d="M2820.77,941.78a28.34,28.34,0,1,0-10.37,38.72A28.34,28.34,0,0,0,2820.77,941.78Zm-28.23,16.3a4.25,4.25,0,1,1,5.81,1.56A4.26,4.26,0,0,1,2792.54,958.08Z"/><path class="cls-3" d="M2778.25,868.14a28.34,28.34,0,1,0-10.37,38.72A28.34,28.34,0,0,0,2778.25,868.14Zm-36.49,12.18a4.25,4.25,0,1,1,5.81-1.55A4.26,4.26,0,0,1,2741.76,880.32Zm11.95-5.1A4.25,4.25,0,1,1,2758,871,4.25,4.25,0,0,1,2753.71,875.22ZM2740.2,890.1a4.25,4.25,0,1,1,5.81,1.56A4.25,4.25,0,0,1,2740.2,890.1Zm19.64-11.33a4.26,4.26,0,1,1,5.81,1.55A4.26,4.26,0,0,1,2759.84,878.77Zm-6.13,19.13a4.25,4.25,0,1,1,4.25-4.25A4.25,4.25,0,0,1,2753.71,897.9Zm7.69-6.24a4.25,4.25,0,1,1,5.81-1.56A4.26,4.26,0,0,1,2761.4,891.66Z"/><path class="cls-3" d="M2863.29,1015.43a28.34,28.34,0,1,0-10.37,38.72A28.34,28.34,0,0,0,2863.29,1015.43Zm-36.49,12.18a4.25,4.25,0,1,1,5.81-1.55A4.25,4.25,0,0,1,2826.8,1027.61Zm11.94-5.1a4.25,4.25,0,1,1,4.26-4.25A4.25,4.25,0,0,1,2838.74,1022.51Zm-13.5,14.89a4.26,4.26,0,1,1,5.81,1.55A4.26,4.26,0,0,1,2825.24,1037.4Zm9.82-5.67a4.25,4.25,0,1,1,5.81,1.55A4.26,4.26,0,0,1,2835.06,1031.73Zm9.82-5.67a4.25,4.25,0,1,1,5.81,1.55A4.25,4.25,0,0,1,2844.88,1026.06Zm-6.14,19.13a4.25,4.25,0,1,1,4.26-4.25A4.25,4.25,0,0,1,2838.74,1045.19Zm7.7-6.24a4.25,4.25,0,1,1,5.81-1.55A4.25,4.25,0,0,1,2846.44,1039Z"/><path class="cls-3" d="M2894.42,899.26A28.35,28.35,0,1,0,2884,938,28.34,28.34,0,0,0,2894.42,899.26Zm-28.23,16.3a4.25,4.25,0,1,1,5.81,1.56A4.25,4.25,0,0,1,2866.19,915.56Z"/><path class="cls-3" d="M2851.9,825.62a28.35,28.35,0,1,0-10.38,38.72A28.34,28.34,0,0,0,2851.9,825.62Zm-36.49,12.18a4.25,4.25,0,1,1,5.8-1.55A4.25,4.25,0,0,1,2815.41,837.8Zm11.94-5.1a4.25,4.25,0,1,1,4.25-4.25A4.25,4.25,0,0,1,2827.35,832.7Zm-13.5,14.88a4.25,4.25,0,1,1,5.81,1.56A4.24,4.24,0,0,1,2813.85,847.58Zm19.64-11.33a4.25,4.25,0,1,1,5.81,1.55A4.24,4.24,0,0,1,2833.49,836.25Zm-6.14,19.13a4.25,4.25,0,1,1,4.25-4.25A4.25,4.25,0,0,1,2827.35,855.38Zm7.7-6.24a4.25,4.25,0,1,1,5.8-1.56A4.24,4.24,0,0,1,2835.05,849.14Z"/><path class="cls-3" d="M2936.94,972.91a28.35,28.35,0,1,0-10.38,38.72A28.35,28.35,0,0,0,2936.94,972.91Zm-36.49,12.18a4.25,4.25,0,1,1,5.8-1.55A4.24,4.24,0,0,1,2900.45,985.09Zm11.94-5.1a4.25,4.25,0,1,1,4.25-4.25A4.25,4.25,0,0,1,2912.39,980Zm-13.5,14.89a4.25,4.25,0,1,1,5.81,1.55A4.25,4.25,0,0,1,2898.89,994.88Zm9.82-5.67a4.25,4.25,0,1,1,5.81,1.55A4.24,4.24,0,0,1,2908.71,989.21Zm9.82-5.67a4.25,4.25,0,1,1,5.81,1.55A4.25,4.25,0,0,1,2918.53,983.54Zm-6.14,19.13a4.25,4.25,0,1,1,4.25-4.25A4.25,4.25,0,0,1,2912.39,1002.67Zm7.69-6.24a4.25,4.25,0,1,1,5.81-1.55A4.25,4.25,0,0,1,2920.08,996.43Z"/><path class="cls-3" d="M2968.07,856.74a28.35,28.35,0,1,0-10.38,38.72A28.35,28.35,0,0,0,2968.07,856.74ZM2939.84,873a4.25,4.25,0,1,1,5.8,1.56A4.25,4.25,0,0,1,2939.84,873Z"/><path class="cls-3" d="M2925.55,783.1a28.35,28.35,0,1,0-10.38,38.72A28.35,28.35,0,0,0,2925.55,783.1Zm-36.5,12.18a4.25,4.25,0,1,1,5.81-1.55A4.25,4.25,0,0,1,2889.05,795.28Zm11.95-5.1a4.25,4.25,0,1,1,4.25-4.25A4.25,4.25,0,0,1,2901,790.18Zm-13.5,14.88a4.25,4.25,0,1,1,5.8,1.56A4.24,4.24,0,0,1,2887.5,805.06Zm19.64-11.33a4.25,4.25,0,1,1,5.8,1.55A4.25,4.25,0,0,1,2907.14,793.73ZM2901,812.86a4.25,4.25,0,1,1,4.25-4.25A4.25,4.25,0,0,1,2901,812.86Zm7.69-6.24a4.25,4.25,0,1,1,5.81-1.56A4.25,4.25,0,0,1,2908.69,806.62Z"/><path class="cls-3" d="M3010.59,930.39a28.35,28.35,0,1,0-10.38,38.72A28.36,28.36,0,0,0,3010.59,930.39Zm-36.5,12.18a4.25,4.25,0,1,1,5.81-1.55A4.24,4.24,0,0,1,2974.09,942.57Zm11.95-5.09a4.26,4.26,0,1,1,4.25-4.26A4.25,4.25,0,0,1,2986,937.48Zm-13.5,14.88a4.25,4.25,0,1,1,5.8,1.55A4.25,4.25,0,0,1,2972.54,952.36Zm9.82-5.67a4.25,4.25,0,1,1,5.8,1.55A4.25,4.25,0,0,1,2982.36,946.69Zm9.81-5.67a4.25,4.25,0,1,1,5.81,1.55A4.26,4.26,0,0,1,2992.17,941ZM2986,960.15a4.25,4.25,0,1,1,4.25-4.25A4.25,4.25,0,0,1,2986,960.15Zm7.69-6.24a4.25,4.25,0,1,1,5.81-1.55A4.25,4.25,0,0,1,2993.73,953.91Z"/><path class="cls-3" d="M3041.71,814.22a28.34,28.34,0,1,0-10.37,38.72A28.34,28.34,0,0,0,3041.71,814.22Zm-28.23,16.3a4.25,4.25,0,1,1,5.81,1.56A4.26,4.26,0,0,1,3013.48,830.52Z"/><path class="cls-3" d="M2999.19,740.58a28.34,28.34,0,1,0-10.37,38.72A28.34,28.34,0,0,0,2999.19,740.58Zm-36.49,12.18a4.25,4.25,0,1,1,5.81-1.55A4.26,4.26,0,0,1,2962.7,752.76Zm11.94-5.1a4.25,4.25,0,1,1,4.26-4.25A4.25,4.25,0,0,1,2974.64,747.66Zm-13.5,14.88a4.25,4.25,0,1,1,5.81,1.56A4.25,4.25,0,0,1,2961.14,762.54Zm19.64-11.33a4.26,4.26,0,1,1,5.81,1.55A4.25,4.25,0,0,1,2980.78,751.21Zm-6.14,19.13a4.25,4.25,0,1,1,4.26-4.25A4.25,4.25,0,0,1,2974.64,770.34Zm7.7-6.24a4.25,4.25,0,1,1,5.81-1.56A4.25,4.25,0,0,1,2982.34,764.1Z"/><path class="cls-3" d="M3084.23,887.87a28.35,28.35,0,1,0-10.37,38.72A28.35,28.35,0,0,0,3084.23,887.87Zm-36.49,12.19a4.25,4.25,0,1,1,5.81-1.56A4.26,4.26,0,0,1,3047.74,900.06Zm11.94-5.1a4.26,4.26,0,1,1,4.26-4.26A4.26,4.26,0,0,1,3059.68,895Zm-13.5,14.88a4.25,4.25,0,1,1,5.81,1.55A4.25,4.25,0,0,1,3046.18,909.84Zm9.82-5.67a4.25,4.25,0,1,1,5.81,1.55A4.25,4.25,0,0,1,3056,904.17Zm9.82-5.67a4.25,4.25,0,1,1,5.81,1.56A4.25,4.25,0,0,1,3065.82,898.5Zm-6.14,19.13a4.25,4.25,0,1,1,4.26-4.25A4.25,4.25,0,0,1,3059.68,917.63Zm7.7-6.24a4.25,4.25,0,1,1,5.81-1.55A4.24,4.24,0,0,1,3067.38,911.39Z"/><path class="cls-3" d="M3115.36,771.7A28.35,28.35,0,1,0,3105,810.42,28.35,28.35,0,0,0,3115.36,771.7ZM3087.13,788a4.25,4.25,0,1,1,5.81,1.56A4.25,4.25,0,0,1,3087.13,788Z"/><path class="cls-3" d="M3072.84,698.06a28.35,28.35,0,1,0-10.38,38.72A28.34,28.34,0,0,0,3072.84,698.06Zm-36.49,12.18a4.25,4.25,0,1,1,5.8-1.55A4.24,4.24,0,0,1,3036.35,710.24Zm11.94-5.1a4.25,4.25,0,1,1,4.25-4.25A4.25,4.25,0,0,1,3048.29,705.14ZM3034.79,720a4.25,4.25,0,1,1,5.81,1.55A4.24,4.24,0,0,1,3034.79,720Zm19.64-11.34a4.25,4.25,0,1,1,5.81,1.55A4.25,4.25,0,0,1,3054.43,708.69Zm-6.14,19.13a4.25,4.25,0,1,1,4.25-4.25A4.25,4.25,0,0,1,3048.29,727.82Zm7.69-6.24a4.25,4.25,0,1,1,5.81-1.55A4.25,4.25,0,0,1,3056,721.58Z"/><path class="cls-3" d="M3157.88,845.35a28.35,28.35,0,1,0-10.38,38.72A28.35,28.35,0,0,0,3157.88,845.35Zm-36.5,12.19a4.26,4.26,0,1,1,5.81-1.56A4.25,4.25,0,0,1,3121.38,857.54Zm11.95-5.1a4.26,4.26,0,1,1,4.25-4.26A4.25,4.25,0,0,1,3133.33,852.44Zm-13.5,14.88a4.25,4.25,0,1,1,5.81,1.55A4.25,4.25,0,0,1,3119.83,867.32Zm9.82-5.67a4.25,4.25,0,1,1,5.81,1.55A4.25,4.25,0,0,1,3129.65,861.65Zm9.82-5.67a4.25,4.25,0,1,1,5.81,1.56A4.25,4.25,0,0,1,3139.47,856Zm-6.14,19.13a4.25,4.25,0,1,1,4.25-4.25A4.25,4.25,0,0,1,3133.33,875.11Zm7.69-6.24a4.25,4.25,0,1,1,5.81-1.55A4.24,4.24,0,0,1,3141,868.87Z"/><path class="cls-3" d="M2842,1252.68a28.34,28.34,0,1,0-38.72,10.37A28.34,28.34,0,0,0,2842,1252.68Zm-28.23-16.3a4.25,4.25,0,1,1,1.56,5.81A4.26,4.26,0,0,1,2813.8,1236.38Z"/><path class="cls-3" d="M2884.55,1179a28.34,28.34,0,1,0-38.72,10.38A28.34,28.34,0,0,0,2884.55,1179Zm-28.8-25.51a4.26,4.26,0,1,1,4.25,4.25A4.25,4.25,0,0,1,2855.75,1153.52Zm10.39,7.79a4.25,4.25,0,1,1,5.81,1.56A4.24,4.24,0,0,1,2866.14,1161.31Zm-19.64-4.25a4.25,4.25,0,1,1,1.56,5.81A4.25,4.25,0,0,1,2846.5,1157.06Zm19.64,11.34a4.25,4.25,0,1,1,1.56,5.81A4.26,4.26,0,0,1,2866.14,1168.4Zm-19.64,4.25a4.25,4.25,0,1,1,5.81,1.56A4.26,4.26,0,0,1,2846.5,1172.65Zm9.25,3.55a4.26,4.26,0,1,1,4.25,4.25A4.26,4.26,0,0,1,2855.75,1176.2Z"/><path class="cls-3" d="M2799.51,1326.32a28.34,28.34,0,1,0-38.72,10.38A28.34,28.34,0,0,0,2799.51,1326.32Zm-28.8-25.51a4.26,4.26,0,1,1,4.26,4.25A4.25,4.25,0,0,1,2770.71,1300.81Zm10.39,7.8a4.25,4.25,0,1,1,5.81,1.55A4.26,4.26,0,0,1,2781.1,1308.61Zm-19.64-4.25a4.25,4.25,0,1,1,1.56,5.8A4.25,4.25,0,0,1,2761.46,1304.36Zm9.82,5.66a4.26,4.26,0,1,1,1.56,5.81A4.25,4.25,0,0,1,2771.28,1310Zm9.82,5.67a4.26,4.26,0,1,1,1.56,5.81A4.25,4.25,0,0,1,2781.1,1315.69Zm-19.64,4.26a4.26,4.26,0,1,1,5.81,1.55A4.26,4.26,0,0,1,2761.46,1320Zm9.25,3.54a4.26,4.26,0,1,1,4.26,4.25A4.25,4.25,0,0,1,2770.71,1323.49Z"/><path class="cls-3" d="M2757,1400a28.34,28.34,0,1,0-38.72,10.38A28.34,28.34,0,0,0,2757,1400Zm-16.77-1.58a4.25,4.25,0,1,1-5.21-3A4.24,4.24,0,0,1,2740.22,1398.39Zm1.44-28.55a4.25,4.25,0,1,1-5.81,1.56A4.25,4.25,0,0,1,2741.66,1369.84Zm-17,3.37a4.25,4.25,0,1,1,5.21,3A4.25,4.25,0,0,1,2724.67,1373.21Zm17.36,10a4.25,4.25,0,1,1,5.21,3A4.25,4.25,0,0,1,2742,1383.23Zm-25.54-6.65a4.25,4.25,0,1,1,1.56,5.81A4.25,4.25,0,0,1,2716.49,1376.58Zm24.55,14.18a4.25,4.25,0,1,1,1.55,5.81A4.25,4.25,0,0,1,2741,1390.76Zm-26.39-.19a4.25,4.25,0,1,1,5.21,3A4.26,4.26,0,0,1,2714.65,1390.57Zm7,5.38a4.25,4.25,0,1,1,1.55,5.8A4.24,4.24,0,0,1,2721.68,1396Z"/><path class="cls-3" d="M2915.68,1295.2a28.35,28.35,0,1,0-38.72,10.37A28.34,28.34,0,0,0,2915.68,1295.2Zm-28.23-16.3a4.25,4.25,0,1,1,1.56,5.81A4.25,4.25,0,0,1,2887.45,1278.9Z"/><path class="cls-3" d="M2958.2,1221.55a28.35,28.35,0,1,0-38.72,10.38A28.34,28.34,0,0,0,2958.2,1221.55ZM2929.4,1196a4.25,4.25,0,1,1,4.25,4.25A4.25,4.25,0,0,1,2929.4,1196Zm10.39,7.79a4.25,4.25,0,1,1,5.81,1.56A4.24,4.24,0,0,1,2939.79,1203.83Zm-19.64-4.25a4.25,4.25,0,1,1,1.56,5.81A4.25,4.25,0,0,1,2920.15,1199.58Zm19.64,11.34a4.25,4.25,0,1,1,1.55,5.81A4.26,4.26,0,0,1,2939.79,1210.92Zm-19.64,4.25a4.25,4.25,0,1,1,5.81,1.56A4.26,4.26,0,0,1,2920.15,1215.17Zm9.25,3.55a4.25,4.25,0,1,1,4.25,4.25A4.25,4.25,0,0,1,2929.4,1218.72Z"/><path class="cls-3" d="M2873.16,1368.84a28.35,28.35,0,1,0-38.72,10.38A28.34,28.34,0,0,0,2873.16,1368.84Zm-28.8-25.51a4.25,4.25,0,1,1,4.25,4.25A4.25,4.25,0,0,1,2844.36,1343.33Zm10.39,7.8a4.25,4.25,0,1,1,5.81,1.55A4.24,4.24,0,0,1,2854.75,1351.13Zm-19.64-4.26a4.25,4.25,0,1,1,1.56,5.81A4.25,4.25,0,0,1,2835.11,1346.87Zm9.82,5.67a4.25,4.25,0,1,1,1.56,5.81A4.25,4.25,0,0,1,2844.93,1352.54Zm9.82,5.67a4.25,4.25,0,1,1,1.56,5.81A4.25,4.25,0,0,1,2854.75,1358.21Zm-19.64,4.26a4.25,4.25,0,1,1,5.81,1.55A4.25,4.25,0,0,1,2835.11,1362.47Zm9.25,3.54a4.25,4.25,0,1,1,4.25,4.25A4.25,4.25,0,0,1,2844.36,1366Z"/><path class="cls-3" d="M2989.33,1337.72a28.35,28.35,0,1,0-38.73,10.37A28.36,28.36,0,0,0,2989.33,1337.72Zm-28.23-16.3a4.25,4.25,0,1,1,1.55,5.81A4.24,4.24,0,0,1,2961.1,1321.42Z"/><path class="cls-3" d="M3031.85,1264.07a28.35,28.35,0,1,0-38.73,10.38A28.35,28.35,0,0,0,3031.85,1264.07Zm-28.8-25.51a4.25,4.25,0,1,1,4.25,4.25A4.25,4.25,0,0,1,3003.05,1238.56Zm10.38,7.79a4.25,4.25,0,1,1,5.81,1.56A4.25,4.25,0,0,1,3013.43,1246.35Zm-19.63-4.25a4.25,4.25,0,1,1,1.55,5.81A4.24,4.24,0,0,1,2993.8,1242.1Zm19.63,11.34a4.25,4.25,0,1,1,1.56,5.81A4.26,4.26,0,0,1,3013.43,1253.44Zm-19.63,4.25a4.25,4.25,0,1,1,5.8,1.56A4.25,4.25,0,0,1,2993.8,1257.69Zm9.25,3.55a4.25,4.25,0,1,1,4.25,4.25A4.25,4.25,0,0,1,3003.05,1261.24Z"/><path class="cls-3" d="M3063,1380.24a28.34,28.34,0,1,0-38.72,10.37A28.36,28.36,0,0,0,3063,1380.24Zm-28.23-16.3a4.25,4.25,0,1,1,1.56,5.81A4.26,4.26,0,0,1,3034.74,1363.94Z"/><path class="cls-3" d="M3105.49,1306.59a28.35,28.35,0,1,0-38.72,10.38A28.35,28.35,0,0,0,3105.49,1306.59Zm-28.8-25.51a4.26,4.26,0,1,1,4.25,4.25A4.25,4.25,0,0,1,3076.69,1281.08Zm10.39,7.79a4.25,4.25,0,1,1,5.81,1.56A4.24,4.24,0,0,1,3087.08,1288.87Zm-19.64-4.25a4.25,4.25,0,1,1,1.56,5.81A4.25,4.25,0,0,1,3067.44,1284.62Zm19.64,11.34a4.25,4.25,0,1,1,1.56,5.81A4.26,4.26,0,0,1,3087.08,1296Zm-19.64,4.25a4.25,4.25,0,1,1,5.81,1.56A4.26,4.26,0,0,1,3067.44,1300.21Zm9.25,3.55a4.26,4.26,0,1,1,4.25,4.25A4.26,4.26,0,0,1,3076.69,1303.76Z"/><path class="cls-3" d="M3136.62,1422.76a28.35,28.35,0,1,0-38.72,10.37A28.35,28.35,0,0,0,3136.62,1422.76Zm-28.23-16.3a4.25,4.25,0,1,1,1.55,5.81A4.25,4.25,0,0,1,3108.39,1406.46Z"/><path class="cls-3" d="M3179.14,1349.11a28.35,28.35,0,1,0-38.72,10.38A28.34,28.34,0,0,0,3179.14,1349.11Zm-28.8-25.51a4.25,4.25,0,1,1,4.25,4.25A4.25,4.25,0,0,1,3150.34,1323.6Zm10.39,7.79a4.25,4.25,0,1,1,5.81,1.56A4.24,4.24,0,0,1,3160.73,1331.39Zm-19.64-4.25a4.25,4.25,0,1,1,1.55,5.81A4.25,4.25,0,0,1,3141.09,1327.14Zm19.64,11.34a4.25,4.25,0,1,1,1.55,5.81A4.26,4.26,0,0,1,3160.73,1338.48Zm-19.64,4.25a4.25,4.25,0,1,1,5.81,1.56A4.25,4.25,0,0,1,3141.09,1342.73Zm9.25,3.55a4.25,4.25,0,1,1,4.25,4.25A4.25,4.25,0,0,1,3150.34,1346.28Z"/><path class="cls-3" d="M3210.27,1465.28a28.35,28.35,0,1,0-38.73,10.37A28.36,28.36,0,0,0,3210.27,1465.28ZM3182,1449a4.25,4.25,0,1,1,1.56,5.8A4.26,4.26,0,0,1,3182,1449Z"/><path class="cls-3" d="M2830.64,1442.49a28.35,28.35,0,1,0-38.72,10.38A28.35,28.35,0,0,0,2830.64,1442.49Zm-16.77-1.58a4.25,4.25,0,1,1-5.21-3A4.24,4.24,0,0,1,2813.87,1440.91Zm1.43-28.55a4.25,4.25,0,1,1-5.8,1.56A4.24,4.24,0,0,1,2815.3,1412.36Zm-17,3.37a4.25,4.25,0,1,1,5.2,3A4.25,4.25,0,0,1,2798.32,1415.73Zm17.36,10a4.25,4.25,0,1,1,5.2,3A4.25,4.25,0,0,1,2815.68,1425.75Zm-25.54-6.65a4.25,4.25,0,1,1,1.55,5.81A4.24,4.24,0,0,1,2790.14,1419.1Zm24.54,14.18a4.25,4.25,0,1,1,1.56,5.81A4.26,4.26,0,0,1,2814.68,1433.28Zm-26.39-.19a4.26,4.26,0,1,1,5.21,3A4.26,4.26,0,0,1,2788.29,1433.09Zm7,5.37a4.26,4.26,0,1,1,1.56,5.81A4.25,4.25,0,0,1,2795.32,1438.46Z"/><path class="cls-3" d="M2197.25,978.6A28.35,28.35,0,1,0,2236,968.23,28.36,28.36,0,0,0,2197.25,978.6Zm28.23,16.3a4.25,4.25,0,1,1-1.56-5.8A4.26,4.26,0,0,1,2225.48,994.9Z"/><path class="cls-3" d="M2154.73,1052.25a28.35,28.35,0,1,0,38.72-10.37A28.34,28.34,0,0,0,2154.73,1052.25Zm28.8,25.51a4.26,4.26,0,1,1-4.25-4.25A4.25,4.25,0,0,1,2183.53,1077.76Zm-10.39-7.79a4.25,4.25,0,1,1-5.81-1.56A4.26,4.26,0,0,1,2173.14,1070Zm19.64,4.25a4.25,4.25,0,1,1-1.56-5.81A4.26,4.26,0,0,1,2192.78,1074.22Zm-19.64-11.34a4.25,4.25,0,1,1-1.56-5.81A4.26,4.26,0,0,1,2173.14,1062.88Zm19.64-4.25a4.25,4.25,0,1,1-5.81-1.56A4.26,4.26,0,0,1,2192.78,1058.63Zm-9.25-3.54a4.26,4.26,0,1,1-4.25-4.26A4.26,4.26,0,0,1,2183.53,1055.09Z"/><path class="cls-3" d="M2239.77,905a28.34,28.34,0,1,0,38.72-10.38A28.34,28.34,0,0,0,2239.77,905Zm28.8,25.51a4.26,4.26,0,1,1-4.25-4.25A4.25,4.25,0,0,1,2268.57,930.47Zm-10.39-7.79a4.25,4.25,0,1,1-5.81-1.56A4.24,4.24,0,0,1,2258.18,922.68Zm19.64,4.25a4.25,4.25,0,1,1-1.56-5.81A4.25,4.25,0,0,1,2277.82,926.93Zm-9.82-5.67a4.25,4.25,0,1,1-1.56-5.81A4.25,4.25,0,0,1,2268,921.26Zm-9.82-5.67a4.25,4.25,0,1,1-1.56-5.81A4.25,4.25,0,0,1,2258.18,915.59Zm19.64-4.25a4.25,4.25,0,1,1-5.81-1.56A4.24,4.24,0,0,1,2277.82,911.34Zm-9.25-3.55a4.26,4.26,0,1,1-4.25-4.25A4.26,4.26,0,0,1,2268.57,907.79Z"/><path class="cls-3" d="M2282.29,831.31A28.34,28.34,0,1,0,2321,820.94,28.34,28.34,0,0,0,2282.29,831.31Zm16.77,1.59a4.25,4.25,0,1,1,5.21,3A4.25,4.25,0,0,1,2299.06,832.9Zm-1.44,28.54a4.25,4.25,0,1,1,5.81-1.55A4.25,4.25,0,0,1,2297.62,861.44Zm17-3.36a4.25,4.25,0,1,1-5.21-3A4.24,4.24,0,0,1,2314.61,858.08Zm-17.36-10a4.25,4.25,0,1,1-5.21-3A4.26,4.26,0,0,1,2297.25,848.05Zm25.54,6.65a4.25,4.25,0,1,1-1.55-5.81A4.25,4.25,0,0,1,2322.79,854.7Zm-24.55-14.18a4.25,4.25,0,1,1-1.55-5.8A4.23,4.23,0,0,1,2298.24,840.52Zm26.39.2a4.25,4.25,0,1,1-5.2-3A4.24,4.24,0,0,1,2324.63,840.72Zm-7-5.38a4.25,4.25,0,1,1-1.55-5.81A4.24,4.24,0,0,1,2317.6,835.34Z"/><path class="cls-3" d="M2123.6,936.09a28.35,28.35,0,1,0,38.72-10.38A28.34,28.34,0,0,0,2123.6,936.09Zm28.23,16.29a4.25,4.25,0,1,1-1.55-5.8A4.25,4.25,0,0,1,2151.83,952.38Z"/><path class="cls-3" d="M2081.08,1009.73a28.35,28.35,0,1,0,38.72-10.37A28.34,28.34,0,0,0,2081.08,1009.73Zm28.8,25.51a4.25,4.25,0,1,1-4.25-4.25A4.25,4.25,0,0,1,2109.88,1035.24Zm-10.39-7.79a4.25,4.25,0,1,1-5.81-1.56A4.25,4.25,0,0,1,2099.49,1027.45Zm19.64,4.25a4.25,4.25,0,1,1-1.55-5.81A4.26,4.26,0,0,1,2119.13,1031.7Zm-19.64-11.34a4.25,4.25,0,1,1-1.55-5.81A4.25,4.25,0,0,1,2099.49,1020.36Zm19.64-4.25a4.25,4.25,0,1,1-5.81-1.56A4.25,4.25,0,0,1,2119.13,1016.11Zm-9.25-3.54a4.25,4.25,0,1,1-4.25-4.26A4.25,4.25,0,0,1,2109.88,1012.57Z"/><path class="cls-3" d="M2166.12,862.44a28.35,28.35,0,1,0,38.72-10.38A28.34,28.34,0,0,0,2166.12,862.44Zm28.8,25.51a4.25,4.25,0,1,1-4.25-4.25A4.25,4.25,0,0,1,2194.92,888Zm-10.39-7.79a4.25,4.25,0,1,1-5.81-1.56A4.24,4.24,0,0,1,2184.53,880.16Zm19.64,4.25a4.25,4.25,0,1,1-1.55-5.81A4.25,4.25,0,0,1,2204.17,884.41Zm-9.82-5.67a4.25,4.25,0,1,1-1.55-5.81A4.25,4.25,0,0,1,2194.35,878.74Zm-9.82-5.67a4.25,4.25,0,1,1-1.55-5.81A4.26,4.26,0,0,1,2184.53,873.07Zm19.64-4.25a4.25,4.25,0,1,1-5.81-1.56A4.25,4.25,0,0,1,2204.17,868.82Zm-9.25-3.55a4.25,4.25,0,1,1-4.25-4.25A4.25,4.25,0,0,1,2194.92,865.27Z"/><path class="cls-3" d="M2050,893.57a28.34,28.34,0,1,0,38.72-10.38A28.34,28.34,0,0,0,2050,893.57Zm28.23,16.29a4.25,4.25,0,1,1-1.56-5.8A4.25,4.25,0,0,1,2078.19,909.86Z"/><path class="cls-3" d="M2007.44,967.21a28.34,28.34,0,1,0,38.72-10.37A28.34,28.34,0,0,0,2007.44,967.21Zm28.8,25.51a4.26,4.26,0,1,1-4.26-4.25A4.26,4.26,0,0,1,2036.24,992.72Zm-10.39-7.79a4.25,4.25,0,1,1-5.81-1.56A4.26,4.26,0,0,1,2025.85,984.93Zm19.64,4.25a4.25,4.25,0,1,1-1.56-5.81A4.26,4.26,0,0,1,2045.49,989.18Zm-19.64-11.34a4.25,4.25,0,1,1-1.56-5.81A4.26,4.26,0,0,1,2025.85,977.84Zm19.64-4.25a4.25,4.25,0,1,1-5.81-1.56A4.26,4.26,0,0,1,2045.49,973.59Zm-9.25-3.54a4.26,4.26,0,1,1-4.26-4.26A4.26,4.26,0,0,1,2036.24,970.05Z"/><path class="cls-3" d="M1976.31,851.05A28.35,28.35,0,1,0,2015,840.67,28.35,28.35,0,0,0,1976.31,851.05Zm28.23,16.3a4.25,4.25,0,1,1-1.56-5.81A4.25,4.25,0,0,1,2004.54,867.35Z"/><path class="cls-3" d="M1933.79,924.69a28.35,28.35,0,1,0,38.72-10.37A28.34,28.34,0,0,0,1933.79,924.69Zm28.8,25.51a4.25,4.25,0,1,1-4.25-4.25A4.25,4.25,0,0,1,1962.59,950.2Zm-10.39-7.79a4.25,4.25,0,1,1-5.81-1.56A4.26,4.26,0,0,1,1952.2,942.41Zm19.64,4.25a4.25,4.25,0,1,1-1.56-5.81A4.26,4.26,0,0,1,1971.84,946.66Zm-19.64-11.34a4.25,4.25,0,1,1-1.56-5.81A4.25,4.25,0,0,1,1952.2,935.32Zm19.64-4.25a4.25,4.25,0,1,1-5.81-1.56A4.26,4.26,0,0,1,1971.84,931.07Zm-9.25-3.54a4.25,4.25,0,1,1-4.25-4.26A4.25,4.25,0,0,1,1962.59,927.53Z"/><path class="cls-3" d="M1902.66,808.53a28.35,28.35,0,1,0,38.72-10.38A28.34,28.34,0,0,0,1902.66,808.53Zm28.23,16.3a4.25,4.25,0,1,1-1.55-5.81A4.24,4.24,0,0,1,1930.89,824.83Z"/><path class="cls-3" d="M2092.47,819.92a28.35,28.35,0,1,0,38.73-10.38A28.35,28.35,0,0,0,2092.47,819.92Zm28.81,25.51a4.26,4.26,0,1,1-4.26-4.25A4.25,4.25,0,0,1,2121.28,845.43Zm-10.39-7.79a4.25,4.25,0,1,1-5.81-1.56A4.25,4.25,0,0,1,2110.89,837.64Zm19.64,4.25a4.25,4.25,0,1,1-1.56-5.81A4.25,4.25,0,0,1,2130.53,841.89Zm-9.82-5.67a4.25,4.25,0,1,1-1.56-5.81A4.25,4.25,0,0,1,2120.71,836.22Zm-9.82-5.67a4.25,4.25,0,1,1-1.56-5.81A4.26,4.26,0,0,1,2110.89,830.55Zm19.64-4.25a4.25,4.25,0,1,1-5.81-1.56A4.26,4.26,0,0,1,2130.53,826.3Zm-9.25-3.55a4.26,4.26,0,1,1-4.26-4.25A4.26,4.26,0,0,1,2121.28,822.75Z"/><path class="cls-3" d="M2477.12,767.92a28.35,28.35,0,1,0,28.35,28.35A28.35,28.35,0,0,0,2477.12,767.92Zm0,32.6a4.25,4.25,0,1,1,4.25-4.25A4.25,4.25,0,0,1,2477.12,800.52Z"/><path class="cls-3" d="M2392.08,767.92a28.35,28.35,0,1,0,28.35,28.35A28.34,28.34,0,0,0,2392.08,767.92Zm-7.69,37.7a4.25,4.25,0,1,1,1.55-5.81A4.25,4.25,0,0,1,2384.39,805.62Zm1.55-12.89a4.25,4.25,0,1,1-1.55-5.81A4.24,4.24,0,0,1,2385.94,792.73Zm6.14,19.13a4.25,4.25,0,1,1,4.25-4.25A4.25,4.25,0,0,1,2392.08,811.86Zm0-22.68a4.25,4.25,0,1,1,4.25-4.25A4.25,4.25,0,0,1,2392.08,789.18Zm13.5,14.88a4.25,4.25,0,1,1-1.55-5.8A4.24,4.24,0,0,1,2405.58,804.06Zm-1.55-9.78a4.25,4.25,0,1,1,1.55-5.81A4.25,4.25,0,0,1,2404,794.28Z"/><path class="cls-3" d="M2647.2,767.92a28.35,28.35,0,1,0,28.35,28.35A28.35,28.35,0,0,0,2647.2,767.92Zm7,15.32a4.25,4.25,0,1,1,0,6A4.25,4.25,0,0,1,2654.22,783.24Zm-25.45,13a4.26,4.26,0,1,1,4.26,4.25A4.25,4.25,0,0,1,2628.77,796.27Zm11.41,13a4.25,4.25,0,1,1,0-6A4.25,4.25,0,0,1,2640.18,809.3Zm0-20a4.25,4.25,0,1,1,0-6A4.25,4.25,0,0,1,2640.18,789.25Zm7,25.44a4.25,4.25,0,1,1,4.25-4.25A4.25,4.25,0,0,1,2647.2,814.69Zm0-28.34a4.26,4.26,0,1,1,4.25-4.25A4.25,4.25,0,0,1,2647.2,786.35Zm13,22.95a4.25,4.25,0,1,1,0-6A4.25,4.25,0,0,1,2660.23,809.3Zm1.14-8.78a4.25,4.25,0,1,1,4.25-4.25A4.25,4.25,0,0,1,2661.37,800.52Z"/><path class="cls-3" d="M2477.12,682.88a28.35,28.35,0,1,0,28.35,28.35A28.35,28.35,0,0,0,2477.12,682.88Zm0,32.6a4.25,4.25,0,1,1,4.25-4.25A4.25,4.25,0,0,1,2477.12,715.48Z"/><path class="cls-3" d="M2392.08,682.88a28.35,28.35,0,1,0,28.35,28.35A28.34,28.34,0,0,0,2392.08,682.88Zm-7.69,37.7a4.25,4.25,0,1,1,1.55-5.81A4.24,4.24,0,0,1,2384.39,720.58Zm1.55-12.89a4.25,4.25,0,1,1-1.55-5.81A4.24,4.24,0,0,1,2385.94,707.69Zm6.14,19.13a4.25,4.25,0,1,1,4.25-4.25A4.25,4.25,0,0,1,2392.08,726.82Zm0-22.68a4.25,4.25,0,1,1,4.25-4.25A4.25,4.25,0,0,1,2392.08,704.14Zm13.5,14.88a4.25,4.25,0,1,1-1.55-5.8A4.23,4.23,0,0,1,2405.58,719Zm-1.55-9.78a4.25,4.25,0,1,1,1.55-5.81A4.25,4.25,0,0,1,2404,709.24Z"/><path class="cls-3" d="M2477.12,597.84a28.35,28.35,0,1,0,28.35,28.35A28.35,28.35,0,0,0,2477.12,597.84Zm0,32.6a4.25,4.25,0,1,1,4.25-4.25A4.25,4.25,0,0,1,2477.12,630.44Z"/><path class="cls-3" d="M2392.08,597.84a28.35,28.35,0,1,0,28.35,28.35A28.34,28.34,0,0,0,2392.08,597.84Zm-7.69,37.7a4.25,4.25,0,1,1,1.55-5.81A4.25,4.25,0,0,1,2384.39,635.54Zm1.55-12.89a4.25,4.25,0,1,1-1.55-5.81A4.24,4.24,0,0,1,2385.94,622.65Zm6.14,19.13a4.25,4.25,0,1,1,4.25-4.25A4.25,4.25,0,0,1,2392.08,641.78Zm0-22.68a4.25,4.25,0,1,1,4.25-4.25A4.25,4.25,0,0,1,2392.08,619.1Zm13.5,14.89a4.25,4.25,0,1,1-1.55-5.81A4.24,4.24,0,0,1,2405.58,634ZM2404,624.2a4.25,4.25,0,1,1,1.55-5.81A4.25,4.25,0,0,1,2404,624.2Z"/><path class="cls-3" d="M2477.12,512.8a28.35,28.35,0,1,0,28.35,28.35A28.36,28.36,0,0,0,2477.12,512.8Zm0,32.6a4.25,4.25,0,1,1,4.25-4.25A4.25,4.25,0,0,1,2477.12,545.4Z"/><path class="cls-3" d="M2392.08,512.8a28.35,28.35,0,1,0,28.35,28.35A28.35,28.35,0,0,0,2392.08,512.8Zm-7.69,37.7a4.25,4.25,0,1,1,1.55-5.81A4.25,4.25,0,0,1,2384.39,550.5Zm1.55-12.89a4.25,4.25,0,1,1-1.55-5.81A4.24,4.24,0,0,1,2385.94,537.61Zm6.14,19.13a4.25,4.25,0,1,1,4.25-4.25A4.25,4.25,0,0,1,2392.08,556.74Zm0-22.68a4.25,4.25,0,1,1,4.25-4.25A4.25,4.25,0,0,1,2392.08,534.06Zm13.5,14.89a4.25,4.25,0,1,1-1.55-5.81A4.24,4.24,0,0,1,2405.58,549Zm-1.55-9.79a4.25,4.25,0,1,1,1.55-5.8A4.25,4.25,0,0,1,2404,539.16Z"/><path class="cls-3" d="M2477.12,427.76a28.35,28.35,0,1,0,28.35,28.35A28.36,28.36,0,0,0,2477.12,427.76Zm0,32.6a4.25,4.25,0,1,1,4.25-4.25A4.25,4.25,0,0,1,2477.12,460.36Z"/><path class="cls-3" d="M2392.08,427.76a28.35,28.35,0,1,0,28.35,28.35A28.35,28.35,0,0,0,2392.08,427.76Zm-7.69,37.7a4.25,4.25,0,1,1,1.55-5.81A4.25,4.25,0,0,1,2384.39,465.46Zm1.55-12.89a4.25,4.25,0,1,1-1.55-5.81A4.24,4.24,0,0,1,2385.94,452.57Zm6.14,19.13a4.25,4.25,0,1,1,4.25-4.25A4.25,4.25,0,0,1,2392.08,471.7Zm0-22.68a4.25,4.25,0,1,1,4.25-4.25A4.25,4.25,0,0,1,2392.08,449Zm13.5,14.89a4.25,4.25,0,1,1-1.55-5.81A4.24,4.24,0,0,1,2405.58,463.91Zm-1.55-9.79a4.25,4.25,0,1,1,1.55-5.8A4.25,4.25,0,0,1,2404,454.12Z"/><path class="cls-3" d="M2477.12,342.73a28.35,28.35,0,1,0,28.35,28.34A28.35,28.35,0,0,0,2477.12,342.73Zm0,32.59a4.25,4.25,0,1,1,4.25-4.25A4.25,4.25,0,0,1,2477.12,375.32Z"/><path class="cls-3" d="M2647.2,682.88a28.35,28.35,0,1,0,28.35,28.35A28.35,28.35,0,0,0,2647.2,682.88Zm7,15.32a4.25,4.25,0,1,1,0,6A4.25,4.25,0,0,1,2654.22,698.2Zm-25.45,13a4.26,4.26,0,1,1,4.26,4.25A4.25,4.25,0,0,1,2628.77,711.23Zm11.41,13a4.25,4.25,0,1,1,0-6A4.25,4.25,0,0,1,2640.18,724.26Zm0-20a4.25,4.25,0,1,1,0-6A4.25,4.25,0,0,1,2640.18,704.21Zm7,25.44a4.25,4.25,0,1,1,4.25-4.25A4.25,4.25,0,0,1,2647.2,729.65Zm0-28.34a4.26,4.26,0,1,1,4.25-4.25A4.25,4.25,0,0,1,2647.2,701.31Zm13,23a4.25,4.25,0,1,1,0-6A4.25,4.25,0,0,1,2660.23,724.26Zm1.14-8.78a4.25,4.25,0,1,1,4.25-4.25A4.25,4.25,0,0,1,2661.37,715.48Z"/><path class="cls-3" d="M2562.16,767.92a28.35,28.35,0,1,0,28.35,28.35A28.35,28.35,0,0,0,2562.16,767.92Zm0,32.6a4.25,4.25,0,1,1,4.25-4.25A4.25,4.25,0,0,1,2562.16,800.52Z"/><path class="cls-3" d="M2562.16,682.88a28.35,28.35,0,1,0,28.35,28.35A28.35,28.35,0,0,0,2562.16,682.88Zm0,32.6a4.25,4.25,0,1,1,4.25-4.25A4.25,4.25,0,0,1,2562.16,715.48Z"/><path class="cls-3" d="M2562.16,597.84a28.35,28.35,0,1,0,28.35,28.35A28.35,28.35,0,0,0,2562.16,597.84Zm0,32.6a4.25,4.25,0,1,1,4.25-4.25A4.25,4.25,0,0,1,2562.16,630.44Z"/><path class="cls-3" d="M2562.16,512.8a28.35,28.35,0,1,0,28.35,28.35A28.36,28.36,0,0,0,2562.16,512.8Zm0,32.6a4.25,4.25,0,1,1,4.25-4.25A4.25,4.25,0,0,1,2562.16,545.4Z"/><path class="cls-3" d="M2647.2,597.84a28.35,28.35,0,1,0,28.35,28.35A28.35,28.35,0,0,0,2647.2,597.84Zm7,15.32a4.25,4.25,0,1,1,0,6A4.25,4.25,0,0,1,2654.22,613.16Zm-25.45,13a4.26,4.26,0,1,1,4.26,4.25A4.25,4.25,0,0,1,2628.77,626.19Zm11.41,13a4.25,4.25,0,1,1,0-6A4.25,4.25,0,0,1,2640.18,639.22Zm0-20.05a4.25,4.25,0,1,1,0-6A4.23,4.23,0,0,1,2640.18,619.17Zm7,25.45a4.26,4.26,0,1,1,4.25-4.26A4.25,4.25,0,0,1,2647.2,644.62Zm0-28.35a4.26,4.26,0,1,1,4.25-4.25A4.25,4.25,0,0,1,2647.2,616.27Zm13,23a4.25,4.25,0,1,1,0-6A4.25,4.25,0,0,1,2660.23,639.22Zm1.14-8.78a4.25,4.25,0,1,1,4.25-4.25A4.25,4.25,0,0,1,2661.37,630.44Z"/><path class="cls-3" d="M2647.2,512.8a28.35,28.35,0,1,0,28.35,28.35A28.35,28.35,0,0,0,2647.2,512.8Zm7,15.32a4.25,4.25,0,1,1,0,6A4.25,4.25,0,0,1,2654.22,528.12Zm-25.45,13a4.26,4.26,0,1,1,4.26,4.25A4.25,4.25,0,0,1,2628.77,541.15Zm11.41,13a4.25,4.25,0,1,1,0-6A4.25,4.25,0,0,1,2640.18,554.18Zm0-20a4.25,4.25,0,1,1,0-6A4.25,4.25,0,0,1,2640.18,534.14Zm7,25.44a4.26,4.26,0,1,1,4.25-4.26A4.25,4.25,0,0,1,2647.2,559.58Zm0-28.35a4.25,4.25,0,1,1,4.25-4.25A4.25,4.25,0,0,1,2647.2,531.23Zm13,22.95a4.25,4.25,0,1,1,0-6A4.25,4.25,0,0,1,2660.23,554.18Zm1.14-8.78a4.25,4.25,0,1,1,4.25-4.25A4.25,4.25,0,0,1,2661.37,545.4Z"/><path class="cls-3" d="M4893.09,3745.06a28.35,28.35,0,1,0-28.34,28.35A28.34,28.34,0,0,0,4893.09,3745.06Zm-32.59,0a4.25,4.25,0,1,1,4.25,4.25A4.25,4.25,0,0,1,4860.5,3745.06Z"/><path class="cls-3" d="M4893.09,3830.1a28.35,28.35,0,1,0-28.34,28.35A28.35,28.35,0,0,0,4893.09,3830.1Zm-38.26,0a4.25,4.25,0,1,1,4.25,4.25A4.25,4.25,0,0,1,4854.83,3830.1Zm11.34,0a4.25,4.25,0,1,1,4.25,4.25A4.25,4.25,0,0,1,4866.17,3830.1Z"/><path class="cls-3" d="M4978.13,3745.06a28.35,28.35,0,1,0-28.34,28.35A28.34,28.34,0,0,0,4978.13,3745.06Zm-32.59,0a4.25,4.25,0,1,1,4.25,4.25A4.25,4.25,0,0,1,4945.54,3745.06Z"/><path class="cls-3" d="M4978.13,3830.1a28.35,28.35,0,1,0-28.34,28.35A28.35,28.35,0,0,0,4978.13,3830.1Zm-32.59,0a4.25,4.25,0,1,1,4.25,4.25A4.25,4.25,0,0,1,4945.54,3830.1Z"/><path class="cls-3" d="M4893.09,3660a28.35,28.35,0,1,0-28.34,28.35A28.34,28.34,0,0,0,4893.09,3660Zm-32.59,0a4.25,4.25,0,1,1,4.25,4.25A4.25,4.25,0,0,1,4860.5,3660Z"/><path class="cls-3" d="M4978.13,3660a28.35,28.35,0,1,0-28.34,28.35A28.34,28.34,0,0,0,4978.13,3660Zm-32.59,0a4.25,4.25,0,1,1,4.25,4.25A4.25,4.25,0,0,1,4945.54,3660Z"/><path class="cls-3" d="M4893.09,3575a28.35,28.35,0,1,0-28.34,28.35A28.34,28.34,0,0,0,4893.09,3575Zm-32.59,0a4.25,4.25,0,1,1,4.25,4.25A4.25,4.25,0,0,1,4860.5,3575Z"/><path class="cls-3" d="M4978.13,3575a28.35,28.35,0,1,0-28.34,28.35A28.34,28.34,0,0,0,4978.13,3575Zm-32.59,0a4.25,4.25,0,1,1,4.25,4.25A4.25,4.25,0,0,1,4945.54,3575Z"/><path class="cls-3" d="M4893.09,3489.94a28.35,28.35,0,1,0-28.34,28.35A28.34,28.34,0,0,0,4893.09,3489.94Zm-32.59,0a4.25,4.25,0,1,1,4.25,4.26A4.25,4.25,0,0,1,4860.5,3489.94Z"/><path class="cls-3" d="M4978.13,3489.94a28.35,28.35,0,1,0-28.34,28.35A28.34,28.34,0,0,0,4978.13,3489.94Zm-32.59,0a4.25,4.25,0,1,1,4.25,4.26A4.25,4.25,0,0,1,4945.54,3489.94Z"/><path class="cls-3" d="M2647.53,6582.84a28.35,28.35,0,1,0-28.34-28.35A28.35,28.35,0,0,0,2647.53,6582.84Zm0-32.6a4.25,4.25,0,1,1-4.25,4.25A4.25,4.25,0,0,1,2647.53,6550.24Z"/><path class="cls-3" d="M2392.41,6582.84a28.35,28.35,0,1,0-28.34-28.35A28.35,28.35,0,0,0,2392.41,6582.84Zm0-38.27a4.25,4.25,0,1,1-4.25,4.25A4.25,4.25,0,0,1,2392.41,6544.57Zm0,11.34a4.25,4.25,0,1,1-4.25,4.25A4.25,4.25,0,0,1,2392.41,6555.91Z"/><path class="cls-3" d="M2562.49,6582.84a28.35,28.35,0,1,0-28.34-28.35A28.35,28.35,0,0,0,2562.49,6582.84Zm0-32.6a4.25,4.25,0,1,1-4.25,4.25A4.25,4.25,0,0,1,2562.49,6550.24Z"/><path class="cls-3" d="M2477.45,6582.84a28.35,28.35,0,1,0-28.34-28.35A28.35,28.35,0,0,0,2477.45,6582.84Zm0-32.6a4.25,4.25,0,1,1-4.25,4.25A4.25,4.25,0,0,1,2477.45,6550.24Z"/><path class="cls-3" d="M2647.53,6497.8a28.35,28.35,0,1,0-28.34-28.35A28.35,28.35,0,0,0,2647.53,6497.8Zm0-32.6a4.25,4.25,0,1,1-4.25,4.25A4.25,4.25,0,0,1,2647.53,6465.2Z"/><path class="cls-3" d="M2392.41,6497.8a28.35,28.35,0,1,0-28.34-28.35A28.35,28.35,0,0,0,2392.41,6497.8Zm0-38.27a4.25,4.25,0,1,1-4.25,4.25A4.25,4.25,0,0,1,2392.41,6459.53Zm0,11.34a4.25,4.25,0,1,1-4.25,4.25A4.25,4.25,0,0,1,2392.41,6470.87Z"/><path class="cls-3" d="M2562.49,6497.8a28.35,28.35,0,1,0-28.34-28.35A28.35,28.35,0,0,0,2562.49,6497.8Zm0-32.6a4.25,4.25,0,1,1-4.25,4.25A4.25,4.25,0,0,1,2562.49,6465.2Z"/><path class="cls-3" d="M2477.45,6497.8a28.35,28.35,0,1,0-28.34-28.35A28.35,28.35,0,0,0,2477.45,6497.8Zm0-32.6a4.25,4.25,0,1,1-4.25,4.25A4.25,4.25,0,0,1,2477.45,6465.2Z"/><path class="cls-3" d="M1182.61,2422.88a28.35,28.35,0,1,0,0-40.09A28.35,28.35,0,0,0,1182.61,2422.88Zm32.1-21.21a4.25,4.25,0,1,1-5.21,3A4.25,4.25,0,0,1,1214.71,2401.67Zm-10.22,8a4.25,4.25,0,1,1-3,5.21A4.25,4.25,0,0,1,1204.49,2409.68Zm9.19-17.87a4.25,4.25,0,1,1-6,0A4.26,4.26,0,0,1,1213.68,2391.81Zm-16,16a4.25,4.25,0,1,1-6,0A4.25,4.25,0,0,1,1197.65,2407.85Zm1-20.07a4.25,4.25,0,1,1-3,5.21A4.26,4.26,0,0,1,1198.62,2387.78Zm-5.82,8a4.25,4.25,0,1,1-5.2,3A4.24,4.24,0,0,1,1192.8,2395.8Z"/><path class="cls-3" d="M1122.48,2362.75a28.35,28.35,0,1,0,0-40.09A28.35,28.35,0,0,0,1122.48,2362.75Zm5.87-15.79a4.26,4.26,0,1,1,4.25-4.25A4.25,4.25,0,0,1,1128.35,2347Zm27.2,8.77a4.25,4.25,0,1,1,0-6A4.25,4.25,0,0,1,1155.55,2355.73Zm1.15-17.28a4.26,4.26,0,1,1-4.25,4.26A4.25,4.25,0,0,1,1156.7,2338.45Zm-14.18,14.18a4.25,4.25,0,1,1-4.25,4.25A4.25,4.25,0,0,1,1142.52,2352.63Zm13-23a4.25,4.25,0,1,1-6,0A4.25,4.25,0,0,1,1155.55,2329.68Zm-20,20a4.25,4.25,0,1,1-6,0A4.25,4.25,0,0,1,1135.51,2349.72Zm7-25.44a4.25,4.25,0,1,1-4.25,4.25A4.25,4.25,0,0,1,1142.52,2324.28Zm-7,5.4a4.25,4.25,0,1,1-6,0A4.25,4.25,0,0,1,1135.51,2329.68Z"/><path class="cls-3" d="M1182.61,2302.62a28.35,28.35,0,1,0,0-40.09A28.35,28.35,0,0,0,1182.61,2302.62Zm5.87-15.79a4.26,4.26,0,1,1,4.26-4.26A4.26,4.26,0,0,1,1188.48,2286.83Zm27.21,8.77a4.25,4.25,0,1,1,0-6A4.26,4.26,0,0,1,1215.69,2295.6Zm1.14-17.28a4.26,4.26,0,1,1-4.25,4.25A4.25,4.25,0,0,1,1216.83,2278.32Zm-14.17,14.18a4.25,4.25,0,1,1-4.26,4.25A4.25,4.25,0,0,1,1202.66,2292.5Zm13-22.95a4.25,4.25,0,1,1-6,0A4.25,4.25,0,0,1,1215.69,2269.55Zm-20,20a4.25,4.25,0,1,1-6,0A4.25,4.25,0,0,1,1195.64,2289.59Zm7-25.44a4.25,4.25,0,1,1-4.26,4.25A4.25,4.25,0,0,1,1202.66,2264.15Zm-7,5.4a4.25,4.25,0,1,1-6,0A4.25,4.25,0,0,1,1195.64,2269.55Z"/><path class="cls-3" d="M3873.49,2286.46a28.35,28.35,0,1,0-40.09,0A28.35,28.35,0,0,0,3873.49,2286.46Zm-21.21-32.1a4.25,4.25,0,1,1,3,5.21A4.23,4.23,0,0,1,3852.28,2254.36Zm8,10.22a4.25,4.25,0,1,1,5.21,3A4.25,4.25,0,0,1,3860.29,2264.58Zm-17.87-9.19a4.25,4.25,0,1,1,0,6A4.26,4.26,0,0,1,3842.42,2255.39Zm16,16a4.25,4.25,0,1,1,0,6A4.25,4.25,0,0,1,3858.46,2271.43Zm-20.07-1a4.25,4.25,0,1,1,5.21,3A4.26,4.26,0,0,1,3838.39,2270.45Zm8,5.82a4.25,4.25,0,1,1,3,5.21A4.24,4.24,0,0,1,3846.41,2276.27Z"/><path class="cls-3" d="M3993.76,2286.46a28.35,28.35,0,1,0-40.09,0A28.35,28.35,0,0,0,3993.76,2286.46Zm-15.8-5.87a4.25,4.25,0,1,1-4.25-4.25A4.25,4.25,0,0,1,3978,2280.59Zm8.78-27.2a4.25,4.25,0,1,1-6,0A4.25,4.25,0,0,1,3986.74,2253.39Zm-17.28-1.15a4.25,4.25,0,1,1,4.25,4.25A4.25,4.25,0,0,1,3969.46,2252.24Zm14.17,14.18a4.26,4.26,0,1,1,4.25,4.25A4.26,4.26,0,0,1,3983.63,2266.42Zm-23-13a4.25,4.25,0,1,1,0,6A4.26,4.26,0,0,1,3960.68,2253.39Zm20.05,20a4.25,4.25,0,1,1,0,6A4.25,4.25,0,0,1,3980.73,2273.43Zm-25.44-7a4.25,4.25,0,1,1,4.25,4.25A4.25,4.25,0,0,1,3955.29,2266.42Zm5.39,7a4.25,4.25,0,1,1,0,6A4.26,4.26,0,0,1,3960.68,2273.43Z"/><path class="cls-3" d="M3933.62,2226.33a28.34,28.34,0,1,0-40.08,0A28.35,28.35,0,0,0,3933.62,2226.33Zm-15.79-5.87a4.25,4.25,0,1,1-4.25-4.25A4.25,4.25,0,0,1,3917.83,2220.46Zm8.78-27.2a4.25,4.25,0,1,1-6,0A4.25,4.25,0,0,1,3926.61,2193.26Zm-17.28-1.15a4.25,4.25,0,1,1,4.25,4.25A4.25,4.25,0,0,1,3909.33,2192.11Zm14.17,14.17a4.25,4.25,0,1,1,4.25,4.26A4.25,4.25,0,0,1,3923.5,2206.28Zm-22.95-13a4.25,4.25,0,1,1,0,6A4.23,4.23,0,0,1,3900.55,2193.26Zm20,20a4.25,4.25,0,1,1,0,6A4.26,4.26,0,0,1,3920.59,2213.3Zm-25.44-7a4.26,4.26,0,1,1,4.26,4.26A4.26,4.26,0,0,1,3895.15,2206.28Zm5.4,7a4.25,4.25,0,1,1,0,6A4.25,4.25,0,0,1,3900.55,2213.3Z"/><path class="cls-3" d="M4365.47,5505.52a28.34,28.34,0,1,0-40.08,0A28.34,28.34,0,0,0,4365.47,5505.52Zm-23.05-23.05a4.26,4.26,0,1,1,0,6A4.26,4.26,0,0,1,4342.42,5482.47Z"/><path class="cls-3" d="M4305.34,5445.39a28.35,28.35,0,1,0-40.09,0A28.35,28.35,0,0,0,4305.34,5445.39Zm-23.05-23.05a4.25,4.25,0,1,1,0,6A4.26,4.26,0,0,1,4282.29,5422.34Z"/><path class="cls-3" d="M188.7,6113.46a28.35,28.35,0,1,0,0-40.09A28.35,28.35,0,0,0,188.7,6113.46Zm23.05-23.05a4.25,4.25,0,1,1-6,0A4.25,4.25,0,0,1,211.75,6090.41Z"/><path class="cls-3" d="M8.3,5933.06a28.35,28.35,0,1,0,0-40.09A28.35,28.35,0,0,0,8.3,5933.06ZM35.36,5906a4.25,4.25,0,1,1-6,0A4.26,4.26,0,0,1,35.36,5906Zm-8,8a4.25,4.25,0,1,1-6,0A4.25,4.25,0,0,1,27.34,5914Z"/><path class="cls-3" d="M128.57,6053.33a28.34,28.34,0,1,0,0-40.09A28.34,28.34,0,0,0,128.57,6053.33Zm23.05-23.05a4.25,4.25,0,1,1-6,0A4.25,4.25,0,0,1,151.62,6030.28Z"/><path class="cls-3" d="M68.43,5993.19a28.34,28.34,0,1,0,0-40.08A28.35,28.35,0,0,0,68.43,5993.19Zm23-23a4.25,4.25,0,1,1-6,0A4.24,4.24,0,0,1,91.48,5970.14Z"/><path class="cls-3" d="M248.83,6053.33a28.35,28.35,0,1,0,0-40.09A28.35,28.35,0,0,0,248.83,6053.33Zm23-23.05a4.25,4.25,0,1,1-6,0A4.25,4.25,0,0,1,271.88,6030.28Z"/><path class="cls-3" d="M68.43,5872.93a28.35,28.35,0,1,0,0-40.09A28.35,28.35,0,0,0,68.43,5872.93Zm27.06-27.06a4.25,4.25,0,1,1-6,0A4.25,4.25,0,0,1,95.49,5845.87Zm-8,8a4.25,4.25,0,1,1-6,0A4.25,4.25,0,0,1,87.48,5853.89Z"/><path class="cls-3" d="M188.7,5993.19a28.34,28.34,0,1,0,0-40.08A28.35,28.35,0,0,0,188.7,5993.19Zm23.05-23a4.25,4.25,0,1,1-6,0A4.26,4.26,0,0,1,211.75,5970.14Z"/><path class="cls-3" d="M128.57,5933.06a28.34,28.34,0,1,0,0-40.09A28.34,28.34,0,0,0,128.57,5933.06ZM151.62,5910a4.25,4.25,0,1,1-6,0A4.25,4.25,0,0,1,151.62,5910Z"/><path class="cls-3" d="M248.83,6173.59a28.35,28.35,0,1,0,0-40.09A28.35,28.35,0,0,0,248.83,6173.59Zm23-23.05a4.25,4.25,0,1,1-6,0A4.25,4.25,0,0,1,271.88,6150.54Z"/><path class="cls-3" d="M309,6113.46a28.35,28.35,0,1,0,0-40.09A28.35,28.35,0,0,0,309,6113.46ZM332,6090.41a4.25,4.25,0,1,1-6,0A4.25,4.25,0,0,1,332,6090.41Z"/><path class="cls-3" d="M2391.7,3589.16a28.35,28.35,0,1,0,28.35,28.34A28.34,28.34,0,0,0,2391.7,3589.16Zm0,32.59a4.25,4.25,0,1,1,4.25-4.25A4.25,4.25,0,0,1,2391.7,3621.75Z"/><path class="cls-3" d="M2646.82,3589.16a28.35,28.35,0,1,0,28.35,28.34A28.34,28.34,0,0,0,2646.82,3589.16Zm0,38.26a4.25,4.25,0,1,1,4.25-4.25A4.25,4.25,0,0,1,2646.82,3627.42Zm0-11.33a4.26,4.26,0,1,1,4.25-4.26A4.25,4.25,0,0,1,2646.82,3616.09Z"/><path class="cls-3" d="M2476.74,3589.16a28.35,28.35,0,1,0,28.35,28.34A28.35,28.35,0,0,0,2476.74,3589.16Zm0,32.59a4.25,4.25,0,1,1,4.25-4.25A4.25,4.25,0,0,1,2476.74,3621.75Z"/><path class="cls-3" d="M2561.78,3589.16a28.35,28.35,0,1,0,28.35,28.34A28.35,28.35,0,0,0,2561.78,3589.16Zm0,32.59a4.25,4.25,0,1,1,4.25-4.25A4.25,4.25,0,0,1,2561.78,3621.75Z"/><path class="cls-3" d="M2391.7,3674.2a28.35,28.35,0,1,0,28.35,28.34A28.34,28.34,0,0,0,2391.7,3674.2Zm0,32.59a4.25,4.25,0,1,1,4.25-4.25A4.25,4.25,0,0,1,2391.7,3706.79Z"/><path class="cls-3" d="M2646.82,3674.2a28.35,28.35,0,1,0,28.35,28.34A28.34,28.34,0,0,0,2646.82,3674.2Zm0,38.26a4.25,4.25,0,1,1,4.25-4.25A4.25,4.25,0,0,1,2646.82,3712.46Zm0-11.34a4.25,4.25,0,1,1,4.25-4.25A4.25,4.25,0,0,1,2646.82,3701.12Z"/><path class="cls-3" d="M2476.74,3674.2a28.35,28.35,0,1,0,28.35,28.34A28.35,28.35,0,0,0,2476.74,3674.2Zm0,32.59a4.25,4.25,0,1,1,4.25-4.25A4.25,4.25,0,0,1,2476.74,3706.79Z"/><path class="cls-3" d="M2561.78,3674.2a28.35,28.35,0,1,0,28.35,28.34A28.35,28.35,0,0,0,2561.78,3674.2Zm0,32.59a4.25,4.25,0,1,1,4.25-4.25A4.25,4.25,0,0,1,2561.78,3706.79Z"/><line class="cls-4" x1="2519.97" y1="2089.42" x2="2519.97" y2="2514.61"/><line class="cls-4" x1="1110.96" y1="3660.02" x2="1374.57" y2="3660.02"/><line class="cls-4" x1="4311.81" y1="3660.02" x2="3665.38" y2="3660.02"/><line class="cls-4" x1="2519.97" y1="4805.43" x2="2519.97" y2="6046.54"/><line class="cls-4" x1="1474.61" y1="2614.65" x2="1710.05" y2="2850.1"/><line class="cls-4" x1="3676.38" y1="2503.62" x2="3329.9" y2="2850.1"/><line class="cls-4" x1="3329.9" y1="4469.95" x2="3917.3" y2="5057.35"/><line class="cls-4" x1="1710.05" y1="4469.95" x2="505.3" y2="5674.69"/></g></g></svg>