<svg xmlns="http://www.w3.org/2000/svg" viewBox="0 0 307.73 307.73"><defs><style>.cls-1,.cls-2{fill:#fff;}.cls-1{stroke:#fff;stroke-miterlimit:10;stroke-width:28.35px;}</style></defs><title>mars</title><g id="Layer_2" data-name="Layer 2"><g id="Design"><circle class="cls-1" cx="75.6" cy="232.13" r="61.43"/><path class="cls-2" d="M179.17,108.52a28.35,28.35,0,1,0-40.09,0A28.35,28.35,0,0,0,179.17,108.52ZM158,76.43a4.25,4.25,0,1,1,3,5.2A4.25,4.25,0,0,1,158,76.43Zm8,10.21a4.25,4.25,0,1,1,5.21,3A4.24,4.24,0,0,1,166,86.64ZM148.1,77.45a4.25,4.25,0,1,1,0,6A4.25,4.25,0,0,1,148.1,77.45Zm16,16a4.25,4.25,0,1,1,0,6A4.26,4.26,0,0,1,164.13,93.49Zm-20.07-1a4.25,4.25,0,1,1,5.21,3A4.25,4.25,0,0,1,144.06,92.51Zm8,5.82a4.25,4.25,0,1,1,3,5.21A4.26,4.26,0,0,1,152.08,98.33Z"/><path class="cls-2" d="M299.43,108.52a28.35,28.35,0,1,0-40.09,0A28.35,28.35,0,0,0,299.43,108.52Zm-15.79-5.87a4.25,4.25,0,1,1-4.25-4.25A4.25,4.25,0,0,1,283.64,102.65Zm8.78-27.2a4.25,4.25,0,1,1-6,0A4.25,4.25,0,0,1,292.42,75.45Zm-17.28-1.14a4.25,4.25,0,1,1,4.25,4.25A4.25,4.25,0,0,1,275.14,74.31Zm14.17,14.17a4.25,4.25,0,1,1,4.25,4.25A4.25,4.25,0,0,1,289.31,88.48Zm-22.95-13a4.25,4.25,0,1,1,0,6A4.25,4.25,0,0,1,266.36,75.45Zm20,20a4.26,4.26,0,1,1,0,6A4.26,4.26,0,0,1,286.4,95.49Zm-25.44-7a4.26,4.26,0,1,1,4.25,4.25A4.25,4.25,0,0,1,261,88.48Zm5.4,7a4.25,4.25,0,1,1,0,6A4.25,4.25,0,0,1,266.36,95.49Z"/><path class="cls-2" d="M239.3,48.39a28.35,28.35,0,1,0-40.09,0A28.35,28.35,0,0,0,239.3,48.39Zm-15.79-5.87a4.26,4.26,0,1,1-4.25-4.25A4.25,4.25,0,0,1,223.51,42.52Zm8.77-27.2a4.25,4.25,0,1,1-6,0A4.25,4.25,0,0,1,232.28,15.32ZM215,14.17a4.26,4.26,0,1,1,4.26,4.26A4.25,4.25,0,0,1,215,14.17Zm14.18,14.18a4.25,4.25,0,1,1,4.25,4.25A4.25,4.25,0,0,1,229.18,28.35Zm-23-13a4.25,4.25,0,1,1,0,6A4.25,4.25,0,0,1,206.23,15.32Zm20,20a4.25,4.25,0,1,1,0,6A4.25,4.25,0,0,1,226.27,35.36Zm-25.44-7a4.25,4.25,0,1,1,4.25,4.25A4.25,4.25,0,0,1,200.83,28.35Zm5.4,7a4.25,4.25,0,1,1,0,6A4.25,4.25,0,0,1,206.23,35.36Z"/></g></g></svg>