<svg xmlns="http://www.w3.org/2000/svg" xmlns:xlink="http://www.w3.org/1999/xlink" viewBox="0 0 3805.25 515.53"><defs><style>.cls-1{fill:none;}.cls-2{clip-path:url(#clip-path);}.cls-3{fill:#fff;}.cls-4{clip-path:url(#clip-path-3);}.cls-5{clip-path:url(#clip-path-5);}.cls-6{clip-path:url(#clip-path-7);}.cls-7{clip-path:url(#clip-path-9);}.cls-8{clip-path:url(#clip-path-11);}.cls-9{clip-path:url(#clip-path-13);}</style><clipPath id="clip-path" transform="translate(0 0)"><rect class="cls-1" x="38.07" width="283.46" height="283.46"/></clipPath><clipPath id="clip-path-3" transform="translate(0 0)"><rect class="cls-1" x="605" width="283.46" height="283.46"/></clipPath><clipPath id="clip-path-5" transform="translate(0 0)"><rect class="cls-1" x="1171.92" width="283.46" height="283.46"/></clipPath><clipPath id="clip-path-7" transform="translate(0 0)"><rect class="cls-1" x="1738.85" width="283.46" height="283.46"/></clipPath><clipPath id="clip-path-9" transform="translate(0 0)"><rect class="cls-1" x="2305.78" width="283.46" height="283.47"/></clipPath><clipPath id="clip-path-11" transform="translate(0 0)"><rect class="cls-1" x="2872.71" width="283.46" height="283.47"/></clipPath><clipPath id="clip-path-13" transform="translate(0 0)"><rect class="cls-1" x="3439.64" width="283.46" height="283.47"/></clipPath></defs><title>atoms</title><g id="Layer_2" data-name="Layer 2"><g id="Design"><g id="hydrogen"><g class="cls-2"><g class="cls-2"><path class="cls-3" d="M179.8,0A141.74,141.74,0,1,0,321.53,141.73,141.73,141.73,0,0,0,179.8,0m0,163a21.26,21.26,0,1,1,21.26-21.26A21.26,21.26,0,0,1,179.8,163" transform="translate(0 0)"/></g></g></g><g id="helium"><g class="cls-4"><g class="cls-4"><path class="cls-3" d="M746.73,0A141.74,141.74,0,1,0,888.46,141.73,141.73,141.73,0,0,0,746.73,0m0,191.34A21.26,21.26,0,1,1,768,170.08a21.26,21.26,0,0,1-21.26,21.26m0-56.69A21.26,21.26,0,1,1,768,113.39a21.26,21.26,0,0,1-21.26,21.26" transform="translate(0 0)"/></g></g></g><g id="carbon"><g class="cls-5"><g class="cls-5"><path class="cls-3" d="M1313.66,0a141.73,141.73,0,1,0,141.73,141.73A141.74,141.74,0,0,0,1313.66,0m-38.47,188.49a21.26,21.26,0,1,1,7.78-29,21.26,21.26,0,0,1-7.78,29M1283,124a21.26,21.26,0,1,1-7.78-29,21.26,21.26,0,0,1,7.78,29m30.69,95.67a21.26,21.26,0,1,1,21.26-21.26,21.26,21.26,0,0,1-21.26,21.26m0-113.39A21.26,21.26,0,1,1,1334.92,85a21.26,21.26,0,0,1-21.26,21.26m67.51,74.41a21.26,21.26,0,1,1-7.79-29,21.27,21.27,0,0,1,7.79,29m-7.79-48.91a21.26,21.26,0,1,1,7.79-29,21.26,21.26,0,0,1-7.79,29" transform="translate(0 0)"/></g></g></g><g id="nitrogen"><g class="cls-6"><g class="cls-6"><path class="cls-3" d="M1880.59,0a141.73,141.73,0,1,0,141.73,141.73A141.74,141.74,0,0,0,1880.59,0m-38.47,188.49a21.26,21.26,0,1,1,7.78-29,21.26,21.26,0,0,1-7.78,29M1849.9,124a21.26,21.26,0,1,1-7.78-29,21.26,21.26,0,0,1,7.78,29m30.69,95.67a21.26,21.26,0,1,1,21.26-21.26,21.26,21.26,0,0,1-21.26,21.26m0-56.7a21.26,21.26,0,1,1,21.26-21.26A21.26,21.26,0,0,1,1880.59,163m0-56.69A21.26,21.26,0,1,1,1901.85,85a21.26,21.26,0,0,1-21.26,21.26m67.5,74.41a21.26,21.26,0,1,1-7.78-29,21.26,21.26,0,0,1,7.78,29m-7.78-48.91a21.26,21.26,0,1,1,7.78-29,21.26,21.26,0,0,1-7.78,29" transform="translate(0 0)"/></g></g></g><g id="oxygen"><g class="cls-7"><g class="cls-7"><path class="cls-3" d="M2447.51,0a141.74,141.74,0,1,0,141.74,141.73A141.74,141.74,0,0,0,2447.51,0m35.08,76.59a21.26,21.26,0,1,1,0,30.07,21.27,21.27,0,0,1,0-30.07m-127.2,65.14A21.26,21.26,0,1,1,2376.65,163a21.26,21.26,0,0,1-21.26-21.26m57.05,65.15a21.26,21.26,0,1,1,0-30.07,21.27,21.27,0,0,1,0,30.07m0-100.22a21.26,21.26,0,1,1,0-30.07,21.27,21.27,0,0,1,0,30.07m35.07,127.2a21.26,21.26,0,1,1,21.27-21.26,21.26,21.26,0,0,1-21.27,21.26m0-141.73a21.26,21.26,0,1,1,21.27-21.26,21.26,21.26,0,0,1-21.27,21.26m65.15,114.75a21.26,21.26,0,1,1,0-30.07,21.27,21.27,0,0,1,0,30.07m5.72-43.89a21.26,21.26,0,1,1,21.26-21.26A21.26,21.26,0,0,1,2518.38,163" transform="translate(0 0)"/></g></g></g><g id="sodium"><g class="cls-8"><g class="cls-8"><path class="cls-3" d="M3014.44,0a141.74,141.74,0,1,0,141.74,141.73A141.74,141.74,0,0,0,3014.44,0M3045,46.65a21.26,21.26,0,1,1,7.78,29.05A21.26,21.26,0,0,1,3045,46.65m-90.3,105a21.26,21.26,0,1,1-7.78,29,21.26,21.26,0,0,1,7.78-29m-7.78-48.91a21.26,21.26,0,1,1,7.78,29,21.25,21.25,0,0,1-7.78-29m37.39,134.05a21.26,21.26,0,1,1-7.79-29,21.26,21.26,0,0,1,7.79,29M2976.54,75.7a21.26,21.26,0,1,1,7.79-29.05,21.26,21.26,0,0,1-7.79,29.05m37.9,144a21.26,21.26,0,1,1,21.26-21.26,21.26,21.26,0,0,1-21.26,21.26m0-56.7a21.26,21.26,0,1,1,21.26-21.26A21.26,21.26,0,0,1,3014.44,163m0-56.69A21.26,21.26,0,1,1,3035.7,85a21.26,21.26,0,0,1-21.26,21.26m59.62,138.29a21.26,21.26,0,1,1,7.78-29,21.25,21.25,0,0,1-7.78,29m7.89-63.88a21.26,21.26,0,1,1-7.78-29,21.26,21.26,0,0,1,7.78,29m-7.78-48.91a21.26,21.26,0,1,1,7.78-29,21.26,21.26,0,0,1-7.78,29" transform="translate(0 0)"/></g></g></g><g id="phosphorus"><g class="cls-9"><g class="cls-9"><path class="cls-3" d="M3581.37,0a141.74,141.74,0,1,0,141.74,141.73A141.74,141.74,0,0,0,3581.37,0m95.16,95a21.26,21.26,0,1,1-7.78,29,21.26,21.26,0,0,1,7.78-29M3612,46.65a21.26,21.26,0,1,1,7.78,29.05A21.27,21.27,0,0,1,3612,46.65M3486.21,188.49a21.26,21.26,0,1,1,7.78-29,21.26,21.26,0,0,1-7.78,29M3494,124a21.26,21.26,0,1,1-7.78-29,21.26,21.26,0,0,1,7.78,29m27.66,27.65a21.26,21.26,0,1,1-7.79,29,21.26,21.26,0,0,1,7.79-29m-7.79-48.91a21.26,21.26,0,1,1,7.79,29,21.26,21.26,0,0,1-7.79-29m37.4,134.05a21.26,21.26,0,1,1-7.79-29,21.27,21.27,0,0,1,7.79,29M3543.47,75.7a21.26,21.26,0,1,1,7.79-29.05,21.26,21.26,0,0,1-7.79,29.05m37.9,144a21.26,21.26,0,1,1,21.26-21.26,21.26,21.26,0,0,1-21.26,21.26m0-56.7a21.26,21.26,0,1,1,21.26-21.26A21.26,21.26,0,0,1,3581.37,163m0-56.69A21.26,21.26,0,1,1,3602.63,85a21.26,21.26,0,0,1-21.26,21.26M3641,244.59a21.26,21.26,0,1,1,7.78-29,21.26,21.26,0,0,1-7.78,29m7.89-63.88a21.26,21.26,0,1,1-7.78-29,21.26,21.26,0,0,1,7.78,29m-7.78-48.91a21.26,21.26,0,1,1,7.78-29,21.26,21.26,0,0,1-7.78,29m64.48,48.91a21.26,21.26,0,1,1-7.79-29,21.27,21.27,0,0,1,7.79,29" transform="translate(0 0)"/></g></g></g><path class="cls-3" d="M1,418.09a3.49,3.49,0,0,1-1-2.56V366.17a3.63,3.63,0,0,1,1-2.6,3.41,3.41,0,0,1,2.56-1.08,3.55,3.55,0,0,1,2.6,1.08,3.55,3.55,0,0,1,1.08,2.6v21.28H37.6V366.17a3.63,3.63,0,0,1,1-2.6,3.41,3.41,0,0,1,2.56-1.08,3.69,3.69,0,0,1,3.68,3.68v49.36a3.41,3.41,0,0,1-1.08,2.56,3.63,3.63,0,0,1-2.6,1,3.55,3.55,0,0,1-3.6-3.6V394.25H7.28v21.28a3.41,3.41,0,0,1-1.08,2.56,3.63,3.63,0,0,1-2.6,1A3.49,3.49,0,0,1,1,418.09Z" transform="translate(0 0)"/><path class="cls-3" d="M64.92,436.49a3.44,3.44,0,0,1-1-2.48,3.62,3.62,0,0,1,.24-1.28l5.2-13.36-15-36.64a4.15,4.15,0,0,1-.32-1.52,3.63,3.63,0,0,1,1-2.6,3.41,3.41,0,0,1,2.56-1.08,3.45,3.45,0,0,1,2,.64,3.7,3.7,0,0,1,1.32,1.6l12.32,30.56,12.56-30.4a3.49,3.49,0,0,1,3.36-2.4,3.41,3.41,0,0,1,2.56,1.08,3.63,3.63,0,0,1,1,2.6,3.85,3.85,0,0,1-.24,1.36L70.72,435.05a3.61,3.61,0,0,1-3.36,2.48A3.27,3.27,0,0,1,64.92,436.49Z" transform="translate(0 0)"/><path class="cls-3" d="M108.12,417a19.09,19.09,0,0,1-7.2-7.36,24.59,24.59,0,0,1,0-22.64,19.09,19.09,0,0,1,7.2-7.36,18.75,18.75,0,0,1,9.4-2.52,18.39,18.39,0,0,1,13.68,6.08v-19.6a3.51,3.51,0,0,1,1.08-2.64,3.63,3.63,0,0,1,2.6-1,3.41,3.41,0,0,1,2.56,1.08,3.63,3.63,0,0,1,1,2.6v51.92a3.55,3.55,0,0,1-3.6,3.6,3.63,3.63,0,0,1-2.6-1,3.41,3.41,0,0,1-1.08-2.56v-2.08a18.39,18.39,0,0,1-13.68,6.08A18.75,18.75,0,0,1,108.12,417Zm17.36-5.92a19.72,19.72,0,0,0,5.72-4.36v-16.8a19.9,19.9,0,0,0-5.72-4.36,15.16,15.16,0,0,0-6.92-1.64,12.59,12.59,0,0,0-9.52,3.76q-3.6,3.76-3.6,10.64T109,409a12.55,12.55,0,0,0,9.52,3.76A15,15,0,0,0,125.48,411.09Z" transform="translate(0 0)"/><path class="cls-3" d="M152.16,418.09a3.49,3.49,0,0,1-1-2.56V381.21a3.63,3.63,0,0,1,1-2.6,3.41,3.41,0,0,1,2.56-1.08,3.69,3.69,0,0,1,3.68,3.68v3.44q5.59-7.51,12.56-7.52h.4a3.37,3.37,0,0,1,2.52,1,3.54,3.54,0,0,1,1,2.56,3.24,3.24,0,0,1-1,2.48,3.73,3.73,0,0,1-2.64,1h-.4a13.67,13.67,0,0,0-7,1.88,16.18,16.18,0,0,0-5.36,5.16v24.32a3.41,3.41,0,0,1-1.08,2.56,3.63,3.63,0,0,1-2.6,1A3.49,3.49,0,0,1,152.16,418.09Z" transform="translate(0 0)"/><path class="cls-3" d="M187.76,416.89a17.94,17.94,0,0,1-7.16-7.48,25.62,25.62,0,0,1,0-22.16,17.94,17.94,0,0,1,7.16-7.48,23.25,23.25,0,0,1,21.52,0,18.22,18.22,0,0,1,7.2,7.48,25.26,25.26,0,0,1,0,22.16,18.22,18.22,0,0,1-7.2,7.48,23.25,23.25,0,0,1-21.52,0Zm17.08-5.52a12.19,12.19,0,0,0,5-4.8,18.47,18.47,0,0,0,0-16.56,12,12,0,0,0-5-4.76,14,14,0,0,0-6.28-1.48,14.14,14.14,0,0,0-6.36,1.48,11.7,11.7,0,0,0-4.92,4.76,18.81,18.81,0,0,0,0,16.56,11.93,11.93,0,0,0,4.92,4.8,13.92,13.92,0,0,0,6.36,1.52A13.75,13.75,0,0,0,204.84,411.37Z" transform="translate(0 0)"/><path class="cls-3" d="M238.88,436.73a30.8,30.8,0,0,1-7.76-3,3,3,0,0,1-1.44-2.8,3.3,3.3,0,0,1,.92-2.28,3,3,0,0,1,2.28-1,4,4,0,0,1,1.44.32,29,29,0,0,0,13.2,3q12.24,0,12.24-13v-5.36a18.08,18.08,0,0,1-13.68,6.08,19.3,19.3,0,0,1-16.48-9.4,24,24,0,0,1,0-22.8,19,19,0,0,1,7.32-7,19.31,19.31,0,0,1,9.16-2.36,18.08,18.08,0,0,1,13.68,6.08v-2a3.63,3.63,0,0,1,1-2.6,3.4,3.4,0,0,1,2.56-1.08,3.69,3.69,0,0,1,3.68,3.68V417q0,10.08-4.88,15.52t-13.92,5.44A37.91,37.91,0,0,1,238.88,436.73Zm15.36-26.24a23.86,23.86,0,0,0,5.52-4.32V389.69a24.13,24.13,0,0,0-5.52-4.32,13.4,13.4,0,0,0-6.64-1.6,13.56,13.56,0,0,0-9.8,3.64q-3.8,3.64-3.8,10.52t3.8,10.52a13.56,13.56,0,0,0,9.8,3.64A13.4,13.4,0,0,0,254.24,410.49Z" transform="translate(0 0)"/><path class="cls-3" d="M282.68,414q-5.49-5.57-5.48-15.64a26,26,0,0,1,2.08-10.48,17.82,17.82,0,0,1,6.4-7.76,18.39,18.39,0,0,1,10.64-3,18.63,18.63,0,0,1,10.24,2.76,17.87,17.87,0,0,1,6.56,7.36,22.7,22.7,0,0,1,2.24,10,3.49,3.49,0,0,1-3.68,3.6H284.56a13.12,13.12,0,0,0,4.16,8.72q3.51,3.12,9.84,3.12a22.44,22.44,0,0,0,10.8-2.48,3.33,3.33,0,0,1,3.68.56,2.91,2.91,0,0,1,1,2.24,3.47,3.47,0,0,1-2.08,3,25,25,0,0,1-14,3.52Q288.16,419.53,282.68,414Zm25.48-19a12.83,12.83,0,0,0-2-6.56,11,11,0,0,0-4.44-3.88,12.2,12.2,0,0,0-10.72,0,10.74,10.74,0,0,0-4.4,3.88,13,13,0,0,0-2,6.56Z" transform="translate(0 0)"/><path class="cls-3" d="M326,418.09a3.45,3.45,0,0,1-1-2.56V381.21a3.59,3.59,0,0,1,1-2.6,3.4,3.4,0,0,1,2.56-1.08,3.69,3.69,0,0,1,3.68,3.68v3.28a26.34,26.34,0,0,1,6.56-5.36,16.58,16.58,0,0,1,8.32-2,13.81,13.81,0,0,1,7.64,2.08,13.57,13.57,0,0,1,5,5.68,18.23,18.23,0,0,1,1.72,7.92v22.72a3.41,3.41,0,0,1-1.08,2.56,3.63,3.63,0,0,1-2.6,1,3.55,3.55,0,0,1-3.6-3.6V393.61q0-9.76-8.8-9.76a12.68,12.68,0,0,0-7.16,2.08,25.93,25.93,0,0,0-6,5.6v24a3.41,3.41,0,0,1-1.08,2.56,3.63,3.63,0,0,1-2.6,1A3.48,3.48,0,0,1,326,418.09Z" transform="translate(0 0)"/><path class="cls-3" d="M158.4,514.09a3.49,3.49,0,0,1-1-2.56V462.17a3.63,3.63,0,0,1,1-2.6,3.41,3.41,0,0,1,2.56-1.08,3.69,3.69,0,0,1,3.68,3.68v21.28H195V462.17a3.63,3.63,0,0,1,1-2.6,3.41,3.41,0,0,1,2.56-1.08,3.69,3.69,0,0,1,3.68,3.68v49.36a3.41,3.41,0,0,1-1.08,2.56,3.63,3.63,0,0,1-2.6,1,3.55,3.55,0,0,1-3.6-3.6V490.25H164.64v21.28a3.41,3.41,0,0,1-1.08,2.56,3.63,3.63,0,0,1-2.6,1A3.49,3.49,0,0,1,158.4,514.09Z" transform="translate(0 0)"/><path class="cls-3" d="M622.25,418.09a3.49,3.49,0,0,1-1-2.56V366.17a3.63,3.63,0,0,1,1-2.6,3.41,3.41,0,0,1,2.56-1.08,3.69,3.69,0,0,1,3.68,3.68v21.28h30.32V366.17a3.63,3.63,0,0,1,1-2.6,3.41,3.41,0,0,1,2.56-1.08,3.69,3.69,0,0,1,3.68,3.68v49.36a3.41,3.41,0,0,1-1.08,2.56,3.63,3.63,0,0,1-2.6,1,3.55,3.55,0,0,1-3.6-3.6V394.25H628.49v21.28a3.41,3.41,0,0,1-1.08,2.56,3.63,3.63,0,0,1-2.6,1A3.49,3.49,0,0,1,622.25,418.09Z" transform="translate(0 0)"/><path class="cls-3" d="M682.05,414q-5.49-5.57-5.48-15.64a26,26,0,0,1,2.08-10.48,17.82,17.82,0,0,1,6.4-7.76,18.39,18.39,0,0,1,10.64-3,18.63,18.63,0,0,1,10.24,2.76,17.87,17.87,0,0,1,6.56,7.36,22.7,22.7,0,0,1,2.24,10,3.49,3.49,0,0,1-3.68,3.6H683.93a13.12,13.12,0,0,0,4.16,8.72q3.51,3.12,9.84,3.12a22.44,22.44,0,0,0,10.8-2.48,3.33,3.33,0,0,1,3.68.56,2.91,2.91,0,0,1,1,2.24,3.47,3.47,0,0,1-2.08,3,25,25,0,0,1-14,3.52Q687.53,419.53,682.05,414Zm25.48-19a12.83,12.83,0,0,0-2-6.56,11,11,0,0,0-4.44-3.88,12.2,12.2,0,0,0-10.72,0,10.74,10.74,0,0,0-4.4,3.88,13,13,0,0,0-2,6.56Z" transform="translate(0 0)"/><path class="cls-3" d="M725.37,418.09a3.45,3.45,0,0,1-1-2.56V363.61a3.59,3.59,0,0,1,1-2.6,3.41,3.41,0,0,1,2.56-1.08,3.56,3.56,0,0,1,3.68,3.68v51.92a3.41,3.41,0,0,1-1.08,2.56,3.63,3.63,0,0,1-2.6,1A3.49,3.49,0,0,1,725.37,418.09Z" transform="translate(0 0)"/><path class="cls-3" d="M744.81,368.41a3.93,3.93,0,0,1-1.2-2.88v-.32a4.1,4.1,0,0,1,4.08-4.08h.48a4.1,4.1,0,0,1,4.08,4.08v.32a4.1,4.1,0,0,1-4.08,4.08h-.48A3.93,3.93,0,0,1,744.81,368.41Zm.48,49.68a3.45,3.45,0,0,1-1-2.56V381.21a3.59,3.59,0,0,1,1-2.6,3.4,3.4,0,0,1,2.56-1.08,3.56,3.56,0,0,1,3.68,3.68v34.32a3.41,3.41,0,0,1-1.08,2.56,3.63,3.63,0,0,1-2.6,1A3.48,3.48,0,0,1,745.29,418.09Z" transform="translate(0 0)"/><path class="cls-3" d="M770.45,417.45a13.5,13.5,0,0,1-5-5.68,18.09,18.09,0,0,1-1.72-7.92V381.13a3.41,3.41,0,0,1,1.08-2.56,3.62,3.62,0,0,1,2.6-1,3.55,3.55,0,0,1,3.6,3.6v21.92q0,9.76,8.8,9.76a12.73,12.73,0,0,0,7.16-2.08,26.12,26.12,0,0,0,6-5.6v-24a3.41,3.41,0,0,1,1.08-2.56,3.62,3.62,0,0,1,2.6-1,3.55,3.55,0,0,1,3.6,3.6v34.32a3.63,3.63,0,0,1-1,2.6,3.43,3.43,0,0,1-2.56,1.08,3.69,3.69,0,0,1-3.68-3.68v-3.28a26.7,26.7,0,0,1-6.56,5.36,16.61,16.61,0,0,1-8.32,2A13.79,13.79,0,0,1,770.45,417.45Z" transform="translate(0 0)"/><path class="cls-3" d="M813.93,418.09a3.45,3.45,0,0,1-1-2.56V381.21a3.59,3.59,0,0,1,1-2.6,3.4,3.4,0,0,1,2.56-1.08,3.69,3.69,0,0,1,3.68,3.68v3.28a19.93,19.93,0,0,1,5.4-5.28,14.62,14.62,0,0,1,8.2-2.08,12.46,12.46,0,0,1,7.68,2.4,13.46,13.46,0,0,1,4.56,5.84,16.11,16.11,0,0,1,14.72-8.24,12.19,12.19,0,0,1,7.48,2.24,13.32,13.32,0,0,1,4.44,5.76,19.27,19.27,0,0,1,1.44,7.36v23a3.41,3.41,0,0,1-1.08,2.56,3.63,3.63,0,0,1-2.6,1,3.55,3.55,0,0,1-3.6-3.6v-21.6c0-3.47-.62-6-1.84-7.64s-3.34-2.44-6.32-2.44a10.57,10.57,0,0,0-6.76,2.12,20.34,20.34,0,0,0-4.76,5.56v24a3.41,3.41,0,0,1-1.08,2.56,3.63,3.63,0,0,1-2.6,1,3.55,3.55,0,0,1-3.6-3.6v-21.6c0-3.47-.62-6-1.84-7.64s-3.34-2.44-6.32-2.44a10.57,10.57,0,0,0-6.76,2.12,20.34,20.34,0,0,0-4.76,5.56v24a3.41,3.41,0,0,1-1.08,2.56,3.63,3.63,0,0,1-2.6,1A3.48,3.48,0,0,1,813.93,418.09Z" transform="translate(0 0)"/><path class="cls-3" d="M703.25,514.09a3.45,3.45,0,0,1-1-2.56V462.17a3.59,3.59,0,0,1,1-2.6,3.4,3.4,0,0,1,2.56-1.08,3.69,3.69,0,0,1,3.68,3.68v21.28h30.32V462.17a3.59,3.59,0,0,1,1-2.6,3.4,3.4,0,0,1,2.56-1.08,3.69,3.69,0,0,1,3.68,3.68v49.36a3.41,3.41,0,0,1-1.08,2.56,3.63,3.63,0,0,1-2.6,1,3.55,3.55,0,0,1-3.6-3.6V490.25H709.49v21.28a3.41,3.41,0,0,1-1.08,2.56,3.63,3.63,0,0,1-2.6,1A3.48,3.48,0,0,1,703.25,514.09Z" transform="translate(0 0)"/><path class="cls-3" d="M763.05,510q-5.49-5.57-5.48-15.64a26,26,0,0,1,2.08-10.48,17.82,17.82,0,0,1,6.4-7.76,18.39,18.39,0,0,1,10.64-3,18.63,18.63,0,0,1,10.24,2.76,17.87,17.87,0,0,1,6.56,7.36,22.7,22.7,0,0,1,2.24,10,3.49,3.49,0,0,1-3.68,3.6H764.93a13.12,13.12,0,0,0,4.16,8.72q3.51,3.12,9.84,3.12a22.44,22.44,0,0,0,10.8-2.48,3.33,3.33,0,0,1,3.68.56,2.91,2.91,0,0,1,1,2.24,3.47,3.47,0,0,1-2.08,3,25,25,0,0,1-14,3.52Q768.53,515.53,763.05,510Zm25.48-19a12.83,12.83,0,0,0-2-6.56,11,11,0,0,0-4.44-3.88,12.2,12.2,0,0,0-10.72,0,10.74,10.74,0,0,0-4.4,3.88,13,13,0,0,0-2,6.56Z" transform="translate(0 0)"/><path class="cls-3" d="M1192.18,416.05a25,25,0,0,1-10-10,33.72,33.72,0,0,1,0-30.48,25,25,0,0,1,10-10,29.43,29.43,0,0,1,14.36-3.48,34,34,0,0,1,9.72,1.28,41.33,41.33,0,0,1,8.52,3.68,3.22,3.22,0,0,1,1.76,3,3,3,0,0,1-.88,2.12,3.08,3.08,0,0,1-2.32.92,3.21,3.21,0,0,1-1.44-.32A36.47,36.47,0,0,0,1215,370a28.35,28.35,0,0,0-7.76-1,22.79,22.79,0,0,0-11.72,2.84,18.16,18.16,0,0,0-7.28,7.76,26.74,26.74,0,0,0,0,22.32,18.16,18.16,0,0,0,7.28,7.76,22.79,22.79,0,0,0,11.72,2.84,28.35,28.35,0,0,0,7.76-1,36.47,36.47,0,0,0,6.88-2.8,3.21,3.21,0,0,1,1.44-.32,3.13,3.13,0,0,1,2.32.88,2.93,2.93,0,0,1,.88,2.16,3.22,3.22,0,0,1-1.76,3,41.33,41.33,0,0,1-8.52,3.68,34,34,0,0,1-9.72,1.28A29.43,29.43,0,0,1,1192.18,416.05Z" transform="translate(0 0)"/><path class="cls-3" d="M1239.94,418.09a11.34,11.34,0,0,1-4.76-4.2,11.52,11.52,0,0,1-1.76-6.36,11.21,11.21,0,0,1,4.68-9.44q4.68-3.52,13.72-3.52h9.68v-.64q0-5.28-2.6-7.6c-1.74-1.55-4.44-2.32-8.12-2.32a27.22,27.22,0,0,0-5.4.48,45,45,0,0,0-5.24,1.44,4.39,4.39,0,0,1-1,.16,2.82,2.82,0,0,1-2.08-.88,2.93,2.93,0,0,1-.88-2.16,3.08,3.08,0,0,1,2.08-3,35.15,35.15,0,0,1,13.84-2.88,18.12,18.12,0,0,1,9.32,2.24,14.1,14.1,0,0,1,5.6,5.8,16.86,16.86,0,0,1,1.8,7.72v22.64a3.41,3.41,0,0,1-1.08,2.56,3.63,3.63,0,0,1-2.6,1,3.55,3.55,0,0,1-3.6-3.6v-2.08a20.11,20.11,0,0,1-15,6.08A14.86,14.86,0,0,1,1239.94,418.09Zm16-6.68a19.08,19.08,0,0,0,5.52-4.28v-6.72h-8.72q-12.09,0-12.08,6.32a5.92,5.92,0,0,0,2,4.64c1.3,1.17,3.48,1.76,6.52,1.76A14.45,14.45,0,0,0,1256,411.41Z" transform="translate(0 0)"/><path class="cls-3" d="M1282.06,418.09a3.45,3.45,0,0,1-1-2.56V381.21a3.59,3.59,0,0,1,1-2.6,3.4,3.4,0,0,1,2.56-1.08,3.69,3.69,0,0,1,3.68,3.68v3.44q5.6-7.51,12.56-7.52h.4a3.37,3.37,0,0,1,2.52,1,3.58,3.58,0,0,1,1,2.56,3.24,3.24,0,0,1-1,2.48,3.76,3.76,0,0,1-2.64,1h-.4a13.67,13.67,0,0,0-7,1.88,16.08,16.08,0,0,0-5.36,5.16v24.32a3.41,3.41,0,0,1-1.08,2.56,3.63,3.63,0,0,1-2.6,1A3.48,3.48,0,0,1,1282.06,418.09Z" transform="translate(0 0)"/><path class="cls-3" d="M1318.94,413.45v2.08a3.41,3.41,0,0,1-1.08,2.56,3.63,3.63,0,0,1-2.6,1,3.55,3.55,0,0,1-3.6-3.6V363.61a3.59,3.59,0,0,1,1-2.6,3.4,3.4,0,0,1,2.56-1.08,3.56,3.56,0,0,1,3.68,3.68v19.6a18.39,18.39,0,0,1,13.68-6.08,18.77,18.77,0,0,1,9.4,2.52,19.09,19.09,0,0,1,7.2,7.36,24.59,24.59,0,0,1,0,22.64A19.09,19.09,0,0,1,1342,417a18.77,18.77,0,0,1-9.4,2.52A18.39,18.39,0,0,1,1318.94,413.45ZM1341.1,409q3.6-3.77,3.6-10.64t-3.6-10.64a12.61,12.61,0,0,0-9.52-3.76,15.13,15.13,0,0,0-6.92,1.64,19.9,19.9,0,0,0-5.72,4.36v16.8a19.72,19.72,0,0,0,5.72,4.36,15,15,0,0,0,6.92,1.64A12.57,12.57,0,0,0,1341.1,409Z" transform="translate(0 0)"/><path class="cls-3" d="M1369.34,416.89a17.88,17.88,0,0,1-7.16-7.48,25.62,25.62,0,0,1,0-22.16,17.88,17.88,0,0,1,7.16-7.48,23.25,23.25,0,0,1,21.52,0,18.22,18.22,0,0,1,7.2,7.48,25.26,25.26,0,0,1,0,22.16,18.22,18.22,0,0,1-7.2,7.48,23.25,23.25,0,0,1-21.52,0Zm17.08-5.52a12.19,12.19,0,0,0,5-4.8,18.47,18.47,0,0,0,0-16.56,12,12,0,0,0-5-4.76,14,14,0,0,0-6.28-1.48,14.14,14.14,0,0,0-6.36,1.48,11.7,11.7,0,0,0-4.92,4.76,18.81,18.81,0,0,0,0,16.56,11.93,11.93,0,0,0,4.92,4.8,13.92,13.92,0,0,0,6.36,1.52A13.78,13.78,0,0,0,1386.42,411.37Z" transform="translate(0 0)"/><path class="cls-3" d="M1411.82,418.09a3.45,3.45,0,0,1-1-2.56V381.21a3.59,3.59,0,0,1,1-2.6,3.4,3.4,0,0,1,2.56-1.08,3.69,3.69,0,0,1,3.68,3.68v3.28a26.34,26.34,0,0,1,6.56-5.36,16.58,16.58,0,0,1,8.32-2,13.81,13.81,0,0,1,7.64,2.08,13.57,13.57,0,0,1,5,5.68,18.23,18.23,0,0,1,1.72,7.92v22.72a3.41,3.41,0,0,1-1.08,2.56,3.63,3.63,0,0,1-2.6,1,3.55,3.55,0,0,1-3.6-3.6V393.61q0-9.76-8.8-9.76a12.68,12.68,0,0,0-7.16,2.08,25.93,25.93,0,0,0-6,5.6v24a3.41,3.41,0,0,1-1.08,2.56,3.63,3.63,0,0,1-2.6,1A3.48,3.48,0,0,1,1411.82,418.09Z" transform="translate(0 0)"/><path class="cls-3" d="M1303.9,512.05a25,25,0,0,1-10-10,33.72,33.72,0,0,1,0-30.48,25,25,0,0,1,10-10,29.4,29.4,0,0,1,14.36-3.48,34.11,34.11,0,0,1,9.72,1.28,41.33,41.33,0,0,1,8.52,3.68,3.22,3.22,0,0,1,1.76,3,3,3,0,0,1-.88,2.12,3.08,3.08,0,0,1-2.32.92,3.18,3.18,0,0,1-1.44-.32,36.47,36.47,0,0,0-6.88-2.8,28.35,28.35,0,0,0-7.76-1,22.79,22.79,0,0,0-11.72,2.84,18.16,18.16,0,0,0-7.28,7.76,26.74,26.74,0,0,0,0,22.32,18.16,18.16,0,0,0,7.28,7.76,22.79,22.79,0,0,0,11.72,2.84,28.35,28.35,0,0,0,7.76-1,36.47,36.47,0,0,0,6.88-2.8,3.18,3.18,0,0,1,1.44-.32,3.13,3.13,0,0,1,2.32.88,3,3,0,0,1,.88,2.16,3.22,3.22,0,0,1-1.76,3,41.33,41.33,0,0,1-8.52,3.68,34.11,34.11,0,0,1-9.72,1.28A29.4,29.4,0,0,1,1303.9,512.05Z" transform="translate(0 0)"/><path class="cls-3" d="M1721.15,418.09a3.45,3.45,0,0,1-1-2.56V367.77a5.12,5.12,0,0,1,1.52-3.72,4.94,4.94,0,0,1,3.68-1.56h1a5.43,5.43,0,0,1,4.4,2.4l30.8,44.48v-43.2a3.59,3.59,0,0,1,1-2.6,3.4,3.4,0,0,1,2.56-1.08,3.69,3.69,0,0,1,3.68,3.68v47.76a4.94,4.94,0,0,1-1.56,3.68,5.16,5.16,0,0,1-3.72,1.52h-1a5,5,0,0,1-2.4-.6,5.49,5.49,0,0,1-1.84-1.56l-31-44.72v43.28a3.41,3.41,0,0,1-1.08,2.56,3.63,3.63,0,0,1-2.6,1A3.48,3.48,0,0,1,1721.15,418.09Z" transform="translate(0 0)"/><path class="cls-3" d="M1782.67,368.41a3.93,3.93,0,0,1-1.2-2.88v-.32a4.1,4.1,0,0,1,4.08-4.08h.48a4.1,4.1,0,0,1,4.08,4.08v.32a4.1,4.1,0,0,1-4.08,4.08h-.48A3.93,3.93,0,0,1,1782.67,368.41Zm.48,49.68a3.45,3.45,0,0,1-1-2.56V381.21a3.59,3.59,0,0,1,1-2.6,3.4,3.4,0,0,1,2.56-1.08,3.56,3.56,0,0,1,3.68,3.68v34.32a3.41,3.41,0,0,1-1.08,2.56,3.63,3.63,0,0,1-2.6,1A3.48,3.48,0,0,1,1783.15,418.09Z" transform="translate(0 0)"/><path class="cls-3" d="M1804.43,409v-24.8h-5.68a1.47,1.47,0,0,1-1.08-.44,1.43,1.43,0,0,1-.44-1.08,1.69,1.69,0,0,1,.72-1.36l10.88-10.64a2,2,0,0,1,1.36-.72,1.43,1.43,0,0,1,1.08.48,1.61,1.61,0,0,1,.44,1.12v6.4h9a3,3,0,0,1,3.12,3.12,3.1,3.1,0,0,1-.88,2.2,3,3,0,0,1-2.24.92h-9v24.16c0,2.08.49,3.4,1.48,4a7.42,7.42,0,0,0,3.72.84,11.14,11.14,0,0,0,3.2-.48l.68-.16a4.55,4.55,0,0,1,.92-.08,2.84,2.84,0,0,1,2,.84,2.74,2.74,0,0,1,.88,2,3,3,0,0,1-1.84,2.8,15.68,15.68,0,0,1-6.64,1.44Q1804.43,419.53,1804.43,409Z" transform="translate(0 0)"/><path class="cls-3" d="M1833.63,418.09a3.45,3.45,0,0,1-1-2.56V381.21a3.59,3.59,0,0,1,1-2.6,3.4,3.4,0,0,1,2.56-1.08,3.69,3.69,0,0,1,3.68,3.68v3.44q5.6-7.51,12.56-7.52h.4a3.37,3.37,0,0,1,2.52,1,3.58,3.58,0,0,1,1,2.56,3.24,3.24,0,0,1-1,2.48,3.76,3.76,0,0,1-2.64,1h-.4a13.67,13.67,0,0,0-7,1.88,16.08,16.08,0,0,0-5.36,5.16v24.32a3.41,3.41,0,0,1-1.08,2.56,3.63,3.63,0,0,1-2.6,1A3.48,3.48,0,0,1,1833.63,418.09Z" transform="translate(0 0)"/><path class="cls-3" d="M1869.22,416.89a17.92,17.92,0,0,1-7.15-7.48,25.53,25.53,0,0,1,0-22.16,17.92,17.92,0,0,1,7.15-7.48,23.27,23.27,0,0,1,21.53,0,18.22,18.22,0,0,1,7.2,7.48,25.35,25.35,0,0,1,0,22.16,18.22,18.22,0,0,1-7.2,7.48,23.27,23.27,0,0,1-21.53,0Zm17.08-5.52a12.13,12.13,0,0,0,5-4.8,18.47,18.47,0,0,0,0-16.56,11.9,11.9,0,0,0-5-4.76,14,14,0,0,0-6.27-1.48,14.14,14.14,0,0,0-6.36,1.48,11.7,11.7,0,0,0-4.92,4.76,18.81,18.81,0,0,0,0,16.56,11.93,11.93,0,0,0,4.92,4.8,13.92,13.92,0,0,0,6.36,1.52A13.74,13.74,0,0,0,1886.3,411.37Z" transform="translate(0 0)"/><path class="cls-3" d="M1920.34,436.73a31,31,0,0,1-7.76-3,3,3,0,0,1-1.44-2.8,3.3,3.3,0,0,1,.92-2.28,3,3,0,0,1,2.28-1,4,4,0,0,1,1.44.32,29.1,29.1,0,0,0,13.2,3q12.24,0,12.24-13v-5.36a18,18,0,0,1-13.68,6.08,19.3,19.3,0,0,1-16.48-9.4,24,24,0,0,1,0-22.8,19,19,0,0,1,7.32-7,19.34,19.34,0,0,1,9.16-2.36,18,18,0,0,1,13.68,6.08v-2a3.63,3.63,0,0,1,1-2.6,3.43,3.43,0,0,1,2.56-1.08,3.69,3.69,0,0,1,3.68,3.68V417q0,10.08-4.88,15.52t-13.92,5.44A37.91,37.91,0,0,1,1920.34,436.73Zm15.36-26.24a23.86,23.86,0,0,0,5.52-4.32V389.69a24.13,24.13,0,0,0-5.52-4.32,13.4,13.4,0,0,0-6.64-1.6,13.58,13.58,0,0,0-9.8,3.64q-3.79,3.64-3.8,10.52t3.8,10.52a13.58,13.58,0,0,0,9.8,3.64A13.4,13.4,0,0,0,1935.7,410.49Z" transform="translate(0 0)"/><path class="cls-3" d="M1964.14,414q-5.48-5.57-5.48-15.64a26.18,26.18,0,0,1,2.08-10.48,17.82,17.82,0,0,1,6.4-7.76,18.41,18.41,0,0,1,10.64-3,18.6,18.6,0,0,1,10.24,2.76,17.87,17.87,0,0,1,6.56,7.36,22.56,22.56,0,0,1,2.24,10,3.49,3.49,0,0,1-3.68,3.6H1966a13.21,13.21,0,0,0,4.16,8.72q3.52,3.12,9.84,3.12a22.44,22.44,0,0,0,10.8-2.48,3.24,3.24,0,0,1,1.44-.32,3.18,3.18,0,0,1,2.24.88,2.91,2.91,0,0,1,1,2.24,3.46,3.46,0,0,1-2.08,3,25,25,0,0,1-14,3.52Q1969.63,419.53,1964.14,414Zm25.48-19a12.83,12.83,0,0,0-2-6.56,11,11,0,0,0-4.44-3.88,12.2,12.2,0,0,0-10.72,0,10.81,10.81,0,0,0-4.4,3.88,13.1,13.1,0,0,0-2,6.56Z" transform="translate(0 0)"/><path class="cls-3" d="M2007.46,418.09a3.49,3.49,0,0,1-1-2.56V381.21a3.63,3.63,0,0,1,1-2.6,3.43,3.43,0,0,1,2.56-1.08,3.69,3.69,0,0,1,3.68,3.68v3.28a26.7,26.7,0,0,1,6.56-5.36,16.61,16.61,0,0,1,8.32-2,13.79,13.79,0,0,1,7.64,2.08,13.5,13.5,0,0,1,5,5.68,18.09,18.09,0,0,1,1.72,7.92v22.72a3.41,3.41,0,0,1-1.08,2.56,3.62,3.62,0,0,1-2.6,1,3.55,3.55,0,0,1-3.6-3.6V393.61q0-9.76-8.8-9.76a12.73,12.73,0,0,0-7.16,2.08,26.34,26.34,0,0,0-6,5.6v24a3.41,3.41,0,0,1-1.08,2.56,3.62,3.62,0,0,1-2.6,1A3.51,3.51,0,0,1,2007.46,418.09Z" transform="translate(0 0)"/><path class="cls-3" d="M1857.26,514.09a3.49,3.49,0,0,1-1-2.56V463.77a5.13,5.13,0,0,1,1.53-3.72,4.92,4.92,0,0,1,3.67-1.56h1a5.43,5.43,0,0,1,4.41,2.4l30.8,44.48v-43.2a3.59,3.59,0,0,1,1-2.6,3.39,3.39,0,0,1,2.55-1.08,3.69,3.69,0,0,1,3.69,3.68v47.76a5,5,0,0,1-1.57,3.68,5.15,5.15,0,0,1-3.71,1.52h-1a5,5,0,0,1-2.41-.6,5.69,5.69,0,0,1-1.84-1.56l-31-44.72v43.28a3.41,3.41,0,0,1-1.08,2.56,3.59,3.59,0,0,1-2.59,1A3.51,3.51,0,0,1,1857.26,514.09Z" transform="translate(0 0)"/><path class="cls-3" d="M2317.6,415.85a25.12,25.12,0,0,1-9.76-10.16,32.55,32.55,0,0,1,0-29.76,25.12,25.12,0,0,1,9.76-10.16,31.2,31.2,0,0,1,29.4,0,25.5,25.5,0,0,1,9.76,10.2,32.07,32.07,0,0,1,0,29.68,25.5,25.5,0,0,1-9.76,10.2,31.2,31.2,0,0,1-29.4,0Zm25.84-6a19,19,0,0,0,7.2-7.84,26.53,26.53,0,0,0,0-22.4,19,19,0,0,0-7.2-7.84,23,23,0,0,0-22.28,0,19,19,0,0,0-7.16,7.84,26.53,26.53,0,0,0,0,22.4,19,19,0,0,0,7.16,7.84,23,23,0,0,0,22.28,0Z" transform="translate(0 0)"/><path class="cls-3" d="M2368.76,418.13a3.78,3.78,0,0,1-.92-2.68,3.56,3.56,0,0,1,.8-2.24l12.4-14.64-12.4-15.12a3.7,3.7,0,0,1-.88-2.32,3.42,3.42,0,0,1,1-2.6,3.52,3.52,0,0,1,2.56-1,3.28,3.28,0,0,1,2.88,1.36l11.2,13.84,11.12-13.84a3.2,3.2,0,0,1,2.8-1.36,3.66,3.66,0,0,1,2.64,1,3.27,3.27,0,0,1,1,2.44,3.62,3.62,0,0,1-.8,2.24l-12.64,14.88,12.48,15a3.34,3.34,0,0,1,.88,2.32,3.78,3.78,0,0,1-1,2.6,3.45,3.45,0,0,1-2.72,1.08,3.27,3.27,0,0,1-2.8-1.44l-11.36-13.6-10.72,13.44a3.72,3.72,0,0,1-3.12,1.6A3.23,3.23,0,0,1,2368.76,418.13Z" transform="translate(0 0)"/><path class="cls-3" d="M2421.31,436.49a3.48,3.48,0,0,1-1-2.48,3.62,3.62,0,0,1,.24-1.28l5.2-13.36-15-36.64a4.15,4.15,0,0,1-.32-1.52,3.63,3.63,0,0,1,1-2.6,3.57,3.57,0,0,1,4.6-.44,3.56,3.56,0,0,1,1.32,1.6l12.32,30.56,12.56-30.4a3.51,3.51,0,0,1,3.36-2.4,3.4,3.4,0,0,1,2.56,1.08,3.59,3.59,0,0,1,1,2.6,3.85,3.85,0,0,1-.24,1.36l-21.84,52.48a3.59,3.59,0,0,1-3.36,2.48A3.27,3.27,0,0,1,2421.31,436.49Z" transform="translate(0 0)"/><path class="cls-3" d="M2466.71,436.73a30.71,30.71,0,0,1-7.75-3,3,3,0,0,1-1.45-2.8,3.3,3.3,0,0,1,.92-2.28,3,3,0,0,1,2.28-1,4.06,4.06,0,0,1,1.45.32,29,29,0,0,0,13.19,3q12.24,0,12.24-13v-5.36a18,18,0,0,1-13.67,6.08,19.24,19.24,0,0,1-9.17-2.36,19,19,0,0,1-7.32-7,24,24,0,0,1,0-22.8,19,19,0,0,1,7.32-7,19.35,19.35,0,0,1,9.17-2.36,18,18,0,0,1,13.67,6.08v-2a3.63,3.63,0,0,1,1-2.6,3.44,3.44,0,0,1,2.57-1.08,3.51,3.51,0,0,1,2.59,1.08,3.56,3.56,0,0,1,1.09,2.6V417q0,10.08-4.88,15.52t-13.92,5.44A37.93,37.93,0,0,1,2466.71,436.73Zm15.37-26.24a23.82,23.82,0,0,0,5.51-4.32V389.69a24.09,24.09,0,0,0-5.51-4.32,13.44,13.44,0,0,0-6.65-1.6,13.58,13.58,0,0,0-9.8,3.64q-3.8,3.64-3.8,10.52t3.8,10.52a13.58,13.58,0,0,0,9.8,3.64A13.44,13.44,0,0,0,2482.08,410.49Z" transform="translate(0 0)"/><path class="cls-3" d="M2510.51,414q-5.48-5.57-5.48-15.64a26.18,26.18,0,0,1,2.08-10.48,17.82,17.82,0,0,1,6.4-7.76,18.41,18.41,0,0,1,10.64-3,18.6,18.6,0,0,1,10.24,2.76,17.87,17.87,0,0,1,6.56,7.36,22.56,22.56,0,0,1,2.24,10,3.49,3.49,0,0,1-3.68,3.6h-27.12a13.21,13.21,0,0,0,4.16,8.72q3.52,3.12,9.84,3.12a22.44,22.44,0,0,0,10.8-2.48,3.24,3.24,0,0,1,1.44-.32,3.18,3.18,0,0,1,2.24.88,2.91,2.91,0,0,1,1,2.24,3.46,3.46,0,0,1-2.08,3,25,25,0,0,1-14,3.52Q2516,419.53,2510.51,414ZM2536,395a12.83,12.83,0,0,0-2-6.56,11,11,0,0,0-4.44-3.88,12.2,12.2,0,0,0-10.72,0,10.81,10.81,0,0,0-4.4,3.88,13.1,13.1,0,0,0-2,6.56Z" transform="translate(0 0)"/><path class="cls-3" d="M2553.83,418.09a3.49,3.49,0,0,1-1-2.56V381.21a3.63,3.63,0,0,1,1-2.6,3.43,3.43,0,0,1,2.56-1.08,3.69,3.69,0,0,1,3.68,3.68v3.28a26.7,26.7,0,0,1,6.56-5.36,16.62,16.62,0,0,1,8.33-2,13.78,13.78,0,0,1,7.63,2.08,13.5,13.5,0,0,1,5,5.68,18.09,18.09,0,0,1,1.72,7.92v22.72a3.38,3.38,0,0,1-1.08,2.56,3.62,3.62,0,0,1-2.6,1,3.55,3.55,0,0,1-3.6-3.6V393.61q0-9.76-8.8-9.76a12.73,12.73,0,0,0-7.16,2.08,26.34,26.34,0,0,0-6,5.6v24a3.41,3.41,0,0,1-1.08,2.56,3.62,3.62,0,0,1-2.6,1A3.51,3.51,0,0,1,2553.83,418.09Z" transform="translate(0 0)"/><path class="cls-3" d="M2432.79,511.85a25.16,25.16,0,0,1-9.75-10.16,32.55,32.55,0,0,1,0-29.76,25.16,25.16,0,0,1,9.75-10.16,31.22,31.22,0,0,1,29.41,0A25.56,25.56,0,0,1,2472,472a32.15,32.15,0,0,1,0,29.68,25.56,25.56,0,0,1-9.76,10.2,31.22,31.22,0,0,1-29.41,0Zm25.84-6a18.85,18.85,0,0,0,7.2-7.84,26.43,26.43,0,0,0,0-22.4,18.85,18.85,0,0,0-7.2-7.84,23,23,0,0,0-22.27,0,19,19,0,0,0-7.16,7.84,26.43,26.43,0,0,0,0,22.4,19,19,0,0,0,7.16,7.84,23,23,0,0,0,22.27,0Z" transform="translate(0 0)"/><path class="cls-3" d="M2875.53,415.69a3.6,3.6,0,0,1-1.61-1.32,3.39,3.39,0,0,1-.63-2,3.34,3.34,0,0,1,.92-2.36,3.08,3.08,0,0,1,2.36-1,3.69,3.69,0,0,1,1.51.32,38.27,38.27,0,0,0,15.76,3.28q14,0,14-9.2a5.1,5.1,0,0,0-1.8-4,13.24,13.24,0,0,0-4.43-2.52c-1.77-.61-4.27-1.34-7.53-2.2a95.55,95.55,0,0,1-10.47-3.24,18.36,18.36,0,0,1-6.89-4.68,11.78,11.78,0,0,1-2.88-8.32,15,15,0,0,1,2.41-8.28,16.47,16.47,0,0,1,7.08-5.92,26.32,26.32,0,0,1,11.24-2.2,45.56,45.56,0,0,1,15.92,2.64,3.11,3.11,0,0,1,2.23,3.2,3.49,3.49,0,0,1-.88,2.32,2.84,2.84,0,0,1-2.31,1,3.53,3.53,0,0,1-1.28-.32,39.17,39.17,0,0,0-12.88-2.16,19.64,19.64,0,0,0-10.29,2.4,7.49,7.49,0,0,0-3.95,6.72,6.19,6.19,0,0,0,1.87,4.68,13,13,0,0,0,4.72,2.8,74.67,74.67,0,0,0,7.73,2.12,82.42,82.42,0,0,1,10.2,3,16.84,16.84,0,0,1,6.64,4.72c1.84,2.14,2.75,5,2.75,8.64a13.46,13.46,0,0,1-2.55,8,16.77,16.77,0,0,1-7.2,5.56,27,27,0,0,1-10.72,2A47.43,47.43,0,0,1,2875.53,415.69Z" transform="translate(0 0)"/><path class="cls-3" d="M2932,416.89a17.92,17.92,0,0,1-7.15-7.48,25.62,25.62,0,0,1,0-22.16,17.92,17.92,0,0,1,7.15-7.48,23.27,23.27,0,0,1,21.53,0,18.22,18.22,0,0,1,7.2,7.48,25.26,25.26,0,0,1,0,22.16,18.22,18.22,0,0,1-7.2,7.48,23.27,23.27,0,0,1-21.53,0Zm17.08-5.52a12.13,12.13,0,0,0,5-4.8,18.47,18.47,0,0,0,0-16.56,12,12,0,0,0-5-4.76,14,14,0,0,0-6.27-1.48,14.14,14.14,0,0,0-6.36,1.48,11.76,11.76,0,0,0-4.92,4.76,18.81,18.81,0,0,0,0,16.56,11.93,11.93,0,0,0,4.92,4.8,13.8,13.8,0,0,0,6.36,1.52A13.62,13.62,0,0,0,2949.08,411.37Z" transform="translate(0 0)"/><path class="cls-3" d="M2980.92,417a19.09,19.09,0,0,1-7.2-7.36,24.59,24.59,0,0,1,0-22.64,19.09,19.09,0,0,1,7.2-7.36,18.77,18.77,0,0,1,9.4-2.52,18.39,18.39,0,0,1,13.68,6.08v-19.6a3.53,3.53,0,0,1,1.08-2.64,3.63,3.63,0,0,1,2.6-1,3.4,3.4,0,0,1,2.56,1.08,3.59,3.59,0,0,1,1,2.6v51.92a3.44,3.44,0,0,1-1,2.56,3.48,3.48,0,0,1-2.56,1,3.63,3.63,0,0,1-2.6-1,3.4,3.4,0,0,1-1.08-2.56v-2.08a18.39,18.39,0,0,1-13.68,6.08A18.77,18.77,0,0,1,2980.92,417Zm17.36-5.92a19.55,19.55,0,0,0,5.72-4.36v-16.8a19.9,19.9,0,0,0-5.72-4.36,15.13,15.13,0,0,0-6.92-1.64,12.61,12.61,0,0,0-9.52,3.76q-3.6,3.76-3.6,10.64t3.6,10.64a12.57,12.57,0,0,0,9.52,3.76A15,15,0,0,0,2998.28,411.09Z" transform="translate(0 0)"/><path class="cls-3" d="M3024.48,368.41a3.93,3.93,0,0,1-1.2-2.88v-.32a4.1,4.1,0,0,1,4.08-4.08h.48a4.1,4.1,0,0,1,4.08,4.08v.32a4.1,4.1,0,0,1-4.08,4.08h-.48A3.93,3.93,0,0,1,3024.48,368.41Zm.48,49.68a3.48,3.48,0,0,1-1-2.56V381.21a3.63,3.63,0,0,1,1-2.6,3.43,3.43,0,0,1,2.56-1.08,3.56,3.56,0,0,1,3.68,3.68v34.32a3.4,3.4,0,0,1-1.08,2.56,3.62,3.62,0,0,1-2.6,1A3.51,3.51,0,0,1,3025,418.09Z" transform="translate(0 0)"/><path class="cls-3" d="M3050.12,417.45a13.51,13.51,0,0,1-5-5.68,18.09,18.09,0,0,1-1.72-7.92V381.13a3.41,3.41,0,0,1,1.08-2.56,3.63,3.63,0,0,1,2.6-1,3.49,3.49,0,0,1,2.56,1,3.45,3.45,0,0,1,1,2.56v21.92q0,9.76,8.8,9.76a12.68,12.68,0,0,0,7.16-2.08,25.5,25.5,0,0,0,6-5.6v-24a3.41,3.41,0,0,1,1.08-2.56,3.63,3.63,0,0,1,2.6-1,3.49,3.49,0,0,1,2.56,1,3.45,3.45,0,0,1,1,2.56v34.32a3.59,3.59,0,0,1-1,2.6,3.41,3.41,0,0,1-2.56,1.08,3.69,3.69,0,0,1-3.68-3.68v-3.28a26.34,26.34,0,0,1-6.56,5.36,16.58,16.58,0,0,1-8.32,2A13.81,13.81,0,0,1,3050.12,417.45Z" transform="translate(0 0)"/><path class="cls-3" d="M3093.6,418.09a3.48,3.48,0,0,1-1-2.56V381.21a3.63,3.63,0,0,1,1-2.6,3.41,3.41,0,0,1,2.56-1.08,3.69,3.69,0,0,1,3.68,3.68v3.28a19.93,19.93,0,0,1,5.4-5.28,14.73,14.73,0,0,1,8.2-2.08,12.42,12.42,0,0,1,7.68,2.4,13.46,13.46,0,0,1,4.56,5.84,16.12,16.12,0,0,1,14.72-8.24,12.17,12.17,0,0,1,7.48,2.24,13.38,13.38,0,0,1,4.44,5.76,19.27,19.27,0,0,1,1.44,7.36v23a3.4,3.4,0,0,1-1.08,2.56,3.63,3.63,0,0,1-2.6,1,3.55,3.55,0,0,1-3.6-3.6v-21.6c0-3.47-.61-6-1.84-7.64s-3.33-2.44-6.32-2.44a10.59,10.59,0,0,0-6.76,2.12,20.66,20.66,0,0,0-4.76,5.56v24a3.4,3.4,0,0,1-1.08,2.56,3.63,3.63,0,0,1-2.6,1,3.55,3.55,0,0,1-3.6-3.6v-21.6c0-3.47-.61-6-1.84-7.64s-3.33-2.44-6.32-2.44a10.59,10.59,0,0,0-6.76,2.12,20.66,20.66,0,0,0-4.76,5.56v24a3.4,3.4,0,0,1-1.08,2.56,3.63,3.63,0,0,1-2.6,1A3.49,3.49,0,0,1,3093.6,418.09Z" transform="translate(0 0)"/><path class="cls-3" d="M2968.64,514.09a3.48,3.48,0,0,1-1-2.56V463.77a5.16,5.16,0,0,1,1.52-3.72,5,5,0,0,1,3.68-1.56h1a5.4,5.4,0,0,1,4.4,2.4l30.8,44.48v-43.2a3.63,3.63,0,0,1,1-2.6,3.43,3.43,0,0,1,2.56-1.08,3.69,3.69,0,0,1,3.68,3.68v47.76a4.94,4.94,0,0,1-1.56,3.68,5.12,5.12,0,0,1-3.72,1.52h-1a5,5,0,0,1-2.4-.6,5.59,5.59,0,0,1-1.84-1.56l-31-44.72v43.28a3.4,3.4,0,0,1-1.08,2.56,3.62,3.62,0,0,1-2.6,1A3.51,3.51,0,0,1,2968.64,514.09Z" transform="translate(0 0)"/><path class="cls-3" d="M3034.28,514.09a11.4,11.4,0,0,1-4.76-4.2,11.6,11.6,0,0,1-1.76-6.36,11.22,11.22,0,0,1,4.68-9.44q4.68-3.52,13.72-3.52h9.68v-.64c0-3.52-.86-6.05-2.6-7.6s-4.44-2.32-8.12-2.32a27.37,27.37,0,0,0-5.4.48,45.5,45.5,0,0,0-5.24,1.44,4.25,4.25,0,0,1-1,.16,2.84,2.84,0,0,1-2.08-.88,2.94,2.94,0,0,1-.88-2.16,3.1,3.1,0,0,1,2.08-3,35.22,35.22,0,0,1,13.84-2.88,18.09,18.09,0,0,1,9.32,2.24,14.1,14.1,0,0,1,5.6,5.8,16.89,16.89,0,0,1,1.8,7.72v22.64a3.4,3.4,0,0,1-1.08,2.56,3.62,3.62,0,0,1-2.6,1,3.55,3.55,0,0,1-3.6-3.6v-2.08a20.1,20.1,0,0,1-15,6.08A14.89,14.89,0,0,1,3034.28,514.09Zm16-6.68a18.82,18.82,0,0,0,5.52-4.28v-6.72h-8.72q-12.07,0-12.08,6.32a6,6,0,0,0,2,4.64c1.31,1.18,3.48,1.76,6.52,1.76A14.39,14.39,0,0,0,3050.32,507.41Z" transform="translate(0 0)"/><path class="cls-3" d="M3362.86,418.09a3.44,3.44,0,0,1-1-2.56v-49a3.59,3.59,0,0,1,1-2.6,3.4,3.4,0,0,1,2.56-1.08h18.24q7.59,0,12.4,2.56a15.88,15.88,0,0,1,6.88,6.56,19,19,0,0,1,0,17.28,15.77,15.77,0,0,1-6.88,6.56q-4.8,2.56-12.4,2.56H3369.1v17.12a3.4,3.4,0,0,1-1.08,2.56,3.63,3.63,0,0,1-2.6,1A3.48,3.48,0,0,1,3362.86,418.09Zm20.08-26.56q8.16,0,11.48-3.12a10.73,10.73,0,0,0,0-15.52q-3.33-3.12-11.48-3.12H3369.1v21.76Z" transform="translate(0 0)"/><path class="cls-3" d="M3414.7,418.09a3.44,3.44,0,0,1-1-2.56V363.61a3.59,3.59,0,0,1,1-2.6,3.4,3.4,0,0,1,2.56-1.08,3.69,3.69,0,0,1,3.68,3.68v20.88a26.34,26.34,0,0,1,6.56-5.36,16.58,16.58,0,0,1,8.32-2,13.9,13.9,0,0,1,7.64,2.08,13.57,13.57,0,0,1,5,5.68,18.23,18.23,0,0,1,1.72,7.92v22.72a3.4,3.4,0,0,1-1.08,2.56,3.63,3.63,0,0,1-2.6,1,3.48,3.48,0,0,1-2.56-1,3.44,3.44,0,0,1-1-2.56V393.61q0-9.75-8.8-9.76a12.76,12.76,0,0,0-7.16,2.08,25.93,25.93,0,0,0-6,5.6v24a3.4,3.4,0,0,1-1.08,2.56,3.63,3.63,0,0,1-2.6,1A3.48,3.48,0,0,1,3414.7,418.09Z" transform="translate(0 0)"/><path class="cls-3" d="M3469.58,416.89a17.88,17.88,0,0,1-7.16-7.48,25.62,25.62,0,0,1,0-22.16,17.88,17.88,0,0,1,7.16-7.48,23.25,23.25,0,0,1,21.52,0,18.22,18.22,0,0,1,7.2,7.48,25.26,25.26,0,0,1,0,22.16,18.22,18.22,0,0,1-7.2,7.48,23.25,23.25,0,0,1-21.52,0Zm17.08-5.52a12.19,12.19,0,0,0,5-4.8,18.47,18.47,0,0,0,0-16.56,12,12,0,0,0-5-4.76,14,14,0,0,0-6.28-1.48,14.14,14.14,0,0,0-6.36,1.48,11.76,11.76,0,0,0-4.92,4.76,18.81,18.81,0,0,0,0,16.56,11.93,11.93,0,0,0,4.92,4.8,13.8,13.8,0,0,0,6.36,1.52A13.66,13.66,0,0,0,3486.66,411.37Z" transform="translate(0 0)"/><path class="cls-3" d="M3509.65,415.93a3.07,3.07,0,0,1-1.36-2.64,3.25,3.25,0,0,1,.88-2.24,2.92,2.92,0,0,1,2.24-1,3.57,3.57,0,0,1,1.44.32,32.69,32.69,0,0,0,5.12,1.76,23.67,23.67,0,0,0,5.76.64q8.88,0,8.88-5.68a3,3,0,0,0-2-2.8,41.54,41.54,0,0,0-6.68-2.16,60,60,0,0,1-7.8-2.32,13.73,13.73,0,0,1-5.28-3.64,9.27,9.27,0,0,1-2.2-6.44,11.55,11.55,0,0,1,4-9.12q4-3.51,11.56-3.52a33.39,33.39,0,0,1,11.6,2,3,3,0,0,1,1.72,1.2,3.23,3.23,0,0,1,.6,1.84,3.11,3.11,0,0,1-.92,2.24,3,3,0,0,1-2.28,1,4.39,4.39,0,0,1-1-.16,30.63,30.63,0,0,0-9.12-1.44,12.5,12.5,0,0,0-6.76,1.56,4.67,4.67,0,0,0-2.44,4,3.7,3.7,0,0,0,2.24,3.52,31.86,31.86,0,0,0,7,2.16,67,67,0,0,1,7.68,2.36,12.72,12.72,0,0,1,5.08,3.64,9.84,9.84,0,0,1,2.12,6.64,10.54,10.54,0,0,1-4,8.48q-4,3.36-11.4,3.36A29.79,29.79,0,0,1,3509.65,415.93Z" transform="translate(0 0)"/><path class="cls-3" d="M3550.45,436.45a3.63,3.63,0,0,1-1-2.6V381.13a3.55,3.55,0,0,1,3.6-3.6,3.62,3.62,0,0,1,2.6,1,3.41,3.41,0,0,1,1.08,2.56v2.08a18.42,18.42,0,0,1,13.68-6.08,18.75,18.75,0,0,1,9.4,2.52A19.09,19.09,0,0,1,3587,387a24.59,24.59,0,0,1,0,22.64,19.09,19.09,0,0,1-7.2,7.36,18.75,18.75,0,0,1-9.4,2.52,18.42,18.42,0,0,1-13.68-6.08v20.4a3.54,3.54,0,0,1-1,2.64,3.58,3.58,0,0,1-2.64,1A3.43,3.43,0,0,1,3550.45,436.45Zm28.4-27.48q3.6-3.77,3.6-10.64t-3.6-10.64a12.59,12.59,0,0,0-9.52-3.76,15.16,15.16,0,0,0-6.92,1.64,20,20,0,0,0-5.72,4.36v16.8a19.68,19.68,0,0,0,5.72,4.36,15,15,0,0,0,6.92,1.64A12.55,12.55,0,0,0,3578.85,409Z" transform="translate(0 0)"/><path class="cls-3" d="M3600.93,418.09a3.48,3.48,0,0,1-1-2.56V363.61a3.63,3.63,0,0,1,1-2.6,3.43,3.43,0,0,1,2.56-1.08,3.69,3.69,0,0,1,3.68,3.68v20.88a26.7,26.7,0,0,1,6.56-5.36,16.61,16.61,0,0,1,8.32-2,13.87,13.87,0,0,1,7.64,2.08,13.5,13.5,0,0,1,5,5.68,18.09,18.09,0,0,1,1.72,7.92v22.72a3.4,3.4,0,0,1-1.08,2.56,3.62,3.62,0,0,1-2.6,1,3.55,3.55,0,0,1-3.6-3.6V393.61q0-9.75-8.8-9.76a12.81,12.81,0,0,0-7.16,2.08,26.34,26.34,0,0,0-6,5.6v24a3.4,3.4,0,0,1-1.08,2.56,3.62,3.62,0,0,1-2.6,1A3.51,3.51,0,0,1,3600.93,418.09Z" transform="translate(0 0)"/><path class="cls-3" d="M3655.81,416.89a17.94,17.94,0,0,1-7.16-7.48,25.62,25.62,0,0,1,0-22.16,17.94,17.94,0,0,1,7.16-7.48,21.5,21.5,0,0,1,10.8-2.64,21.27,21.27,0,0,1,10.72,2.64,18.1,18.1,0,0,1,7.2,7.48,25.26,25.26,0,0,1,0,22.16,18.1,18.1,0,0,1-7.2,7.48,21.27,21.27,0,0,1-10.72,2.64A21.5,21.5,0,0,1,3655.81,416.89Zm17.08-5.52a12.13,12.13,0,0,0,5-4.8,18.47,18.47,0,0,0,0-16.56,12,12,0,0,0-5-4.76,14,14,0,0,0-6.28-1.48,14.14,14.14,0,0,0-6.36,1.48,11.76,11.76,0,0,0-4.92,4.76,18.81,18.81,0,0,0,0,16.56,11.93,11.93,0,0,0,4.92,4.8,13.8,13.8,0,0,0,6.36,1.52A13.63,13.63,0,0,0,3672.89,411.37Z" transform="translate(0 0)"/><path class="cls-3" d="M3698.29,418.09a3.48,3.48,0,0,1-1-2.56V381.21a3.63,3.63,0,0,1,1-2.6,3.41,3.41,0,0,1,2.56-1.08,3.69,3.69,0,0,1,3.68,3.68v3.44q5.59-7.51,12.56-7.52h.4a3.37,3.37,0,0,1,2.52,1,3.55,3.55,0,0,1,1,2.56,3.24,3.24,0,0,1-1,2.48,3.73,3.73,0,0,1-2.64,1h-.4a13.67,13.67,0,0,0-7,1.88,16.28,16.28,0,0,0-5.36,5.16v24.32a3.4,3.4,0,0,1-1.08,2.56,3.63,3.63,0,0,1-2.6,1A3.49,3.49,0,0,1,3698.29,418.09Z" transform="translate(0 0)"/><path class="cls-3" d="M3734.17,417.45a13.51,13.51,0,0,1-5-5.68,18.09,18.09,0,0,1-1.72-7.92V381.13a3.41,3.41,0,0,1,1.08-2.56,3.63,3.63,0,0,1,2.6-1,3.55,3.55,0,0,1,3.6,3.6v21.92q0,9.76,8.8,9.76a12.7,12.7,0,0,0,7.16-2.08,25.7,25.7,0,0,0,6-5.6v-24a3.41,3.41,0,0,1,1.08-2.56,3.63,3.63,0,0,1,2.6-1,3.55,3.55,0,0,1,3.6,3.6v34.32a3.63,3.63,0,0,1-1,2.6,3.41,3.41,0,0,1-2.56,1.08,3.69,3.69,0,0,1-3.68-3.68v-3.28a26.52,26.52,0,0,1-6.56,5.36,16.61,16.61,0,0,1-8.32,2A13.81,13.81,0,0,1,3734.17,417.45Z" transform="translate(0 0)"/><path class="cls-3" d="M3775.25,415.93a3.05,3.05,0,0,1-1.36-2.64,3.2,3.2,0,0,1,.88-2.24,2.91,2.91,0,0,1,2.24-1,3.57,3.57,0,0,1,1.44.32,32.34,32.34,0,0,0,5.12,1.76,23.67,23.67,0,0,0,5.76.64q8.88,0,8.88-5.68a3,3,0,0,0-2-2.8,41.89,41.89,0,0,0-6.68-2.16,59,59,0,0,1-7.8-2.32,13.73,13.73,0,0,1-5.28-3.64,9.22,9.22,0,0,1-2.2-6.44,11.55,11.55,0,0,1,4-9.12q4-3.51,11.56-3.52a33.43,33.43,0,0,1,11.6,2,3,3,0,0,1,1.72,1.2,3.23,3.23,0,0,1,.6,1.84,3.16,3.16,0,0,1-.92,2.24,3,3,0,0,1-2.28,1,4.32,4.32,0,0,1-1-.16,30.63,30.63,0,0,0-9.12-1.44,12.5,12.5,0,0,0-6.76,1.56,4.65,4.65,0,0,0-2.44,4,3.7,3.7,0,0,0,2.24,3.52,31.5,31.5,0,0,0,7,2.16,67,67,0,0,1,7.68,2.36,12.79,12.79,0,0,1,5.08,3.64,9.89,9.89,0,0,1,2.12,6.64,10.57,10.57,0,0,1-4,8.48q-4,3.36-11.4,3.36A29.76,29.76,0,0,1,3775.25,415.93Z" transform="translate(0 0)"/><path class="cls-3" d="M3563.29,514.09a3.48,3.48,0,0,1-1-2.56v-49a3.63,3.63,0,0,1,1-2.6,3.43,3.43,0,0,1,2.56-1.08h18.24q7.6,0,12.4,2.56a15.82,15.82,0,0,1,6.88,6.56,19,19,0,0,1,0,17.28,15.71,15.71,0,0,1-6.88,6.56q-4.8,2.56-12.4,2.56h-14.56v17.12a3.4,3.4,0,0,1-1.08,2.56,3.62,3.62,0,0,1-2.6,1A3.51,3.51,0,0,1,3563.29,514.09Zm20.08-26.56q8.16,0,11.48-3.12a10.73,10.73,0,0,0,0-15.52q-3.32-3.12-11.48-3.12h-13.84v21.76Z" transform="translate(0 0)"/></g></g></svg>