<svg xmlns="http://www.w3.org/2000/svg" viewBox="0 0 506.08 507.97"><defs><style>.cls-1,.cls-2{fill:#fff;}.cls-1{stroke:#fff;stroke-miterlimit:10;stroke-width:28.35px;}</style></defs><title>neptune</title><g id="Layer_2" data-name="Layer 2"><g id="Design"><circle class="cls-1" cx="366.57" cy="139.51" r="125.33"/><path class="cls-2" d="M188.7,439.54a28.35,28.35,0,1,0,0-40.09A28.35,28.35,0,0,0,188.7,439.54Zm23.05-23.05a4.25,4.25,0,1,1-6,0A4.25,4.25,0,0,1,211.75,416.49Z"/><path class="cls-2" d="M8.3,259.14a28.34,28.34,0,1,0,0-40.08A28.35,28.35,0,0,0,8.3,259.14Zm27.06-27.06a4.25,4.25,0,1,1-6,0A4.26,4.26,0,0,1,35.36,232.08Zm-8,8a4.25,4.25,0,1,1-6,0A4.26,4.26,0,0,1,27.34,240.1Z"/><path class="cls-2" d="M128.57,379.41a28.34,28.34,0,1,0,0-40.09A28.34,28.34,0,0,0,128.57,379.41Zm23.05-23.05a4.25,4.25,0,1,1-6,0A4.25,4.25,0,0,1,151.62,356.36Z"/><path class="cls-2" d="M68.43,319.28a28.35,28.35,0,1,0,0-40.09A28.35,28.35,0,0,0,68.43,319.28Zm23-23a4.25,4.25,0,1,1-6,0A4.23,4.23,0,0,1,91.48,296.23Z"/><path class="cls-2" d="M248.83,379.41a28.35,28.35,0,1,0,0-40.09A28.35,28.35,0,0,0,248.83,379.41Zm23-23.05a4.25,4.25,0,1,1-6,0A4.25,4.25,0,0,1,271.88,356.36Z"/><path class="cls-2" d="M68.43,199a28.35,28.35,0,1,0,0-40.09A28.35,28.35,0,0,0,68.43,199ZM95.49,172a4.25,4.25,0,1,1-6,0A4.26,4.26,0,0,1,95.49,172Zm-8,8a4.25,4.25,0,1,1-6,0A4.25,4.25,0,0,1,87.48,180Z"/><path class="cls-2" d="M188.7,319.28a28.35,28.35,0,1,0,0-40.09A28.35,28.35,0,0,0,188.7,319.28Zm23.05-23a4.25,4.25,0,1,1-6,0A4.25,4.25,0,0,1,211.75,296.23Z"/><path class="cls-2" d="M128.57,259.14a28.34,28.34,0,1,0,0-40.08A28.34,28.34,0,0,0,128.57,259.14Zm23.05-23a4.26,4.26,0,1,1-6,0A4.26,4.26,0,0,1,151.62,236.09Z"/><path class="cls-2" d="M248.83,499.67a28.35,28.35,0,1,0,0-40.09A28.35,28.35,0,0,0,248.83,499.67Zm23-23.05a4.25,4.25,0,1,1-6,0A4.25,4.25,0,0,1,271.88,476.62Z"/><path class="cls-2" d="M309,439.54a28.35,28.35,0,1,0,0-40.09A28.35,28.35,0,0,0,309,439.54ZM332,416.49a4.25,4.25,0,1,1-6,0A4.25,4.25,0,0,1,332,416.49Z"/></g></g></svg>