<svg xmlns="http://www.w3.org/2000/svg" viewBox="0 0 338.25 396.85"><defs><style>.cls-1,.cls-2{fill:#fff;}.cls-1{stroke:#fff;stroke-miterlimit:10;stroke-width:28.35px;}</style></defs><title>mercury</title><g id="Layer_2" data-name="Layer 2"><g id="Design"><circle class="cls-1" cx="268.34" cy="198.43" r="55.74"/><path class="cls-2" d="M85,28.35A28.35,28.35,0,1,0,113.39,0,28.34,28.34,0,0,0,85,28.35Zm32.6,0a4.26,4.26,0,1,1-4.25-4.26A4.26,4.26,0,0,1,117.64,28.35Z"/><path class="cls-2" d="M85,113.39A28.35,28.35,0,1,0,113.39,85,28.34,28.34,0,0,0,85,113.39Zm38.27,0a4.26,4.26,0,1,1-4.25-4.26A4.26,4.26,0,0,1,123.31,113.39Zm-11.34,0a4.26,4.26,0,1,1-4.25-4.26A4.26,4.26,0,0,1,112,113.39Z"/><path class="cls-2" d="M0,113.39A28.35,28.35,0,1,0,28.35,85,28.34,28.34,0,0,0,0,113.39Zm9.33-6.12a4.25,4.25,0,1,1,5.81-1.55A4.26,4.26,0,0,1,9.33,107.27Zm21,18.06a4.25,4.25,0,1,1,5.81,1.56A4.26,4.26,0,0,1,30.33,125.33Zm-9.78,1.56a4.25,4.25,0,1,1,5.81-1.56A4.26,4.26,0,0,1,20.55,126.89Zm26.81-7.48A4.25,4.25,0,1,1,41.55,121,4.25,4.25,0,0,1,47.36,119.41ZM15.14,121a4.25,4.25,0,1,1-5.81-1.56A4.24,4.24,0,0,1,15.14,121Zm28.8-7.58a4.26,4.26,0,1,1-4.25-4.26A4.26,4.26,0,0,1,43.94,113.39Zm-11.34,0a4.26,4.26,0,1,1-4.25-4.26A4.26,4.26,0,0,1,32.6,113.39Zm-11.34,0A4.25,4.25,0,1,1,17,109.13,4.25,4.25,0,0,1,21.26,113.39Zm27.66-11.93a4.26,4.26,0,1,1-5.81-1.55A4.25,4.25,0,0,1,48.92,101.46ZM36.14,99.88a4.25,4.25,0,1,1-5.81,1.56A4.26,4.26,0,0,1,36.14,99.88Zm-9.78,1.56a4.25,4.25,0,1,1-5.81-1.56A4.26,4.26,0,0,1,26.36,101.44Z"/><path class="cls-2" d="M0,283.46a28.35,28.35,0,1,0,28.35-28.34A28.35,28.35,0,0,0,0,283.46Zm15.32-7a4.25,4.25,0,1,1,6,0A4.25,4.25,0,0,1,15.32,276.45Zm13,25.44a4.25,4.25,0,1,1,4.25-4.25A4.25,4.25,0,0,1,28.35,301.89Zm13-11.41a4.25,4.25,0,1,1-6,0A4.25,4.25,0,0,1,41.38,290.48Zm-20.05,0a4.25,4.25,0,1,1-6,0A4.25,4.25,0,0,1,21.33,290.48Zm25.44-7a4.25,4.25,0,1,1-4.25-4.25A4.25,4.25,0,0,1,46.77,283.46Zm-28.34,0a4.26,4.26,0,1,1-4.26-4.25A4.26,4.26,0,0,1,18.43,283.46Zm23-13a4.25,4.25,0,1,1-6,0A4.25,4.25,0,0,1,41.38,270.44Zm-8.78-1.15A4.26,4.26,0,1,1,28.35,265,4.25,4.25,0,0,1,32.6,269.29Z"/><path class="cls-2" d="M85,283.46a28.35,28.35,0,1,0,28.35-28.34A28.35,28.35,0,0,0,85,283.46Zm15.32-7a4.25,4.25,0,1,1,6,0A4.25,4.25,0,0,1,100.36,276.45Zm13,25.44a4.25,4.25,0,1,1,4.25-4.25A4.25,4.25,0,0,1,113.39,301.89Zm13-11.41a4.25,4.25,0,1,1-6,0A4.25,4.25,0,0,1,126.41,290.48Zm-20,0a4.25,4.25,0,1,1-6,0A4.25,4.25,0,0,1,106.37,290.48Zm25.44-7a4.25,4.25,0,1,1-4.25-4.25A4.25,4.25,0,0,1,131.81,283.46Zm-28.35,0a4.25,4.25,0,1,1-4.25-4.25A4.25,4.25,0,0,1,103.46,283.46Zm23-13a4.25,4.25,0,1,1-6,0A4.25,4.25,0,0,1,126.41,270.44Zm-8.77-1.15a4.26,4.26,0,1,1-4.25-4.25A4.25,4.25,0,0,1,117.64,269.29Z"/><path class="cls-2" d="M0,368.5a28.35,28.35,0,1,0,28.35-28.34A28.35,28.35,0,0,0,0,368.5Zm15.32-7a4.25,4.25,0,1,1,6,0A4.25,4.25,0,0,1,15.32,361.49Zm13,25.44a4.25,4.25,0,1,1,4.25-4.25A4.25,4.25,0,0,1,28.35,386.93Zm13-11.41a4.25,4.25,0,1,1-6,0A4.25,4.25,0,0,1,41.38,375.52Zm-20.05,0a4.25,4.25,0,1,1-6,0A4.25,4.25,0,0,1,21.33,375.52Zm25.44-7a4.25,4.25,0,1,1-4.25-4.25A4.25,4.25,0,0,1,46.77,368.5Zm-28.34,0a4.26,4.26,0,1,1-4.26-4.25A4.26,4.26,0,0,1,18.43,368.5Zm23-13a4.25,4.25,0,1,1-6,0A4.25,4.25,0,0,1,41.38,355.48Zm-8.78-1.15a4.26,4.26,0,1,1-4.25-4.25A4.25,4.25,0,0,1,32.6,354.33Z"/><path class="cls-2" d="M85,368.5a28.35,28.35,0,1,0,28.35-28.34A28.35,28.35,0,0,0,85,368.5Zm15.32-7a4.25,4.25,0,1,1,6,0A4.25,4.25,0,0,1,100.36,361.49Zm13,25.44a4.25,4.25,0,1,1,4.25-4.25A4.25,4.25,0,0,1,113.39,386.93Zm13-11.41a4.25,4.25,0,1,1-6,0A4.25,4.25,0,0,1,126.41,375.52Zm-20,0a4.25,4.25,0,1,1-6,0A4.25,4.25,0,0,1,106.37,375.52Zm25.44-7a4.25,4.25,0,1,1-4.25-4.25A4.25,4.25,0,0,1,131.81,368.5Zm-28.35,0a4.25,4.25,0,1,1-4.25-4.25A4.25,4.25,0,0,1,103.46,368.5Zm23-13a4.25,4.25,0,1,1-6,0A4.25,4.25,0,0,1,126.41,355.48Zm-8.77-1.15a4.26,4.26,0,1,1-4.25-4.25A4.25,4.25,0,0,1,117.64,354.33Z"/><path class="cls-2" d="M85,198.43a28.35,28.35,0,1,0,28.35-28.35A28.34,28.34,0,0,0,85,198.43Zm9.33-6.12a4.25,4.25,0,1,1,5.81-1.56A4.26,4.26,0,0,1,94.37,192.31Zm21,18.06a4.25,4.25,0,1,1,5.81,1.56A4.26,4.26,0,0,1,115.37,210.37Zm-9.78,1.56a4.25,4.25,0,1,1,5.81-1.56A4.26,4.26,0,0,1,105.59,211.93Zm26.81-7.48a4.25,4.25,0,1,1-5.81,1.56A4.25,4.25,0,0,1,132.4,204.45ZM100.18,206a4.25,4.25,0,1,1-5.81-1.56A4.24,4.24,0,0,1,100.18,206Zm28.8-7.58a4.26,4.26,0,1,1-4.26-4.26A4.26,4.26,0,0,1,129,198.43Zm-11.34,0a4.26,4.26,0,1,1-4.25-4.26A4.26,4.26,0,0,1,117.64,198.43Zm-11.34,0a4.25,4.25,0,1,1-4.25-4.26A4.25,4.25,0,0,1,106.3,198.43ZM134,186.5a4.25,4.25,0,1,1-5.81-1.55A4.25,4.25,0,0,1,134,186.5Zm-12.78-1.58a4.25,4.25,0,1,1-5.81,1.56A4.26,4.26,0,0,1,121.18,184.92Zm-9.78,1.56a4.25,4.25,0,1,1-5.81-1.56A4.26,4.26,0,0,1,111.4,186.48Z"/><path class="cls-2" d="M0,28.35A28.35,28.35,0,1,0,28.35,0,28.34,28.34,0,0,0,0,28.35Zm32.6,0a4.26,4.26,0,1,1-4.25-4.26A4.26,4.26,0,0,1,32.6,28.35Z"/><path class="cls-2" d="M0,198.43a28.35,28.35,0,1,0,28.35-28.35A28.34,28.34,0,0,0,0,198.43Zm9.33-6.12a4.25,4.25,0,1,1,5.81-1.56A4.26,4.26,0,0,1,9.33,192.31Zm21,18.06a4.25,4.25,0,1,1,5.81,1.56A4.26,4.26,0,0,1,30.33,210.37Zm-9.78,1.56a4.25,4.25,0,1,1,5.81-1.56A4.26,4.26,0,0,1,20.55,211.93Zm26.81-7.48A4.25,4.25,0,1,1,41.55,206,4.25,4.25,0,0,1,47.36,204.45ZM15.14,206a4.25,4.25,0,1,1-5.81-1.56A4.24,4.24,0,0,1,15.14,206Zm28.8-7.58a4.26,4.26,0,1,1-4.25-4.26A4.26,4.26,0,0,1,43.94,198.43Zm-11.34,0a4.26,4.26,0,1,1-4.25-4.26A4.26,4.26,0,0,1,32.6,198.43Zm-11.34,0A4.25,4.25,0,1,1,17,194.17,4.25,4.25,0,0,1,21.26,198.43ZM48.92,186.5A4.25,4.25,0,1,1,43.11,185,4.25,4.25,0,0,1,48.92,186.5Zm-12.78-1.58a4.25,4.25,0,1,1-5.81,1.56A4.26,4.26,0,0,1,36.14,184.92Zm-9.78,1.56a4.25,4.25,0,1,1-5.81-1.56A4.26,4.26,0,0,1,26.36,186.48Z"/></g></g></svg>