<svg xmlns="http://www.w3.org/2000/svg" viewBox="0 0 471.85 471.85"><defs><style>.cls-1,.cls-2{fill:#fff;}.cls-1{stroke:#fff;stroke-miterlimit:10;stroke-width:28.35px;}</style></defs><title>saturn</title><g id="Layer_2" data-name="Layer 2"><g id="Design"><circle class="cls-1" cx="189.35" cy="189.35" r="175.18"/><path class="cls-2" d="M463.55,463.55a28.35,28.35,0,1,0-40.09,0A28.35,28.35,0,0,0,463.55,463.55ZM440.5,440.5a4.25,4.25,0,1,1,0,6A4.25,4.25,0,0,1,440.5,440.5Z"/><path class="cls-2" d="M403.42,403.42a28.35,28.35,0,1,0-40.09,0A28.35,28.35,0,0,0,403.42,403.42Zm-23.05-23.05a4.25,4.25,0,1,1,0,6A4.25,4.25,0,0,1,380.37,380.37Z"/></g></g></svg>