<svg xmlns="http://www.w3.org/2000/svg" viewBox="0 0 349.68 349.68"><defs><style>.cls-1,.cls-2{fill:#fff;}.cls-1{stroke:#fff;stroke-miterlimit:10;stroke-width:28.35px;}</style></defs><title>venus</title><g id="Layer_2" data-name="Layer 2"><g id="Design"><circle class="cls-1" cx="249.51" cy="249.51" r="86"/><path class="cls-2" d="M68.43,168.65a28.34,28.34,0,1,0,0-40.08A28.35,28.35,0,0,0,68.43,168.65Zm32.1-21.21a4.25,4.25,0,1,1-5.21,3A4.25,4.25,0,0,1,100.53,147.44Zm-10.22,8a4.25,4.25,0,1,1-3,5.2A4.25,4.25,0,0,1,90.31,155.46Zm9.19-17.87a4.25,4.25,0,1,1-6,0A4.25,4.25,0,0,1,99.5,137.59Zm-16,16a4.25,4.25,0,1,1-6,0A4.25,4.25,0,0,1,83.47,153.62Zm1-20.07a4.25,4.25,0,1,1-3,5.21A4.25,4.25,0,0,1,84.44,133.55Zm-5.81,8a4.25,4.25,0,1,1-5.21,3A4.26,4.26,0,0,1,78.63,141.57Z"/><path class="cls-2" d="M8.3,108.52a28.35,28.35,0,1,0,0-40.09A28.35,28.35,0,0,0,8.3,108.52Zm5.87-15.79a4.25,4.25,0,1,1,4.26-4.25A4.25,4.25,0,0,1,14.17,92.73Zm27.21,8.78a4.26,4.26,0,1,1,0-6A4.26,4.26,0,0,1,41.38,101.51Zm1.14-17.28a4.25,4.25,0,1,1-4.25,4.25A4.25,4.25,0,0,1,42.52,84.23ZM28.35,98.4a4.25,4.25,0,1,1-4.26,4.25A4.25,4.25,0,0,1,28.35,98.4Zm13-23a4.25,4.25,0,1,1-6,0A4.25,4.25,0,0,1,41.38,75.45Zm-20.05,20a4.25,4.25,0,1,1-6,0A4.26,4.26,0,0,1,21.33,95.49Zm7-25.44a4.26,4.26,0,1,1-4.26,4.26A4.26,4.26,0,0,1,28.35,70.05Zm-7,5.4a4.25,4.25,0,1,1-6,0A4.25,4.25,0,0,1,21.33,75.45Z"/><path class="cls-2" d="M68.43,48.39a28.35,28.35,0,1,0,0-40.09A28.35,28.35,0,0,0,68.43,48.39ZM74.31,32.6a4.26,4.26,0,1,1,4.25-4.25A4.26,4.26,0,0,1,74.31,32.6Zm27.2,8.78a4.26,4.26,0,1,1,0-6A4.25,4.25,0,0,1,101.51,41.38Zm1.14-17.29a4.26,4.26,0,1,1-4.25,4.26A4.25,4.25,0,0,1,102.65,24.09ZM88.48,38.27a4.25,4.25,0,1,1-4.25,4.25A4.25,4.25,0,0,1,88.48,38.27Zm13-23a4.25,4.25,0,1,1-6,0A4.25,4.25,0,0,1,101.51,15.32Zm-20.05,20a4.25,4.25,0,1,1-6,0A4.26,4.26,0,0,1,81.46,35.36Zm7-25.44a4.26,4.26,0,1,1-4.25,4.25A4.25,4.25,0,0,1,88.48,9.92Zm-7,5.4a4.25,4.25,0,1,1-6,0A4.25,4.25,0,0,1,81.46,15.32Z"/></g></g></svg>