<svg xmlns="http://www.w3.org/2000/svg" viewBox="0 0 311.81 479.61"><defs><style>.cls-1,.cls-2{fill:#fff;}.cls-1{stroke:#fff;stroke-miterlimit:10;stroke-width:28.35px;}</style></defs><title>uranus</title><g id="Layer_2" data-name="Layer 2"><g id="Design"><circle class="cls-1" cx="155.91" cy="140.59" r="126.42"/><path class="cls-2" d="M283.46,479.61a28.35,28.35,0,1,0-28.34-28.35A28.35,28.35,0,0,0,283.46,479.61Zm0-32.6a4.25,4.25,0,1,1-4.25,4.25A4.25,4.25,0,0,1,283.46,447Z"/><path class="cls-2" d="M28.35,479.61A28.35,28.35,0,1,0,0,451.26,28.35,28.35,0,0,0,28.35,479.61Zm0-38.27a4.25,4.25,0,1,1-4.26,4.25A4.25,4.25,0,0,1,28.35,441.34Zm0,11.34a4.25,4.25,0,1,1-4.26,4.25A4.25,4.25,0,0,1,28.35,452.68Z"/><path class="cls-2" d="M198.43,479.61a28.35,28.35,0,1,0-28.35-28.35A28.35,28.35,0,0,0,198.43,479.61Zm0-32.6a4.25,4.25,0,1,1-4.26,4.25A4.25,4.25,0,0,1,198.43,447Z"/><path class="cls-2" d="M113.39,479.61A28.35,28.35,0,1,0,85,451.26,28.35,28.35,0,0,0,113.39,479.61Zm0-32.6a4.25,4.25,0,1,1-4.26,4.25A4.25,4.25,0,0,1,113.39,447Z"/><path class="cls-2" d="M283.46,394.57a28.35,28.35,0,1,0-28.34-28.35A28.35,28.35,0,0,0,283.46,394.57Zm0-32.6a4.25,4.25,0,1,1-4.25,4.25A4.25,4.25,0,0,1,283.46,362Z"/><path class="cls-2" d="M28.35,394.57A28.35,28.35,0,1,0,0,366.22,28.35,28.35,0,0,0,28.35,394.57Zm0-38.27a4.25,4.25,0,1,1-4.26,4.25A4.25,4.25,0,0,1,28.35,356.3Zm0,11.34a4.25,4.25,0,1,1-4.26,4.25A4.25,4.25,0,0,1,28.35,367.64Z"/><path class="cls-2" d="M198.43,394.57a28.35,28.35,0,1,0-28.35-28.35A28.35,28.35,0,0,0,198.43,394.57Zm0-32.6a4.25,4.25,0,1,1-4.26,4.25A4.25,4.25,0,0,1,198.43,362Z"/><path class="cls-2" d="M113.39,394.57A28.35,28.35,0,1,0,85,366.22,28.35,28.35,0,0,0,113.39,394.57Zm0-32.6a4.25,4.25,0,1,1-4.26,4.25A4.25,4.25,0,0,1,113.39,362Z"/></g></g></svg>