<svg xmlns="http://www.w3.org/2000/svg" viewBox="0 0 297.64 299.71"><defs><style>.cls-1{fill:#231f20;}</style></defs><title>recycling-11</title><g id="Layer_2" data-name="Layer 2"><g id="Layer_1-2" data-name="Layer 1"><path class="cls-1" d="M295.45,173a7.46,7.46,0,0,1-1.4,1.1L106.64,288.61a7.49,7.49,0,0,1-9.21-1.1L2.2,192.28a3.71,3.71,0,0,1-.27-.29,7.57,7.57,0,0,0-1.88,4.1,7.45,7.45,0,0,0,2.15,6.19l95.23,95.23a7.49,7.49,0,0,0,9.21,1.1L294.05,184.13a7.46,7.46,0,0,0,1.4-1.1,7.54,7.54,0,0,0,2.14-4.41,7.44,7.44,0,0,0-1.88-5.9C295.62,172.82,295.55,172.93,295.45,173Z"/><path class="cls-1" d="M295.45,158a7.46,7.46,0,0,1-1.4,1.1L106.64,273.61a7.49,7.49,0,0,1-9.21-1.1L2.2,177.28a3.71,3.71,0,0,1-.27-.29,7.57,7.57,0,0,0-1.88,4.1,7.45,7.45,0,0,0,2.15,6.19l95.23,95.23a7.49,7.49,0,0,0,9.21,1.1L294.05,169.13a7.46,7.46,0,0,0,1.4-1.1,7.54,7.54,0,0,0,2.14-4.41,7.44,7.44,0,0,0-1.88-5.9C295.62,157.82,295.55,157.93,295.45,158Z"/><path class="cls-1" d="M295.45,143a7.46,7.46,0,0,1-1.4,1.1L106.64,258.61a7.49,7.49,0,0,1-9.21-1.1L2.2,162.28a3.71,3.71,0,0,1-.27-.29,7.57,7.57,0,0,0-1.88,4.1,7.45,7.45,0,0,0,2.15,6.19l95.23,95.23a7.49,7.49,0,0,0,9.21,1.1L294.05,154.13a7.46,7.46,0,0,0,1.4-1.1,7.54,7.54,0,0,0,2.14-4.41,7.44,7.44,0,0,0-1.88-5.9C295.62,142.82,295.55,142.93,295.45,143Z"/><path class="cls-1" d="M295.45,128a7.46,7.46,0,0,1-1.4,1.1L106.64,243.61a7.49,7.49,0,0,1-9.21-1.1L2.2,147.28a3.71,3.71,0,0,1-.27-.29,7.57,7.57,0,0,0-1.88,4.1,7.45,7.45,0,0,0,2.15,6.19l95.23,95.23a7.49,7.49,0,0,0,9.21,1.1L294.05,139.13a7.46,7.46,0,0,0,1.4-1.1,7.54,7.54,0,0,0,2.14-4.41,7.44,7.44,0,0,0-1.88-5.9C295.62,127.82,295.55,127.93,295.45,128Z"/><path class="cls-1" d="M295.45,113a7.46,7.46,0,0,1-1.4,1.1L106.64,228.61a7.49,7.49,0,0,1-9.21-1.1L2.2,132.28a3.71,3.71,0,0,1-.27-.29,7.57,7.57,0,0,0-1.88,4.1,7.45,7.45,0,0,0,2.15,6.19l95.23,95.23a7.49,7.49,0,0,0,9.21,1.1L294.05,124.13a7.46,7.46,0,0,0,1.4-1.1,7.54,7.54,0,0,0,2.14-4.41,7.44,7.44,0,0,0-1.88-5.9C295.62,112.82,295.55,112.93,295.45,113Z"/><path class="cls-1" d="M295.44,97.43,200.21,2.2A7.49,7.49,0,0,0,191,1.1L3.59,115.58a7.46,7.46,0,0,0-1.4,1.1,7.54,7.54,0,0,0-2.14,4.41,7.45,7.45,0,0,0,2.15,6.19l95.23,95.23a7.49,7.49,0,0,0,9.21,1.1L294.05,109.13a7.46,7.46,0,0,0,1.4-1.1,7.54,7.54,0,0,0,2.14-4.41A7.45,7.45,0,0,0,295.44,97.43ZM176.73,158a5,5,0,0,1-7.07.06L98.33,87.94a5,5,0,0,1,7-7.13l71.33,70.08A5,5,0,0,1,176.73,158Zm20-13a5,5,0,0,1-7.07.06L118.33,74.94a5,5,0,0,1,7-7.13l71.33,70.08A5,5,0,0,1,196.73,145Zm20-13a5,5,0,0,1-7.07.06L138.33,61.94a5,5,0,1,1,7-7.13l71.33,70.08A5,5,0,0,1,216.73,132Zm20-13a5,5,0,0,1-7.07.06L158.33,48.94a5,5,0,1,1,7-7.13l71.33,70.08A5,5,0,0,1,236.73,119Zm20-13a5,5,0,0,1-7.07.06L178.33,35.94a5,5,0,0,1,7-7.13l71.33,70.08A5,5,0,0,1,256.73,106Z"/></g></g></svg>