<svg xmlns="http://www.w3.org/2000/svg" viewBox="0 0 200 370"><defs><style>.cls-1{fill:#231f20;}</style></defs><title>recycling-4</title><g id="Layer_2" data-name="Layer 2"><g id="Layer_1-2" data-name="Layer 1"><path class="cls-1" d="M45,0H95a5,5,0,0,1,5,5V27.5A2.5,2.5,0,0,1,97.5,30h-55A2.5,2.5,0,0,1,40,27.5V5A5,5,0,0,1,45,0Z"/><path class="cls-1" d="M189.73,127.16,134.08,57.6A46.87,46.87,0,0,0,97.47,40h0A2.46,2.46,0,0,1,95,37.53V30H45v7.53A2.46,2.46,0,0,1,42.53,40H40A14.38,14.38,0,0,0,26.5,49.34L2.35,113.74a37,37,0,0,0-2.35,13V328.11A41.88,41.88,0,0,0,41.89,370H158.11A41.88,41.88,0,0,0,200,328.11V156.45A46.87,46.87,0,0,0,189.73,127.16ZM37.58,76.76,21.39,119.91A21.93,21.93,0,0,0,20,127.6V264.79A5.15,5.15,0,0,1,15.49,270,5,5,0,0,1,10,265V127.6a31.94,31.94,0,0,1,2-11.2L28.21,73.24A5,5,0,0,1,32.9,70h0A5,5,0,0,1,37.58,76.76Zm62.42,87V76.89A6.88,6.88,0,0,1,106.89,70h0a6.9,6.9,0,0,1,5.43,2.65L168,144.13a6.85,6.85,0,0,1,1.46,4.24v16.2A37.27,37.27,0,0,1,150,197.66c-12.36,6.5-23.72,3.38-32.48-2A37.33,37.33,0,0,1,100,163.77Z"/></g></g></svg>