<svg xmlns="http://www.w3.org/2000/svg" viewBox="0 0 290 215.06"><defs><style>.cls-1{fill:#231f20;}</style></defs><title>recycling-8</title><g id="Layer_2" data-name="Layer 2"><g id="Layer_1-2" data-name="Layer 1"><path class="cls-1" d="M290,95.09v0h0a25,25,0,0,0-3.31-12.4L264,43.06a50,50,0,0,0-34.7-24.39L127.71.76A50,50,0,0,0,86.76,11.81L51.9,41.26A25,25,0,0,0,43.42,56L42,64.33a2.5,2.5,0,0,1-2.89,2L7.23,60.75a5.11,5.11,0,0,0-5.69,3,5,5,0,0,0,3.77,6.8L44.7,77.51l4.93.87,228.3,40.26A2.5,2.5,0,0,1,280,121.1v1.46a2.5,2.5,0,0,1-2.5,2.5H5.22a5.14,5.14,0,0,0-5.2,4.5,5,5,0,0,0,5,5.5H37.5a2.5,2.5,0,0,1,2.5,2.5V146a25,25,0,0,0,5.79,16L75,197.07a50,50,0,0,0,38.41,18H216.58a50,50,0,0,0,38.41-18L284.21,162A25,25,0,0,0,290,146V95.09Zm-87.13-64.8a5.13,5.13,0,0,1-5.7,3L124.24,20.46a30,30,0,0,0-24.57,6.62L80.52,43.27a5.22,5.22,0,0,1-4.19,1.23,5,5,0,0,1-2.41-8.75l19.29-16.3A40,40,0,0,1,126,10.61L199.1,23.5A5,5,0,0,1,202.87,30.29Z"/></g></g></svg>