<svg xmlns="http://www.w3.org/2000/svg" viewBox="0 0 402.98 190.84"><defs><style>.cls-1{fill:#231f20;}</style></defs><title>recycling-9</title><g id="Layer_2" data-name="Layer 2"><g id="Layer_1-2" data-name="Layer 1"><path class="cls-1" d="M380.74,58A30,30,0,1,0,402,94.71,30,30,0,0,0,380.74,58Zm-5.62,12.11A17,17,0,0,0,359,96.6h0A2.48,2.48,0,0,1,359.6,99a2.45,2.45,0,0,1-1.13,1.49h0a2.45,2.45,0,0,1-.93.32h-.11a2,2,0,0,1-.35,0h-.18l-.29,0h-.08l-.12,0-.25-.09-.22-.11-.18-.12a1.84,1.84,0,0,1-.22-.17l-.13-.12a2.52,2.52,0,0,1-.21-.25l0,0a22,22,0,0,1,20.69-34.64,2.5,2.5,0,0,1,2.07,3.31A2.58,2.58,0,0,1,375.12,70.08Z"/><path class="cls-1" d="M339.16,77.89a35,35,0,0,1,21.12-23.54,1,1,0,0,0-.11-1.89L168.23,1a30,30,0,0,0-36.74,21.21h0A30,30,0,0,0,152.7,59l191.94,51.42a1,1,0,0,0,1-1.57A35,35,0,0,1,339.16,77.89Z"/><path class="cls-1" d="M343.34,115.24,151.41,63.81a34.84,34.84,0,0,1-19.72-13.92l-1.23.11s-22.15-4-50.15,16S31,110.67,8.31,106.67s3.34,44,50,47.33S151,137,193,162.17s74,31.16,97.33,27.83,24.67-38.33,29.34-50.5S343,117,343,117l.44-1.71ZM184,139.82a5,5,0,0,1-6.53,4.74c-11-3.49-23-5.17-36.64-5.17-12.11,0-24.4,1.27-36.29,2.51s-23.9,2.48-35.72,2.48c-3.62,0-7.14-.12-10.44-.35a64.07,64.07,0,0,1-36.24-14.89c-1.39-1.17-2.94-2.7-4.07-3.83h0a5,5,0,0,1,2.08-8.92h0c9-1.7,17.61-6.26,26.21-12.16a5,5,0,0,1,2.83-.89h0A5,5,0,0,1,52,112.45a97.55,97.55,0,0,1-19.85,10.82.51.51,0,0,0-.13.89,53.44,53.44,0,0,0,27.06,9.89c3.07.22,6.34.33,9.73.33,11.3,0,23.19-1.23,34.69-2.43,12.14-1.26,24.7-2.56,37.32-2.56,14.75,0,27.77,1.83,39.69,5.64a5,5,0,0,1,3.48,4.76Z"/></g></g></svg>