<svg xmlns="http://www.w3.org/2000/svg" viewBox="0 0 125 231.06"><defs><style>.cls-1{fill:#231f20;}</style></defs><title>recycling-2</title><g id="Layer_2" data-name="Layer 2"><g id="Layer_1-2" data-name="Layer 1"><rect class="cls-1" x="2.5" y="153.56" width="120" height="5"/><rect class="cls-1" x="2.5" y="143.56" width="120" height="5"/><path class="cls-1" d="M2.5,166.06a2.5,2.5,0,0,0,2.5,2.5H120a2.5,2.5,0,0,0,2.5-2.5v-2.5H2.5Z"/><rect class="cls-1" x="2.5" y="133.56" width="120" height="5"/><path class="cls-1" d="M122.5,176.06a2.5,2.5,0,0,0-2.5-2.5H5a2.5,2.5,0,0,0-2.5,2.5v45H0v10H125v-10h-2.5Z"/><rect class="cls-1" x="2.5" y="123.56" width="120" height="5"/><rect class="cls-1" x="2.5" y="103.56" width="120" height="5"/><path class="cls-1" d="M122.5,96.06a2.5,2.5,0,0,0-2.5-2.5H5a2.5,2.5,0,0,0-2.5,2.5v2.5h120Z"/><rect class="cls-1" x="2.5" y="113.56" width="120" height="5"/><path class="cls-1" d="M122.5,31.06H19.32L117.21,4.83,115.91,0,0,31.06H0v10H2.5v45A2.5,2.5,0,0,0,5,88.56H120a2.5,2.5,0,0,0,2.5-2.5v-45H125v-10Z"/></g></g></svg>