<svg xmlns="http://www.w3.org/2000/svg" viewBox="0 0 320.6 350.55"><defs><style>.cls-1{fill:#231f20;}</style></defs><title>recycling-6</title><g id="Layer_2" data-name="Layer 2"><g id="Layer_1-2" data-name="Layer 1"><path class="cls-1" d="M33,42,2.19,45.79A2.5,2.5,0,0,0,0,48.27L33,99.56Z"/><path class="cls-1" d="M286,259.56V2.5A2.51,2.51,0,0,0,283.1,0l-115,18.68a2.5,2.5,0,0,0-2.1,2.47V76.55a2.5,2.5,0,1,1-5,0V21.88a2.51,2.51,0,0,0-2.81-2.48l-120,14.89A2.5,2.5,0,0,0,36,36.77V294.56l34.6,53.49a2.51,2.51,0,0,0,2.81,2.48l120-14.89a2.5,2.5,0,0,0,2.19-2.48L161,281.55a2.5,2.5,0,0,1,5,0l34.6,50.88a2.51,2.51,0,0,0,2.9,2.47l115-18.68a2.51,2.51,0,0,0,2.1-2.47ZM127.44,187.19l28.28-37.48a7,7,0,0,1,.77-.85c.12-.12.26-.21.39-.32a4.25,4.25,0,0,1,.47-.37,5.05,5.05,0,0,1,.51-.28c.14-.07.27-.16.42-.22a4.58,4.58,0,0,1,2-.39c.15,0,.28,0,.42.06s.35,0,.51.08a3.29,3.29,0,0,1,.47.19,2.66,2.66,0,0,1,.39.16,4.21,4.21,0,0,1,.77.56l28.28,26.43c1.95,1.83,1.95,5.41,0,8h0c-2,2.59-5.12,3.21-7.07,1.39l-19.75-18.46v88.06c0,3.12-2.24,6.09-5,6.63s-5-1.56-5-4.68V167.63L134.51,193.8c-1.95,2.59-5.12,3.21-7.07,1.38h0C125.49,193.36,125.49,189.78,127.44,187.19Zm-77.76,13.7L78,163.41a7,7,0,0,1,.77-.86,3.79,3.79,0,0,1,.39-.31,4.25,4.25,0,0,1,.47-.37,5.05,5.05,0,0,1,.51-.28,3.42,3.42,0,0,1,.42-.23,4.72,4.72,0,0,1,2-.38,34.33,34.33,0,0,1,.93.14,2.43,2.43,0,0,1,.47.19,2.66,2.66,0,0,1,.39.16A4.15,4.15,0,0,1,85,162l28.28,26.44c2,1.83,2,5.4,0,8h0c-1.95,2.59-5.12,3.21-7.07,1.38L86.5,179.37v88.07c0,3.12-2.24,6.08-5,6.62s-5-1.55-5-4.67V181.33L56.75,207.5c-2,2.59-5.12,3.21-7.07,1.38h0C47.73,207.06,47.73,203.48,49.68,200.89Z"/></g></g></svg>