<svg xmlns="http://www.w3.org/2000/svg" viewBox="0 0 300 300.51"><defs><style>.cls-1{fill:#231f20;}</style></defs><title>recycling-5</title><g id="Layer_2" data-name="Layer 2"><g id="Layer_1-2" data-name="Layer 1"><path class="cls-1" d="M290.17,39.3,143.85,20A2.5,2.5,0,0,0,141,22.19l-.65,5a2.49,2.49,0,0,0,2.15,2.8l141,18.57a1,1,0,0,1-.13,2H16.86a1.88,1.88,0,0,1-.48-3.7L154.72,9.75a2.5,2.5,0,0,0,1.77-3.07L155.2,1.85A2.5,2.5,0,0,0,152.13.09L8.38,38.6A11.32,11.32,0,0,0,0,49.52v246a5,5,0,0,0,5,5H295a5,5,0,0,0,5-5v-245A11.3,11.3,0,0,0,290.17,39.3ZM75.1,217.33h0a5,5,0,0,1-7.07,0L48.28,197.58v77.93a5,5,0,0,1-10,0V197.58L18.54,217.33a5,5,0,0,1-7.08,0h0a5,5,0,0,1,0-7.07L39.75,182a5,5,0,0,1,.76-.62l.39-.21c.16-.09.31-.18.47-.25a5,5,0,0,1,.51-.16c.14,0,.28-.09.43-.12a4.92,4.92,0,0,1,1.95,0c.15,0,.29.08.43.12a5,5,0,0,1,.51.16c.16.07.31.16.47.25l.39.21a5,5,0,0,1,.76.62L75.1,210.26A5,5,0,0,1,75.1,217.33Zm80,0h0a5,5,0,0,1-7.07,0l-19.75-19.75v77.93a5,5,0,0,1-10,0V197.58L98.54,217.33a5,5,0,0,1-7.08,0h0a5,5,0,0,1,0-7.07L119.75,182a5,5,0,0,1,.76-.62l.39-.21c.16-.09.31-.18.47-.25a5,5,0,0,1,.51-.16c.14,0,.28-.09.43-.12a4.92,4.92,0,0,1,2,0c.15,0,.29.08.43.12a5,5,0,0,1,.51.16c.16.07.31.16.47.25l.39.21a5,5,0,0,1,.76.62l28.28,28.29A5,5,0,0,1,155.1,217.33Z"/></g></g></svg>