<svg xmlns="http://www.w3.org/2000/svg" viewBox="0 0 150 344.91"><defs><style>.cls-1{fill:#231f20;}</style></defs><title>recycling-7</title><g id="Layer_2" data-name="Layer 2"><g id="Layer_1-2" data-name="Layer 1"><path class="cls-1" d="M148.77,93.62h0L80.25,15.28a1,1,0,0,1-.25-.66V5.26A5.18,5.18,0,0,0,75.45,0,5,5,0,0,0,70,5v9.62a1,1,0,0,1-.25.66L1.21,93.62h0A4.94,4.94,0,0,0,0,96.88v243a5,5,0,0,0,5,5H35.8L44,343.75l26.84-7.66a15,15,0,0,1,8.24,0L106,343.75l8.24,1.16H145a5,5,0,0,0,5-5v-243A5,5,0,0,0,148.77,93.62ZM30,88.5h90a2.5,2.5,0,0,1,0,5H30a2.5,2.5,0,0,1,0-5Zm108.48,20L80,165v56a5,5,0,0,1-10,0V165L11.52,108.5a5,5,0,0,1,7-7.19L75,156l56.52-54.64a5,5,0,0,1,7,7.19Z"/></g></g></svg>