<svg xmlns="http://www.w3.org/2000/svg" viewBox="0 0 137.28 400"><defs><style>.cls-1{fill:#231f20;}</style></defs><title>recycling-3</title><g id="Layer_2" data-name="Layer 2"><g id="Layer_1-2" data-name="Layer 1"><path class="cls-1" d="M83.64,7.5A2.5,2.5,0,0,0,81.14,5a2.5,2.5,0,0,0,0-5h-25a2.5,2.5,0,0,0,0,5,2.5,2.5,0,0,0,0,5,2.5,2.5,0,0,0,0,5h25a2.5,2.5,0,0,0,0-5A2.5,2.5,0,0,0,83.64,7.5Z"/><path class="cls-1" d="M135.16,154.66,84.62,27.46A3.89,3.89,0,0,0,81,25a2.36,2.36,0,0,1-2.36-2.36v-.28A2.36,2.36,0,0,1,81,20a2.6,2.6,0,0,0,2.63-2.24A2.5,2.5,0,0,0,81.14,15H56.28a2.61,2.61,0,0,0-2.63,2.24A2.51,2.51,0,0,0,56.14,20h.14a2.36,2.36,0,0,1,2.36,2.36v.28A2.36,2.36,0,0,1,56.28,25a3.88,3.88,0,0,0-3.61,2.46L2.12,154.66A30.06,30.06,0,0,0,0,165.74V350.37a30,30,0,0,0,5.61,17.46L24.9,394.78A12.5,12.5,0,0,0,35.07,400H56.28a9.93,9.93,0,0,0,4.47-1.06l6.77-3.38a2.52,2.52,0,0,1,2.24,0l6.77,3.38A9.93,9.93,0,0,0,81,400h21.22a12.49,12.49,0,0,0,10.16-5.22l19.3-26.95a30,30,0,0,0,5.6-17.46V165.74A30.06,30.06,0,0,0,135.16,154.66ZM42.64,106.85,21.06,161.16A15,15,0,0,0,20,166.7V295a5,5,0,0,1-10,0V166.7a25,25,0,0,1,1.77-9.23l21.58-54.32a5,5,0,1,1,9.29,3.7Z"/></g></g></svg>