<svg xmlns="http://www.w3.org/2000/svg" viewBox="0 0 190 190"><defs><style>.cls-1{fill:#231f20;}</style></defs><title>recycling-10</title><g id="Layer_2" data-name="Layer 2"><g id="Layer_1-2" data-name="Layer 1"><path class="cls-1" d="M140,26.32a1.49,1.49,0,0,0-1.13-1.45,5,5,0,0,1,0-9.74A1.49,1.49,0,0,0,140,13.68h0a1.51,1.51,0,0,0-1.84-1.47,8,8,0,0,0,0,15.58A1.51,1.51,0,0,0,140,26.32Z"/><path class="cls-1" d="M20,26.32a1.49,1.49,0,0,0-1.13-1.45,5,5,0,0,1,0-9.74A1.49,1.49,0,0,0,20,13.68h0a1.51,1.51,0,0,0-1.84-1.47,8,8,0,0,0,0,15.58A1.51,1.51,0,0,0,20,26.32Z"/><path class="cls-1" d="M50,26.32a1.49,1.49,0,0,0-1.13-1.45,5,5,0,0,1,0-9.74A1.49,1.49,0,0,0,50,13.68h0a1.51,1.51,0,0,0-1.84-1.47,8,8,0,0,0,0,15.58A1.51,1.51,0,0,0,50,26.32Z"/><path class="cls-1" d="M80,26.32a1.49,1.49,0,0,0-1.13-1.45,5,5,0,0,1,0-9.74A1.49,1.49,0,0,0,80,13.68h0a1.51,1.51,0,0,0-1.84-1.47,8,8,0,0,0,0,15.58A1.51,1.51,0,0,0,80,26.32Z"/><path class="cls-1" d="M110,26.32a1.49,1.49,0,0,0-1.13-1.45,5,5,0,0,1,0-9.74A1.49,1.49,0,0,0,110,13.68h0a1.51,1.51,0,0,0-1.84-1.47,8,8,0,0,0,0,15.58A1.51,1.51,0,0,0,110,26.32Z"/><path class="cls-1" d="M140,26.32a1.49,1.49,0,0,0-1.13-1.45,5,5,0,0,1,0-9.74A1.49,1.49,0,0,0,140,13.68h0a1.51,1.51,0,0,0-1.84-1.47,8,8,0,0,0,0,15.58A1.51,1.51,0,0,0,140,26.32Z"/><path class="cls-1" d="M170,26.32a1.49,1.49,0,0,0-1.13-1.45,5,5,0,0,1,0-9.74A1.49,1.49,0,0,0,170,13.68h0a1.51,1.51,0,0,0-1.84-1.47,8,8,0,0,0,0,15.58A1.51,1.51,0,0,0,170,26.32Z"/><path class="cls-1" d="M140,56.32a1.49,1.49,0,0,0-1.13-1.45,5,5,0,0,1,0-9.74A1.49,1.49,0,0,0,140,43.68h0a1.51,1.51,0,0,0-1.84-1.47,8,8,0,0,0,0,15.58A1.51,1.51,0,0,0,140,56.32Z"/><path class="cls-1" d="M20,56.32a1.49,1.49,0,0,0-1.13-1.45,5,5,0,0,1,0-9.74A1.49,1.49,0,0,0,20,43.68h0a1.51,1.51,0,0,0-1.84-1.47,8,8,0,0,0,0,15.58A1.51,1.51,0,0,0,20,56.32Z"/><path class="cls-1" d="M50,56.32a1.49,1.49,0,0,0-1.13-1.45,5,5,0,0,1,0-9.74A1.49,1.49,0,0,0,50,43.68h0a1.51,1.51,0,0,0-1.84-1.47,8,8,0,0,0,0,15.58A1.51,1.51,0,0,0,50,56.32Z"/><path class="cls-1" d="M80,56.32a1.49,1.49,0,0,0-1.13-1.45,5,5,0,0,1,0-9.74A1.49,1.49,0,0,0,80,43.68h0a1.51,1.51,0,0,0-1.84-1.47,8,8,0,0,0,0,15.58A1.51,1.51,0,0,0,80,56.32Z"/><path class="cls-1" d="M110,56.32a1.49,1.49,0,0,0-1.13-1.45,5,5,0,0,1,0-9.74A1.49,1.49,0,0,0,110,43.68h0a1.51,1.51,0,0,0-1.84-1.47,8,8,0,0,0,0,15.58A1.51,1.51,0,0,0,110,56.32Z"/><path class="cls-1" d="M140,56.32a1.49,1.49,0,0,0-1.13-1.45,5,5,0,0,1,0-9.74A1.49,1.49,0,0,0,140,43.68h0a1.51,1.51,0,0,0-1.84-1.47,8,8,0,0,0,0,15.58A1.51,1.51,0,0,0,140,56.32Z"/><path class="cls-1" d="M170,56.32a1.49,1.49,0,0,0-1.13-1.45,5,5,0,0,1,0-9.74A1.49,1.49,0,0,0,170,43.68h0a1.51,1.51,0,0,0-1.84-1.47,8,8,0,0,0,0,15.58A1.51,1.51,0,0,0,170,56.32Z"/><path class="cls-1" d="M140,86.32a1.49,1.49,0,0,0-1.13-1.45,5,5,0,0,1,0-9.74A1.49,1.49,0,0,0,140,73.68h0a1.51,1.51,0,0,0-1.84-1.47,8,8,0,0,0,0,15.58A1.51,1.51,0,0,0,140,86.32Z"/><path class="cls-1" d="M20,86.32a1.49,1.49,0,0,0-1.13-1.45,5,5,0,0,1,0-9.74A1.49,1.49,0,0,0,20,73.68h0a1.51,1.51,0,0,0-1.84-1.47,8,8,0,0,0,0,15.58A1.51,1.51,0,0,0,20,86.32Z"/><path class="cls-1" d="M50,86.32a1.49,1.49,0,0,0-1.13-1.45,5,5,0,0,1,0-9.74A1.49,1.49,0,0,0,50,73.68h0a1.51,1.51,0,0,0-1.84-1.47,8,8,0,0,0,0,15.58A1.51,1.51,0,0,0,50,86.32Z"/><path class="cls-1" d="M80,86.32a1.49,1.49,0,0,0-1.13-1.45,5,5,0,0,1,0-9.74A1.49,1.49,0,0,0,80,73.68h0a1.51,1.51,0,0,0-1.84-1.47,8,8,0,0,0,0,15.58A1.51,1.51,0,0,0,80,86.32Z"/><path class="cls-1" d="M110,86.32a1.49,1.49,0,0,0-1.13-1.45,5,5,0,0,1,0-9.74A1.49,1.49,0,0,0,110,73.68h0a1.51,1.51,0,0,0-1.84-1.47,8,8,0,0,0,0,15.58A1.51,1.51,0,0,0,110,86.32Z"/><path class="cls-1" d="M140,86.32a1.49,1.49,0,0,0-1.13-1.45,5,5,0,0,1,0-9.74A1.49,1.49,0,0,0,140,73.68h0a1.51,1.51,0,0,0-1.84-1.47,8,8,0,0,0,0,15.58A1.51,1.51,0,0,0,140,86.32Z"/><path class="cls-1" d="M170,86.32a1.49,1.49,0,0,0-1.13-1.45,5,5,0,0,1,0-9.74A1.49,1.49,0,0,0,170,73.68h0a1.51,1.51,0,0,0-1.84-1.47,8,8,0,0,0,0,15.58A1.51,1.51,0,0,0,170,86.32Z"/><path class="cls-1" d="M140,116.32a1.49,1.49,0,0,0-1.13-1.45,5,5,0,0,1,0-9.74,1.49,1.49,0,0,0,1.13-1.45h0a1.51,1.51,0,0,0-1.84-1.47,8,8,0,0,0,0,15.58,1.51,1.51,0,0,0,1.84-1.47Z"/><path class="cls-1" d="M20,116.32a1.49,1.49,0,0,0-1.13-1.45,5,5,0,0,1,0-9.74A1.49,1.49,0,0,0,20,103.68h0a1.51,1.51,0,0,0-1.84-1.47,8,8,0,0,0,0,15.58A1.51,1.51,0,0,0,20,116.32Z"/><path class="cls-1" d="M50,116.32a1.49,1.49,0,0,0-1.13-1.45,5,5,0,0,1,0-9.74A1.49,1.49,0,0,0,50,103.68h0a1.51,1.51,0,0,0-1.84-1.47,8,8,0,0,0,0,15.58A1.51,1.51,0,0,0,50,116.32Z"/><path class="cls-1" d="M80,116.32a1.49,1.49,0,0,0-1.13-1.45,5,5,0,0,1,0-9.74A1.49,1.49,0,0,0,80,103.68h0a1.51,1.51,0,0,0-1.84-1.47,8,8,0,0,0,0,15.58A1.51,1.51,0,0,0,80,116.32Z"/><path class="cls-1" d="M110,116.32a1.49,1.49,0,0,0-1.13-1.45,5,5,0,0,1,0-9.74,1.49,1.49,0,0,0,1.13-1.45h0a1.51,1.51,0,0,0-1.84-1.47,8,8,0,0,0,0,15.58,1.51,1.51,0,0,0,1.84-1.47Z"/><path class="cls-1" d="M140,116.32a1.49,1.49,0,0,0-1.13-1.45,5,5,0,0,1,0-9.74,1.49,1.49,0,0,0,1.13-1.45h0a1.51,1.51,0,0,0-1.84-1.47,8,8,0,0,0,0,15.58,1.51,1.51,0,0,0,1.84-1.47Z"/><path class="cls-1" d="M170,116.32a1.49,1.49,0,0,0-1.13-1.45,5,5,0,0,1,0-9.74,1.49,1.49,0,0,0,1.13-1.45h0a1.51,1.51,0,0,0-1.84-1.47,8,8,0,0,0,0,15.58,1.51,1.51,0,0,0,1.84-1.47Z"/><path class="cls-1" d="M140,146.32a1.49,1.49,0,0,0-1.13-1.45,5,5,0,0,1,0-9.74,1.49,1.49,0,0,0,1.13-1.45h0a1.51,1.51,0,0,0-1.84-1.47,8,8,0,0,0,0,15.58,1.51,1.51,0,0,0,1.84-1.47Z"/><path class="cls-1" d="M20,146.32a1.49,1.49,0,0,0-1.13-1.45,5,5,0,0,1,0-9.74A1.49,1.49,0,0,0,20,133.68h0a1.51,1.51,0,0,0-1.84-1.47,8,8,0,0,0,0,15.58A1.51,1.51,0,0,0,20,146.32Z"/><path class="cls-1" d="M50,146.32a1.49,1.49,0,0,0-1.13-1.45,5,5,0,0,1,0-9.74A1.49,1.49,0,0,0,50,133.68h0a1.51,1.51,0,0,0-1.84-1.47,8,8,0,0,0,0,15.58A1.51,1.51,0,0,0,50,146.32Z"/><path class="cls-1" d="M80,146.32a1.49,1.49,0,0,0-1.13-1.45,5,5,0,0,1,0-9.74A1.49,1.49,0,0,0,80,133.68h0a1.51,1.51,0,0,0-1.84-1.47,8,8,0,0,0,0,15.58A1.51,1.51,0,0,0,80,146.32Z"/><path class="cls-1" d="M110,146.32a1.49,1.49,0,0,0-1.13-1.45,5,5,0,0,1,0-9.74,1.49,1.49,0,0,0,1.13-1.45h0a1.51,1.51,0,0,0-1.84-1.47,8,8,0,0,0,0,15.58,1.51,1.51,0,0,0,1.84-1.47Z"/><path class="cls-1" d="M140,146.32a1.49,1.49,0,0,0-1.13-1.45,5,5,0,0,1,0-9.74,1.49,1.49,0,0,0,1.13-1.45h0a1.51,1.51,0,0,0-1.84-1.47,8,8,0,0,0,0,15.58,1.51,1.51,0,0,0,1.84-1.47Z"/><path class="cls-1" d="M170,146.32a1.49,1.49,0,0,0-1.13-1.45,5,5,0,0,1,0-9.74,1.49,1.49,0,0,0,1.13-1.45h0a1.51,1.51,0,0,0-1.84-1.47,8,8,0,0,0,0,15.58,1.51,1.51,0,0,0,1.84-1.47Z"/><path class="cls-1" d="M140,176.32a1.49,1.49,0,0,0-1.13-1.45,5,5,0,0,1,0-9.74,1.49,1.49,0,0,0,1.13-1.45h0a1.51,1.51,0,0,0-1.84-1.47,8,8,0,0,0,0,15.58,1.51,1.51,0,0,0,1.84-1.47Z"/><path class="cls-1" d="M20,176.32a1.49,1.49,0,0,0-1.13-1.45,5,5,0,0,1,0-9.74A1.49,1.49,0,0,0,20,163.68h0a1.51,1.51,0,0,0-1.84-1.47,8,8,0,0,0,0,15.58A1.51,1.51,0,0,0,20,176.32Z"/><path class="cls-1" d="M50,176.32a1.49,1.49,0,0,0-1.13-1.45,5,5,0,0,1,0-9.74A1.49,1.49,0,0,0,50,163.68h0a1.51,1.51,0,0,0-1.84-1.47,8,8,0,0,0,0,15.58A1.51,1.51,0,0,0,50,176.32Z"/><path class="cls-1" d="M80,176.32a1.49,1.49,0,0,0-1.13-1.45,5,5,0,0,1,0-9.74A1.49,1.49,0,0,0,80,163.68h0a1.51,1.51,0,0,0-1.84-1.47,8,8,0,0,0,0,15.58A1.51,1.51,0,0,0,80,176.32Z"/><path class="cls-1" d="M110,176.32a1.49,1.49,0,0,0-1.13-1.45,5,5,0,0,1,0-9.74,1.49,1.49,0,0,0,1.13-1.45h0a1.51,1.51,0,0,0-1.84-1.47,8,8,0,0,0,0,15.58,1.51,1.51,0,0,0,1.84-1.47Z"/><path class="cls-1" d="M140,176.32a1.49,1.49,0,0,0-1.13-1.45,5,5,0,0,1,0-9.74,1.49,1.49,0,0,0,1.13-1.45h0a1.51,1.51,0,0,0-1.84-1.47,8,8,0,0,0,0,15.58,1.51,1.51,0,0,0,1.84-1.47Z"/><path class="cls-1" d="M180,0H10A10,10,0,0,0,0,10V180a10,10,0,0,0,10,10H180a10,10,0,0,0,10-10V10A10,10,0,0,0,180,0ZM20,180a10,10,0,1,1,10-10A10,10,0,0,1,20,180Zm0-30a10,10,0,1,1,10-10A10,10,0,0,1,20,150Zm0-30a10,10,0,1,1,10-10A10,10,0,0,1,20,120Zm0-30A10,10,0,1,1,30,80,10,10,0,0,1,20,90Zm0-30A10,10,0,1,1,30,50,10,10,0,0,1,20,60Zm0-30A10,10,0,1,1,30,20,10,10,0,0,1,20,30ZM50,180a10,10,0,1,1,10-10A10,10,0,0,1,50,180Zm0-30a10,10,0,1,1,10-10A10,10,0,0,1,50,150Zm0-30a10,10,0,1,1,10-10A10,10,0,0,1,50,120Zm0-30A10,10,0,1,1,60,80,10,10,0,0,1,50,90Zm0-30A10,10,0,1,1,60,50,10,10,0,0,1,50,60Zm0-30A10,10,0,1,1,60,20,10,10,0,0,1,50,30ZM80,180a10,10,0,1,1,10-10A10,10,0,0,1,80,180Zm0-30a10,10,0,1,1,10-10A10,10,0,0,1,80,150Zm0-30a10,10,0,1,1,10-10A10,10,0,0,1,80,120Zm0-30A10,10,0,1,1,90,80,10,10,0,0,1,80,90Zm0-30A10,10,0,1,1,90,50,10,10,0,0,1,80,60Zm0-30A10,10,0,1,1,90,20,10,10,0,0,1,80,30Zm30,150a10,10,0,1,1,10-10A10,10,0,0,1,110,180Zm0-30a10,10,0,1,1,10-10A10,10,0,0,1,110,150Zm0-30a10,10,0,1,1,10-10A10,10,0,0,1,110,120Zm0-30a10,10,0,1,1,10-10A10,10,0,0,1,110,90Zm0-30a10,10,0,1,1,10-10A10,10,0,0,1,110,60Zm0-30a10,10,0,1,1,10-10A10,10,0,0,1,110,30Zm30,150a10,10,0,1,1,10-10A10,10,0,0,1,140,180Zm0-30a10,10,0,1,1,10-10A10,10,0,0,1,140,150Zm0-30a10,10,0,1,1,10-10A10,10,0,0,1,140,120Zm0-30a10,10,0,1,1,10-10A10,10,0,0,1,140,90Zm0-30a10,10,0,1,1,10-10A10,10,0,0,1,140,60Zm0-30a10,10,0,1,1,10-10A10,10,0,0,1,140,30Zm30,150a10,10,0,1,1,10-10A10,10,0,0,1,170,180Zm0-30a10,10,0,1,1,10-10A10,10,0,0,1,170,150Zm0-30a10,10,0,1,1,10-10A10,10,0,0,1,170,120Zm0-30a10,10,0,1,1,10-10A10,10,0,0,1,170,90Zm0-30a10,10,0,1,1,10-10A10,10,0,0,1,170,60Zm0-30a10,10,0,1,1,10-10A10,10,0,0,1,170,30Z"/><path class="cls-1" d="M170,176.32a1.49,1.49,0,0,0-1.13-1.45,5,5,0,0,1,0-9.74,1.49,1.49,0,0,0,1.13-1.45h0a1.51,1.51,0,0,0-1.84-1.47,8,8,0,0,0,0,15.58,1.51,1.51,0,0,0,1.84-1.47Z"/></g></g></svg>