<svg xmlns="http://www.w3.org/2000/svg" viewBox="0 0 120 205"><defs><style>.cls-1{fill:#231f20;}</style></defs><title>recycling-1</title><g id="Layer_2" data-name="Layer 2"><g id="Layer_1-2" data-name="Layer 1"><path class="cls-1" d="M111.57,16.28l-8-8.23A10,10,0,0,0,96.42,5h2.33A1.25,1.25,0,0,0,100,3.75,3.75,3.75,0,0,0,96.25,0H23.75A3.75,3.75,0,0,0,20,3.75,1.25,1.25,0,0,0,21.25,5h2.33a10,10,0,0,0-7.19,3.05l-8,8.23A30,30,0,0,0,0,37.13V172.87a30,30,0,0,0,8.43,20.85l8,8.23A10,10,0,0,0,23.58,205H96.42a10,10,0,0,0,7.19-3.05l8-8.23A30,30,0,0,0,120,172.87V37.13A30,30,0,0,0,111.57,16.28Zm-86,11.1-1.3,1.35A15,15,0,0,0,20,39.15V100a5,5,0,0,1-10,0V39.15a25,25,0,0,1,7-17.37l1.3-1.35A5,5,0,0,1,26.52,22h0A5,5,0,0,1,25.52,27.38Z"/></g></g></svg>