<svg  xmlns="http://www.w3.org/2000/svg" viewBox="0 0 100 100" fill="#e33400"><path d="M27.2,55.4C27.1,55.4,27.1,55.4,27.2,55.4l-1,0.1c0,0,0,0,0,0c0,0,0,0,0,0l0.7,0.7c0,0,0,0,0,0l0.8,0.1c0,0,0,0,0,0  c0,0,0,0,0,0l0.1-0.5c0,0,0,0,0,0L27.2,55.4z M45.4,71.6C45.4,71.6,45.4,71.7,45.4,71.6l-0.5,0.6c0,0,0,0,0,0c0,0,0,0,0,0l0.9,0.2  c0,0,0,0,0,0c0,0,0,0,0,0c0,0,0,0,0,0L45.4,71.6C45.4,71.7,45.4,71.6,45.4,71.6z M29.6,73.5C29.6,73.5,29.6,73.5,29.6,73.5L28,74.7  c0,0,0,0,0,0.1c0,0,0,0,0,0c0,0,0,0,0,0l2.8-0.8c0,0,0,0,0,0c0,0,0,0,0,0L29.6,73.5z M26.5,75.2l-2.8,0.2l-1.7,0.5c0,0,0,0,0,0  c0,0,0,0,0,0l3.3,0.2c0,0,0,0,0,0c0,0,0,0,0,0L26.5,75.2C26.5,75.2,26.5,75.2,26.5,75.2C26.5,75.2,26.5,75.2,26.5,75.2z M12.5,72.8  C12.5,72.8,12.4,72.8,12.5,72.8C12.4,72.8,12.4,72.8,12.5,72.8l-0.1,0.8c0,0,0,0,0,0c0,0,0,0,0,0c0,0,0,0,0,0l0.4-0.6c0,0,0,0,0,0  c0,0,0,0,0,0L12.5,72.8z M48,71.3l-1.4,0.5c0,0,0,0,0,0c0,0,0,0,0,0l0.5,0.4c0,0,0,0,0,0c0,0,0,0,0,0L48,71.3  C48.1,71.4,48.1,71.4,48,71.3C48.1,71.3,48,71.3,48,71.3z M14.8,73.9l-1-0.2c0,0,0,0,0,0c0,0,0,0,0,0l0.5,1c0,0,0,0,0,0c0,0,0,0,0,0  c0,0,0,0,0,0l0.6-0.3c0,0,0,0,0,0L14.8,73.9C14.8,73.9,14.8,73.9,14.8,73.9z M17,75C17,75,17,75,17,75C17,75,17,75,17,75l-0.2,0.9  c0,0,0,0,0,0l1.3,0.2c0,0,0,0,0,0c0,0,0,0,0,0l0.8-0.8c0,0,0,0,0,0c0,0,0,0,0,0L17,75z M78.4,69.7C78.4,69.7,78.4,69.7,78.4,69.7  l-0.1,1c0,0,0,0,0,0l0.6,0.1c0,0,0,0,0,0c0,0,0,0,0,0c0,0,0,0,0,0L78.4,69.7C78.4,69.7,78.4,69.7,78.4,69.7z M82.1,68.5  C82.1,68.5,82.1,68.5,82.1,68.5C82.1,68.5,82.1,68.6,82.1,68.5l1,2.3c0,0,0,0,0,0c0,0,0,0,0,0l0.7-0.3c0,0,0,0,0,0c0,0,0,0,0,0  L82.1,68.5z M86.8,74.2C86.8,74.2,86.8,74.2,86.8,74.2C86.8,74.2,86.8,74.3,86.8,74.2l0.1,1c0,0,0,0,0,0l0.9,0.4c0,0,0,0,0,0  c0,0,0,0,0,0c0,0,0,0,0-0.1L86.8,74.2z M80.5,66.6C80.5,66.6,80.4,66.6,80.5,66.6l-1,1.4c0,0,0,0,0,0c0,0,0,0,0,0l0.6,0.1  c0,0,0,0,0,0c0,0,0,0,0,0L80.5,66.6C80.5,66.6,80.5,66.6,80.5,66.6z M76.9,67.7l-2.3-1.1c0,0,0,0,0,0c0,0,0,0,0,0l-0.1,1.2  c0,0,0,0,0,0l1,0.2l2,1.4c0,0,0,0,0,0c0,0,0,0,0,0c0,0,0,0,0,0L76.9,67.7C76.9,67.7,76.9,67.7,76.9,67.7z M57.3,62.5l-0.5-0.6  c0,0,0,0,0,0l-1.8-0.3l-1.2,0c0,0,0,0,0,0l-1.2,2.6c0,0,0,0,0,0c0,0,0,0,0,0l0.9,0.2l0.6,0.5c0,0,0,0,0,0c0,0,0,0,0,0l2.7-1.4  l0.7,0.4c0,0,0,0,0,0c0,0,0,0,0,0L57.3,62.5C57.3,62.5,57.3,62.5,57.3,62.5z M70.9,31.4l-2.6-2c0,0,0,0,0,0L65.6,30l-4.8-2.2  c0,0,0,0,0,0L59,28l-1.6-1.1l-0.1-1.4c0,0,0,0,0,0l-1.7-0.1l-1.8-0.3l-0.9-1.4c0,0,0,0,0,0l-2.7,0.6c0,0,0,0,0,0L48.4,26l-2.6-0.2  c0,0,0,0,0,0l-3,2.6l-2.9-0.3c0,0,0,0,0,0c0,0,0,0,0,0l0.6,6.2c0,0,0,0,0,0l4.3,3.5l-2.3,1.4l-3.9-2.1l-0.2-1.1c0,0,0,0,0,0  c0,0,0,0,0,0l-5.3,1.1c0,0,0,0,0,0c0,0,0,0,0,0l2.8,2.5L33.7,41c0,0,0,0,0,0c0,0,0,0,0,0l7.9,1.5l-1.1,4.7l-4.6,1.4L35,47.4  c0,0,0,0,0,0c0,0,0,0,0,0l-2,2.2L31,51.3c0,0,0,0,0,0.1l2.1,3.5l-2.3,1.7c0,0,0,0,0,0l0.4,1.4c0,0,0,0,0,0l1.2,0.9c0,0,0,0,0,0  l1.9-1.1l-0.1,4.9c0,0,0,0,0,0l2.2,0.3l2,1.6c0,0,0,0,0,0c0,0,0,0,0,0l0.3-1.2l1.2,1.9c0,0,0,0,0,0l2.2-0.5l0,1.4l-1.2,1.9l-1.3,2  L37.9,71l-2.7,1.2l-1.5,0.9L32.7,74c0,0,0,0,0,0c0,0,0,0,0,0l2.2,0.3c0,0,0,0,0,0c0,0,0,0,0,0l2.3-2.4l2.8-0.1c0,0,0,0,0,0L42,70  l5-2.4c0,0,0,0,0,0l0.7-0.7c0,0,0,0,0,0c0,0,0,0,0,0l-1.3-0.6l0.2-1.2l3.2-2.6l4.9-3.5l2-0.1l0.5,2.3c0,0,0,0,0,0c0,0,0,0,0,0  l2.4-0.7l4.2,2.7l2,1.6c0,0,0,0,0,0l4.8-0.3c0,0,0,0,0,0L70.9,31.4C70.9,31.4,70.9,31.4,70.9,31.4z M70.9,64.8L70.9,64.8  C70.9,64.8,70.9,64.8,70.9,64.8C70.8,64.8,70.8,64.8,70.9,64.8l0.2,0.9c0,0,0,0,0,0l1.4,0.4c0,0,0,0,0,0c0,0,0,0,0,0l1.7-1.2  c0,0,0,0,0,0c0,0,0,0,0,0L70.9,64.8z"/></svg>