<svg xmlns="http://www.w3.org/2000/svg" viewBox="0 0 100 100" fill="#e33400"><path d="M80.5,74.3l0.1-0.7l1.7-1.5c0,0,0,0,0-0.1l-0.9-1.4c0,0,0,0,0,0l-1-0.5l-1.8-2.6l-0.1-0.9c0,0,0,0,0,0l-6.6-5.5L43.3,36.4  l-0.5-23.8c0,0,0,0,0,0l-24,0c0,0,0,0,0,0c0,0,0,0,0,0l1,4.8L19.2,22l-1.5,2.3c0,0,0,0,0,0l0,1.6c0,0,0,0,0,0l0.7,0.6l2.6,4.5  l0.1,0.6L21,32.2c0,0,0,0,0,0l0.9,5.4c0,0,0,0,0,0l3.5,4.2l0.3,0.8l0,1c0,0,0,0,0,0l0.2,0.4c0,0,0,0,0,0l0.9,0.7c0,0,0,0,0,0  l0.7,0.1l0.2,0.3c0,0,0,0,0,0l0.4,0.1c0,0,0,0,0,0l0.4-0.3c0,0,0,0,0,0l0.1-0.3c0,0,0,0,0,0l0.1-1.6l1.5,0.1l1.3,0.5L31,44.2  l-0.7,0.1c0,0,0,0,0,0l-0.6,0.7c0,0,0,0,0,0l0.2,0.7c0,0,0,0,0,0l1.1,2l0.1,0.5l-1.5-1.4l-0.2-0.6c0,0,0,0,0,0l-0.5-0.1c0,0,0,0,0,0  c0,0,0,0,0,0l-0.2,0.9c0,0,0,0,0,0l1.2,4.3c0,0,0,0,0,0l1,1.1c0,0,0,0,0,0l1.5,0.3l0.6,1.1l0,1.3l-0.7,0.6c0,0,0,0,0,0l0.1,1.5  c0,0,0,0,0,0l6,7.3c0,0,0,0,0,0l0.7,0.4l0.1,1.3c0,0,0,0,0,0l0.9,0.5l0.6,0.8l0.1,0.3l-0.2,0.8c0,0,0,0,0,0l0.4,2.7c0,0,0,0,0,0  l0.3,0.5c0,0,0,0,0,0l3,0.6l1.4,0.7c0,0,0,0,0,0l0.6-0.4L47,73l2.2,1l0.5,0.7c0,0,0,0,0,0l2.5,1.1l0.4,0.5c0,0,0,0,0,0c0,0,0,0,0,0  l0.3-0.7l0.5,0l1.4,1.1l0.3,1.2c0,0,0,0,0,0l0.2,0.2c0,0,0,0,0,0l1.6,0.1l5.2,4.3l0.7,1.1l0.8,4c0,0,0,0,0,0c0,0,0,0,0,0l14.9-2.2  c0,0,0,0,0,0l0.5-0.8l1,0h0c0,0,0,0,0,0l0.4-1.1c0,0,0,0,0,0l-0.1-0.8c0,0,0,0,0,0l-1.6-0.8l0.1-1c0,0,0,0,0,0l-0.4-0.6l-0.1-0.8  l0.5-0.2c0,0,0,0,0,0l0.6-1.2c0,0,0,0,0,0L80,77l0.2-0.3c0,0,0,0,0,0l-0.4-1.8L80.5,74.3C80.5,74.3,80.5,74.3,80.5,74.3z"/></svg>