<svg xmlns:dc="http://purl.org/dc/elements/1.1/" xmlns:cc="http://creativecommons.org/ns#" xmlns:rdf="http://www.w3.org/1999/02/22-rdf-syntax-ns#" xmlns:svg="http://www.w3.org/2000/svg" xmlns="http://www.w3.org/2000/svg" xmlns:sodipodi="http://sodipodi.sourceforge.net/DTD/sodipodi-0.dtd" xmlns:inkscape="http://www.inkscape.org/namespaces/inkscape" version="1.1" x="0px" y="0px" viewBox="0 0 100 100"><g transform="translate(0,-952.36218)"><path style="text-indent:0;text-transform:none;direction:ltr;block-progression:tb;baseline-shift:baseline;color:#000000;enable-background:accumulate;" d="m 72.62742,979.73477 c -1.56214,-1.56213 -4.09479,-1.56207 -5.65686,0 L 50,996.7053 33.02944,979.73477 c -1.56207,-1.56207 -4.09471,-1.56213 -5.65686,0 -1.56213,1.56213 -1.56207,4.09483 0,5.65683 l 16.97057,16.9706 -16.97057,16.9706 c -1.56207,1.562 -1.56213,4.0947 0,5.6568 1.56214,1.5621 4.09479,1.5621 5.65686,0 L 50,1008.019 l 16.97056,16.9706 c 1.56207,1.5621 4.09471,1.5621 5.65686,0 1.56213,-1.5621 1.56207,-4.0948 0,-5.6568 l -16.97057,-16.9706 16.97057,-16.9706 c 1.56207,-1.562 1.56213,-4.0947 0,-5.65683 z" fill="#e33400" fill-opacity="1" stroke="none" marker="none" visibility="visible" display="inline" overflow="visible"/></g></svg>