<svg xmlns="http://www.w3.org/2000/svg" viewBox="0 0 100 100" fill="#e33400"><polygon points="11.107,29.361 40.564,-0.215 89.795,49.41 55.914,84.008 41.222,99.037 41,97.372 41,96.253 41.178,95.383   41.112,94.637 41.265,93.395 41.819,91.903 42,90.909 42,89.79 42.215,87.305 41,87.056 41,86.311 40.969,85.441 41,84.819   41,84.074 41.24,83.328 41.12,82.706 41,81.961 41,81.215 41.302,80.221 41.05,79.351 40.488,78.481 39.524,78.605 39.166,77.735   38.925,76.741 39.053,75.995 39.304,75.249 40.3,75 40.921,75 41.667,74.721 42.661,74.612 43.079,74.248 43,73.137 43,72.391   43.345,71.521 44,70.527 44,69.781 41.187,63.567 41.302,63.029 41.464,62.532 41.296,62.035 41.212,61.372 40.963,60.792   40.631,60.046 40.217,59.466 39.803,58.969 39.388,58.555 38.808,58.223 38.394,58.72 38.726,59.466 38.643,59.88 38.063,60.212   37.4,60.295 37.151,59.88 36.82,59.217 36.654,58.555 36.737,58.058 36.488,57.56 36.157,56.98 35.743,56.4 35.411,55.993   34.831,56 34.334,56 34.003,55.838 33.837,55.125 33.506,54.603 33.174,53.927 32.926,53.341 32.594,52.592 32.18,51.845   32.014,51.016 31.683,50.104 31.6,49.4 31.352,48.529 31.103,47.949 31.02,47.452 30.854,46.872 30.689,46.541 30.274,46.127   29.777,46.022 29.114,46 28.245,46 27.706,46 27.25,46 26.215,45.556 25.303,45.261 24.475,44.865 23.646,44.336 22.735,44.237   21.989,43.815 20.995,43.231 20.083,42.566 19.669,41.819 18.841,41.239 18.261,40.659 17.681,40.161 17.266,39.747 17.018,39.084   16.769,38.504 16.604,38.007 16.438,37.427 16.189,36.847 15.775,36.267 15.195,35.77 14.781,35.356 14.367,34.859 13.869,34.279   13.455,33.533 12.792,32.87 12.544,32.124 12.212,31.462 12.047,31.047 11.881,30.467 11.325,29.639 "/></svg>