<svg xmlns="http://www.w3.org/2000/svg" viewBox="0 0 100 100" fill="#e33400"><path d="M87.6,71.1l-0.5-9.6c0,0,0,0,0,0l-6-13l-0.3-4.6c0,0,0,0,0,0l-4.9-7.3l-5.1-15.1l0.4-1c0,0,0,0,0-0.1s0,0,0,0l-4.4-0.9  c0,0-0.1,0-0.1,0l-0.7,0.9c0,0,0,0,0,0.1l0.4,1.8l-0.2,2.1l-1.1,0.1L64.7,24l-0.3-1.6c0,0,0-0.1-0.1-0.1l-25.3-1l-0.8-1.2l-0.5-1.9  c0,0,0,0-0.1,0l-24.9-0.1h0c0,0-0.1,0-0.1,0.1l-0.2,1.6c0,0,0,0,0,0.1l2.1,2.3l-0.4,1.3c0,0,0,0,0,0l0.2,1.8c0,0,0,0,0,0.1  c0,0,0,0,0.1,0l1.5-1.4l0.9-0.1c0,0,0,0,0,0l0.9-0.7l0.2,0l0,0.4l-0.5,1.3c0,0,0,0,0,0.1s0,0,0.1,0l7.1-0.9l0.7,0.3l-0.1,0.5  l-0.5,0.2c0,0,0,0,0,0c0,0,0,0,0,0.1l0.1,0.3c0,0,0,0,0,0l7.6,3.9l1.7,2.6c0,0,0,0,0,0l0.7,0.6c0,0,0,0,0.1,0l5-1c0,0,0,0,0,0  l2.5-1.3l1.1,0c0,0,0,0,0,0l0.2-0.1c0,0,0,0,0,0l0.1-0.9l0.9-0.7l2.4,0l1.7,0.6l3,3.2c0,0,0,0,0,0l0.9,0.4l0.1,1.7c0,0,0,0,0,0.1  l0.9,0.4l1.9,2.2c0,0,0,0,0,0l3.3,1.5l0.4,0.6l0.4,13.7c0,0,0,0,0,0l0.1,0.2c0,0,0,0,0.1,0l0.8,0h0c0,0,0.1,0,0.1-0.1l0.1-1.6  l0.7,0.2l0.7,0.6l-1,3.9c0,0,0,0,0,0l0.3,1.9c0,0,0,0,0,0l3.7,5.3c0,0,0,0,0,0l0.4,0.2c0,0,0,0,0.1,0l1.3-0.5l0.6,3c0,0,0,0,0,0  c0,0,0,0,0.1,0l0.8-0.3l0.1,0.1l-0.5,0.8c0,0,0,0,0,0l-0.1,0.7c0,0,0,0,0,0.1l1.7,2.2l1.4,3.5c0,0,0,0,0,0l1,1c0,0,0,0,0,0l1.6,0  l1,0.9l2,3.8l0,2.3c0,0,0,0,0,0l0.2,0.4c0,0,0,0,0,0l0.8,0.6c0,0,0,0,0,0c0,0,0,0,0,0l4.2-0.7c0,0,0,0,0,0l2.2-1.2l1.4,0.6  c0,0,0.1,0,0.1,0l0.8-1.4c0,0,0-0.1,0-0.1l-0.8-0.6L87.6,71.1C87.6,71.1,87.6,71.1,87.6,71.1z"/></svg>