<svg xmlns="http://www.w3.org/2000/svg" viewBox="0 0 100 100" fill="#e33400"><path d="M39.1,91.3c1.1,0,2-0.9,2-2V66.9c0-1.1,0.9-2,2-2h13.8c1.1,0,2,0.9,2,2v22.5c0,1.1,0.9,2,2,2H77c5.5,0,10-4.5,10-10V43.1   c0-2.2-0.9-4.3-2.5-5.9L54.7,10.6c-2.6-2.5-6.8-2.5-9.3-0.1L15.5,37.2c-1.6,1.5-2.5,3.7-2.5,5.9v38.2c0,5.5,4.5,10,10,10H39.1z    M17,81.3V43.1c0-1.1,0.5-2.2,1.2-3l29.9-26.7c1-1,2.7-1,3.8,0.1l29.8,26.6c0.8,0.8,1.3,1.9,1.3,3v38.2c0,3.3-2.7,6-6,6H62.9V66.9   c0-3.3-2.7-6-6-6H43.1c-3.3,0-6,2.7-6,6v20.5H23C19.7,87.3,17,84.6,17,81.3z"/></svg>