<svg xmlns="http://www.w3.org/2000/svg" viewBox="0 0 100 100" fill="#e33400"><path d="M74.4,67.1l-1.2-0.4l0.6-1.2c0,0,0-0.1,0-0.1L73.1,64l1-0.8c0,0,0-0.1,0-0.1l-0.2-50.2c0-0.1,0-0.1-0.1-0.1l-29.6-0.3  c0,0,0,0,0,0c0,0,0,0-0.1,0l-3.3,2.1l-2.1-0.2L36,13.2c0,0-0.1,0-0.1,0c0,0,0,0.1-0.1,0.1l-1.1,44.2l-1.5,1.2c0,0,0,0.1,0,0.1  l0.5,1.8l-1.2,1.7c0,0,0,0.1,0,0.1l1.8,3L34,67c0,0,0,0,0,0.1l0.6,2.3l-2.3,3.4c0,0,0,0.1,0,0.1l0.2,1.1L31,74.7c0,0,0,0-0.1,0.1  l-1.4,3.1l-1.2-0.2c0,0-0.1,0-0.1,0l-0.8,1.2c0,0,0,0.1,0,0.1l0.7,1.6l-1.3,0.8c0,0-0.1,0.1-0.1,0.1c0,0,0,0.1,0.1,0.1l0.6,0.2  l-0.9,0.5c0,0-0.1,0.1-0.1,0.1l0.1,2.7l-1,0.1c0,0-0.1,0-0.1,0.1c0,0,0,0.1,0,0.1l0.9,0.9l-0.7,0.3c0,0-0.1,0.1-0.1,0.1  s0,0.1,0.1,0.1l0.7,0.3c0,0,0.1,0,0.1,0l1.2,0.6c0,0,0.1,0,0.1,0l0.8-0.8c0,0,0-0.1,0-0.1l-0.4-1.5l0.5-0.3l1.2,1c0,0,0.1,0,0.1,0  l1.6-0.5l0.4,1.4c0,0,0,0.1,0.1,0.1c0,0,0.1,0,0.1,0l0.9-0.6c0,0,0-0.1,0.1-0.1l0-1.6l0.2,0.6c0,0.1,0.1,0.1,0.1,0.1l2.2-0.4  l4.1,2.9c0,0,0,0,0.1,0c0,0,0,0,0,0c0,0,0.1,0,0.1-0.1l1.4-2.3l2.8-1.3l1.1,1.7c0,0,0.1,0.1,0.1,0l1.3-0.1l0.2,1c0,0,0,0.1,0.1,0.1  c0,0,0.1,0,0.1-0.1l0.7-1.3l1-0.3c0,0,0.1-0.1,0.1-0.1l0-1.8l1.2-0.6c0,0,0.1-0.1,0.1-0.1l-0.3-1l1.8,0c0,0,0.1,0,0.1-0.1  c0,0,0-0.1,0-0.1l-0.3-0.8l0.8,0.7l0.2,1.5c0,0,0,0.1,0.1,0.1l3.3,1.8c0,0,0.1,0,0.1,0l1.9-1.4c0,0,0,0,0-0.1l0.3-2.6l1-1.8l2.2-0.3  c0,0,0.1,0,0.1-0.1l1-2.8l2.7-1.7c0,0,0.1-0.1,0.1-0.1L65,70.3l2.2-0.3l1.4,1c0,0,0.1,0,0.1,0l2.8-1.7l2.5-0.1c0.1,0,0.1,0,0.1-0.1  l0.4-1.9C74.5,67.2,74.5,67.1,74.4,67.1z"/></svg>