<svg xmlns="http://www.w3.org/2000/svg" viewBox="0 0 100 100" fill="#e33400"><path class="st0" d="M87.6,52.6C87.6,52.6,87.5,52.6,87.6,52.6c-0.1-0.1-0.1-0.1-0.1-0.1l0,0l-1.6-0.3l-0.5-0.8c0,0,0,0,0,0  l-1.1-0.5L84,49.9c0,0,0,0,0,0l-1.7-2l0.1-0.6c0,0,0,0,0-0.1l-1.8-2.1l0.6-1.1c0,0,0,0,0,0L81,41.8c0,0,0,0,0,0l-1.2-1.6  c0,0,0,0,0,0l-1.3-0.5l-0.7-2c0,0-0.1-0.1-0.1,0L76.4,38c0,0,0,0,0,0l-1.1,1.3l-1.4,0.3l-2.1-1.3c0,0,0,0-0.1,0l-1,0.4c0,0,0,0,0,0  l-0.3,0.6l-0.8-0.2l-1.3-1.4c0,0,0,0,0,0l-3.3-0.6l-0.9-2.4c0,0,0,0,0,0l-1.4-1.2c0,0,0,0-0.1,0L60.8,34l-1.1-0.8c0,0-0.1,0-0.1,0  l-1.5,1.1c0,0,0,0.1,0,0.1l0.6,1l-0.4,0.9c0,0,0,0,0,0.1c0,0,0,0,0,0l0.8,0.3l-0.2,1.1l-1.6,0.1c0,0,0,0,0,0l-1.9,1.2l-0.9-0.7  c0,0,0,0-0.1,0l-1.6,0.3c0,0-0.1,0-0.1,0.1l0.3,2.3l-1.8,1.2c0,0,0,0,0,0L50.4,44L49,44.2c0,0,0,0-0.1,0l-0.7,1.3c0,0,0,0,0,0  L48,47.3l-1.2,0.9L44.7,47l-0.1-1c0,0,0,0,0,0l-0.8-0.7c0,0-0.1,0-0.1,0c0,0,0,0.1,0,0.1l0.3,0.7l-1.2,0c0,0,0,0-0.1,0  c0,0,0,0,0,0.1l0.2,0.7l-0.8,0.4c0,0,0,0,0,0.1l0,1.2l-0.7,0.2c0,0,0,0,0,0l-0.4,0.7L40.9,49c0,0,0-0.1-0.1-0.1L40,49.1l-0.8-1.1  c0,0-0.1,0-0.1,0l-1.9,1c0,0,0,0,0,0l-0.9,1.5l-2.8-1.9c0,0,0,0-0.1,0l-1.5,0.3l-0.3-0.7c0,0,0-0.1-0.1,0c0,0-0.1,0-0.1,0.1l0,1.5  L31,49.9L30.7,49c0,0,0,0,0,0c0,0,0,0-0.1,0l-1.1,0.4l-0.8-0.7c0,0-0.1,0-0.1,0l-0.4,0.3c0,0,0,0,0,0.1l0.3,1.1l-0.5,0.5l-0.8-0.4  c0,0-0.1,0-0.1,0L25.9,52c0,0,0,0,0,0.1l0.6,2.2l-3.9,1.1c0,0,0,0-0.1,0.1l-0.3,1.4c0,0,0,0,0,0l0.8,1.7l-1,1l-4.5-2.1  c0,0-0.1,0-0.1,0l-1.9,1.8c0,0,0,0.1,0,0.1l0.5,1.4l-0.2,2.4l-1.2,2.5l-1.3-0.7c0,0,0,0-0.1,0c0,0,0,0,0,0l-0.8,1.5c0,0,0,0,0,0.1  c0,0,0,0,0.1,0l14.2,0.3h0c0,0,0,0,0.1,0c0,0,0,0,0-0.1l-0.3-2.3l2.1,0.2l0.2,0.4c0,0,0,0,0.1,0l12.7,0.1h0c0,0,0,0,0.1,0l0.5-0.5  L56,64.6c0,0,0,0,0,0l14.7-0.3l5.5-1.1c0,0,0,0,0.1,0l0.6-1.3l1.9-0.7c0,0,0,0,0-0.1l0.1-1.1l1.3-0.8c0,0,0,0,0-0.1l0.1-1l7-5.5l0,0  C87.5,52.7,87.5,52.7,87.6,52.6C87.5,52.7,87.6,52.7,87.6,52.6L87.6,52.6z"/></svg>