<svg xmlns="http://www.w3.org/2000/svg" viewBox="0 0 100 100" fill="#e33400"><path d="M76.2,56.3l-0.4-1.1c0,0,0-0.1-0.1-0.1l-1.3-0.2l0.1-0.4l0.7-1.3c0,0,0,0,0-0.1l-0.7-3.6c0,0,0-0.1-0.1-0.1  c0,0-0.1,0-0.1,0.1l-0.1,0.6l-0.9,0.2l-2-0.3l-1.9-1.1l-0.6-1l-0.5-4.6c0,0,0-0.1-0.1-0.1L65,42l-1.1-23.2c0,0,0-0.1,0-0.1L58,13.6  c0,0,0,0-0.1,0h0l-1.6,0c0,0-0.1,0-0.1,0L54.8,16l-3.6,0.9l-2.6-0.7L47.5,14c0,0,0,0,0,0l-1.6-1.3c0,0,0,0-0.1,0l-1.2-0.1  c0,0,0,0-0.1,0l-1.4,0.9c0,0,0,0,0,0l-5.7,9.6c0,0,0,0,0,0l-4.2,20.4L33,44l-2.2,2.1c0,0,0,0,0,0l-0.3,1.1c0,0,0,0,0,0.1l0.4,1.3  L30.9,49l-1.6-0.5c0,0,0,0-0.1,0L29,48.6c0,0-0.1,0.1-0.1,0.1l0,1.3l-2.1-0.9c0,0-0.1,0-0.1,0l-1.9,0.8c0,0-0.1,0.1-0.1,0.1  l1.1,15.9l0.6,16.1c0,0,0,0,0,0.1l2,2.6l-0.1,1.5c0,0,0,0,0,0.1l1.1,1.3c0,0,0,0,0.1,0c0,0,0,0,0,0c0,0,0,0,0.1,0l3.4-2.9  c0,0,0,0,0,0l3.5-5.3c0,0,0,0,0,0l0.5-2.5l1.6-1.8l1.8-0.9l0.7,0.2l0.8,1.6c0,0,0,0,0.1,0.1l0.4,0.2c0,0,0.1,0,0.1,0l0.7-1  c0,0,0,0,0,0l0.5-2.1l0.4-0.1l0.6,1c0,0,0.1,0,0.1,0h0l0.6,0c0,0,0,0,0,0l1-0.4c0,0,0,0,0.1-0.1l0.8-1.6l0.8-0.8l1.4,0.5  c0,0,0.1,0,0.1,0l0.5-0.2c0,0,0,0,0,0l1-2c0,0,0,0,0,0l0.1-1.6l0.8-1.5c0,0,0,0,0,0l0.4-2.3l1.1-0.9l0.7-0.3l0.3,0.1l0.2,1.5  c0,0,0,0,0,0l0.5,1.2c0,0,0,0,0.1,0.1l1.1,0.3c0,0,0,0,0.1,0l1.1-0.5l2.1,1.5c0,0,0.1,0,0.1,0l1-0.4c0,0,0,0,0,0l0.6-1.1l1.6-1.4  l1.1-0.1c0,0,0,0,0,0l1.4-0.7c0,0,0,0,0,0l0.6-1.3l3.5-0.8c0,0,0,0,0.1,0l0.8-0.9l1.5-0.2c0,0,0,0,0.1,0l0.7-0.7l1.7-0.3  c0,0,0,0,0.1,0l1.3-1.1c0,0,0,0,0-0.1L76.2,56.3C76.2,56.3,76.2,56.3,76.2,56.3z"/></svg>