<svg xmlns="http://www.w3.org/2000/svg" viewBox="0 0 100 100" fill="#e33400"><path d="M87.5,58.2C87.5,58.2,87.5,58.2,87.5,58.2c-0.1,0-0.1,0-0.1,0l-11.2,0.2l-1.8-27.5c0-0.1-0.1-0.1-0.1-0.1l-61.2,0  c-0.1,0-0.1,0-0.1,0.1c0,0,0,0.1,0,0.1l-0.4,11.2c0,0,0,0.1,0.1,0.1c0,0,0.1,0,0.1,0l3.4-2.2c0,0,0,0,0,0l3.1-3.5l0.9-0.4l1.4,0.8  c0,0,0.1,0,0.2,0l2.6-2.5c0,0,0,0,0,0l0.5-1.4l0.4,0.4l-0.2,0.8c0,0.1,0,0.1,0.1,0.1l2.8,1.1c0,0,0,0,0,0l1.8-0.1c0,0,0.1,0,0.1,0  l0.6-0.6c0.1,0,0.1-0.1,0-0.2l-0.4-0.4l0.6-0.2c0,0,0.1,0,0.1-0.1c0,0,0-0.1,0-0.1l-0.3-0.4l2.3-0.1c0,0,0.1,0,0.1,0l1.6-1.4l3,2  c0,0,0,0,0.1,0l2.4-0.1l0.1,0.6l-0.6,0.3c-0.1,0-0.1,0.1-0.1,0.2l0.4,1c0,0,0,0.1,0.1,0.1c0,0,0.1,0,0.1,0l0.4-0.3l0,0.6  c0,0,0,0.1,0,0.1c0,0,0.1,0,0.1,0l0.7-0.1l-0.5,1c0,0.1,0,0.1,0,0.2l1,0.6l0,1.8c0,0.1,0,0.1,0.1,0.1l3.1,0.7l1.5,1.4l-0.9,1.9  c0,0,0,0.1,0,0.1l1.1,1.4c0,0,0,0,0.1,0l2.8,0.6l0.8,1.4c0,0,0,0,0.1,0.1l1.7,0.8c0,0,0.1,0,0.1,0l1.3-1l2.1,2l-1.9,1.9  c0,0-0.1-0.1-0.1-0.1c-0.1,0-0.1,0-0.1,0.1l0,0.3c0,0,0,0.1,0,0.1l0,1.1l-1.3,0.5c0,0-0.1,0-0.1,0.1l-1.4,5.3c0,0,0,0.1,0,0.1  l0.7,0.7c0,0,0,0,0.1,0l2.3,0.5l3.4,1.8c0,0,0,0,0.1,0l1.8-0.1l1.1,1.2c0,0,0,0,0.1,0l2.2,0.6l1.6,1.7c0,0,0,0,0,0l2.1,1  c0,0,0.1,0,0.1,0c0,0,0.1-0.1,0-0.1l-1.3-5c0,0,0,0,0-0.1l-2.1-1.8l1.3-0.1c0.1,0,0.1,0,0.1-0.1l0.1-0.3c0,0,0,0,0,0L63.3,53  l0.7-8.2c0,0,0,0,0-0.1l-0.9-2.3l6.2-4.5c0,0,0,0,0,0l2-3.5l0.6,0l0.7,0.6l0.2,0.6l-0.5,1.8l-0.7,1.1l-1.5,0.8c0,0,0,0,0,0L68.9,41  c0,0,0,0,0,0.1l0,1.7c0,0,0,0,0,0.1l0.7,1.6l-0.2,1.2l-2.2,2.5c0,0,0,0.1,0,0.2l0.5,0.9c0,0,0.1,0.1,0.1,0.1l1.6,0l0.3,0.5l0.3,4.5  l-1.3,1c0,0,0,0,0,0L68,56.4c0,0,0,0,0,0l-0.2,1.6c0,0,0,0,0,0l0.5,1.9c0,0,0,0,0,0.1l2,2.2c0,0,0.1,0,0.1,0l2.5,0L74,63l1.5,3.2  l0.2,2.1c0,0,0,0.1,0,0.1l0.7,0.8c0,0,0.1,0,0.1,0c0,0,0,0,0,0l7.9-1.7c0.1,0,0.1-0.1,0.1-0.1l-0.2-2.8L87,61c0,0,0,0,0,0l0.6-2.6  C87.6,58.3,87.6,58.3,87.5,58.2z"/></svg>