<svg xmlns="http://www.w3.org/2000/svg" viewBox="0 0 100 100" fill="#e33400"><path d="M86.9,57.6C86.9,57.5,86.9,57.5,86.9,57.6l-0.5-0.8c0,0-0.1-0.1-0.2-0.1l-1.1,0.1c-0.1,0-0.1,0.1-0.1,0.2l0.2,4.3l-0.6,1.4  L82,63.4l-7.2-2.7l-1.6-4.1c0,0,0-0.1-0.1-0.1l-1.6-1.1l-0.6-4c0,0,0-0.1,0-0.1l-1.6-1.7c0,0,0,0-0.1,0L66,48l-0.4-0.6l0.3-1.9  l0.8-1.3l1.1-0.5c0,0,0.1,0,0.1-0.1l1.3-3.1l1.8-1c0.1,0,0.1-0.1,0.1-0.2l-4-7.6c0,0-0.1-0.1-0.1-0.1l-2-0.3c0,0-0.1,0-0.1,0  l-7.5,4.3l-39.2-0.1c-0.1,0-0.1,0-0.2,0.1l-5.5,19.2c0,0,0,0.1,0,0.1s0.1,0.1,0.1,0.1l14,0.2l0.6,1.1c0,0.1,0.1,0.1,0.1,0.1  c0.1,0,0.1,0,0.1-0.1l0.6-1.1l27.3,0l0.1,3.7c0,0.1,0.1,0.1,0.1,0.2l0.8,0.1l-0.1,2.5c0,0.1,0,0.1,0.1,0.1l4.8,3.4l0.6,3.4  c0,0.1,0.1,0.1,0.1,0.1l1.4,0.2c0,0,0,0,0,0c0,0,0,0,0,0l2.9-0.6c0,0,0,0,0.1,0l5.1-3.2l1.2,0.2l0.8,2.5c0,0.1,0.1,0.1,0.1,0.1  l1.9,0.2c0,0,0.1,0,0.1,0l4.5-1.7l2.2,0.2c0,0,0.1,0,0.1,0l4.3-2.7c0,0,0,0,0,0l0.6-1c0,0,0-0.1,0-0.1L86.9,57.6z"/></svg>