<svg xmlns="http://www.w3.org/2000/svg" viewBox="0 0 100 100" fill="#e33400"><path d="M86.4,30.6C86.4,30.6,86.3,30.6,86.4,30.6l-36.4,0l-24.6-1.2l-12-1c0,0-0.1,0-0.1,0l-0.8,8.8c0,0,0,0,0,0l1.8,2.7l0.2,0.9  l-0.4,0.4c0,0,0,0.1,0,0.1l0.6,0.7l-0.6,0.3c0,0,0,0,0,0c0,0,0,0,0,0L15,43l0.4,0.8c0,0,0,0,0,0l1.1,0.5l1.5,2.5c0,0,0,0,0,0  l0.7,0.6l0,0.7c0,0,0,0,0,0l0.8,0.7l0,0.5c0,0,0,0,0,0c0,0,0,0,0.1,0l0.6-0.3l0.2,0.3l-0.1,0.4c0,0,0,0,0,0.1l0.4,0.3c0,0,0,0,0,0  l1.5-0.1l-0.1,1.1l-0.4,0.2c0,0,0,0,0,0.1l0.1,0.5l-0.7,1.6c0,0,0,0,0,0l0.1,0.7l-0.4,0.2c0,0,0,0,0,0c0,0,0,0,0,0l0.3,0.5L20.9,56  c0,0,0,0.1,0,0.1l0.4,0.1l-0.1,0.5c0,0,0,0,0,0l0.2,0.3L20.2,58c0,0,0,0,0,0.1l0.3,0.6l-0.5,1.2c0,0,0,0,0,0c0,0,0,0,0,0l0.6,0.1  l0.8,0.8c0,0,0.1,0,0.1,0l0.6-0.5l0.7-0.2c0,0,0,0,0,0l0.7-0.7c0,0,0,0,0,0l0.1-0.4l1.1,0.9l-0.1,0.7c0,0,0,0,0,0.1l0.3,0.2L25,61.4  c0,0,0,0,0,0l0.3,0.5l-0.1,0.6c0,0,0,0,0,0l0.7,1l0.2,0.8c0,0,0,0,0,0l0.4,0l0.3,0.9l0,0.5l-0.3,0.3c0,0,0,0,0,0.1l0.3,0.7  c0,0,0,0,0,0l0.6,0.7c0,0,0,0,0.1,0l0.6-0.2l0.6,0.4l0.5,1.1L29,69.3c0,0,0,0,0,0.1l0.4,0.6l-0.1,0.7c0,0,0,0,0,0l1,0.9c0,0,0,0,0,0  c0,0,0,0,0,0l0.2-0.1c0,0,0,0,0-0.1L30.6,71l0.5-0.5l0.5-0.1l1.9,0.6c0,0,0.1,0,0.1,0l0.4-0.7l0.6-0.3l1,0.4c0,0,0,0,0,0l1.3-0.2  l0.4,0.4c0,0,0,0,0.1,0l0.9-0.3l1.3,0.3c0,0,0,0,0.1,0c0,0,0,0,0-0.1l-0.3-0.5l0.4-0.5c0,0,0,0,0,0l-0.1-0.4l0.6-0.4l0.3,0.2  l0.6,1.3c0,0,0,0,0,0l1,0.9c0,0,0,0,0.1,0c0,0,0,0,0,0l0.2-4.6l39.4,0.3h0l5.8-0.2c0,0,0,0,0,0c0,0,0,0,0,0L86.4,30.6z"/></svg>