<svg xmlns="http://www.w3.org/2000/svg" viewBox="0 0 100 100" fill="#e33400"><path d="M86.6,27C86.6,27,86.6,26.9,86.6,27l-2-0.8L83.3,24c0,0,0,0-0.1,0l-19.5,0.7c0,0,0,0,0,0l-0.8,0.7l-4.5,0.3c0,0,0,0-0.1,0  l-0.8,0.9l-2.6,0.5c0,0,0,0,0,0l-2.5,1.2l-2.3,0.4l-1.4-0.6c0,0,0,0-0.1,0L43.8,30l-1.4-1.3c0,0,0,0-0.1,0l-4.6-0.1c0,0,0,0,0,0  l-1.7,1.2l-2.7,0.8l-4.2-1.3l-0.6-4.1c0,0,0,0,0,0l-0.6-1.3c0,0,0,0,0,0l-2.7-1.7c0,0,0,0-0.1,0c0,0,0,0,0,0l-0.2,0.4L23,22  c0,0,0,0,0,0l-3.3,0.2c0,0,0,0,0,0l-0.6,0.4c0,0,0,0,0,0.1l-0.4,4.6c0,0,0,0,0,0.1l0.5,0.5l-0.3,1c0,0,0,0,0,0l0.1,1.9l-0.7,1.4  c0,0,0,0,0,0l-3,25.2c0,0,0,0,0,0.1c0,0,0,0,0.1,0l0.2,0l0.2,1.2l-1.1,0.7c0,0,0,0,0,0l-1,1.7c0,0,0,0,0,0l-1,4.7c0,0,0,0,0,0  l2.1,11.8c0,0,0,0.1,0.1,0.1l40.3,0.3h0l29.3-0.9c0,0,0,0,0.1,0c0,0,0,0,0-0.1l-1.1-24.3l0.7-2.5c0,0,0,0,0-0.1l-0.4-1l0.7-1.1  c0,0,0-0.1,0-0.1l-1-1.2c0,0,0,0-0.1,0l-1.9-0.2l-0.3-2.4l1.6-3.5l1.2-1.2c0,0,0,0,0,0l0.5-1.3c0,0,0,0,0,0l-0.1-1.3l1.1-2  c0,0,0,0,0,0l0.5-2.5l1.7-3.4c0,0,0,0,0-0.1L86.6,27z"/></svg>