<svg xmlns="http://www.w3.org/2000/svg" viewBox="0 0 100 100" fill="#e33400"><path d="M87.4,63.6C87.4,63.6,87.3,63.5,87.4,63.6l-3.2-4.1c0,0,0,0,0,0l-1-0.3l-0.4-2.1c0,0,0-0.1-0.1-0.1l-1.3-0.2L81,55  c0,0,0.1,0,0.1-0.1l0.1-1.3l0.9-0.5c0,0,0,0,0,0l0.6-1.5c0,0,0-0.1,0-0.1l-1-1.8l1.8-1.6c0,0,0,0,0,0l1.7-3.4l1.6-1.6  c0,0,0-0.1,0-0.1l-0.6-1c0,0,0,0-0.1,0l-3-0.9L82.2,39l0.1-2.8c0,0,0-0.1-0.1-0.1l-0.5-0.2l0.3-0.5c0,0,0-0.1,0-0.1c0,0,0,0-0.1-0.1  l-2.1-0.7l-0.3-1.3c0,0,0-0.1-0.1-0.1l-1.6-0.7c0,0,0,0,0,0l-9.6,0.2l-45,0l0.1-4.4c0,0,0-0.1,0-0.1c0,0-0.1,0-0.1,0l-2,1.3  l-2.5,0.2c0,0,0,0,0,0l-5,3.2c0,0,0,0,0,0.1l-1,38.3c0,0,0,0,0,0.1c0,0,0,0,0.1,0l13.5,0.3l47.7-0.2c0,0,0.1,0,0.1,0l1.8-2.1  l1.6-0.1l1.5,0.9c0,0,0.1,0,0.1,0l0.7-0.7l2.7-0.8c0,0,0,0,0,0l0.4-0.4c0,0,0-0.1,0-0.1l-0.2-0.7L87.4,63.6  C87.3,63.6,87.3,63.6,87.4,63.6z"/></svg>