<svg xmlns="http://www.w3.org/2000/svg" viewBox="0 0 100 100" fill="#e33400"><path d="M40.28,28.35a9,9,0,0,1,7.22-8.83V17.64a2.5,2.5,0,0,1,5,0v1.94A9.69,9.69,0,0,1,59,25.2a2.5,2.5,0,1,1-4.61,1.94A4.71,4.71,0,0,0,50,24.24c-2.27,0-4.72,1.29-4.72,4.12,0,.74,0,3,5.28,4.18l.08,0c7.89,1.84,9.07,6.44,9.07,9a9,9,0,0,1-7.21,8.83V52.3a2.5,2.5,0,0,1-5,0V50.36A9.69,9.69,0,0,1,41,44.75a2.5,2.5,0,1,1,4.61-1.94A4.71,4.71,0,0,0,50,45.71c2.27,0,4.72-1.29,4.72-4.12,0-.74,0-3-5.28-4.18l-.08,0C41.46,35.55,40.28,30.94,40.28,28.35ZM95.11,38.78A2.5,2.5,0,0,1,96,40.69V87.91a8.83,8.83,0,0,1-8.82,8.82H12.82A8.83,8.83,0,0,1,4,87.91V40.69a2.5,2.5,0,0,1,.89-1.91L17.7,28V10.25a7,7,0,0,1,7-7H75.81a7,7,0,0,1,7,7V28.38ZM82.8,34.92V45.49l6.81-4.82ZM22.7,10.25V49L50.25,68.51,77.8,49V10.25a2,2,0,0,0-2-2H24.69A2,2,0,0,0,22.7,10.25Zm-5,24.25-7.08,6,7.08,5ZM91,87.91V45.81L63,65.62,83.23,81.1a2.5,2.5,0,0,1-3,4L58.72,68.64l-7,5a2.5,2.5,0,0,1-2.89,0l-7-5L20.31,85.07a2.5,2.5,0,1,1-3-4L37.5,65.62,9,45.46V87.91a3.83,3.83,0,0,0,3.82,3.82H87.18A3.83,3.83,0,0,0,91,87.91Z"/></svg>