<svg xmlns="http://www.w3.org/2000/svg" viewBox="0 0 100 100" fill="#e33400"><path d="M89.4,39.6L50.9,21.1c-0.5-0.3-1.2-0.3-1.7,0L10.6,39.6c-0.7,0.3-1.1,1.1-1.1,1.8c0,0.8,0.5,1.5,1.2,1.8l11.1,4.8   c0,0,0,0,0,0.1v24.1c0,0.8,0.5,1.6,1.3,1.9c8.7,3.3,17.8,4.9,27,4.9s18.3-1.6,27-4.9c0.8-0.3,1.3-1,1.3-1.9V48.2c0,0,0,0,0-0.1   l11.1-4.8c0.7-0.3,1.2-1,1.2-1.8C90.5,40.7,90.1,40,89.4,39.6z M74.3,70.9c-15.7,5.5-32.8,5.5-48.5,0V49.8L49.2,60   c0.3,0.1,0.5,0.2,0.8,0.2s0.5-0.1,0.8-0.2l23.5-10.2V70.9z M50,56L16.3,41.4L50,25.2l33.7,16.2L50,56z"/></svg>