<svg xmlns="http://www.w3.org/2000/svg" viewBox="0 0 100 100" fill="#e33400"><path d="M73.1,15.2l-0.7-2.5c0-0.1-0.1-0.1-0.2-0.1l-42.8,0c-0.1,0-0.1,0-0.1,0.1c0,0-0.1,0.1,0,0.2l0.4,2.5l-1,1.7  c0,0.1,0,0.1,0,0.2l0.9,2.2l-1,5.5c0,0,0,0.1,0,0.1l2,5.3l-1,2.8c0,0,0,0.1,0,0.1l0.3,3.7l-1.5,1.6c0,0,0,0,0,0.1l-1.5,4.8  c0,0,0,0.1,0,0.1l1.6,10.3l-1.4,3.4c0,0,0,0.1,0,0.1l0.4,2.3c0,0.1,0.1,0.1,0.1,0.2c0.1,0,0.1,0,0.2,0l2.3-1.7l1.4,2.5l-1.4,23.9  c0,0,0,0,0,0.1l0.8,2.9c0,0.1,0.1,0.1,0.2,0.1l19.2,0.1h0c0.1,0,0.1,0,0.2-0.1c0-0.1,0-0.1,0-0.2l-2.2-4.2l2.2-4.7c0,0,0,0,0-0.1  l1.7-17.8l7.1-14.1c0,0,0,0,0-0.1l1.6-11.2l4.2-1.4c0,0,0.1,0,0.1,0l6.1-5.7c0,0,0,0,0.1-0.1l0.9-2.4c0,0,0-0.1,0-0.1l-2.1-5.2  l3-4.9C73.1,15.3,73.1,15.2,73.1,15.2z"/></svg>