<svg xmlns="http://www.w3.org/2000/svg" viewBox="0 0 100 100" fill="#e33400"><path d="M83.7,62l-2.9-0.5c0,0,0,0,0,0l-0.4,0.1c0,0,0,0,0,0L80,62l-1.8-0.8l0.1-0.7l1.6-0.1c0,0,0,0,0,0l0.7-0.4c0,0,0-0.1,0-0.1  l-0.3-0.7c0,0,0,0,0,0l-0.8-0.4l-0.3-1.5l0.6-0.3l0.6,0c0,0,0,0,0,0c0,0,0,0,0.1,0c0,0,0,0,0-0.1l-0.7-1.4c0,0,0,0,0,0L78.9,55  l-0.3-1.4l0.6-0.2c0,0,0,0,0-0.1l0.4-2.1c0,0,0,0,0,0l-0.2-1c0,0,0,0,0,0l-0.9-1.1c0,0,0,0,0,0l-8.1-3.9l-0.3-0.4L70,44.3l0.4-1  L71,43c0,0,0,0,0,0l0.2-1.2l0.7-0.3c0,0,0,0,0-0.1l0-1.5c0,0,0,0,0,0l-0.3-0.5c0,0,0,0,0,0l0,0c0,0,0,0-0.1,0l-1.4-0.7l-0.5-0.7  c0,0,0,0,0,0l-1.5-0.3l-0.6-0.7l0.4-1c0,0,0-0.1,0-0.1L67.2,35c0,0,0,0,0,0l-1.7-0.3c0,0-0.1,0-0.1,0l-0.7,2.1l-4.4-3.4  c0,0,0,0-0.1,0c0,0,0,0,0,0l-0.7,3.5l-2.3,2.8l-0.4-0.1c0,0-0.1,0-0.1,0l-1.1,1.7l-1.1-0.7c0,0,0,0-0.1,0c0,0,0,0,0,0l-2.4,4.9  l-1.9-0.6L49.9,44c0,0,0,0,0,0l-0.9-0.3c0,0,0,0-0.1,0c0,0,0,0,0,0l-0.4,1.8l-0.9,1.3c0,0,0,0,0,0l0,0.6l-4.3,6.7c0,0,0,0.1,0,0.1  l0.6,0.6l-0.7,0.6c0,0,0,0.1,0,0.1l0.3,0.5l-1.5,1l-0.6-0.4c0,0,0,0-0.1,0l-1.9,1l-0.9-0.5c0,0-0.1,0-0.1,0L38,57.5c0,0,0,0,0,0.1  l0.2,0.6l-0.3,0.3l-2.8,0.9l-1.3-1.1c0,0,0,0-0.1,0c0,0,0,0,0,0L33.2,59l-1.9,0.7l-1.9-0.9l-0.8-0.9l0-0.7c0,0,0,0,0,0l-0.4-0.4  l0.3-0.4c0,0,0-0.1,0-0.1L28.3,56v0c0,0,0,0,0-0.1c0,0,0,0-0.1,0l-6.7,4.7c0,0,0,0,0,0l-0.1,0.9l-1.2,0.6c0,0,0,0,0,0L20,63.2  l-1.8,0.5c0,0,0,0,0,0l-0.6,1.2l-5,1.2c0,0-0.1,0-0.1,0.1c0,0,0,0.1,0.1,0.1c0,0,0,0,0,0l64.2-0.4l7.2-0.9c0,0,0.1,0,0.1-0.1  L83.7,62C83.7,62.1,83.7,62,83.7,62z M87.5,42.2C87.5,42.2,87.4,42.2,87.5,42.2l-4,1.7c0,0,0,0,0,0.1c0,0,0,0.1,0.1,0.1l0.8,0.1  L84.2,45l-0.6,0.4c0,0,0,0,0,0l-0.9,4.7c0,0,0,0,0,0l1,3c0,0,0,0,0,0l0.4,0.3c0,0,0,0,0,0c0,0,0,0,0,0l0.8-0.3c0,0,0,0,0,0l0.4-0.5  c0,0,0,0,0,0L87.5,42.2C87.5,42.2,87.5,42.2,87.5,42.2z"/></svg>