<svg xmlns="http://www.w3.org/2000/svg" viewBox="0 0 100 100" fill="#e33400"><path d="M87.7,82l-1.3-1.7c0,0,0,0,0,0l-4.7-2.1l-2.1-2.6l0-0.7l1.1-2.2l3.1-2.4c0,0,0,0,0-0.1l0.6-4c0,0,0-0.1,0-0.1l-0.6-0.6  c0,0,0,0,0,0l-0.6-0.1c0,0,0,0-0.1,0l-3.2,1.6c0,0,0,0,0,0l-1.6,1.4l-1-0.1l-0.7-3.1c0,0,0-0.1-0.1-0.1l-0.7-0.2c0,0,0,0,0,0  L74.6,65c0,0,0,0-0.1,0l-2.1,1.7l-2.7,0.2l-2.2-1.8l0.7-2.9l3.4-1.2l8.4,2.5c0,0,0.1,0,0.1,0c0,0,0-0.1,0-0.1l-1.3-3.6c0,0,0,0,0,0  L76.9,58l-0.7-1.8l1.5-5.8c0,0,0-0.1,0-0.1c0,0-0.1,0-0.1,0c0,0,0,0,0,0l-28.8,0.5l1-1.1c0,0,0-0.1,0-0.1l-1.1-3.3l1.8-0.6  c0,0,0.1,0,0.1-0.1l0.5-1.9c0,0,0,0,0-0.1l-0.5-1.8l1.4-1.2c0,0,0,0,0-0.1l1-4.4l4-3.3c0,0,0-0.1,0-0.1l-0.3-2.1l0.9,0  c0,0,0.1,0,0.1-0.1l1.8-3.3c0,0,0-0.1,0-0.1l-3-2.4l0.1-1.6c0,0,0,0,0-0.1l-1-1.5l1.3-0.9c0,0,0,0,0-0.1c0,0,0-0.1,0-0.1l-1.2-1.1  l1.1-2.8c0,0,0-0.1,0-0.1l-1.3-0.8l0.2-0.7c0,0,0-0.1,0-0.1c0,0-0.1,0-0.1,0L13,15.2c-0.1,0-0.1,0-0.1,0.1l-0.3,17.8c0,0,0,0,0,0.1  l3,3.7l0.4,1.4l-0.3,1.9c0,0,0,0.1,0,0.1l1.5,1.4l-0.3,0.6c0,0,0,0.1,0,0.1l1.4,1.8l-0.4,0.9c0,0,0,0.1,0,0.1l1.2,2.1  c0,0,0,0,0.1,0.1l0.4,0c0,0,0,0,0,0c0,0,0,0.1,0.1,0.1l0.4,0.1l-0.3,1.5c0,0,0,0.1,0,0.1l0.6,1l-0.8,0.4c0,0,0,0-0.1,0.1  c0,0,0,0.1,0,0.1l0.6,1.1l-0.6,0.8c0,0,0,0,0,0.1l0.1,1.3l-2.6,4.7c0,0,0,0.1,0,0.1l0.5,1.7l-0.9,1.8c0,0,0,0.1,0,0.1l0.6,1.1  l0.2,2.4l-0.4,1.4l-1.1,1.2c0,0,0,0,0,0L15,70.3l-1.5,1.4c0,0,0,0.1,0,0.1l1.4,1.8c0,0,0.1,0,0.1,0l8.6-1.2l15.8,3.8  c0,0,0.1,0,0.1,0l1.8-1.6c0,0,0-0.1,0-0.1L41.2,73l0.8-0.8l2.6,0l4.4,2.2l1.9,2c0,0,0,0,0.1,0l1.7,0.4l3.2,4.6c0,0,0,0,0.1,0  l3.1,0.1l0.8,0.8c0,0,0,0,0,0l2.4,0.7c0,0,0.1,0,0.1,0l2.2-1.2l1.4,0.9c0,0,0.1,0,0.1,0l1.4-0.7l4.2,0.6c0,0,0.1,0,0.1,0l1.9-2.4  c0,0,0,0,0,0l0.4-0.9c0,0,0,0,0-0.1l-0.2-1l0.4-0.3l1.4,0l2,1.8c0,0,0,0,0,0l3.3,1.4l3,3.8c0,0,0.1,0,0.1,0c0,0,0,0,0,0l3.1-1.4  c0,0,0,0,0.1-0.1L87.7,82C87.7,82,87.7,82,87.7,82z"/></svg>