<svg xmlns="http://www.w3.org/2000/svg" viewBox="0 0 100 100" fill="#e33400"><path d="M82.6,12.6C82.6,12.6,82.6,12.6,82.6,12.6c-0.1-0.1-0.1-0.1-0.1-0.1l-4,0.8c0,0,0,0,0,0l-14.9,8.9l-4.5,0.1c0,0,0,0,0,0  l-5.2,1.8l-5.2-0.8l-0.7-0.9c0,0-0.1,0-0.1,0l-2.1,0.1l-1.3-0.4l-2-1.7c0,0,0,0,0,0l-4.1-1.5c0,0,0,0,0,0l-21.2,0  c-0.1,0-0.1,0.1-0.1,0.1l-0.4,54.1c0,0,0,0.1,0.1,0.1c0,0,0.1,0,0.1,0l1.2-0.8l1.8,1.4c0,0,0.1,0,0.1,0l2.6-0.8l2.2,2l1.4,4  c0,0,0,0.1,0.1,0.1l5.4,1.1l2.1,2.4c0,0,0,0,0.1,0L35,83c0.1,0,0.1,0,0.1-0.1l0.5-1l1.6-0.5l3.4,2.3c0,0,0.1,0,0.1,0l2.4-0.5  c0,0,0,0,0.1,0l1.9-2.1l1.9-0.6l1.1,3.3c0,0,0,0.1,0.1,0.1l2.1,0.8l1.9,2.6c0,0,0.1,0,0.1,0c0,0,0,0,0,0l4.2-0.7c0,0,0.1,0,0.1-0.1  l0.7-2.8l1.5-0.6c0.1,0,0.1-0.1,0.1-0.1L58,79.6l2.6-4.7l1.6,0.3l0.2,2.1c0,0,0,0.1,0.1,0.1c0,0,0.1,0,0.1,0l1.4-1.4l0.9,0.3  c0,0,0.1,0,0.1,0c0,0,0-0.1,0-0.1l-0.9-3l1-0.4c0,0,0.1-0.1,0.1-0.1l-0.1-1.5l1-1.8l1.7-0.4c0,0,0.1,0,0.1-0.1l1.7-2.7l1.4,1.2  c0,0,0.1,0,0.1,0l2.2-1.1c0,0,0,0,0,0l5.3-4.8c0,0,0,0,0-0.1l0.6-2.1c0,0,0-0.1,0-0.1l-0.6-0.9l1.1-1.9c0,0,0,0,0-0.1l-0.1-1  l0.6-0.1c0.1,0,0.1-0.1,0.1-0.1l0.2-3.5l1.9-4.7c0,0,0-0.1,0-0.1l-0.4-1.7l0.4-1.4c0,0,0-0.1,0-0.1l-1.2-2.4l0.5-0.7l1.7-0.6l0,0  c0.1,0,0.1-0.1,0.1-0.1L82.6,12.6z"/></svg>