<svg xmlns="http://www.w3.org/2000/svg" viewBox="0 0 100 100" fill="#e33400"><path d="M87.5,40.3c0,0,0-0.1-0.1-0.1l-0.9-0.5l0.5-1c0,0,0-0.1,0-0.1c0,0-0.1-0.1-0.1-0.1l-0.7,0.1l0-0.6c0,0,0-0.1-0.1-0.1  c0,0-0.1,0-0.1,0l-0.4,0.3l-0.3-0.6l0.6-0.3c0,0,0.1-0.1,0.1-0.1l-0.2-0.7c0-0.1-0.1-0.1-0.1-0.1l-2.2,0.2l-2.8-1.8c0,0-0.1,0-0.1,0  l-1.4,1.4L77,36.3c0,0-0.1,0-0.1,0.1c0,0,0,0.1,0,0.1l0.3,0.4l-0.6,0.2c0,0-0.1,0-0.1,0.1c0,0,0,0.1,0,0.1l0.4,0.4l-0.5,0.4  l-1.6,0.1l-2.5-0.9l0.2-0.7c0,0,0-0.1,0-0.1L71.9,36c0,0-0.1,0-0.1,0c0,0-0.1,0-0.1,0.1l-0.5,1.4L69,39.8l-1.3-0.6c0,0-0.1,0-0.1,0  l-0.9,0.4c0,0,0,0,0,0L64,42.7l-2.8,1.9l0.2-10c0,0,0-0.1,0-0.1s-0.1,0-0.1,0l-15.6,0l0.2-18.2c0,0,0-0.1,0-0.1c0,0-0.1,0-0.1,0h0  l0,0c0,0,0,0,0,0l-1.7,0.5c0,0,0,0-0.1,0l-0.6,0.7c0,0,0,0.1,0,0.1l1,2.4l-0.4,1.3c0,0,0,0,0,0.1l0.3,1.7l-2,4.3c0,0,0,0,0,0  l-0.4,3.2l-0.6,0.1c-0.1,0-0.1,0.1-0.1,0.1l0.1,1l-1.1,1.8c0,0,0,0.1,0,0.1l0.5,0.9L40,36.4l-5.2,4.3l-2,0.9l-1.3-1.3  c0,0-0.1,0-0.1,0c0,0-0.1,0-0.1,0L29.5,43l-1.7,0.3c0,0-0.1,0-0.1,0.1L26.6,45c0,0,0,0,0,0.1l0,1.4l-1,0.4c-0.1,0-0.1,0.1-0.1,0.1  l0.7,2.7l-0.7-0.3c0,0-0.1,0-0.1,0l-1.3,1.1L24,48.7c0-0.1,0-0.1-0.1-0.1l-1.7-0.4c0,0-0.1,0-0.1,0.1l-2.8,4.5c0,0,0,0.1,0,0.1  l0.5,3.2l-1.4,0.5c0,0-0.1,0-0.1,0.1l-0.8,2.7l-3.9,0.4c-0.1,0-0.1,0.1-0.1,0.1l0.1,3.3l-1.1,1.6c0,0,0,0.1,0,0.1l2.5,3.5l-0.2,0.9  c0,0,0,0.1,0,0.1l2.5,3.3l0.3,1.7c0,0,0,0.1,0.1,0.1l1.7,1l0.6,1.3c0,0,0,0.1,0.1,0.1l2.5,0.6l0.2,0.4l-0.6,0.7c0,0,0,0.1,0,0.2  l0.8,0.7l0,1.3c0,0,0,0.1,0,0.1l1.4,1.6c0,0,0,0,0,0l3.3,1.7c0,0,0,0,0.1,0c0,0,0,0,0,0l3.3-1.3c0,0,0,0,0.1,0l0.7-1.1l2.1,1.8  c0,0,0.1,0,0.1,0l4.9-1.4c0,0,0,0,0,0l0.6-0.5c0,0,0-0.1,0-0.1l-0.3-1L40,80l1.6,0.8c0,0,0.1,0,0.1,0l3.4-1.6l1.1,0.7  c0,0,0.1,0,0.1,0l2.8-1.8c0,0,0.1-0.1,0-0.1l-0.4-0.9l1.3-1.1c0,0,0,0,0-0.1c0,0,0-0.1,0-0.1l-1-1.1l4.6-6.4c0,0,0,0,0,0l1.1-3.2  l1.9-1.8c0,0,0-0.1,0-0.1l0-1l1.6-2.2c0,0,0,0,0,0l0.7-3l1.4,0.4l0.6,1.6c0,0,0,0.1,0.1,0.1l3.4,1.1c0.1,0,0.1,0,0.1-0.1l4.3-8.3  l1.8,1.2c0,0,0.1,0,0.1,0c0,0,0.1,0,0.1-0.1l1.9-2.9l0.6,0.3c0,0,0.1,0,0.1,0l1.4-1.1c0,0,0,0,0,0l2.7-3.7c0,0,0,0,0,0l1.3-5.8  l7.4,5.9c0,0,0.1,0,0.1,0c0,0,0.1,0,0.1-0.1l1.4-3.7c0,0,0,0,0,0L87.5,40.3z"/></svg>