<svg xmlns="http://www.w3.org/2000/svg" viewBox="0 0 100 100" fill="#e33400"><path class="st0" d="M84,40.5C84,40.5,84,40.5,84,40.5c-0.1-0.1-0.1-0.1-0.2,0L81,44c0,0,0,0,0,0l-0.6,3.6l-1.5,0.3c0,0,0,0,0,0  L74,52.4l0-0.8l2-4.5l1.4-1.3c0,0,0,0,0,0l1.4-2.6c0,0,0-0.1,0-0.1c0,0,0,0-0.1-0.1l-0.6,0c0,0,0,0,0,0l-1.6-1.3l0.9-2.7  c0,0,0-0.1,0-0.1l-0.3-0.6c0,0-0.1-0.1-0.1-0.1l-2.3,0.3l0.1-1.1l0.8-0.9c0,0,0-0.1,0-0.1l-0.3-1.1l0.4-0.4c0,0,0-0.1,0-0.1l-0.4-1  l0.3-0.4c0,0,0-0.1,0-0.1l-1.2-1.3c0,0,0,0,0,0l-2.4-0.7l0.4-1.1c0,0,0,0,0-0.1l-0.4-0.9c0,0,0,0-0.1-0.1l-4.8-1.5c0,0,0,0-0.1,0  l-1.4,0.4l-17.2-5.6l-1.1-2.8c0,0,0,0,0,0L46,18.8c0,0-0.1,0-0.1,0l-0.6,0.2l-0.1-0.5c0,0,0-0.1-0.1-0.1l-4.2-0.5c0,0-0.1,0-0.1,0  l-0.8,0.8l-0.2-0.4l0.7-2.3c0,0,0,0,0,0l-0.1-2c0,0,0,0,0-0.1L39,12.6c0,0-0.1,0-0.1,0L31,17.3l-2.7,0.5l-1.7-0.3l-0.8-1.4  c0,0,0,0,0,0l-1-0.9c0,0-0.1,0-0.1,0c0,0-0.1,0-0.1,0.1L24,16.6l-0.9-0.1c0,0-0.1,0-0.1,0c0,0,0,0,0,0.1l-0.3,9.7L22,27.2l-4,1.8  c0,0,0,0,0,0l-1.2,2.3l-1.1,1c0,0,0,0,0,0.1l-0.2,2.1c0,0,0,0.1,0.1,0.1L17,35l1,2.2l-1.3,2.2c0,0,0,0,0,0l0,2.9l-0.6,0.7  c0,0,0,0.1,0,0.1l0.5,2.3l-0.8,2.9c0,0,0,0.1,0,0.1l1,1.5c0,0,0,0,0,0l2.6,1.1l1.2,1.8c0,0,0.1,0,0.1,0l2-0.1l1.8,1l2.3,2.7l0.8,2.2  c0,0,0,0,0,0L33,63l1,2.3l0.4,4.7l1.9,13c0,0,0,0.1,0.1,0.1l4.3,1.6l0.7,1.6l-0.1,1.4c0,0,0,0.1,0,0.1c0,0,0,0,0.1,0l35,0  c0,0,0.1,0,0.1,0c0,0,0,0,0-0.1l-1.1-12.5l3.9-13.5c0,0,0,0,0,0l0.8-8.5l4.6-10.3c0,0,0,0,0-0.1L84,40.5z"/></svg>