<svg xmlns="http://www.w3.org/2000/svg" viewBox="0 0 103.31 104.49"><defs><style>.cls-1{fill:none;stroke:#ed1c24;stroke-miterlimit:10;stroke-width:13px;}</style></defs><title>Asset 4</title><g id="Layer_2" data-name="Layer 2"><g id="Layer_1-2" data-name="Layer 1"><path class="cls-1" d="M47.38,6.5H96.81v27S95.19,58.46,72.1,59.85s-17.09-15-38.57-15-27.25,19.4-27,27.71S13.68,97,30.76,98,58,83.41,58,83.41"/><path d="M100,2.22H51V11.7H92.49V33.29a21.31,21.31,0,0,1-6.41,15.27,22.07,22.07,0,0,1-30.93,0l-1.62-1.39a31.83,31.83,0,0,0-42.23,2,30.81,30.81,0,0,0,0,43.94,31.81,31.81,0,0,0,44.52,0l1.51-1.49-1.51-1.49-3.77-3.72-1.51-1.49L49,86.43a22.11,22.11,0,0,1-30.94,0,21.42,21.42,0,0,1,0-30.53A22.11,22.11,0,0,1,49,55.9l1.61,1.39a31.75,31.75,0,0,0,42.23-2,30.66,30.66,0,0,0,9.22-22V2.23Z"/></g></g></svg>