<svg xmlns="http://www.w3.org/2000/svg" viewBox="0 0 19 16.25" fill="#e33400"><path d="M0,12l19,0l0,1l-19,0l0,-1Zm0,-2l19,0l0,1l-19,0l0,-1Zm0,-2l19,0l0,1l-19,0l0,-1Zm0,-8l19,0l0,1l-10,0l0,1l10,0l0,1l-10,0l0,1l10,0l0,1l-10,0l0,1l10,0l0,1l-19,0l0,-7Zm8,5l-1,0l0,1l1,0l0,-1Zm-3,0l0,1l1,0l0,-1l-1,0Zm-2,0l0,1l1,0l0,-1l-1,0Zm-2,0l0,1l1,0l0,-1l-1,0Zm7,-2l-1,0l0,1l1,0l0,-1Zm-3,0l0,1l1,0l0,-1l-1,0Zm-2,0l0,1l1,0l0,-1l-1,0Zm-2,0l0,1l1,0l0,-1l-1,0Zm7,-2l-1,0l0,1l1,0l0,-1Zm-3,0l0,1l1,0l0,-1l-1,0Zm-2,0l0,1l1,0l0,-1l-1,0Zm-2,0l0,1l1,0l0,-1l-1,0Z"/></svg>